<svg width="1253" height="795" viewBox="0 0 1253 795" fill="none" xmlns="http://www.w3.org/2000/svg">
<path d="M281.403 602.353C280.138 602.835 278.887 603.449 277.592 603.78C276.044 604.181 274.657 604.906 273.431 605.972C271.591 607.57 269.703 609.112 268.011 610.864C265.823 613.133 263.396 614.795 260.534 615.677C258.041 616.454 255.937 617.898 254.171 620.005C253.382 620.949 252.478 621.795 251.689 622.757C250.009 624.754 248.076 625.975 245.553 625.792C243.915 625.684 242.559 626.522 241.412 627.796C239.632 629.791 237.769 631.728 236.136 633.857C234.401 636.097 232.281 637.465 229.759 638.035C228.448 638.328 227.091 638.395 225.749 638.556C225.688 636.599 225.527 634.64 225.617 632.686C225.708 630.639 224.896 629.4 223.34 628.579C222.296 628.032 221.237 627.465 220.193 626.918C219.3 626.429 218.628 625.701 218.095 624.732C217.708 624.009 217.168 623.397 216.646 622.766C216.564 622.67 216.245 622.72 216.109 622.811C215.973 622.903 215.8 623.181 215.831 623.332C216.015 624.163 216.147 625.069 216.517 625.809C217.08 626.93 217.847 627.942 218.511 629.008C219.759 631.027 220.486 633.166 220.334 635.739C220.198 638.331 220.363 640.948 220.461 643.564C220.47 643.94 220.831 644.304 221.041 644.666C221.081 645.983 221.105 647.281 221.163 648.598C221.224 649.709 221.451 650.879 222.224 651.553C224.79 653.786 226.217 656.879 227.323 660.136C228.129 662.483 229.212 664.385 231.23 665.554C232.322 666.178 232.935 667.3 233.277 668.604C233.792 670.476 234.643 672.26 234.518 674.289C234.361 677.125 235.253 679.361 237.106 681.26C237.893 682.066 237.97 683.233 237.363 684.255C236.255 686.113 235.596 688.093 235.433 690.346C235.336 691.867 234.904 693.344 234.69 694.844C234.495 696.212 234.805 697.441 235.723 698.4C238.985 701.812 242.246 705.225 245.525 708.619C246.279 709.405 246.728 710.335 246.874 711.429C247.208 713.955 248.688 715.226 250.702 715.774C252.383 716.241 254.135 716.52 255.853 716.781C257.004 716.954 258.194 716.865 259.346 717.02C261.132 717.244 262.722 718.047 263.964 719.539C264.634 720.342 265.202 721.237 265.89 721.984C266.708 722.903 267.506 723.972 268.516 724.519C271.016 725.886 273.121 727.733 274.846 730.156C275.92 731.663 278.083 732.271 278.275 734.381C278.425 736.057 277.838 737.794 277.619 739.519C277.501 740.382 277.517 741.266 277.399 742.129C277.239 743.46 276.811 744.73 275.956 745.653C272.707 749.104 269.801 752.975 266.077 755.871C265.145 754.799 264.078 754.627 263.021 755.546C261.216 757.108 259.427 758.708 258.079 760.824C254.52 763.836 251.402 767.459 247.68 770.261C246.406 771.213 245.407 772.622 244.311 773.86C242.941 775.411 241.604 776.983 240.25 778.554C239.839 779.016 239.312 779.419 239.05 779.977C237.107 784.244 233.544 786.654 230.325 789.429C229.048 790.531 227.905 791.58 227.501 793.396C227.076 795.38 226.007 796.901 224.708 798.285C221.031 802.197 217.568 806.283 214.925 811.212C214.003 812.942 212.558 814.098 210.662 814.323C208.163 814.611 206.338 816.304 204.809 818.266C203.125 820.432 201.363 822.371 199.06 823.697C198.213 824.188 197.478 824.963 196.793 825.739C193.642 829.304 190.197 832.488 186.801 835.748C185.624 836.89 184.415 837.9 182.945 838.603C180.073 839.956 177.442 841.802 175.118 844.18C174.264 845.047 173.326 845.893 172.31 846.474C169.297 848.2 166.969 850.785 164.77 853.58C163.499 855.209 162.341 857.029 160.369 857.722C157.91 857.692 156.307 859.164 155.239 861.53C153.029 862.369 150.867 863.379 149.043 865.034C147.219 866.69 145.235 867.985 143.025 868.88C142.13 869.239 141.248 869.822 140.548 870.523C138.926 872.126 137.128 873.312 135.215 874.402C133.861 875.183 132.698 876.4 131.537 877.543C130.342 878.703 129.1 879.713 127.444 879.698C124.934 879.685 123.032 881.076 121.385 883.073C120.853 883.702 120.289 884.292 119.741 884.921C118.748 886.029 117.628 886.815 116.218 887.012C113.466 887.37 110.998 888.618 108.769 890.416C107.272 891.626 105.624 892.026 103.851 891.971C102.698 891.929 101.524 892.018 100.372 891.882C97.6171 891.582 95.0254 892.301 92.4615 893.302C90.2999 894.274 88.1374 895.284 85.9594 896.236C82.6496 897.712 79.2048 898.413 75.6679 897.872C73.4826 897.527 71.4193 897.767 69.3755 898.704C68.4802 899.118 67.5214 899.362 66.5641 899.531C64.4313 899.902 62.4293 900.426 60.6235 902.006C59.0733 903.366 56.9959 903.475 55.1114 903.982C53.799 904.332 52.4257 903.552 51.6511 902.126C51.0545 901.005 50.5765 899.811 49.9799 898.689C49.0449 896.922 48.7987 895.018 48.9229 893.008C49.0759 890.398 49.1456 887.767 49.3324 885.138C49.4949 882.885 49.1176 880.847 48.0355 878.907C46.3552 875.921 45.4177 872.612 45.0878 869.051C44.963 867.77 44.672 866.429 44.1762 865.291C43.2803 863.242 43.1729 861.097 43.2172 858.898C43.2743 856.06 43.3151 853.202 43.4058 850.365C43.4634 848.335 43.2511 846.413 41.8754 844.919C40.5492 843.463 39.9484 841.721 39.8729 839.651C39.7955 837.675 38.2017 836.214 38.3281 834.092C38.447 832.346 38.3651 830.596 38.3668 828.847C38.377 827.512 38.202 826.23 37.6403 825.034C36.5498 822.681 36.099 820.133 35.5817 817.565C34.8054 813.733 33.7767 809.97 32.7476 806.227C32.4666 805.224 31.8996 804.292 31.3487 803.397C30.684 802.33 29.765 801.428 29.2019 800.307C28.7517 799.396 28.6071 798.265 28.4104 797.227C28.3351 796.811 28.4446 796.362 28.5202 795.931C29.0484 792.971 28.3996 790.288 27.0102 787.816C26.2672 786.485 25.8257 785.141 25.6902 783.558C25.5284 781.618 25.1154 779.692 24.8529 777.769C24.6786 776.449 24.2672 775.275 23.5189 774.207C22.0382 772.109 21.2005 769.667 21.02 766.993C20.8407 764.263 19.9669 761.951 18.2494 759.98C17.1536 758.717 16.4151 757.16 16.1329 755.387C15.851 753.595 14.9928 752.168 13.9145 750.867C13.6533 750.542 13.375 750.236 13.1134 749.93C8.97463 745.202 9.18384 746.447 8.82925 739.126C8.74471 737.507 8.13554 736.179 7.13708 735.068C6.44963 734.302 5.65955 733.647 5.04054 732.807C4.43787 731.986 3.82036 731.071 3.52221 730.088C3.14572 728.839 2.75175 727.628 2.00269 726.597C0.69964 724.822 0.289615 722.746 0.18411 720.506C0.101841 718.775 -0.114258 717.04 -0.26344 715.307C-1.81408 712.531 -1.85964 708.976 -3.83302 706.417C-4.77941 705.213 -5.10079 703.721 -5.15339 702.178C-5.22158 700.579 -5.69882 699.347 -6.88168 698.251C-8.52497 696.752 -10.0976 695.065 -11.4155 693.196C-12.7497 691.308 -15.01 690.529 -15.9333 688.179C-16.1401 687.648 -16.7336 687.204 -17.2298 686.912C-19.2316 685.762 -19.7773 683.777 -19.9152 681.48C-19.9521 680.821 -20.0396 680.18 -20.0932 679.521C-20.3498 676.47 -18.7494 674.283 -16.377 673.654C-14.2572 673.095 -12.3506 672.325 -10.468 671.084C-9.34844 670.336 -7.85736 670.253 -6.53015 669.998C-2.86787 669.3 0.684867 668.225 4.1315 666.602C7.00369 665.25 9.87627 663.879 13.0154 663.397C13.7541 663.28 14.5323 662.863 15.0953 662.329C18.0818 659.456 21.5699 658.267 25.3817 658.456C28.04 658.585 30.3492 657.766 32.5876 656.307C34.4698 655.085 36.4931 654.336 38.716 654.475C39.9193 654.556 41.0161 654.108 41.9543 653.224C42.9264 652.322 44.0677 652.157 45.2509 652.407C46.0177 652.554 46.7838 652.739 47.5332 652.923C49.0984 653.312 50.7568 653.232 52.1281 652.451C55.1242 650.763 58.4009 650.096 61.521 648.899C63.393 648.184 65.1821 647.431 66.4248 645.557C67.1672 644.425 68.2971 643.996 69.4714 643.85C71.0317 643.656 72.4813 643.14 73.9503 642.493C76.686 641.269 79.6058 640.877 82.5378 640.71C84.3973 640.616 85.9838 639.952 87.1873 638.36C88.6489 636.415 90.6897 635.628 92.6335 634.671C93.2927 634.346 94.1596 634.514 94.9302 634.473C95.6997 634.488 96.486 634.504 97.2547 634.557C99.6278 634.718 101.843 634.405 103.918 632.774C104.989 631.93 106.402 631.564 107.716 631.158C109.786 630.541 111.873 629.963 113.972 629.61C116.323 629.225 118.501 628.273 120.566 627.092C122.293 626.111 123.796 624.619 125.569 623.808C127.343 622.998 129.321 622.812 131.207 622.267C132.335 621.933 133.388 621.126 134.511 621.055C138.516 620.816 142.036 618.837 145.568 617.141C149.168 615.409 152.858 614.129 156.535 612.699C158.239 612.019 159.985 611.772 161.698 612.295C165.124 613.342 168.672 612.492 172.104 613.257C172.804 613.403 173.68 613.138 174.356 612.795C175.776 612.109 177.197 611.348 178.488 610.396C180.764 608.731 181.489 605.944 180.53 602.897C180.279 602.083 179.774 601.396 179.387 600.636C179.889 598.992 180.591 597.389 180.876 595.684C181.714 590.642 184.75 587.808 188.509 585.627C189.017 585.337 189.59 585.141 190.161 585.04C191.118 584.853 192.093 584.665 193.047 584.666C196.98 584.651 200.746 583.768 204.456 582.357C205.181 582.09 205.988 581.899 206.74 581.952C210.719 582.182 214.365 580.639 218.009 579.189C219.341 578.652 220.619 578.377 221.906 579.286C222.78 579.906 223.684 579.886 224.665 579.38C225.9 578.746 227.246 578.379 228.431 577.688C229.261 577.197 230.212 576.539 230.648 575.664C232.864 571.121 236.819 569.189 240.644 567.066C241.338 566.685 242.127 566.551 242.869 566.265C245.096 565.407 247.127 564.244 248.937 562.457C250.679 560.743 252.584 559.184 254.941 558.516C255.496 558.358 256.088 558.07 256.498 557.626C259.886 553.953 264.424 552.164 267.958 548.681C269.734 546.931 271.542 545.237 272.709 542.948C273.824 540.771 275.278 539.183 277.211 537.962C278.381 537.215 279.39 536.126 280.495 535.245C281.652 534.329 282.511 533.199 282.927 531.665C283.397 529.926 284.428 528.612 285.639 527.489C287.6 525.667 289.2 523.5 290.768 521.237C292.199 519.179 293.876 517.314 295.553 515.505C300.052 510.65 304.649 505.929 309.099 501.017C311.324 498.561 313.369 495.914 315.773 493.687C318.177 491.46 320.466 489.156 322.363 486.374C323.07 485.335 324.024 484.527 324.829 483.584C326.525 481.644 328.395 480.215 330.984 480.474C332.186 480.592 333.283 480.144 334.205 479.241C337.125 476.348 339.914 473.283 343.16 470.848C344.84 468.023 347.547 466.574 349.781 464.494C350.855 463.5 352.04 462.828 353.496 462.82C354.735 462.807 355.72 462.094 356.608 461.209C357.479 460.343 358.268 459.362 359.139 458.496C360.317 457.354 361.463 456.136 362.77 455.204C365.47 453.284 367.511 450.824 369.08 447.678C370.981 443.862 373.163 440.239 375.361 436.636C376.105 435.41 377.214 434.379 378.303 433.479C380.72 431.46 382.494 428.938 383.529 425.763C385.956 423.236 388.416 420.747 390.795 418.143C392.061 416.759 392.965 415.103 393.473 413.139C393.799 411.905 394.441 410.771 394.983 409.635C395.629 408.294 396.591 407.054 396.938 405.632C397.777 402.151 399.989 399.544 401.324 396.412C401.57 395.834 401.981 395.335 402.36 394.835C404.026 392.706 405.708 390.597 407.359 388.43C407.857 387.782 408.457 387.061 408.64 386.275C409.469 382.512 411.734 379.737 413.685 376.749C414.376 375.691 415.133 374.691 415.807 373.595C416.24 372.871 416.691 372.109 416.891 371.286C418.128 366.365 420.274 362.027 423.215 358.119C423.816 357.323 424.307 356.242 424.478 355.211C424.825 352.943 425.619 350.891 427.203 349.55C430.863 346.465 432.162 341.809 433.972 337.502C434.623 335.936 434.926 334.174 435.278 332.471C435.706 330.354 435.999 328.254 437.192 326.36C437.797 325.395 437.845 323.873 437.921 322.596C438.071 320.117 438.651 317.891 440.063 315.926C442.06 313.165 442.882 309.74 444.117 306.569C444.577 305.375 444.952 304.16 445.544 303.025C447.128 299.992 448.447 296.841 449.102 293.394C449.363 292.065 449.872 290.89 450.727 289.967C452.438 288.103 453.472 285.792 454.491 283.387C456.352 279.062 458.214 274.718 460.901 270.899C461.608 269.898 462.019 268.609 462.561 267.454C462.911 266.69 463.114 265.754 463.628 265.163C465.186 263.389 465.786 261.013 466.997 259.045C468.676 256.314 469.22 253.392 468.478 250.331C467.814 247.61 468.689 245.691 470.183 243.803C471.368 242.304 472.647 241.107 474.529 240.751C476.041 240.461 477.465 239.531 478.976 239.279C480.689 239.013 482.475 239.199 484.216 239.197C485.187 239.198 486.158 239.18 487.127 239.256C489.198 239.429 490.937 238.674 492.377 236.992C492.908 236.364 493.522 235.793 494.103 235.203C495.299 233.986 496.655 233.148 498.309 233.257C501.084 233.444 503.138 231.963 504.939 229.799C506.26 228.19 507.663 226.658 508.968 225.029C510.908 222.586 513.259 221.355 516.201 221.527C517.939 221.637 519.699 221.522 521.455 221.558C523.078 221.59 524.561 221.075 525.789 219.915C528.911 216.951 532.18 214.177 534.386 210.179C535.098 208.896 536.075 207.769 537.05 206.735C539.614 204.042 542.407 201.616 544.792 198.731C546.764 196.345 549.279 195.305 551.778 194.171C552.623 193.793 553.692 193.909 554.644 193.984C555.629 194.079 556.488 194.642 557.072 195.575C558.077 197.212 558.947 198.884 558.652 201.022C558.535 201.884 558.501 202.749 558.433 203.631C558.277 205.527 558.9 207.025 560.232 208.199C560.988 208.872 561.622 209.788 562.432 210.311C564.265 211.495 565.115 213.336 565.64 215.509C566.042 217.191 566.51 218.855 567.452 220.303C568.685 222.189 568.961 224.301 568.197 226.504C567.718 227.867 568.013 228.982 568.742 230.163C571.548 234.619 573.743 239.44 575.397 244.587C575.884 246.139 575.922 247.606 575.124 248.982C574.014 250.915 573.636 253.07 573.743 255.253C573.893 258.603 572.743 261.701 572.526 264.968C572.477 265.776 572.024 266.65 571.526 267.28C569.586 269.685 568.661 272.43 568.746 275.666C568.826 278.338 567.99 280.803 567.47 283.368C566.988 285.709 566.657 288.015 565.592 290.194C564.859 291.683 564.572 293.483 564.187 295.167C563.691 297.357 562.716 299.199 561.197 300.691C560.616 301.262 559.986 301.795 559.422 302.404C558.429 303.512 557.583 304.774 557.485 306.351C557.311 309.187 555.914 311.209 554.236 313.111C553.14 314.349 552.176 315.684 551.408 317.266C550.57 318.979 549.352 320.44 548.316 322.036C547.746 322.909 547.076 323.779 546.755 324.769C545.846 327.496 544.329 329.703 542.564 331.792C540.557 334.177 538.765 336.774 536.972 339.37C536.386 340.204 535.946 341.267 535.758 342.298C535.44 344.002 534.984 345.836 535.286 347.459C535.875 350.611 535.164 353.511 534.603 356.471C534.415 357.482 533.925 358.563 533.29 359.321C531.284 361.706 529.18 363.995 527.059 366.265C525.622 367.797 524.336 369.313 523.938 371.655C523.635 373.417 522.601 374.9 521.146 375.679C519.319 376.658 517.951 378.097 516.711 379.84C516.125 380.674 515.325 381.335 514.559 381.977C513.912 382.528 513.496 383.235 513.245 384.076C512.579 386.375 512.114 388.716 512.132 391.161C512.136 395.091 512.074 399.019 512.112 402.95C512.13 404.548 511.766 405.989 510.921 407.25C510.214 408.289 509.408 409.251 508.651 410.251C507.38 411.899 506.141 413.585 504.836 415.194C503.927 416.323 503.049 417.546 501.959 418.446C498.709 421.144 496.595 424.731 494.99 428.779C492.206 429.945 490.649 432.433 489.437 435.285C489.297 435.621 489.421 436.094 489.43 436.489L489.549 436.359C487.845 436.25 487.268 437.442 487.068 439.074L487.171 438.963C485.875 439.332 485.119 440.313 484.69 441.677L484.81 441.529C484.398 442.028 483.969 442.546 483.558 443.045C482.782 444.177 481.989 445.289 481.214 446.42C480.473 447.44 479.601 448.362 478.994 449.459C476.038 454.928 471.703 459.128 468.321 464.212C467.648 465.213 466.627 466.039 465.628 466.639C463.036 468.167 460.624 469.979 458.274 471.963C456.112 473.781 453.721 475.331 451.269 476.616C449.442 477.576 447.929 478.768 446.639 480.472C445.384 482.139 443.948 483.633 442.628 485.223C441.547 486.537 440.37 487.622 438.82 488.136C438.264 488.313 437.707 488.565 437.199 488.875C434.216 490.733 431.794 493.015 430.959 497.06C430.125 501.067 427.889 504.068 424.832 506.319C422.08 508.351 419.633 510.99 416.269 511.844C415.714 511.983 415.122 512.31 414.728 512.753C412.278 515.562 408.932 517.205 406.808 520.453C404.926 523.349 402.227 525.231 399.596 527.077C398.17 528.064 396.321 528.478 394.608 528.763C391.535 529.265 388.42 529.409 385.332 529.817C383.403 530.06 381.503 530.511 379.588 530.848C377.539 531.202 375.979 532.242 375.096 534.518C374.443 536.198 373.201 537.244 371.601 537.739C370.674 538.04 369.747 538.397 368.851 538.849C368.158 539.192 367.38 539.59 366.899 540.201C363.137 545.014 358.136 548.185 354.097 552.635C353.258 553.558 352.143 554.1 350.952 554.245C348.906 554.467 347.309 555.639 345.807 557.113C344.645 558.274 343.386 559.32 342.176 560.424C341.732 560.829 341.123 561.155 340.861 561.695C338.96 565.549 335.59 567.493 332.516 569.744C330.087 571.519 327.303 572.666 324.696 574.099C323.647 574.679 322.484 575.088 321.614 575.917C319.311 578.089 316.529 579.105 313.859 580.386C312.964 580.82 311.89 580.967 311.207 581.63C309.756 583.049 308.177 583.318 306.354 583.3C303.241 583.275 300.14 583.551 297.025 583.639C295.769 583.689 294.787 584.289 293.93 585.25C292.407 586.949 290.899 588.667 289.409 590.386C288.998 590.848 288.503 591.308 288.308 591.887C287.117 595.341 284.796 597.589 282.081 599.452C281.08 600.127 281.224 601.259 281.403 602.353Z" fill="#31A5F0"/>
<path d="M217.159 270.125C216.048 270.479 214.856 270.681 213.824 271.224C211.947 272.183 210.07 272.295 208.122 271.824C207.938 271.782 207.74 271.666 207.556 271.662C203.359 271.502 199.591 269.978 196.093 267.464C195.12 266.767 193.972 266.424 192.929 265.877C190.296 264.508 187.593 263.25 185.047 261.694C183.89 260.994 183.012 259.717 182.063 258.626C181.212 257.668 180.306 256.992 179.089 256.742C177.955 256.531 176.879 255.945 175.746 255.716C173.929 255.341 172.547 254.185 171.252 252.842C169.121 250.618 167.024 248.376 164.568 246.54C163.084 245.439 161.665 244.432 159.808 244.414C158.603 244.408 157.459 243.877 156.71 242.828C154.269 239.395 150.764 238.12 147.258 236.865C145.995 236.407 145.241 235.64 145.018 234.225C144.81 232.943 144.669 231.642 144.46 230.36C144.342 229.567 143.587 228.857 142.802 228.784C141.632 228.686 140.464 228.53 139.308 228.564C137.232 228.616 135.526 227.773 134.051 226.201C133.772 225.914 133.443 225.663 133.113 225.411C132.272 224.774 131.72 223.936 131.61 222.768C131.18 218.378 129.368 214.449 128.314 210.272C128.035 209.157 127.296 208.447 126.454 207.866C124.606 206.588 123.925 204.656 124.04 202.289C124.243 198.006 123.319 194.039 121.198 190.518C119.935 188.405 119.512 186.159 119.779 183.682C119.901 182.594 119.857 181.484 119.979 180.415C120.282 177.826 119.722 175.728 117.643 174.219C116.637 173.484 116.211 172.216 115.869 170.93C115.137 168.227 114.321 165.54 113.538 162.836C113.304 162.004 113.019 161.189 112.903 160.322C112.158 154.948 111.061 149.586 111.707 144.071C111.808 143.227 111.777 142.267 111.491 141.51C110.457 138.838 110.33 135.996 110.002 133.187C109.703 130.587 109.471 127.987 109.289 125.37C109.21 124.297 109.283 123.189 109.388 122.119C109.688 118.853 110.055 115.608 110.388 112.343C110.658 109.735 111.012 107.147 111.181 104.537C111.401 101.138 112.413 98.2061 114.44 95.6145C116.502 92.986 118.498 90.2622 120.279 87.4025C122.718 83.4841 125.536 79.8179 126.77 75.0292C127.478 72.2982 129.296 70.1161 130.55 67.6593C131.701 65.3886 132.039 62.7066 133.389 60.4962C136.574 55.2579 139.577 49.9032 143.93 45.6474C147.31 42.3497 150.298 38.5553 153.433 34.9519C153.981 34.3236 154.597 33.6591 154.847 32.8932C155.635 30.3142 157.263 28.4292 158.71 26.3712C159.554 25.166 160.366 23.9225 161.046 22.5824C163.747 17.2779 167.772 13.5232 172.383 10.5512C174.079 9.45721 175.676 8.24839 177.339 7.1161C178.493 6.31201 179.68 5.56497 180.899 4.875C182.151 4.16692 183.442 4.06131 184.858 4.39067C187.141 4.88792 189.472 5.44255 191.768 5.31955C194.381 5.16537 196.777 5.8905 199.224 6.52268C200.539 6.86882 201.834 7.36503 203.166 7.69271C204.698 8.08082 206.263 8.48839 207.375 9.77059C208.978 11.6268 211.643 10.6086 213.108 12.6313C214.329 14.3105 215.484 15.9696 217.408 16.8169C218.254 17.1912 218.835 18.2559 219.54 19.0034C221.438 23.6484 225.017 26.2212 228.856 28.4045C229.683 28.8724 230.734 29.0628 231.672 29.0253C234.57 28.8769 236.41 30.5874 237.882 33.0802C238.303 33.8032 238.638 34.5997 239.076 35.323C239.286 35.6657 239.629 36.0863 239.946 36.1302C242.832 36.5832 245.071 39.2795 248.188 39.0603C248.875 39.0177 249.685 39.5041 250.277 40.0049C252.631 41.989 255.213 43.3949 257.987 44.4097C259.001 44.7686 259.674 45.4214 260.071 46.4824C260.451 47.5242 261.139 48.2714 261.981 48.8712C263.779 50.1484 265.472 51.6868 267.393 52.6844C269.413 53.7405 270.973 55.2385 272.29 57.1642C272.761 57.8506 273.181 58.5923 273.687 59.2606C274.583 60.4444 275.619 61.3866 277.017 61.7533C277.949 61.9977 278.896 62.3364 279.757 62.805C280.237 63.0779 280.711 63.6515 280.883 64.2191C281.323 65.657 281.543 67.1845 281.932 68.6402C282.352 70.2469 283.302 71.2625 284.804 71.4808C285.772 71.6131 286.742 71.6327 287.712 71.671C288.715 71.71 289.457 72.2515 290.281 72.9073C292.67 74.7418 294.542 77.3742 297.243 78.726C297.574 78.9019 297.868 79.2651 298.095 79.6081C299.638 81.952 301.731 83.5172 304.015 84.7854C305.521 85.6242 306.295 87.0877 306.813 88.7904C307.19 90.0201 307.482 91.3046 307.927 92.4982C308.211 93.3124 308.749 94.019 309.601 94.1114C311.104 94.2921 312.089 95.2332 312.746 96.6755C313.515 98.3457 314.581 99.4577 316.391 99.3249C317.95 99.2059 318.899 100.278 319.676 101.591C319.886 101.953 320.079 102.351 320.221 102.749C322.03 107.655 325.165 111.554 327.926 115.728C328.38 116.414 328.988 117.009 329.614 117.492C332.186 119.405 334.359 122.006 337.434 123.064C338.331 123.383 339.154 124.077 339.91 124.75C340.502 125.27 341.209 125.923 341.394 126.679C342.091 129.495 344.043 131.452 345.079 133.993C346.306 137.063 347.927 139.672 350.725 141.157C351.222 141.431 351.629 141.984 351.987 142.499C352.475 143.205 352.542 143.996 352.356 144.951C351.963 147.03 350.185 148.047 349.497 149.801C348.809 151.573 348.869 153.549 348.029 155.393C345.876 160.069 343.163 164.321 340.566 168.65C339.562 170.303 338.675 171.94 338.218 173.886C337.668 176.244 336.854 178.465 335.295 180.239C334.13 181.569 333.679 183.177 333.543 184.979C333.427 186.575 332.748 187.878 331.722 188.985C331.157 189.595 330.658 190.28 330.045 190.813C327.388 193.11 326.187 196.245 325.796 199.847C324.476 200.61 323.897 201.933 323.615 203.47L323.735 203.322C320.901 204.449 319.083 206.631 318.248 209.867C317.941 210.124 317.602 210.343 317.328 210.657C313.477 214.923 309.675 219.247 305.774 223.455C303.824 225.559 301.711 227.453 299.679 229.443C299.309 229.549 298.907 229.578 298.601 229.798C296.173 231.516 294.252 233.847 292.725 236.542C292.482 236.989 292.7 237.764 292.688 238.384C292.49 239.903 291.813 241.112 290.773 242.088C289.919 242.898 289.034 243.651 288.165 244.442C287.439 244.728 286.844 245.224 286.526 246.045L286.629 245.915C285.86 245.881 285.054 246.015 284.339 245.775C282.344 245.114 280.642 245.682 278.83 246.773C276.797 247.992 274.62 248.907 272.428 249.728C268.937 251.049 265.654 252.845 262.419 254.754C261.403 255.354 260.371 255.916 259.322 256.478C257.766 257.311 256.193 258.126 254.62 258.959C253.161 259.099 252.185 260.188 251.161 261.183C250.086 262.233 248.736 262.789 247.4 262.649C245.112 262.415 242.775 262.913 240.515 262.116C239.153 261.637 237.792 261.911 236.636 262.809C234.782 264.257 232.718 264.554 230.559 264.566C229.789 264.57 229 264.685 228.25 264.539C225.866 264.096 223.658 264.879 221.449 265.718C219.793 265.647 219.064 266.967 218.383 268.345L218.435 268.252C217.987 268.92 217.538 269.607 217.089 270.275L217.159 270.125Z" fill="#31A5F0"/>
<path d="M1139.29 287.422C1139.29 289.095 1139.29 290.769 1139.31 292.443C1138.72 293.333 1138.79 294.275 1139.15 295.241C1139.2 296.107 1139.29 296.974 1139.32 297.858C1139.4 300.642 1140.25 302.935 1142.52 304.409C1143.42 304.992 1143.71 306.013 1143.87 307.144C1144.15 309.068 1144.59 310.976 1144.89 312.9C1145.23 315.125 1146.01 317.059 1147.45 318.649C1148.48 319.798 1148.89 321.216 1148.76 322.83C1148.56 325.214 1148.64 327.604 1148.13 329.982C1147.22 334.081 1147.34 338.22 1148.87 342.181C1150.44 344.074 1150.49 346.519 1150.77 348.894C1150.87 349.724 1151.09 350.743 1151.58 351.28C1153.1 352.965 1153.24 355.017 1153.42 357.221C1153.6 359.725 1152.01 361.611 1150.16 361.837C1147.09 362.208 1144.06 363.388 1140.91 362.478C1140.55 362.377 1140.14 362.5 1139.76 362.511C1135.02 362.548 1134.97 362.49 1131.26 365.687C1129.64 367.084 1127.93 367.971 1125.91 367.855C1122.05 367.645 1118.67 369.157 1115.46 371.367C1114.8 371.824 1114.14 372.281 1113.48 372.756C1112.46 373.488 1111.32 373.709 1110.14 373.798C1109.76 373.828 1109.35 373.839 1108.97 373.794C1104.66 373.218 1100.89 374.533 1097.71 377.91C1096.84 378.833 1095.66 379.185 1094.48 379.293C1093.13 379.416 1091.77 379.577 1090.41 379.493C1087.67 379.325 1085.02 379.855 1082.31 380.364C1076.95 381.384 1071.7 382.914 1066.27 383.595C1063.41 383.951 1060.63 385.192 1057.91 386.341C1056.49 386.933 1055.25 388.111 1054 389.139C1052.88 390.075 1051.73 390.898 1050.31 390.832C1046.24 390.656 1042.88 393.183 1039.16 394.33C1037.2 395.871 1034.91 396.445 1032.67 397.171C1031.93 397.4 1031.22 397.818 1030.51 398.143L1030.63 397.863L1030.9 397.925C1029.97 398.451 1029.04 398.959 1028.13 399.467C1026.14 400.048 1024.15 400.591 1022.18 401.247C1021.71 401.406 1021.33 401.981 1020.9 402.368C1019.78 402.552 1018.65 402.755 1017.53 402.939L1017.88 402.777C1015.15 403.719 1012.46 404.736 1010.12 406.682C1008.86 407.729 1007.43 408.283 1005.89 408.421C1004.31 408.577 1002.97 409.34 1001.75 410.387C998.97 411.233 996.208 412.118 993.824 414.176C993.125 414.782 992.05 415.005 991.127 415.118C989.936 415.263 988.892 415.581 987.97 416.484C986.28 418.142 984.243 418.74 982.052 418.677C979.811 418.594 977.904 419.402 976.166 420.947C975.842 421.222 975.462 421.816 974.885 421.353C973.573 421.703 972.244 422.033 970.964 422.44C969.684 422.847 968.306 423.157 967.169 423.905C965.27 425.146 963.284 425.689 961.123 425.814C958.258 426.001 955.393 426.131 952.578 427.146C950.96 427.734 949.155 427.585 947.428 427.776C947.148 427.564 946.929 427.634 946.772 427.951C944.94 428.346 943.107 428.742 941.259 429.137C939.339 428.873 937.331 428.87 935.486 428.25C932.561 427.27 929.339 426.848 927.292 423.798C924.287 421.782 921.3 419.71 917.617 419.73C916.429 419.743 915.222 419.869 914.429 420.982C912.913 423.132 910.783 424.218 908.636 425.265C907.521 425.806 906.382 425.859 905.219 425.459C904.654 425.26 904.018 425.247 903.539 424.918C900.733 422.981 897.349 422.33 894.823 419.778C894.102 419.049 893.156 418.635 892.134 418.709C888.731 418.979 885.634 417.393 882.526 416.315C878.604 414.958 874.73 413.676 870.598 413.631C868.874 413.615 867.622 412.668 866.971 410.888C866.352 409.239 865.408 407.904 864.244 406.715C863.391 405.833 862.557 404.895 861.892 403.847C860.869 402.266 860.154 400.371 858.995 398.956C857.835 397.541 856.231 396.607 854.884 395.357C852.551 393.204 851.321 390.246 850.582 387.054C850.29 385.769 849.93 384.559 849.299 383.455C848.588 382.2 848.831 380.964 849.441 379.754C849.633 379.363 849.874 379.011 850.033 378.619C851.665 374.872 854.143 372.29 857.795 371.273C858.166 371.168 858.554 371.006 858.876 370.768C861.118 369.159 863.585 368.814 866.156 369.091C867.342 369.228 868.5 369.063 869.407 368.066C870.587 366.792 872.087 366.277 873.633 365.989C875.732 365.598 877.865 365.228 879.993 365.101C882.054 364.992 883.777 364.162 885.296 362.689C886.474 361.546 887.587 360.309 888.715 359.11C891.417 356.268 894.086 353.37 896.869 350.624C899.516 348.008 902.292 345.619 905.999 345.149C906.721 345.05 907.533 344.634 908.079 344.081C910.402 341.759 912.953 339.742 915.015 337.057C917.043 334.409 919.171 331.819 921.771 329.822C922.57 329.218 923.158 328.29 923.875 327.552C925.84 325.542 927.059 323.216 926.921 320.092C926.831 317.89 927.193 315.735 928.269 313.801C928.912 312.649 929.005 311.334 929.015 309.999C929.025 308.683 929.068 307.368 929.094 306.071C929.138 304.718 929.481 303.503 930.305 302.467C930.7 301.986 931.061 301.467 931.472 301.005C932.5 299.86 932.913 298.458 932.928 296.86C932.977 293.589 933.043 290.3 933.109 287.03C933.158 284.624 933.24 282.219 933.255 279.812C933.277 277.03 934.194 274.735 935.94 272.777C938.56 269.841 941.146 266.884 943.766 263.928C944.725 262.838 945.669 261.71 946.693 260.716C948.656 258.8 949.889 256.587 950.501 253.61C951.411 249.134 954.218 246.032 957.711 243.771C958.576 243.205 959.274 242.599 959.812 241.632C961.583 238.452 963.979 235.849 966.455 233.379C968.06 231.776 969.894 230.478 972.218 230.6C973.639 230.666 974.872 230.108 975.948 229.039C977.331 227.657 979.014 227.183 980.806 227.125C983.15 227.059 985.401 226.653 987.691 225.929C990.1 225.15 992.681 224.957 995.213 225.554C997.212 226.026 999.067 225.312 1000.97 224.88C1002.38 224.551 1003.27 223.309 1004.41 222.486C1005.43 221.754 1006.49 221.381 1007.73 221.594C1009.06 221.828 1010.43 221.93 1011.78 222.07C1014.11 222.305 1016.39 222.107 1018.74 221.759C1026.25 220.651 1033.76 219.298 1041.38 219.79C1043.57 219.928 1045.61 219.536 1047.52 218.165C1048.1 217.763 1049.06 217.763 1049.77 217.966C1051.09 218.312 1052.42 218.771 1053.59 219.49C1055.56 220.677 1057.54 221.187 1059.76 220.743C1063.23 220.079 1066.72 220.526 1070.2 220.539C1074.5 220.57 1078.66 221.744 1082.93 221.698C1084.12 221.685 1085.23 222.083 1086.26 222.762C1086.75 223.092 1087.32 223.329 1087.79 223.695C1090.76 226.087 1094.14 226.832 1097.69 226.903C1099.64 226.943 1101.55 227.319 1103.42 227.921C1105.59 228.604 1107.35 229.805 1108.24 232.211C1108.72 233.481 1109.44 234.398 1110.51 235.059C1112.97 236.575 1114.72 238.866 1116.03 241.619C1116.4 242.379 1116.74 243.194 1117.19 243.88C1118.02 245.138 1119.09 246.062 1120.49 246.391C1122.57 246.884 1124.67 247.34 1126.77 247.853C1128.57 248.284 1129.92 249.477 1131.04 251.06C1131.77 252.109 1132.38 253.212 1132.42 254.585C1132.49 257.125 1133.23 259.208 1135.11 260.807C1135.83 261.423 1136.4 262.506 1136.66 263.489C1137.22 265.663 1138.22 267.432 1139.63 269.002C1140.3 269.749 1140.75 270.773 1141.32 271.649C1141.92 272.602 1142.05 273.657 1141.71 274.741C1141.39 275.769 1140.98 276.776 1140.61 277.765C1140.04 279.596 1139.37 281.369 1137.95 282.656C1137.66 282.933 1137.42 283.266 1137.16 283.599C1136.7 284.229 1136.74 285.377 1137.35 285.935C1137.95 286.605 1138.65 286.976 1139.29 287.422Z" fill="#31A5F0"/>
<path d="M934.822 694.747C925.864 694.943 928.475 694.131 920.162 698.043C917.848 699.125 915.613 700.434 913.074 701.022C911.426 701.402 909.928 702.67 908.434 703.693C906.585 704.934 904.755 706.063 902.523 706.356C900.543 706.617 898.78 707.766 897.377 709.28C895.445 711.328 893.165 712.354 890.659 712.962C889.902 713.153 889.161 713.42 888.402 713.668C888.032 713.792 887.595 713.859 887.322 714.135C884.129 717.305 880.461 719.958 878.693 724.604C878.234 725.798 877.857 727.088 877.167 728.108C875.959 729.927 875.266 731.906 875.038 734.12C874.952 735.04 874.452 735.782 873.725 736.143C869.888 738.059 867.075 741.462 864.083 744.579C862.34 746.387 860.75 748.047 858.341 748.826C856.118 749.533 854.032 750.883 852.015 752.177C850.438 753.18 848.884 753.882 847.062 753.789C845.624 753.722 844.406 754.374 843.332 755.387C843.178 755.534 843.025 755.644 842.872 755.791C838.48 760.291 838.17 759.89 832.299 759.771C827.631 759.677 822.942 759.846 818.296 759.527C814.569 759.283 811.414 760.573 808.471 762.939C808.318 763.068 808.148 763.196 808.011 763.344C805.7 765.892 803.23 765.579 800.479 764.245C797.28 762.695 793.96 761.387 790.655 760.136C789.193 759.58 787.627 759.248 786.105 759.161C782.412 758.936 778.713 758.936 775.016 758.843C773.662 758.816 772.289 758.826 770.935 758.742C767.242 758.499 764.249 756.708 761.869 753.539C760.24 751.363 758.949 748.949 757.558 746.589C754.03 740.595 751.623 733.834 747.62 728.169C747.05 727.368 746.74 726.177 746.71 725.142C746.604 722.094 746.633 719.03 746.744 715.967C746.793 714.37 747.62 713.202 748.844 712.249C752.024 709.774 755.317 707.453 758.204 704.54C759.126 703.6 760.206 703.189 761.395 703.138C763.238 703.043 764.744 702.209 766.078 700.788C768.113 698.61 770.517 697.229 773.351 696.948C775.196 696.759 776.705 695.774 778.004 694.428C779.44 692.953 780.942 691.479 782.065 689.715C783.708 687.097 785.999 685.526 788.292 683.861C789.31 683.13 790.422 682.776 791.61 682.781C795.492 682.784 799.398 682.487 803.224 683.617C805.337 684.242 807.445 684.266 809.58 683.801C812.823 683.114 816.155 683.05 819.311 681.741C820.188 681.382 821.225 681.441 822.177 681.498C823.348 681.559 824.497 681.826 825.649 681.944C826.868 682.081 827.997 681.69 828.87 680.711C831.969 677.257 833.018 676.677 838.366 677.894C840.048 678.285 841.857 678.227 843.584 678.055C847.458 677.644 851.35 677.178 855.09 675.955C857.566 675.14 860.063 674.984 862.604 675.091C864.945 675.195 867.271 675.223 869.613 675.251C871.403 675.269 873.118 674.908 874.518 673.508C876.089 671.941 877.809 671.299 879.889 671.886C881.37 672.292 882.539 671.582 883.469 670.285C885.432 667.579 887.608 665.047 888.482 661.51C889.229 658.498 890.62 655.913 892.672 653.754C893.219 653.163 893.554 652.324 893.987 651.599C894.649 651.143 895.393 650.782 895.956 650.21C900.126 645.932 904.312 641.654 908.155 636.974C908.961 635.994 909.601 634.954 909.78 633.566C909.881 632.703 910.182 631.882 910.383 631.04C910.824 629.093 911.628 627.417 912.978 626.015C914.978 623.931 916.798 621.636 918.831 619.589C920.658 617.746 921.907 615.59 922.013 612.828C922.09 610.648 922.99 609.162 924.389 607.818C925.567 606.676 926.581 605.342 927.694 604.105C929.765 601.796 931.624 599.239 934.219 597.561C934.388 597.452 934.575 597.343 934.695 597.176C936.954 593.856 939.884 591.283 942.602 588.46C943.354 587.686 943.643 586.62 943.716 585.512C943.852 583.728 944.402 582.179 945.369 580.713C947.095 578.078 948.444 575.115 951.089 573.382C953.093 570.282 955.845 568.251 958.857 566.619C959.618 566.202 960.067 565.497 960.252 564.635C960.678 562.594 961.879 561.152 963.275 559.939C964.025 559.277 964.922 558.769 965.832 558.449C966.945 558.057 968.104 557.855 969.261 557.709C972.936 557.238 976.607 556.917 980.266 556.37C983.153 555.94 986.028 555.302 988.901 554.72C989.456 554.6 989.998 554.291 990.507 553.963C991.015 553.635 991.459 553.211 991.919 552.807C996.414 548.986 996.215 548.907 1002.08 549.251C1005.78 549.457 1009.45 549.625 1013.05 548.287C1013.75 548.019 1014.61 548.018 1015.34 548.164C1017.12 548.557 1018.85 548.178 1020.54 547.686C1022.49 547.105 1024.33 547.048 1026.22 547.97C1027.73 548.715 1029.27 548.539 1030.67 547.457C1031.91 546.505 1033.18 546.436 1034.51 547.178C1035.2 547.568 1035.98 547.771 1036.63 548.217C1038.34 549.38 1040.22 549.944 1042.18 549.833C1045.57 549.638 1048.57 551.635 1051.9 551.759C1055.95 553.269 1060.26 553.732 1064.22 555.636C1065.62 556.303 1067.23 556.542 1068.77 556.667C1071.53 556.873 1074.21 557.51 1076.72 558.595C1079.87 559.956 1083.14 560.511 1086.42 560.577C1090.16 560.652 1093.76 561.364 1097.32 562.376C1099.62 563.024 1101.87 563.445 1104.23 563.361C1107.58 563.24 1110.82 563.701 1113.88 565.342C1115.09 565.987 1116.42 566.446 1117.72 566.867C1119.01 567.288 1120.34 567.691 1121.68 567.793C1123.64 567.945 1125.54 568.228 1127.44 568.68C1131.04 569.523 1134.65 570.367 1138.37 570.291C1139.5 570.276 1140.72 570.508 1141.78 570.98C1145.71 572.79 1149.85 574.189 1153.1 577.507C1153.84 578.256 1154.73 578.574 1155.66 578.932C1157.31 579.566 1159.09 580.11 1160.44 581.228C1162.35 582.827 1164.39 583.714 1166.65 584.512C1168.99 585.349 1171.22 586.729 1173.6 587.66C1174.29 587.937 1174.95 588.534 1175.49 589.146C1176.86 590.716 1178.33 592.024 1180.32 592.572C1181.17 592.814 1182.03 593.659 1182.59 594.479C1185.02 598.006 1187.94 600.735 1191.64 602.464C1192.7 602.956 1193.65 603.765 1194.58 604.554C1196.57 606.286 1198.55 608.038 1200.46 609.9C1201.79 611.205 1203.17 612.23 1204.88 612.922C1206.87 613.752 1208.7 615.086 1209.99 617.068C1211.04 618.706 1212.36 619.898 1213.98 620.739C1215.04 621.287 1216.03 622.003 1217.09 622.532C1219.43 623.688 1221.33 625.325 1223.12 627.486C1225.73 630.66 1228.67 633.52 1231.98 635.9C1234.26 637.525 1236.31 639.579 1238.33 641.593C1239.16 642.438 1239.76 643.653 1240.3 644.792C1240.53 645.286 1240.53 646.151 1240.28 646.635C1239.83 647.584 1239.01 648.301 1238.56 649.251C1237.37 651.747 1235.45 652.328 1233.16 652.263C1230.97 652.201 1228.89 651.632 1227.09 650.242C1225.1 648.717 1223.06 647.829 1220.56 648.005C1219.25 648.11 1217.85 647.706 1216.57 647.266C1212.45 645.848 1208.23 645.274 1203.95 645.113C1196.93 644.859 1189.98 644.117 1183.36 641.22C1181.12 640.234 1178.85 640.001 1176.54 641.026C1175.37 641.548 1174.19 641.449 1173.25 640.508C1170.9 638.167 1168.18 637.755 1165.14 637.731C1160.67 637.698 1156.21 637.251 1151.74 637.236C1148.62 637.229 1145.54 637.28 1142.44 637.914C1141.3 638.154 1140.13 638.168 1138.97 638.257C1137.98 638.331 1137.04 638.557 1136.27 639.331C1135.28 640.364 1134.18 640.304 1133.02 639.811C1132.47 639.574 1131.92 639.375 1131.37 639.138C1128.7 638.032 1126.03 637.865 1123.5 639.563C1121.87 640.677 1120.18 640.737 1118.43 640.326C1114.58 639.44 1110.67 640.188 1106.79 639.79C1105.09 639.606 1103.27 640.227 1101.9 641.61C1098.62 644.947 1094.83 645.529 1090.54 645.179C1084.52 644.701 1078.56 643.772 1072.57 643.219C1071.98 643.169 1071.39 642.951 1070.83 643.033C1065.96 643.819 1061.14 642.368 1056.27 642.966C1054.7 643.16 1053.18 642.772 1051.7 642.159C1049.61 641.271 1047.5 641.341 1045.4 642.089C1041.69 643.387 1037.78 643.91 1034.21 645.774C1033.18 646.318 1031.96 646.387 1030.83 646.74C1029.9 647.023 1028.86 647.171 1028.08 647.738C1025.99 649.313 1023.74 649.662 1021.37 649.126C1019.72 648.754 1018.34 649.215 1016.98 650.241C1016.2 650.846 1015.26 651.297 1014.33 651.541C1012.58 651.976 1011.04 652.829 1009.48 653.775C1008.47 654.394 1007.36 655.218 1006.27 655.271C1003.21 655.454 1001.49 657.6 999.634 659.97C997.676 662.469 996.18 665.259 994.668 668.068C993.642 669.984 992.469 671.728 990.772 672.878C988.006 674.759 986.078 677.447 984.444 680.479C983.94 681.409 983.386 682.319 982.816 683.21C981.9 684.658 981.25 686.187 981.013 687.987C980.836 689.262 980.426 690.533 980.033 691.766C979.479 693.484 978.514 694.894 976.897 695.388C975.685 695.758 974.817 696.455 974.207 697.665C973.632 698.801 972.925 699.858 972.316 700.993C971.412 702.686 969.993 703.353 968.356 703.207C965.065 702.915 961.811 702.455 958.871 700.515C956.691 699.08 954.384 698.093 951.835 697.572C949.968 697.196 948.217 696.032 946.409 695.263C944.948 694.65 943.506 693.982 942.009 693.519C939.497 692.773 937.02 692.78 934.822 694.747Z" fill="#31A5F0"/>
</svg>
