<svg width="205" height="432" viewBox="0 0 205 432" fill="none" xmlns="http://www.w3.org/2000/svg">
 <path d="M56.5187 -19.7676C58.5171 -18.298 60.8879 -17.4593 62.9911 -16.1958C65.0941 -14.9184 67.0483 -13.3942 69.0626 -11.9937C70.1405 -11.2365 71.2629 -10.5477 72.2821 -9.73625C73.5704 -8.71117 74.7566 -7.6188 76.5202 -7.34735C77.1224 -7.25196 77.7751 -6.80861 78.1685 -6.34277C80.0089 -4.16864 82.4993 -2.84182 84.931 -1.46066C86.652 -0.496246 88.2839 0.605169 90.1531 1.35054C91.651 1.96353 93.0559 2.9077 94.035 4.28737C93.0426 4.28124 92.034 4.37197 91.0439 4.2549C89.1925 4.05108 87.4255 3.9461 85.7088 4.91066C85.0396 5.28572 84.0597 5.37697 83.2853 5.26424C81.1912 4.97229 79.3682 5.50456 77.5373 6.42522C76.215 7.09242 74.7669 7.57666 73.3208 7.96385C71.7881 8.36318 70.6085 9.08878 69.6773 10.3328C69.1006 11.1122 68.2403 11.6916 67.6211 12.4423C67.0019 13.1931 66.2958 13.9698 66.0191 14.8524C65.4331 16.8111 64.1389 18.2283 62.6734 19.5726C61.2227 20.9033 59.8001 22.2623 58.4055 23.6635C57.5836 24.4795 57.6146 25.7985 58.2558 26.8105C59.0507 28.0477 60.459 28.8255 60.9478 30.2646C61.6141 32.1792 63.0405 33.4846 64.6115 34.7513C65.9136 35.8044 67.3802 36.5416 68.8311 37.348C69.841 37.9095 70.8937 38.4858 71.6832 39.2788C73.1774 40.7937 74.5398 42.417 75.844 44.0808C78.0738 46.9149 79.7653 50.0575 81.1952 53.3335C81.4564 53.9354 81.6014 54.5905 82.1985 54.9356C84.0613 56 84.9189 57.6964 85.5279 59.5959C85.8935 60.7273 86.6384 61.5888 87.8386 61.9876C89.0391 62.3726 89.7265 63.2329 90.383 64.2037C91.1928 65.4134 91.9418 66.7884 93.0897 67.6442C94.8891 68.9987 95.9778 70.6443 96.931 72.5924C98.0636 74.9187 99.2982 77.1778 100.155 79.6235C100.522 80.6717 101.252 81.6023 101.763 82.6117C102.137 83.327 102.583 84.0437 102.726 84.8098C103.204 87.4977 104.557 89.5925 106.855 91.1653C107.366 91.5225 107.974 92.0621 108.078 92.6054C108.457 94.5003 109.495 95.8118 111.26 96.6938C111.673 96.8964 111.966 97.3602 112.246 97.7544C113.506 99.4728 114.882 101.11 115.939 102.936C117.468 105.575 119.733 107.369 122.349 108.879C124.368 110.044 126.225 111.386 127.304 113.517C127.512 113.923 127.966 114.238 128.363 114.509C129.243 115.082 129.731 115.855 130.086 116.806C130.467 117.868 130.788 119.068 131.549 119.847C133.169 121.545 134.252 123.495 135.261 125.542C135.911 126.831 136.851 128.002 137.748 129.172C138.014 129.524 138.511 129.853 138.941 129.931C140.159 130.15 141.024 130.751 141.855 131.628C144.447 134.358 147.155 136.98 149.747 139.71C151.423 141.493 153.391 143.031 154.51 145.302C154.925 146.143 155.731 146.825 156.451 147.492C159.134 149.96 161.292 152.793 163.303 155.789C164.937 158.209 166.57 160.684 169.184 162.319C169.936 162.792 170.267 163.52 170.38 164.355C170.492 165.204 170.953 165.865 171.604 166.392C172.368 167.018 173.102 167.726 173.956 168.188C175.777 169.182 177.043 170.609 177.927 172.403C178.217 172.978 178.653 173.486 178.958 174.061C179.9 175.829 181.18 177.284 183.016 178.237C184.54 179.017 185.637 180.218 186.617 181.543C187.093 182.19 187.627 182.853 187.957 183.582C189.25 186.522 192.576 187.768 194.103 190.505C194.395 191.024 195.093 191.358 195.632 191.743C196.199 192.143 196.829 192.267 197.511 191.989C198.265 191.699 198.924 191.088 199.827 191.273C200.264 193.141 199.469 194.748 198.632 196.341C198.497 196.616 198.205 196.832 197.928 197.007C197.651 197.182 197.332 197.314 197 197.363C194.012 197.914 192.392 199.782 191.632 202.501C191.415 203.287 191.196 204.171 190.426 204.544C188.915 205.277 188.459 206.516 188.027 207.979C187.086 211.138 184.921 213.647 182.927 216.23C179.825 218.152 179.368 221.529 178.259 224.49C177.696 225.991 177.434 227.568 176.5 228.964C175.388 230.621 175.033 232.557 174.878 234.496C174.802 235.452 174.882 236.439 174.82 237.395C174.738 238.601 174.185 239.645 173.067 240.163C170.817 241.186 168.718 242.587 166.192 243.022C165.369 243.158 164.586 243.475 163.79 243.723C162.14 244.231 160.715 244.993 160.091 246.702C159.984 247.005 159.763 247.264 159.585 247.524C159.496 247.661 159.407 247.812 159.262 247.892C156.871 249.454 155.54 252.008 153.333 253.74C152.164 254.646 151.177 255.82 149.883 256.501C148.385 257.29 146.988 258.108 146.097 259.519C145.77 260.054 145.425 260.727 145.471 261.297C145.728 264.244 144.881 267.03 144.364 269.864C143.86 272.727 143.099 275.542 142.939 278.453C142.828 280.394 142.618 282.291 143.139 284.23C143.34 284.97 143.194 285.827 143.077 286.616C142.928 287.598 143.01 288.529 143.249 289.492C143.395 290.091 143.566 290.886 143.284 291.338C142.614 292.449 141.619 293.331 140.287 293.734C139.969 293.825 139.622 293.901 139.306 293.881C136.893 293.721 135.267 295.187 133.572 296.485C133.09 296.864 132.789 297.51 132.504 298.087C131.92 299.241 131.379 300.424 130.865 301.621C130.548 302.364 130.159 303.133 130.143 303.91C130.082 306.24 129.22 308.332 128.215 310.379C127.63 311.588 127.275 312.775 127.478 314.111C127.555 314.57 127.516 315.097 127.378 315.538C126.441 318.461 125.491 321.384 124.497 324.278C124.191 325.188 122.962 325.552 121.964 325.115C121.051 324.722 120.185 324.177 119.241 323.895C118.14 323.567 116.938 323.238 115.815 323.312C113.121 323.508 110.465 323.26 107.81 323.012C105.943 322.85 104.157 322.98 102.429 323.778C100.774 324.536 99.0636 325.195 97.4087 325.953C95.7537 326.711 94.1537 327.594 92.4711 328.296C90.6434 329.064 89.3806 330.343 88.9418 332.138C88.222 335.024 86.6051 337.461 85.0452 339.928C84.258 341.161 83.4142 342.351 82.3006 343.369C81.3335 344.252 80.4073 345.246 79.7664 346.357C78.857 347.949 77.8229 349.302 76.164 350.254C75.1453 350.844 74.4497 351.815 74.1111 352.918C73.7116 354.187 73.0713 355.27 72.0182 356.137C71.097 356.882 70.5447 357.884 70.1347 358.958C69.3142 361.134 67.8407 362.881 66.3669 364.641C65.9542 365.132 65.4824 365.706 64.917 365.93C61.6693 367.211 59.9667 369.619 59.2983 372.811C59.0279 374.096 58.1806 374.745 56.9385 374.997C54.1506 375.594 51.4192 376.232 48.9299 377.709C48.1294 378.178 46.9939 378.142 46.0253 378.386C44.7243 378.706 43.4374 379.041 42.15 379.404C41.6728 379.533 41.1521 379.675 40.7727 379.945C38.4963 381.565 36.2334 383.226 33.9708 384.873C33.2229 386.301 32.3035 387.671 31.7555 389.172C31.1928 390.687 30.9582 392.334 31.4006 393.939C31.8023 395.418 31.5877 396.787 31.1707 398.208C30.3058 401.16 30.0284 404.221 29.6794 407.267C29.486 409.012 29.5503 410.817 28.397 412.376C28.1456 412.718 28.2346 413.302 28.2251 413.774C28.2024 416.327 28.1147 416.395 25.4047 415.979C25.0748 415.931 24.7458 415.841 24.416 415.793C23.7275 415.696 23.0498 415.779 22.5791 416.297C21.6524 417.319 20.4343 417.808 19.1052 418.1C17.7326 418.406 16.3814 418.365 15.3522 417.331C13.59 415.561 11.3701 415.086 8.98568 414.927C7.64969 414.844 6.33003 414.665 5.01093 414.458C1.1399 413.839 -2.32551 414.505 -5.11535 417.335C-6.11398 418.356 -7.2861 418.707 -8.70948 418.678C-11.3837 418.624 -14.0593 418.64 -16.7349 418.655C-17.3966 418.656 -18.0607 418.781 -18.7241 418.865C-19.5895 418.986 -20.3027 419.402 -20.7914 420.1C-21.1617 420.634 -21.5038 421.196 -21.8028 421.759C-22.1917 422.5 -22.778 423.043 -23.5197 423.445C-25.2648 424.395 -27.1363 425.19 -28.6992 426.38C-30.4082 427.677 -32.0583 427.478 -33.8598 426.942C-30.8073 277.535 -27.7969 128.072 -24.7862 -21.4052C2.31543 -20.8593 29.417 -20.3135 56.5187 -19.7676Z" fill="#31A5F0"/>
</svg>
