<svg width="756" height="711" viewBox="0 0 756 711" fill="none" xmlns="http://www.w3.org/2000/svg">
<mask id="path-1-inside-1" fill="white">
<path d="M30.4608 1.0572L22.6137 25.5315L30.0996 32.7942L54.3252 24.21L38.2888 40.7392L52.4568 54.4847L79.7527 26.3498L61.0631 8.2175L44.6182 14.1098L50.0101 -2.5059L28.1553 -23.709L0.859375 4.42591L14.4244 17.5864L30.4608 1.0572Z"/>
<path d="M73.9642 75.3508L83.5665 65.4533L94.2176 75.7868L84.6153 85.6842L99.2856 99.9171L126.582 71.7822L111.911 57.5493L102.748 66.9946L92.0965 56.6611L101.26 47.2159L86.5898 32.983L59.2938 61.1179L73.9642 75.3508Z"/>
<path d="M146.408 104.087C150.629 108.181 150.226 111.009 148.232 113.366L137.028 102.496C140.116 100.42 142.841 100.626 146.408 104.087ZM140.285 121.456C139.644 121.614 137.377 122.243 133.558 118.538C129.589 114.688 129.098 111.675 131.274 108.227L158.102 134.255L159.223 133.1C167.168 124.911 171.657 114.051 154.575 97.4784L152.264 95.2362C136.037 79.4923 124.872 84.2651 118.632 90.6959L117.95 91.3993C112.15 97.3779 106.977 108.842 123.858 125.22L126.32 127.608C143 143.79 151.755 140.094 155.76 136.469L140.285 121.456Z"/>
<path d="M187.393 186.86C206.535 205.431 216.903 197.057 221.582 192.233L222.362 191.43C227.041 186.606 235.293 175.789 216.201 157.267L214.393 155.512C195.954 137.623 184.788 145.614 180.06 150.487L179.378 151.191C174.65 156.064 167.196 167.265 185.685 185.203L187.393 186.86ZM195.162 176.842C190.59 172.406 192.948 167.965 195.288 165.553C197.823 162.941 202.049 160.897 206.47 165.186L206.772 165.478C211.193 169.768 209.328 174.103 206.793 176.715C204.6 178.976 199.884 181.424 195.463 177.134L195.162 176.842Z"/>
<path d="M263.95 205.054L254.25 215.052C253.101 214.327 251.599 213.261 250.193 211.896C245.822 207.655 244.988 204.896 248.839 200.927L254.103 195.501L239.432 181.268L233.729 187.146C224.225 196.943 224.139 204.37 236.448 216.312C239.864 219.626 243.072 222.251 245.574 223.995L236.654 233.189L251.324 247.422L278.62 219.287L263.95 205.054Z"/>
<path d="M298.456 251.6C302.676 255.695 302.273 258.522 300.279 260.879L289.076 250.01C292.163 247.933 294.889 248.14 298.456 251.6ZM292.333 268.97C291.692 269.128 289.424 269.756 285.606 266.052C281.637 262.201 281.146 259.189 283.321 255.74L310.15 281.769L311.271 280.613C319.216 272.424 323.705 261.564 306.623 244.992L304.312 242.75C288.084 227.006 276.919 231.778 270.68 238.209L269.997 238.913C264.197 244.891 259.024 256.355 275.905 272.733L278.367 275.121C295.047 291.304 303.803 287.607 307.807 283.982L292.333 268.97Z"/>
<path d="M318.79 312.876L328.393 302.979L339.044 313.312L329.441 323.21L344.112 337.443L371.408 309.308L356.737 295.075L347.574 304.52L336.923 294.187L346.086 284.741L331.416 270.509L304.12 298.643L318.79 312.876Z"/>
<path d="M350.927 344.054L378.509 370.814C388.055 380.075 395.867 379.462 401.96 373.182L402.544 372.579C408.101 366.851 408.819 358.672 399.273 349.411L386.361 336.884L392.893 330.152L378.222 315.919L350.927 344.054ZM373.786 349.847L378.27 345.224L386.208 352.926C387.766 354.437 388.732 356.155 387.026 357.913L386.88 358.064C384.979 360.023 383.281 359.059 381.724 357.548L373.786 349.847Z"/>
<path d="M463.789 430.144L448.516 415.326C447.342 416.235 444.055 418.215 439.885 414.17L439.533 413.829C435.665 410.075 437.383 405.891 440.259 402.927L440.308 402.877C443.184 399.912 446.926 398.569 450.794 402.322L451.196 402.712C455.165 406.563 453.776 409.603 453 410.704L468.273 425.522L468.322 425.472C471.978 421.704 479.163 412.387 460.223 394.011L458.414 392.256C441.784 376.123 431.027 381.681 425.373 387.509L424.691 388.213C418.841 394.241 412.674 405.424 429.706 421.947L432.168 424.336C449.852 441.493 459.646 434.414 463.74 430.194L463.789 430.144Z"/>
<path d="M465.282 454.999L479.952 469.232L498.718 449.89L509.018 459.882L517.547 451.09L482.278 416.872L473.748 425.664L484.048 435.657L465.282 454.999Z"/>
<path d="M534.11 494.857C531.77 497.268 527.437 498.819 523.267 494.773L523.167 494.676C518.796 490.435 520.318 486.353 522.707 483.891L523.096 483.489C525.192 481.329 529.766 479.329 534.036 483.472L534.137 483.569C538.307 487.615 536.644 492.244 534.402 494.555L534.11 494.857ZM485.519 492.968L500.189 507.201L512.131 494.892C512.26 496.87 512.886 502.257 519.417 508.593L519.668 508.837C531.927 520.73 542.854 516.605 549.337 509.923L550.166 509.068C557.234 501.784 560.496 491.685 548.841 480.377L548.589 480.133C541.957 473.699 536.005 472.898 533.431 472.937L536.648 469.621L521.978 455.388L485.519 492.968Z"/>
<path d="M566.913 547.163C566.15 549.056 565.806 552.526 568.57 555.207L580.427 566.711L589.785 557.064L587.926 555.261C587.374 554.725 587.415 554.179 588.048 553.526L596.14 545.186C600.624 540.564 604.183 533.679 587.955 517.935L586.197 516.229C570.371 500.875 563.056 504.897 558.913 509.167L558.864 509.217L573.082 523.011C573.618 522.459 575.723 520.892 579.592 524.646L579.943 524.987C583.209 528.155 583.134 529.74 581.964 530.946L581.916 530.996C580.989 531.951 580.099 531.964 578.593 530.601L570.114 523.155C559.429 513.862 553.629 513.306 548.462 518.632L548.219 518.883C542.759 524.51 543.367 531.926 551.255 539.579L552.159 540.456C559.243 547.329 565.33 547.187 566.913 547.163ZM564.345 537.747C562.185 535.651 561.71 533.728 563.026 532.371L563.075 532.321C564.44 530.914 565.925 530.892 570.279 534.044L575.433 537.678L574.507 538.633C572.313 540.894 568.314 541.598 564.345 537.747Z"/>
<path d="M585.008 571.155L641.579 626.04L668.875 597.905L654.205 583.672L635.439 603.015L629.159 596.922L647.925 577.579L633.254 563.346L614.488 582.689L608.208 576.596L626.974 557.253L612.304 543.02L585.008 571.155Z"/>
<path d="M663.068 646.888L672.67 636.99L683.321 647.324L673.719 657.221L688.389 671.454L715.685 643.319L701.015 629.086L691.851 638.532L681.2 628.198L690.364 618.753L675.694 604.52L648.398 632.655L663.068 646.888Z"/>
<path d="M714.971 698.706C734.113 717.277 744.481 708.903 749.16 704.08L749.94 703.276C754.619 698.453 762.871 687.635 743.78 669.113L741.971 667.358C723.533 649.47 712.367 657.46 707.639 662.333L706.956 663.037C702.228 667.91 694.774 679.112 713.263 697.049L714.971 698.706ZM722.74 688.688C718.168 684.252 720.527 679.811 722.866 677.399C725.401 674.787 729.627 672.743 734.049 677.032L734.35 677.325C738.771 681.614 736.906 685.949 734.372 688.561C732.178 690.822 727.463 693.27 723.042 688.98L722.74 688.688Z"/>
</mask>
<path d="M30.4608 1.0572L22.6137 25.5315L30.0996 32.7942L54.3252 24.21L38.2888 40.7392L52.4568 54.4847L79.7527 26.3498L61.0631 8.2175L44.6182 14.1098L50.0101 -2.5059L28.1553 -23.709L0.859375 4.42591L14.4244 17.5864L30.4608 1.0572Z" stroke="black" stroke-width="40" mask="url(#path-1-inside-1)"/>
<path d="M73.9642 75.3508L83.5665 65.4533L94.2176 75.7868L84.6153 85.6842L99.2856 99.9171L126.582 71.7822L111.911 57.5493L102.748 66.9946L92.0965 56.6611L101.26 47.2159L86.5898 32.983L59.2938 61.1179L73.9642 75.3508Z" stroke="black" stroke-width="40" mask="url(#path-1-inside-1)"/>
<path d="M146.408 104.087C150.629 108.181 150.226 111.009 148.232 113.366L137.028 102.496C140.116 100.42 142.841 100.626 146.408 104.087ZM140.285 121.456C139.644 121.614 137.377 122.243 133.558 118.538C129.589 114.688 129.098 111.675 131.274 108.227L158.102 134.255L159.223 133.1C167.168 124.911 171.657 114.051 154.575 97.4784L152.264 95.2362C136.037 79.4923 124.872 84.2651 118.632 90.6959L117.95 91.3993C112.15 97.3779 106.977 108.842 123.858 125.22L126.32 127.608C143 143.79 151.755 140.094 155.76 136.469L140.285 121.456Z" stroke="black" stroke-width="40" mask="url(#path-1-inside-1)"/>
<path d="M187.393 186.86C206.535 205.431 216.903 197.057 221.582 192.233L222.362 191.43C227.041 186.606 235.293 175.789 216.201 157.267L214.393 155.512C195.954 137.623 184.788 145.614 180.06 150.487L179.378 151.191C174.65 156.064 167.196 167.265 185.685 185.203L187.393 186.86ZM195.162 176.842C190.59 172.406 192.948 167.965 195.288 165.553C197.823 162.941 202.049 160.897 206.47 165.186L206.772 165.478C211.193 169.768 209.328 174.103 206.793 176.715C204.6 178.976 199.884 181.424 195.463 177.134L195.162 176.842Z" stroke="black" stroke-width="40" mask="url(#path-1-inside-1)"/>
<path d="M263.95 205.054L254.25 215.052C253.101 214.327 251.599 213.261 250.193 211.896C245.822 207.655 244.988 204.896 248.839 200.927L254.103 195.501L239.432 181.268L233.729 187.146C224.225 196.943 224.139 204.37 236.448 216.312C239.864 219.626 243.072 222.251 245.574 223.995L236.654 233.189L251.324 247.422L278.62 219.287L263.95 205.054Z" stroke="black" stroke-width="40" mask="url(#path-1-inside-1)"/>
<path d="M298.456 251.6C302.676 255.695 302.273 258.522 300.279 260.879L289.076 250.01C292.163 247.933 294.889 248.14 298.456 251.6ZM292.333 268.97C291.692 269.128 289.424 269.756 285.606 266.052C281.637 262.201 281.146 259.189 283.321 255.74L310.15 281.769L311.271 280.613C319.216 272.424 323.705 261.564 306.623 244.992L304.312 242.75C288.084 227.006 276.919 231.778 270.68 238.209L269.997 238.913C264.197 244.891 259.024 256.355 275.905 272.733L278.367 275.121C295.047 291.304 303.803 287.607 307.807 283.982L292.333 268.97Z" stroke="black" stroke-width="40" mask="url(#path-1-inside-1)"/>
<path d="M318.79 312.876L328.393 302.979L339.044 313.312L329.441 323.21L344.112 337.443L371.408 309.308L356.737 295.075L347.574 304.52L336.923 294.187L346.086 284.741L331.416 270.509L304.12 298.643L318.79 312.876Z" stroke="black" stroke-width="40" mask="url(#path-1-inside-1)"/>
<path d="M350.927 344.054L378.509 370.814C388.055 380.075 395.867 379.462 401.96 373.182L402.544 372.579C408.101 366.851 408.819 358.672 399.273 349.411L386.361 336.884L392.893 330.152L378.222 315.919L350.927 344.054ZM373.786 349.847L378.27 345.224L386.208 352.926C387.766 354.437 388.732 356.155 387.026 357.913L386.88 358.064C384.979 360.023 383.281 359.059 381.724 357.548L373.786 349.847Z" stroke="black" stroke-width="40" mask="url(#path-1-inside-1)"/>
<path d="M463.789 430.144L448.516 415.326C447.342 416.235 444.055 418.215 439.885 414.17L439.533 413.829C435.665 410.075 437.383 405.891 440.259 402.927L440.308 402.877C443.184 399.912 446.926 398.569 450.794 402.322L451.196 402.712C455.165 406.563 453.776 409.603 453 410.704L468.273 425.522L468.322 425.472C471.978 421.704 479.163 412.387 460.223 394.011L458.414 392.256C441.784 376.123 431.027 381.681 425.373 387.509L424.691 388.213C418.841 394.241 412.674 405.424 429.706 421.947L432.168 424.336C449.852 441.493 459.646 434.414 463.74 430.194L463.789 430.144Z" stroke="black" stroke-width="40" mask="url(#path-1-inside-1)"/>
<path d="M465.282 454.999L479.952 469.232L498.718 449.89L509.018 459.882L517.547 451.09L482.278 416.872L473.748 425.664L484.048 435.657L465.282 454.999Z" stroke="black" stroke-width="40" mask="url(#path-1-inside-1)"/>
<path d="M534.11 494.857C531.77 497.268 527.437 498.819 523.267 494.773L523.167 494.676C518.796 490.435 520.318 486.353 522.707 483.891L523.096 483.489C525.192 481.329 529.766 479.329 534.036 483.472L534.137 483.569C538.307 487.615 536.644 492.244 534.402 494.555L534.11 494.857ZM485.519 492.968L500.189 507.201L512.131 494.892C512.26 496.87 512.886 502.257 519.417 508.593L519.668 508.837C531.927 520.73 542.854 516.605 549.337 509.923L550.166 509.068C557.234 501.784 560.496 491.685 548.841 480.377L548.589 480.133C541.957 473.699 536.005 472.898 533.431 472.937L536.648 469.621L521.978 455.388L485.519 492.968Z" stroke="black" stroke-width="40" mask="url(#path-1-inside-1)"/>
<path d="M566.913 547.163C566.15 549.056 565.806 552.526 568.57 555.207L580.427 566.711L589.785 557.064L587.926 555.261C587.374 554.725 587.415 554.179 588.048 553.526L596.14 545.186C600.624 540.564 604.183 533.679 587.955 517.935L586.197 516.229C570.371 500.875 563.056 504.897 558.913 509.167L558.864 509.217L573.082 523.011C573.618 522.459 575.723 520.892 579.592 524.646L579.943 524.987C583.209 528.155 583.134 529.74 581.964 530.946L581.916 530.996C580.989 531.951 580.099 531.964 578.593 530.601L570.114 523.155C559.429 513.862 553.629 513.306 548.462 518.632L548.219 518.883C542.759 524.51 543.367 531.926 551.255 539.579L552.159 540.456C559.243 547.329 565.33 547.187 566.913 547.163ZM564.345 537.747C562.185 535.651 561.71 533.728 563.026 532.371L563.075 532.321C564.44 530.914 565.925 530.892 570.279 534.044L575.433 537.678L574.507 538.633C572.313 540.894 568.314 541.598 564.345 537.747Z" stroke="black" stroke-width="40" mask="url(#path-1-inside-1)"/>
<path d="M585.008 571.155L641.579 626.04L668.875 597.905L654.205 583.672L635.439 603.015L629.159 596.922L647.925 577.579L633.254 563.346L614.488 582.689L608.208 576.596L626.974 557.253L612.304 543.02L585.008 571.155Z" stroke="black" stroke-width="40" mask="url(#path-1-inside-1)"/>
<path d="M663.068 646.888L672.67 636.99L683.321 647.324L673.719 657.221L688.389 671.454L715.685 643.319L701.015 629.086L691.851 638.532L681.2 628.198L690.364 618.753L675.694 604.52L648.398 632.655L663.068 646.888Z" stroke="black" stroke-width="40" mask="url(#path-1-inside-1)"/>
<path d="M714.971 698.706C734.113 717.277 744.481 708.903 749.16 704.08L749.94 703.276C754.619 698.453 762.871 687.635 743.78 669.113L741.971 667.358C723.533 649.47 712.367 657.46 707.639 662.333L706.956 663.037C702.228 667.91 694.774 679.112 713.263 697.049L714.971 698.706ZM722.74 688.688C718.168 684.252 720.527 679.811 722.866 677.399C725.401 674.787 729.627 672.743 734.049 677.032L734.35 677.325C738.771 681.614 736.906 685.949 734.372 688.561C732.178 690.822 727.463 693.27 723.042 688.98L722.74 688.688Z" stroke="black" stroke-width="40" mask="url(#path-1-inside-1)"/>
</svg>
