<svg width="560" height="186" viewBox="0 0 560 186" fill="none" xmlns="http://www.w3.org/2000/svg">
<mask id="path-1-inside-1" fill="white">
<path d="M39.3581 164.94L42.3734 175.581L62.0391 170.008L51.3518 132.294L14.445 142.752C1.78351 146.34 -1.29859 153.179 0.800697 160.587L0.89612 160.924C2.48013 166.514 6.53126 169.513 12.3771 169.603L6.20742 185.83L28.0956 179.627L33.0273 166.734L39.3581 164.94ZM34.6442 148.305L36.6099 155.242L26.7771 158.028C24.5546 158.658 22.3343 158.269 21.6282 155.777L21.59 155.642C20.9221 153.285 22.5889 151.721 24.8114 151.091L34.6442 148.305Z"/>
<path d="M111.739 155.925L107.979 142.657L122.257 138.612L126.017 151.879L145.682 146.307L134.995 108.592L115.329 114.164L118.917 126.826L104.64 130.872L101.052 118.21L81.386 123.783L92.0732 161.498L111.739 155.925Z"/>
<path d="M172.886 107.604C178.543 106.001 180.789 107.765 181.831 110.671L166.813 114.927C166.561 111.215 168.104 108.959 172.886 107.604ZM184.856 121.601C184.672 122.235 184.08 124.512 178.962 125.963C173.641 127.47 170.788 126.387 168.892 122.778L204.856 112.586L204.417 111.037C201.306 100.06 194.153 90.7366 171.255 97.2253L168.157 98.1032C146.403 104.267 144.944 116.322 147.387 124.942L147.654 125.885C149.925 133.9 157.259 144.117 179.888 137.705L183.188 136.77C205.548 130.434 206.732 121.004 205.599 115.723L184.856 121.601Z"/>
<path d="M286.999 87.2724C283.468 74.813 271.288 73.6809 262.398 76.2L261.051 76.5817C252.632 78.9672 248.347 82.0733 245.087 86.4892C243.915 81.5829 245.635 77.8944 256.613 74.7836L264.762 72.4744C278.501 68.5812 278.934 63.9476 276.186 54.2494L258.002 59.4022C257.692 60.3631 257.268 60.9198 253.766 61.9122L249.792 63.0382C232.281 68.0002 223.584 79.4138 228.927 98.2713L229.137 99.0122C234.443 117.735 248.557 118.246 263.306 114.067L264.653 113.685C279.739 109.41 291.044 101.55 287.132 87.7439L286.999 87.2724ZM260.37 102.166C256.06 103.388 252.322 102.264 251.082 97.8867C249.803 93.3744 252.598 90.3997 256.706 89.2356L257.11 89.1211C261.353 87.9187 265.245 89.0714 266.485 93.449C267.726 97.8267 265.085 100.831 260.775 102.052L260.37 102.166Z"/>
<path d="M326.947 96.0331C352.606 88.7619 350.548 75.5942 348.716 69.1287L348.411 68.0512C346.579 61.5857 341.346 49.0265 315.754 56.2786L313.33 56.9656C288.613 63.9696 289.939 77.6358 291.79 84.1685L292.057 85.1114C293.908 91.6442 299.873 103.705 324.657 96.682L326.947 96.0331ZM322.164 84.2921C316.036 86.0288 313.372 81.7635 312.456 78.5307C311.463 75.0286 311.81 70.3468 317.737 68.6673L318.141 68.5528C324.068 66.8734 326.886 70.6583 327.879 74.1604C328.737 77.1911 328.495 82.4982 322.568 84.1776L322.164 84.2921Z"/>
<path d="M435.219 43.4524C433.387 36.9869 428.222 24.4086 403.236 31.4889L400.811 32.176C382.762 37.2906 378.964 46.2245 379.026 53.1188L373.638 54.6456L370.05 41.9841L350.384 47.5568L361.072 85.2718L380.737 79.6991L376.978 66.4315L382.163 64.962C385.496 71.0749 393.348 77.2169 412.138 71.8923L414.428 71.2435C439.482 64.144 437.356 50.9954 435.524 44.5299L435.219 43.4524ZM409.646 59.5025C404.056 61.0865 401.527 56.783 400.611 53.5503C399.619 50.0481 399.763 45.4235 405.218 43.8777L405.623 43.7632C411.01 42.2364 413.694 46.0595 414.687 49.5616C415.546 52.5923 415.438 57.8612 410.05 59.388L409.646 59.5025Z"/>
<path d="M496.378 29.4686L475.904 35.2703C476.103 36.7419 476.171 40.5785 470.581 42.1625L470.11 42.2961C464.924 43.7656 462.163 40.1827 461.037 36.2092L461.018 36.1418C459.892 32.1683 460.602 28.2564 465.788 26.7869L466.327 26.6342C471.647 25.1266 473.583 27.8519 474.148 29.0743L494.622 23.2726L494.603 23.2052C493.172 18.1541 488.705 7.26957 463.315 14.4644L460.89 15.1514C438.598 21.4684 438.023 33.5632 440.237 41.3755L440.504 42.3184C442.795 50.4002 449.386 61.3374 472.217 54.8678L475.517 53.9327C499.224 47.215 498 35.1932 496.397 29.536L496.378 29.4686Z"/>
<path d="M508.067 43.6177L545.041 33.1404C557.837 29.5143 561.218 22.4448 558.832 14.0263L558.603 13.2181C556.428 5.54043 549.707 0.823992 536.911 4.45004L519.603 9.35474L517.045 0.330078L497.38 5.90274L508.067 43.6177ZM524.526 26.7306L522.771 20.5345L533.412 17.5192C535.499 16.9276 537.471 16.9511 538.139 19.3083L538.196 19.5103C538.94 22.1369 537.255 23.1236 535.167 23.7152L524.526 26.7306Z"/>
</mask>
<path d="M39.3581 164.94L42.3734 175.581L62.0391 170.008L51.3518 132.294L14.445 142.752C1.78351 146.34 -1.29859 153.179 0.800697 160.587L0.89612 160.924C2.48013 166.514 6.53126 169.513 12.3771 169.603L6.20742 185.83L28.0956 179.627L33.0273 166.734L39.3581 164.94ZM34.6442 148.305L36.6099 155.242L26.7771 158.028C24.5546 158.658 22.3343 158.269 21.6282 155.777L21.59 155.642C20.9221 153.285 22.5889 151.721 24.8114 151.091L34.6442 148.305Z" stroke="black" stroke-width="40" mask="url(#path-1-inside-1)"/>
<path d="M111.739 155.925L107.979 142.657L122.257 138.612L126.017 151.879L145.682 146.307L134.995 108.592L115.329 114.164L118.917 126.826L104.64 130.872L101.052 118.21L81.386 123.783L92.0732 161.498L111.739 155.925Z" stroke="black" stroke-width="40" mask="url(#path-1-inside-1)"/>
<path d="M172.886 107.604C178.543 106.001 180.789 107.765 181.831 110.671L166.813 114.927C166.561 111.215 168.104 108.959 172.886 107.604ZM184.856 121.601C184.672 122.235 184.08 124.512 178.962 125.963C173.641 127.47 170.788 126.387 168.892 122.778L204.856 112.586L204.417 111.037C201.306 100.06 194.153 90.7366 171.255 97.2253L168.157 98.1032C146.403 104.267 144.944 116.322 147.387 124.942L147.654 125.885C149.925 133.9 157.259 144.117 179.888 137.705L183.188 136.77C205.548 130.434 206.732 121.004 205.599 115.723L184.856 121.601Z" stroke="black" stroke-width="40" mask="url(#path-1-inside-1)"/>
<path d="M286.999 87.2724C283.468 74.813 271.288 73.6809 262.398 76.2L261.051 76.5817C252.632 78.9672 248.347 82.0733 245.087 86.4892C243.915 81.5829 245.635 77.8944 256.613 74.7836L264.762 72.4744C278.501 68.5812 278.934 63.9476 276.186 54.2494L258.002 59.4022C257.692 60.3631 257.268 60.9198 253.766 61.9122L249.792 63.0382C232.281 68.0002 223.584 79.4138 228.927 98.2713L229.137 99.0122C234.443 117.735 248.557 118.246 263.306 114.067L264.653 113.685C279.739 109.41 291.044 101.55 287.132 87.7439L286.999 87.2724ZM260.37 102.166C256.06 103.388 252.322 102.264 251.082 97.8867C249.803 93.3744 252.598 90.3997 256.706 89.2356L257.11 89.1211C261.353 87.9187 265.245 89.0714 266.485 93.449C267.726 97.8267 265.085 100.831 260.775 102.052L260.37 102.166Z" stroke="black" stroke-width="40" mask="url(#path-1-inside-1)"/>
<path d="M326.947 96.0331C352.606 88.7619 350.548 75.5942 348.716 69.1287L348.411 68.0512C346.579 61.5857 341.346 49.0265 315.754 56.2786L313.33 56.9656C288.613 63.9696 289.939 77.6358 291.79 84.1685L292.057 85.1114C293.908 91.6442 299.873 103.705 324.657 96.682L326.947 96.0331ZM322.164 84.2921C316.036 86.0288 313.372 81.7635 312.456 78.5307C311.463 75.0286 311.81 70.3468 317.737 68.6673L318.141 68.5528C324.068 66.8734 326.886 70.6583 327.879 74.1604C328.737 77.1911 328.495 82.4982 322.568 84.1776L322.164 84.2921Z" stroke="black" stroke-width="40" mask="url(#path-1-inside-1)"/>
<path d="M435.219 43.4524C433.387 36.9869 428.222 24.4086 403.236 31.4889L400.811 32.176C382.762 37.2906 378.964 46.2245 379.026 53.1188L373.638 54.6456L370.05 41.9841L350.384 47.5568L361.072 85.2718L380.737 79.6991L376.978 66.4315L382.163 64.962C385.496 71.0749 393.348 77.2169 412.138 71.8923L414.428 71.2435C439.482 64.144 437.356 50.9954 435.524 44.5299L435.219 43.4524ZM409.646 59.5025C404.056 61.0865 401.527 56.783 400.611 53.5503C399.619 50.0481 399.763 45.4235 405.218 43.8777L405.623 43.7632C411.01 42.2364 413.694 46.0595 414.687 49.5616C415.546 52.5923 415.438 57.8612 410.05 59.388L409.646 59.5025Z" stroke="black" stroke-width="40" mask="url(#path-1-inside-1)"/>
<path d="M496.378 29.4686L475.904 35.2703C476.103 36.7419 476.171 40.5785 470.581 42.1625L470.11 42.2961C464.924 43.7656 462.163 40.1827 461.037 36.2092L461.018 36.1418C459.892 32.1683 460.602 28.2564 465.788 26.7869L466.327 26.6342C471.647 25.1266 473.583 27.8519 474.148 29.0743L494.622 23.2726L494.603 23.2052C493.172 18.1541 488.705 7.26957 463.315 14.4644L460.89 15.1514C438.598 21.4684 438.023 33.5632 440.237 41.3755L440.504 42.3184C442.795 50.4002 449.386 61.3374 472.217 54.8678L475.517 53.9327C499.224 47.215 498 35.1932 496.397 29.536L496.378 29.4686Z" stroke="black" stroke-width="40" mask="url(#path-1-inside-1)"/>
<path d="M508.067 43.6177L545.041 33.1404C557.837 29.5143 561.218 22.4448 558.832 14.0263L558.603 13.2181C556.428 5.54043 549.707 0.823992 536.911 4.45004L519.603 9.35474L517.045 0.330078L497.38 5.90274L508.067 43.6177ZM524.526 26.7306L522.771 20.5345L533.412 17.5192C535.499 16.9276 537.471 16.9511 538.139 19.3083L538.196 19.5103C538.94 22.1369 537.255 23.1236 535.167 23.7152L524.526 26.7306Z" stroke="black" stroke-width="40" mask="url(#path-1-inside-1)"/>
</svg>
