<svg width="571" height="481" viewBox="0 0 571 481" fill="none" xmlns="http://www.w3.org/2000/svg">
 <path d="M338.31 357.498C337.449 357.915 336.55 358.352 335.689 358.77C331.868 358.97 328.048 359.071 324.262 359.371C320.438 359.689 316.618 359.81 312.772 359.396C309.978 358.232 307.054 358.035 303.96 358.922C302.17 359.44 300.318 359.403 298.436 358.989L298.475 358.891C297.254 358.767 296.033 358.683 294.851 358.501C291.303 357.975 288.405 358.352 286.186 359.949C285.471 360.468 284.609 360.945 283.821 361.424C281.226 361.431 280.777 361.659 280.119 363.05C278.139 363.822 276.159 364.593 274.216 365.364C273.81 365.317 273.403 365.249 272.996 365.201C270.222 364.928 267.846 365.157 266.96 366.781C265.267 369.872 262.211 372.54 257.759 374.626C253.418 376.675 251.402 379.245 250.49 382.194C248.949 383.25 247.445 384.308 245.905 385.345C243.093 385.11 241.008 385.563 240.125 387.088C239.824 387.319 239.449 387.509 238.965 387.618C235.73 388.147 232.531 388.715 229.297 389.204C224.241 389.952 221.608 391.897 220.481 394.465C219.704 396.23 219.334 398.042 219.075 399.857C218.816 401.671 218.928 403.493 218.891 405.312C214.586 407.421 210.355 409.571 205.94 411.618C198.944 414.84 192.352 418.267 186.383 422.043C185.857 422.389 185.367 422.775 184.769 423.059C177.734 426.359 173.2 430.659 168.372 434.834C166.736 435.058 164.772 435.038 163.576 435.548C158.979 437.434 155.966 439.806 157.122 443.172C153.073 445.464 149.06 447.776 144.974 450.067C140.288 452.722 136.999 455.9 133.527 458.975L133.153 459.185C132.508 459.924 131.863 460.662 131.218 461.381C129.657 461.627 128.057 461.891 126.496 462.137C123.187 462.643 120.684 463.602 119.02 465.289C116.22 468.12 111.588 469.906 106.151 471.162C101.804 469.867 98.8735 468.147 97.4087 465.427C95.8726 462.568 93.0353 459.9 90.7558 457.144C88.6576 454.59 86.3729 452.091 84.5352 449.483C83.6341 448.219 83.3659 446.809 83.134 445.44C82.8328 443.831 82.9763 442.232 82.7492 440.625C82.4628 438.286 81.207 436.223 78.3933 434.228C74.1542 431.235 72.1512 427.635 70.5557 424.042C69.4566 421.567 68.7287 419.06 67.7407 416.588C67.1053 415.013 66.6571 413.342 65.3146 411.911C62.1583 408.524 60.0405 405.099 59.9684 401.32C59.9528 400.252 58.7151 399.139 57.8841 398.074C55.5727 395.06 53.186 392.105 52.5849 388.829C52.3845 387.737 51.4817 386.552 50.3141 385.638C47.7231 383.628 48.1067 381.143 45.9607 379.122C44.0325 377.323 41.0993 375.741 39.6918 373.853C37.2741 370.6 34.1847 367.571 30.7607 364.595C28.721 362.813 26.7932 360.994 24.0815 359.456C23.7883 359.292 23.4581 359.127 23.2398 358.925C18.623 354.441 12.2526 350.535 7.33662 346.183C1.6562 341.144 1.21122 335.636 5.61837 330.285C6.45415 329.274 7.91776 328.374 9.37938 327.572C12.603 325.778 15.7907 323.924 19.3808 322.334C31.7968 316.829 42.2342 310.195 54.2837 304.484C60.7202 301.429 65.6855 297.811 68.6649 293.421C69.5429 292.153 70.7905 290.932 72.1478 289.792C73.7317 288.439 75.0567 287.062 76.0514 285.519C77.2764 283.586 79.2026 281.805 80.649 279.915C81.9812 278.182 84.1216 276.801 86.6301 275.546C89.4379 274.159 92.2822 272.792 95.0533 271.384C97.2623 270.281 98.6975 268.945 99.4716 267.319C100.322 265.556 101.359 263.797 102.8 262.164C105 259.677 107.051 257.226 107.626 254.429C107.87 253.346 108.967 252.261 110.061 251.313C115.077 247.004 118.099 242.337 118.906 237.211C119.118 235.89 120.036 234.484 121.429 233.424C123.913 231.536 125.437 229.47 126.852 227.303C127.961 225.605 129.551 223.955 131.471 222.491C135.122 219.696 137.632 216.523 142.057 214.001C143.144 213.37 143.756 212.433 144.218 211.572C145.296 209.616 146.152 207.596 147.155 205.618C148.043 203.856 148.747 202.031 150.114 200.397C153.076 196.857 155.78 193.292 158.004 189.578C159.039 187.878 161.145 186.358 162.66 184.747C163.607 183.738 164.962 182.717 165.095 181.631C165.404 179.165 167.664 177.371 170.406 175.587C171.983 174.551 173.01 173.266 173.962 172.019C176.587 168.65 179.359 165.344 184.194 162.672C185.656 161.871 186.825 160.866 187.698 159.855C189.482 157.754 192.075 155.987 194.632 154.159C195.911 153.256 197.448 152.377 198.173 151.343C200.348 148.262 204.065 145.864 208.703 143.802C211.77 142.419 213.069 140.487 213.815 138.426C214.078 138.233 214.415 138.082 214.567 137.867C219.215 131.612 219.105 131.53 227.862 127.375C234.411 124.263 238.749 120.474 240.989 115.989C241.684 114.619 242.82 113.455 244.692 112.484C247.763 110.924 250.579 109.141 254.051 107.886C260.957 105.414 265.256 101.762 270.179 98.4C272.359 96.9209 273.69 95.2269 273.173 93.3176C272.343 90.334 274.397 87.725 277.662 85.7139C281.04 83.6458 283.276 81.1789 286.505 79.1077C290.035 76.8448 294.042 74.8091 297.865 72.6708C299.327 71.8498 300.826 71.0493 302.398 70.27C306.216 68.4085 309.775 66.522 309.616 63.3739C309.596 62.5625 310.652 61.6146 311.667 60.9428C317.074 57.4519 322.04 53.7938 328.366 50.7169C339.67 45.2086 350.571 39.4745 361.655 33.8431C363.827 32.7397 365.816 31.5336 368.243 30.6331C377.206 27.2731 382.9 22.4627 388.114 17.524C389.815 15.8968 391.476 14.3874 394.131 13.2344C397.122 11.9298 399.965 10.6224 401.672 8.69856C402.354 7.94091 404.581 7.7682 406.279 8.15841C407.865 8.50681 409.413 8.95341 411.037 9.28282C412.735 9.63348 414.021 10.1934 415.043 10.9854C416.246 11.9591 417.562 12.8756 418.765 13.869C420.916 15.6529 422.546 17.5253 422.317 19.7162C422.266 20.3877 422.362 21.1214 422.683 21.7805C424.002 24.3587 426.401 26.7014 431.314 27.552C439.218 28.898 444.682 31.8167 449.919 34.9484C451.054 35.624 451.853 36.451 452.801 37.2217C454.442 38.58 455.745 40.1095 457.76 41.2775C460.582 42.8771 462.25 44.6711 462.987 46.7627C463.338 47.739 464.544 48.5545 466.283 48.728C471.942 49.2969 474.781 51.8661 478.636 53.6843C482.308 55.4 484.896 57.5685 486.738 59.9593C487.57 61.0046 488.213 62.1648 488.413 63.2764C488.903 66.5499 490.769 69.5939 493.379 72.5342C496.06 75.5749 497.11 78.6619 495.635 81.9354C494.743 83.9151 494.59 85.9889 493.919 88.0126C492.856 91.1164 492.419 94.4107 492.986 97.567C493.384 99.8892 493.043 102.078 492.886 104.349C492.581 108.457 493.165 112.603 493.415 116.742C493.502 117.93 494.668 118.923 495.723 119.933C497.177 121.347 498.853 122.785 499.563 124.323C500.523 126.359 501.595 128.3 503.336 130.214C504.279 131.222 504.884 132.46 504.825 133.567C504.519 137.714 508.528 141.118 511.644 144.662C513.492 146.756 515.936 148.704 518.343 150.632C519.255 151.362 520.726 151.965 522.2 152.371C528.133 154.073 532.869 156.284 534.947 159.867C535.449 160.727 536.096 161.71 537.27 162.307C541.417 164.368 542.511 167.061 543.754 169.776C545.796 173.278 548.696 176.521 553.011 179.436C555.424 181.067 557.763 182.677 561.152 183.734C564.835 184.896 566.356 186.667 566.795 188.793C566.963 189.686 567.203 190.601 567.371 191.475C567.323 192.008 567.275 192.561 567.227 193.113C566.677 194.665 566.127 196.216 565.54 197.747C563.631 198.658 562.422 199.801 562.135 201.199C561.641 203.642 560.85 206.079 561.69 208.548C561.297 209.668 560.904 210.768 560.511 211.867C558.409 213.21 558.525 214.814 558.788 216.441C555.953 222.911 554.745 229.493 556.056 236.185C556.392 237.913 555.584 239.38 552.821 240.353C549.836 241.381 548.029 242.768 546.917 244.605C546.15 245.856 544.313 246.907 542.956 248.027C541.562 249.165 540.168 250.285 538.774 251.404C538.363 251.554 538.025 251.764 537.835 252.018C537.494 252.367 537.118 252.676 536.667 252.983C534.27 254.22 534.496 255.847 534.575 257.47C534.31 257.742 534.045 258.014 533.817 258.286C531.648 261.11 529.736 264.019 526.718 266.628C526.492 266.802 526.451 267.038 526.335 267.254L525.886 267.482C525.212 267.824 524.537 268.187 523.9 268.53L523.373 268.934C521.201 270.058 520.467 271.546 519.695 273.034C519.232 273.934 519.697 274.774 520.794 275.528C520.317 278.98 520.359 282.403 522.181 285.822C522.895 287.142 522.792 288.564 523.321 289.919C524.974 294.363 524.299 298.424 520.435 302.579C516.305 307.045 513.76 311.939 513.73 317.121C513.715 319.672 512.444 322.079 510.691 324.437C506.803 329.778 504.763 335.394 503.906 341.113C503.481 343.854 501.538 346.465 502.259 349.288C502.432 349.905 501.787 350.643 501.182 351.225C499.483 352.812 497.636 354.318 495.826 355.864C494.355 357.12 492.117 357.826 489.377 357.712C477.638 357.198 466.275 358.275 454.839 359.251C442.736 360.293 430.853 359.559 419.573 356.484C415.581 354.149 410.412 353.135 404.825 352.686C400.199 352.316 395.495 352.142 390.831 351.87C386.944 351.633 383.159 351.834 379.622 352.673C376.121 353.512 372.477 354.052 368.656 354.232C364.553 353.714 360.409 353.334 356.42 352.68C350.879 351.758 346.531 352.303 343.512 354.991C340.511 354.951 338.751 355.825 338.31 357.498Z" fill="#8068E9"/>
</svg>
