<svg width="417" height="341" viewBox="0 0 417 341" fill="none" xmlns="http://www.w3.org/2000/svg">
<path d="M310.962 336.483C308.999 336.146 307.593 337.208 306.013 337.746C304.557 338.213 303.208 337.987 301.991 337.293C300.835 336.626 299.339 336.025 298.712 335.071C295.395 330.17 288.301 327.92 285.514 322.658C284.833 321.355 283.687 320.192 282.634 319.006C280.528 316.633 278.17 314.503 274.906 313.074C271.002 311.384 268.224 308.75 266.195 305.586C265.539 304.556 264.572 303.644 263.977 302.616C262.073 299.38 259.355 296.846 255.452 295.057C253.592 294.202 252.048 292.931 250.409 291.832C248.981 290.886 248.021 289.702 247.774 288.185C247.527 286.692 246.815 285.389 245.201 284.538C239.598 281.6 236.087 277.166 232.574 272.831C228.251 267.464 223.584 262.388 217.857 257.959C216.311 256.763 214.582 255.538 213.689 254.033C211.309 249.969 207.088 247.207 203.459 244.01C197.927 239.114 192.082 234.411 186.519 229.514C184.735 227.941 182.88 226.838 180.272 226.463C179.321 226.32 178.286 225.729 177.714 225.098C175.818 223.002 173.767 220.928 172.368 218.595C170.165 214.931 167.865 211.439 164.388 208.394C162.785 206.999 162.059 204.852 161.236 202.952C160.501 201.251 159.421 199.866 157.534 198.836C156.681 198.373 155.709 197.783 155.262 197.055C152.938 193.241 148.956 190.83 144.628 188.735C139.021 186.019 134.162 182.798 130.872 178.071C128.599 174.803 125.643 171.868 122.935 168.789C122.334 168.083 121.705 167.252 120.819 166.887C117.036 165.299 114.837 162.949 113.982 159.561C113.755 158.589 112.451 157.621 111.357 156.979C106.398 154.153 103.488 150.4 102.477 145.596C102.197 144.227 101.207 142.942 100.402 141.662C99.2694 139.854 97.7336 138.187 96.9405 136.312C95.09 131.937 92.402 127.892 89.9932 123.728C87.971 120.242 85.6306 117.269 81.7402 114.861C79.3094 113.324 77.6973 110.863 75.9254 108.695C74.5141 106.956 73.0368 105.439 70.4664 104.718C67.9263 104.022 66.2962 102.453 65.5062 100.429C64.2206 97.0315 62.3431 93.9942 58.3505 92.0794C57.0706 91.4586 56.7557 90.2872 56.1927 89.2099C53.11 83.3719 49.469 77.7459 44.679 72.642C41.8773 69.6604 38.9207 66.7252 35.7438 64.0336C34.0492 62.6113 31.7929 61.5743 29.6284 60.5639C26.5189 59.1131 23.3756 57.8104 20.5831 55.8949C17.2132 53.6208 14.1523 51.2784 12.7135 47.8533C11.6268 45.2781 8.609 43.854 6.92986 41.6636C5.55084 39.851 5.47522 37.4944 7.22772 36.0423C10.2008 33.5737 13.2349 31.1311 16.3291 28.7641C19.4545 26.3729 22.2127 23.8752 23.453 20.3553C24.0079 18.7799 25.544 17.3731 26.8629 16.061C28.1823 14.7242 30.0186 13.6953 31.2466 12.307C33.2299 10.0911 35.7484 8.80321 39.0245 8.10073C42.1149 7.44411 45.2094 6.58926 48.034 5.38192C51.9447 3.72544 55.8404 2.81237 60.3223 3.34884C62.0106 3.55637 64.1063 3.40033 65.5044 2.73438C69.2008 1.02402 72.9823 1.19923 76.9131 1.60065C79.032 1.81685 81.1892 1.66208 83.3121 1.68005C84.7236 1.88201 86.2631 1.83857 87.5157 2.28521C93.0458 4.2558 98.638 6.20282 103.977 8.51661C107.881 10.2065 111.767 11.3012 116.197 11.3656C125.826 11.5099 135.485 11.7046 145.104 12.3445C146.517 12.4474 147.968 12.2286 149.356 12.0335C152.596 11.6029 155.733 11.7158 158.82 12.7447C160.44 13.2979 162.276 13.8059 164 13.7662C171.049 13.6603 177.181 16.3124 183.642 17.905C185.326 18.3108 186.876 19.284 188.595 19.4921C195.409 20.3731 201.611 22.5802 207.748 24.9845C210.618 26.1082 213.741 26.8901 216.835 27.5969C218.918 28.0603 220.876 28.5955 222.67 29.6728C223.765 30.3393 225.26 30.9644 226.552 30.9656C231.137 30.9588 234.826 32.694 238.482 34.5277C240.706 35.6384 243.066 36.0826 245.587 36.2326C249.521 36.4605 253.423 36.7622 257.356 37.0645C262.825 37.4474 267.91 38.6157 271.778 42.1145C274.348 44.4221 277.559 45.4039 281.378 45.233C285.351 45.0651 289.216 45.6635 293.014 46.5581C297.149 47.5337 301.223 48.4587 305.553 48.893C308.654 49.2281 311.513 50.897 314.642 51.3814C322.709 52.6842 321.72 54.4244 324.037 58.5612C325.671 61.4697 327.278 64.1793 330.154 66.5426C332.878 68.7789 334.42 71.6856 334.906 75.0419C335.447 78.7464 337.099 82.2997 340.644 85.0483C341.644 85.8369 342.854 86.8281 343.08 87.849C344.01 92.0819 347.365 95.1241 350.752 98.0679C353.595 100.53 355.354 103.342 355.69 106.521C356.481 114.619 360.589 121.469 367.021 127.573C367.927 128.434 368.831 129.394 369.395 130.422C370.91 133.105 373.079 135.404 375.529 137.511C378.524 140.1 380.833 143.096 382.059 146.368C383.345 149.765 385.594 152.661 387.657 155.678C389.032 157.689 390.531 159.677 392.092 161.617C393.293 163.104 393.845 164.702 394.241 166.445C394.836 168.961 396.111 171.391 396.675 173.906C397.353 176.944 398.841 179.428 402.257 180.935C404.575 181.973 406.115 183.442 407.247 185.324C408.497 187.406 409.965 189.394 411.215 191.477C412.852 194.237 413.228 196.971 410.897 199.651C408.031 202.915 407.238 207.113 403.579 210.064C402.265 211.103 402.203 212.688 402.727 214.137C403.602 216.559 403.251 218.684 400.573 220.266C398.439 223.842 394.627 226.74 394.171 231.019C394.059 231.984 392.747 232.949 391.747 233.722C390.747 234.495 389.413 235.014 388.261 235.685C385.428 237.313 381.394 237.455 379.672 240.445C378.27 242.821 373.928 242.982 373.162 245.891C371.35 247.218 369.539 248.545 367.757 249.897C366.045 250.879 364.09 251.708 362.65 252.893C356.234 258.267 349.999 263.794 346.319 270.784C344.591 274.071 342.016 276.672 338.436 278.707C337.564 279.21 336.692 279.713 335.911 280.292C332.755 282.707 330.14 285.729 329.733 289.092C329.29 292.752 327.599 295.742 325.083 298.468C323.1 300.634 321.916 302.891 321.433 305.484C320.705 309.559 318.726 313.064 315.004 316.063C311.564 318.82 310.259 322.462 311.719 326.409C312.77 329.206 312.989 332.061 312.993 334.937L313.086 334.889C311.549 334.809 310.648 335.262 310.805 336.628L310.962 336.483Z" fill="#8068E9"/>
</svg>
