<svg width="433" height="461" viewBox="0 0 433 461" fill="none" xmlns="http://www.w3.org/2000/svg">
 <path d="M340.744 240.37C336.566 241.297 336.221 246.57 332.594 248.015C331.836 248.317 331.909 249.286 332.066 250.073C334.391 261.966 333.047 273.622 333.324 285.334C333.468 290.967 331.332 296.547 329.566 301.795C327.512 307.971 326.608 313.651 329.009 320.933C331.07 327.205 330.712 334.256 332.861 340.826C333.551 342.952 331.809 344.09 331.396 345.806C329.809 352.054 330.836 357.778 334.777 363.337C338.705 368.865 342.204 374.416 341.799 381.819C341.642 384.652 342.978 387.925 344.884 390.897C350.446 399.579 353.433 409.434 355.842 419.41C356.652 422.782 355.279 424.216 352.482 422.707C348.254 420.44 344.124 419.758 339.822 420.217C337.603 420.473 335.752 419.29 333.731 417.842C319.75 407.787 304.777 401.305 289.051 397.34C280.541 395.19 272.019 392.38 265.13 384.855C264.082 383.721 262.498 382.579 261.224 382.533C254.911 382.352 249.244 377.185 242.921 377.452C240.639 377.549 239.351 375.735 237.894 374.283C233.392 369.834 228.295 367.433 222.719 366.035C217.676 364.793 212.817 363.147 210.057 356.931C209.38 355.391 207.53 354.133 206.035 353.215C197.006 347.873 189.229 339.852 179.749 335.503C177.558 334.492 176.376 332.156 174.475 330.771C171.61 328.698 169.251 325.612 165.319 326.292C163.03 326.687 160.354 325.168 159.182 322.384C157.717 318.867 155.064 317.56 152.399 316.147C145.45 312.562 139.515 306.8 132.596 303.056C128.566 300.894 126.098 296.04 123.041 292.382C119.264 287.865 115.294 285.458 110.134 285.889C108.279 286.037 106.341 285.738 104.447 285.865C101.533 286.029 99.3293 284.987 97.9553 281.618C95.7155 276.156 90.4512 273.415 87.8309 268.179C86.9442 266.426 84.7955 266.544 83.1583 265.977C79.6451 264.717 76.5307 262.412 73.2456 260.544C67.8272 257.495 62.2426 255.288 59.2526 248.573C49.4516 244.758 52.7792 235.008 50.2128 227.94C52.839 219.578 48.3527 213.202 43.1478 207.777C39.1229 203.581 36.4662 199.985 37.477 193.707C38.0687 189.999 36.9708 185.67 35.2438 181.888C32.762 176.449 31.5661 171.089 32.7515 165.407C33.0518 163.957 32.6203 162.245 32.5484 160.648C32.4482 158.508 31.5845 155.712 32.4195 154.345C36.719 147.348 31.4493 139.399 32.3876 132.154C32.5476 130.981 32.0062 129.387 31.4007 128.261C28.0617 122.166 28.7006 115.114 25.7532 108.9C24.6758 106.669 25.3224 104.121 25.4961 101.724C25.6539 99.4442 26.7414 98.789 28.804 98.9275C37.1463 99.5553 45.1847 98.1614 53.258 97.0124C58.95 96.1844 64.623 99.2432 70.128 101.408C73.8511 102.88 77.3327 103.746 80.4727 101.866C86.8737 98.0955 94.1302 99.304 101.142 99.4276C103.824 99.467 106.396 99.624 108.64 98.2495C112.771 95.7896 117.213 96.3098 121.764 97.9688C125.994 99.5336 130.204 100.811 134.493 99.7667C136.893 99.1792 139.441 99.8264 141.386 101.637C145.788 105.757 150.971 106.72 155.747 106.664C163.462 106.581 171.366 107.605 178.853 105.693C180.417 105.291 182.141 105.601 183.795 105.422C195.465 104.169 207.401 106.653 219.175 106.763C222.769 106.808 226.386 106.991 229.743 106.208C238.954 103.977 248.43 105.483 257.898 106.179C265.008 106.707 272.099 106.319 279.167 106.347C283.19 106.368 287.061 106.636 291.167 108.361C295.659 110.265 300.515 109.623 305.22 111.59C307.173 112.4 309.3 112.069 311.175 114.019C312.945 115.862 314.759 114.511 316.589 114.225C320.008 113.675 322.038 115.304 322.999 119.133C324.194 123.94 323.264 128.374 321.345 132.058C318.741 137.012 318.385 142.179 319.529 148.04C320.395 152.572 320.339 156.917 318.636 161.142C317.146 164.802 316.556 169.065 316.928 173.461C317.012 174.536 316.605 175.954 317.086 176.612C322.098 183.518 321.369 191.604 322.692 199.094C325.385 214.35 332.491 227.219 340.744 240.37Z" fill="#8068E9"/>
</svg>
