<svg width="390" height="343" viewBox="0 0 390 343" fill="none" xmlns="http://www.w3.org/2000/svg">
 <path d="M381.639 80.389C381.537 82.077 380.919 83.4972 381.503 84.3304C385.517 90.2121 381.83 95.7455 380.732 101.124C379.838 105.384 376.119 109.213 373.201 112.934C370.928 115.853 369.195 118.839 369 122.421C368.515 131.216 367.074 139.983 365.95 148.672C365.027 155.713 362.168 162.901 358.382 169.536C353.595 177.926 350.004 186.902 344.608 194.954C341.306 199.86 340.004 205.507 335.751 210.062C332.876 213.143 332.848 217.89 332.38 222.025C331.881 226.421 330.331 230.161 325.891 232.584C323.142 234.068 322.321 236.313 321.995 239C320.834 248.564 315.841 256.958 312.002 265.727C311.34 267.23 309.98 267.71 308.36 268.07C303.15 269.226 298.288 270.894 293.885 273.584C292.256 274.588 290.075 275.056 287.781 275.042C283.431 275.041 279.697 276.729 275.766 278.069C269.335 280.249 263.221 282.644 257.481 285.905C255.679 286.918 252.782 286.801 250.394 286.716C244.805 286.477 239.484 287.415 234.883 289.759C228.965 292.793 222.363 294.689 216.756 298.259C213.86 300.106 210.542 301.756 206.536 301.739C202.871 301.734 199.938 303.606 196.905 304.879C190.621 307.547 184.011 308.943 176.994 309.176C174.379 309.269 171.918 309.791 170.67 311.604C167.722 315.849 162.175 316.114 157.685 317.826C154.991 318.848 151.713 318.479 149.242 316.538C146.213 314.118 141.775 313.432 139.313 310.289C138.779 309.609 137.306 308.756 136.633 308.938C130.891 310.528 127.872 306.614 124.16 304.17C122.416 303.02 120.747 301.527 118.623 301.24C115.356 300.785 114.349 298.639 112.807 296.664C99.8996 280.233 95.6677 271.07 75.7944 260.097C73.2269 258.671 71.5447 256.444 69.9707 254.171C67.3869 250.34 63.1756 248.626 58.536 246.773C50.2346 243.478 41.8133 239.759 34.629 235.163C28.9705 231.545 24.7461 228.247 17.5876 229.928C13.1445 230.972 12.4013 227.217 10.4546 225.192C8.48116 223.106 9.30418 221.124 11.617 219.851C16.6897 217.007 20.7746 212.988 26.3511 210.792C31.2441 208.865 36.0695 206.929 38.8821 202.668C39.3854 201.908 40.2299 201.16 41.1335 200.771C49.3744 197.228 57.9749 194.108 63.4944 187.302C74.3125 184.54 82.7691 178.091 92.0259 173.234C104.543 166.632 117.473 160.022 127.911 150.794C134.727 149.393 135.757 142.042 142.414 140.534C149.887 138.802 155.942 134.641 163.322 132.547C168.784 131.011 174.263 127.923 177.653 123.703C181.726 118.656 187.037 115.255 193.181 112.336C197.728 110.161 203.329 109.17 206.216 104.859C215.083 104.059 219.519 94.8933 229.555 96.3168C237.443 92.2903 246.926 92.0635 255.155 88.8993C256.126 88.5188 257.353 88.2867 257.978 87.6588C261.364 84.3172 266.825 83.0744 270.05 80.2116C274.041 76.6796 279.289 75.499 283.074 72.8214C288.248 69.1398 294.319 68.235 299.889 66.0965C309.732 62.3367 318.742 58.0947 324.859 50.0418C327.794 46.1764 331.43 42.1907 337.857 41.7395C338.823 41.6809 339.735 40.9414 340.649 40.466C347.875 36.535 347.841 36.5309 353.569 42.6794C357.513 46.8815 361.353 50.8072 367.204 53.687C372.502 56.3238 377.59 60.6941 378.156 67.0369C378.358 69.3189 379.341 71.6664 380.527 73.7454C381.925 76.0553 383.398 78.3157 381.639 80.389Z" fill="#8068E9"/>
</svg>
