<svg width="493" height="1159" viewBox="0 0 493 1159" fill="none" xmlns="http://www.w3.org/2000/svg">
 <path d="M3.43493 319.183C0.301956 324.923 0.330266 324.923 0.283083 330.264C0.235899 336.219 0.122659 342.182 0.0660394 348.137C0.047166 350.728 -0.141567 353.343 0.169843 355.91C0.839846 361.61 0.49069 367.294 0.43407 372.994C0.37745 379.212 0.594493 385.43 0.77379 391.641C0.8021 392.653 1.12295 393.681 1.52872 394.638C1.68915 395.021 2.46295 395.523 2.89704 395.483C4.39747 395.34 5.85072 394.877 7.35115 394.758C8.19101 394.686 9.15355 394.933 9.92736 395.252C10.3709 395.435 10.7672 396.065 10.7767 396.503C10.7861 396.886 10.3048 397.548 9.90849 397.628C8.14383 398.002 6.27537 398.082 4.53902 398.536C2.67056 399.023 1.48154 400.226 1.16069 401.908C1.00971 402.674 0.934213 403.455 0.91534 404.228C0.77379 410.446 0.60393 416.665 0.54731 422.883C0.43407 436.866 0.292519 450.856 0.330266 464.847C0.386886 488.428 0.54731 512.01 0.707733 535.591C0.726606 538.692 0.57562 541.809 1.72689 544.838C1.99112 545.54 2.04774 546.433 1.78351 547.118C-0.349174 552.683 0.226463 558.415 0.264209 564.099C0.330266 575.754 0.60393 587.417 0.63224 599.072C0.669986 612.807 0.500126 626.543 0.471816 640.271C0.40576 670.07 0.358576 699.87 0.320829 729.669C0.292519 753.25 0.273646 776.831 0.264209 800.412C0.264209 802.485 0.339703 804.558 0.396323 806.631C0.452943 808.791 1.2645 810.688 3.11408 812.235C5.29396 814.052 7.24735 816.141 9.70088 817.64C14.0134 820.279 17.4767 823.595 20.3643 827.206C22.431 829.789 24.5731 831.519 28.2817 831.694C28.5648 831.71 28.8573 831.878 29.1121 832.013C30.1785 832.579 31.0183 833.297 31.3109 834.373C31.5562 835.258 30.9334 836.366 29.7727 836.988C28.4799 837.681 27.1682 838.359 25.8376 838.989C20.4115 841.54 19.6377 841.341 16.316 836.996C15.3063 835.673 14.5041 834.333 14.0229 832.795C13.7209 831.822 13.183 830.778 12.3809 830.068C9.83299 827.836 7.13411 825.731 4.43522 823.635C4.04831 823.332 3.13296 823.109 2.74605 823.292C2.02887 823.635 1.10407 824.241 1.00971 824.831C0.669986 826.871 0.537873 828.952 0.519 831.017C0.386886 844.49 0.254773 857.97 0.207589 871.443C0.169843 882.588 0.217026 893.733 0.254773 904.869C0.34914 931.297 0.46238 957.732 0.54731 984.159C0.556746 986.487 0.40576 988.822 0.386886 991.15C0.283083 1000.74 0.198153 1010.32 0.122659 1019.91C0.113223 1020.95 0.179279 1021.99 0.235899 1023.02C0.339703 1025.14 0.877593 1027.11 2.77436 1028.68C3.42549 1029.22 4.12381 1029.85 4.35973 1030.56C4.69001 1031.51 4.86931 1032.61 4.64283 1033.57C4.40691 1034.53 3.77465 1035.54 2.98197 1036.26C1.42492 1037.7 0.77379 1039.33 0.707733 1041.21C0.641676 1043.02 0.54731 1044.83 0.528436 1046.64C0.415196 1054.93 0.254773 1063.22 0.254773 1071.51C0.254773 1095.61 0.311393 1119.71 0.368013 1143.81C0.368013 1145.62 0.452943 1147.43 0.669986 1149.23C0.868156 1150.9 1.90619 1152.24 3.87846 1152.65C6.23762 1153.16 8.69116 1153.75 11.0692 1153.68C14.4475 1153.57 17.7787 1153.4 21.1476 1153.84C22.3366 1153.99 23.62 1153.91 24.7996 1153.72C31.1127 1152.69 37.4919 1151.85 43.6918 1150.44C49.9011 1149.04 56.2425 1148.03 62.2726 1146.04C65.1413 1145.09 68.2932 1144.46 71.3035 1145.11C76.2766 1146.17 81.0044 1145.67 85.751 1144.41C86.0436 1144.33 86.355 1144.32 86.6475 1144.24C89.7333 1143.41 92.7153 1144.59 95.7728 1144.53C99.1605 1144.47 102.19 1142.85 105.7 1143.13C112.806 1143.69 119.761 1142.81 126.593 1141.16C130.179 1140.29 133.812 1140.08 137.521 1140.35C141.512 1140.63 145.447 1141.07 149.165 1142.4C152.6 1143.64 156.13 1144.18 159.914 1144.05C162.311 1143.96 164.793 1144.4 167.161 1144.87C172.833 1145.97 178.495 1147.08 184.062 1148.55C187.271 1149.39 190.583 1150.2 193.905 1150.43C198.302 1150.73 202.398 1151.89 206.201 1153.41C211.825 1155.66 217.798 1156.71 223.649 1158.2C227.254 1159.13 230.887 1159.16 234.567 1158.59C236.672 1158.27 238.814 1157.74 240.909 1157.82C244.023 1157.94 246.986 1157.73 249.977 1157.02C251.091 1156.74 252.384 1156.92 253.592 1156.99C255.404 1157.1 257.215 1157.42 259.027 1157.41C265.793 1157.37 272.39 1156.71 278.957 1154.99C284.761 1153.47 290.961 1153 296.981 1152.08C298.925 1151.79 300.492 1152.85 302.257 1153.19C303.106 1153.36 304.106 1153.25 304.955 1153.05C306.72 1152.63 308.419 1152.01 310.174 1151.58C311.618 1151.23 313.147 1150.77 314.6 1150.84C318.403 1151 321.828 1150.55 324.999 1148.51C326.943 1147.26 329.5 1146.54 331.963 1147.09C335.219 1147.82 338.04 1147.04 340.787 1145.85C344.061 1144.42 347.175 1142.64 351.148 1144.01C351.658 1144.18 352.394 1144.07 352.96 1143.92C356.546 1142.98 360.198 1143.06 363.897 1143.14C366.313 1143.19 368.785 1142.83 371.173 1142.43C379.288 1141.09 387.262 1139.2 395.472 1138.23C397.388 1137.99 398.813 1136.94 399.888 1135.64C400.587 1134.8 401.143 1133.86 401.653 1132.92C402.974 1130.45 404.918 1128.7 408.127 1127.81C410.42 1127.18 412.59 1126.12 414.657 1125.02C415.619 1124.51 416.761 1123.53 416.856 1122.69C417.28 1118.77 418.243 1115.11 421.121 1111.85C421.97 1110.89 422.159 1109.41 422.329 1108.14C422.602 1106.09 422.867 1103.99 422.669 1101.94C422.225 1097.4 423.037 1093.15 426.066 1089.32C427.547 1087.44 427.481 1085.47 427.151 1083.35C426.339 1077.98 425.075 1072.61 426.49 1067.16C426.679 1066.41 426.575 1065.6 426.519 1064.83C426.075 1058.86 426.707 1052.93 427.226 1047C427.387 1045.21 427.491 1043.35 427.151 1041.59C426.264 1036.94 426.547 1032.29 426.547 1027.62C426.547 1025.55 426.887 1023.4 426.358 1021.43C424.914 1016 425.433 1010.61 426.141 1005.2C426.443 1002.85 426.273 1000.57 425.886 998.245C425.037 993.127 423.933 987.993 423.773 982.843C423.48 973.795 422.367 964.771 422.952 955.699C423.14 952.805 422.565 949.983 420.658 947.504C418.715 944.969 418.394 942.29 418.762 939.332C419.545 933.146 419.904 926.944 418.092 920.789C417.582 919.052 417.431 917.178 417.526 915.384C417.761 910.992 418.035 906.591 418.667 902.223C419.3 897.846 419.922 893.493 419.847 889.069C419.8 886.207 419.79 883.369 418.224 880.722C417.365 879.279 417.488 877.709 417.535 876.154C417.648 872.519 417.346 868.948 416.167 865.392C415.27 862.666 414.779 859.836 413.647 857.141C412.401 854.183 412.184 851.035 412.241 847.941C412.307 844.84 412.694 841.755 412.222 838.638C412.071 837.658 412.477 836.589 412.798 835.609C413.128 834.612 413.609 833.648 414.138 832.715C415.893 829.614 416.94 826.457 416.176 822.949C415.789 821.156 416.27 819.362 417.063 817.624C420.583 809.843 422.584 801.76 423.933 793.525C424.688 788.917 425.886 784.357 426.434 779.741C426.773 776.887 427.264 774.145 428.255 771.394C430.671 764.682 431.813 757.778 431.935 750.747C431.983 747.909 431.945 744.951 432.851 742.265C434.295 738 434.077 733.511 435.767 729.31C436.05 728.617 436.087 727.684 435.767 727.022C434.596 724.591 435.691 722.462 436.654 720.262C437.286 718.811 437.654 717.264 438.333 715.83C439.494 713.374 440.089 710.903 439.702 708.24C439.56 707.268 439.881 706.191 440.249 705.235C442.429 699.591 444.769 693.986 446.855 688.318C447.666 686.118 448.61 683.734 448.383 681.51C447.742 674.949 449.714 668.667 450.629 662.282C452.63 658.607 452.394 654.716 452.158 650.826C451.998 648.227 452.007 645.7 453.442 643.237C454.225 641.889 454.347 640.255 454.725 638.74C455.414 635.958 455.904 633.144 456.763 630.402C458.198 625.818 458.849 621.266 457.15 616.65C456.48 614.84 456.603 613.102 457.329 611.325C457.726 610.36 457.971 609.308 458.009 608.287C458.15 603.632 458.49 598.952 458.188 594.312C457.905 589.808 458.528 585.511 460.585 581.398C461.585 579.397 462.057 577.436 461.255 575.371C460.472 573.33 460.774 571.305 460.981 569.225C461.651 562.257 463.86 555.481 464.331 548.489C464.539 545.396 465.369 542.335 464.341 539.234C464.18 538.748 464.105 538.174 464.246 537.695C465.804 532.426 467.172 527.132 467.634 521.704C470.173 517.694 470.777 513.564 470.003 508.988C469.446 505.736 470.39 502.3 470.626 498.944C470.72 497.604 471.173 496.416 472.192 495.38C472.975 494.583 473.872 493.841 474.495 492.965C476.052 490.756 478.911 489.034 479.166 486.38C479.458 483.31 478.552 480.225 477.599 477.228C477.118 475.729 476.325 474.31 475.863 472.811C475.561 471.831 475.297 470.731 475.523 469.774C476.023 467.677 475.674 465.692 475.306 463.62C474.278 457.696 474.08 451.765 475.731 445.858C476.222 444.104 476.203 442.263 476.514 440.469C477.345 435.614 477.967 430.711 479.185 425.92C479.836 423.385 480.619 420.914 480.676 418.299C480.78 412.966 482.733 408.198 486.602 403.925C488.452 401.885 489.98 399.613 491.509 397.38C493.293 394.766 493.34 391.888 492.481 389.074C491.49 385.821 490.329 382.592 488.933 379.451C487.149 375.433 486.828 371.288 487.8 367.214C489.15 361.57 489.074 355.878 489.518 350.194C489.641 348.672 489.631 346.973 488.942 345.618C486.13 340.07 485.875 333.995 483.714 328.327C483.148 326.836 483.025 325.298 483.299 323.719C484.214 318.529 483.95 313.395 482.157 308.333C481.544 306.603 481.11 304.818 480.761 303.04C480.515 301.78 480.128 300.353 480.581 299.229C481.619 296.63 481.1 294.175 480.666 291.6C480.119 288.284 480.374 284.888 478.93 281.643C478.411 280.487 478.647 279.092 478.552 277.808C478.373 275.481 478.288 273.153 477.986 270.833C477.458 266.727 478.213 262.582 477.241 258.492C477.071 257.775 477.373 256.954 477.581 256.196C478.401 253.167 477.798 250.002 479.053 246.981C480.449 243.601 477.562 240.444 477.901 237.064C477.977 236.298 477.675 235.501 477.769 234.744C478.024 232.623 477.571 230.63 476.693 228.653C475.382 225.704 474.825 222.682 475.438 219.501C475.674 218.282 475.344 216.958 475.146 215.699C474.448 211.354 473.532 207.025 473.023 202.664C472.655 199.563 472.277 196.518 471.013 193.553C470.088 191.376 469.88 189.12 470.201 186.705C470.814 182.041 470.343 177.409 467.011 173.312C465.549 171.51 465.398 169.477 465.785 167.341C466.389 164.016 467.172 160.684 467.332 157.328C467.653 150.56 471.428 144.963 475.353 139.415C476.911 137.214 478.911 135.221 480.912 133.276C482.497 131.73 485.13 131.06 486.272 129.107C487.621 126.803 485.715 124.547 485.96 122.227C486.158 120.346 485.328 118.703 484.007 117.181C482.563 115.515 481.27 113.801 479.515 112.294C476.505 109.719 473.778 106.905 471.041 104.123C468.597 101.635 467.37 98.917 468.295 95.505C468.974 93.0177 468.88 90.3631 469.012 87.7801C469.21 83.6905 467.644 80.1669 464.152 77.2651C460.132 73.9248 457.235 70.0504 456.225 65.2752C456.008 64.2628 455.801 63.1865 455.244 62.2937C451.177 55.661 448.081 48.534 441.514 43.1768C437.937 40.2511 434.908 37.0384 434.002 32.7335C433.898 32.2313 433.757 31.6573 433.398 31.2826C430.407 28.2134 429.35 24.3789 427.453 20.8712C426.726 19.5239 426.037 17.9694 423.895 17.4273C421.64 18.5753 419.375 19.8588 416.969 20.919C414.251 22.1148 411.458 23.1911 408.608 24.1477C400.577 26.8502 393.509 30.9319 386.385 34.9497C382.534 37.1181 378.863 39.3662 376.061 42.5391C374.004 44.8589 371.38 46.6048 368.143 47.689C365.822 48.4623 363.869 49.7218 362.264 51.3322C360.821 52.7751 358.924 53.4687 356.876 54.1224C348.808 56.7133 340.456 58.3316 331.963 59.3919C328.264 59.8542 324.744 60.4442 321.592 62.2299C318.45 64.0156 315.072 64.9563 311.174 64.5497C309.73 64.3983 308.192 64.8686 307.116 64.9962C305.154 66.471 305.22 68.735 303.012 69.4924C300.832 69.4924 298.661 69.2771 296.585 69.5482C294.188 69.8591 291.886 70.6403 289.517 71.1506C285.337 72.0514 281.317 73.2472 277.58 75.1047C275.636 76.0693 273.475 76.1012 271.323 75.6547C267.473 74.8575 263.613 74.0922 259.82 73.1356C257.97 72.6652 256.206 72.5217 254.422 73.008C249.77 74.2835 245.806 72.7529 242.607 70.2976C238.54 67.1805 234.992 63.5692 231.312 60.1014C228.66 57.5982 226.112 55.0073 223.611 52.3925C220.658 49.2993 216.958 47.0034 212.835 45.2496C209.796 43.9581 207.022 42.4594 204.54 40.4584C202.096 38.4893 194.584 35.4759 191.432 35.2925C187.299 35.0534 183.675 33.8097 180.278 31.9762C177.438 30.4456 174.824 28.5721 171.861 27.2647C168.907 25.9653 165.595 25.2478 162.509 24.1318C160.829 23.5259 159.319 22.6011 157.706 21.8438C156.904 21.4691 156.054 21.1582 155.224 20.8393C153.695 20.2494 151.959 20.919 151.628 22.2663C151.194 24.0281 150.845 25.8138 150.392 27.5677C150.185 28.3729 148.09 28.9468 147.24 28.4127C145.532 27.3285 143.881 26.1806 142.211 25.0565C139.04 22.92 136.398 20.5204 135.445 16.9968C135.029 15.4742 133.812 14.1588 132.132 13.4014C129.065 12.0143 126.914 9.87783 124.819 7.62176C122.554 5.18233 120.091 2.87842 117.694 0.526683C117.043 -0.111076 115.09 -0.270516 114.259 0.207804C113.495 0.638291 112.721 1.06081 112.013 1.5471C109.635 3.1973 107.738 5.23813 105.672 7.14344C103.643 9.01685 100.736 10.2047 98.7076 12.0781C97.0278 13.6167 95.3764 15.0835 93.2909 16.2076C89.3653 18.3202 85.9869 20.9111 83.4013 24.2115C81.3818 26.7944 78.3621 28.1735 74.8517 28.0301C72.2943 27.9184 70.0578 28.4845 67.6609 28.8591C64.9715 29.2817 62.1405 28.9947 59.451 29.4092C56.9786 29.7919 54.6383 29.8556 52.1753 29.473C49.7784 29.1063 47.306 29.0345 44.8714 28.8432C43.654 28.7475 42.3235 28.9149 41.2288 28.5562C36.1141 26.898 30.4993 26.2842 26.0546 23.207C24.9128 22.4098 23.4124 21.8597 21.9686 21.5249C19.3169 20.9031 16.6085 20.3849 13.8908 20.074C12.0978 19.8667 10.1538 19.787 8.41749 20.1458C0.962523 21.7083 0.160406 21.3575 0.141533 28.1177C0.141533 28.899 0.141533 29.6723 0.141533 30.4535C0.198153 45.7917 0.254773 61.0819 0.320829 76.3722C0.415196 98.3988 0.585056 120.425 0.60393 142.452C0.622803 174.842 0.54731 207.24 0.500126 239.631C0.49069 249.994 0.43407 260.358 0.43407 270.721C0.443506 283.158 0.443506 295.594 0.556746 308.03C0.622803 313.834 0.736043 313.834 3.43493 319.183Z" fill="#8068E9"/>
 <path d="M3.43724 319.182C0.738349 313.825 0.625109 313.825 0.568489 308.038C0.455249 295.601 0.455249 283.165 0.445812 270.729C0.436375 260.365 0.492995 250.002 0.511869 239.638C0.559052 207.248 0.634545 174.85 0.615672 142.459C0.596799 120.433 0.426939 98.4061 0.332572 76.3795C0.257079 61.0813 0.200459 45.791 0.143839 30.5087C0.143839 29.7274 0.143839 28.9541 0.143839 28.1729C0.162712 21.4126 0.964829 21.7714 8.4198 20.2009C10.1467 19.8342 12.1001 19.9139 13.8931 20.1291C16.6203 20.448 19.3286 20.9582 21.9709 21.58C23.4147 21.9228 24.9151 22.4729 26.0569 23.2621C30.5016 26.3393 36.1164 26.9532 41.2311 28.6113C42.3258 28.9701 43.6563 28.8027 44.8737 28.8983C47.3083 29.0897 49.7713 29.1614 52.1776 29.5281C54.6406 29.9028 56.9809 29.839 59.4533 29.4643C62.1428 29.0498 64.9832 29.3368 67.6632 28.9143C70.0601 28.5396 72.2966 27.9816 74.854 28.0852C78.3644 28.2367 81.3841 26.8575 83.4036 24.2666C85.9892 20.9662 89.3581 18.3753 93.2932 16.2627C95.3787 15.1466 97.0301 13.6718 98.7099 12.1332C100.748 10.2678 103.645 9.07199 105.674 7.19857C107.741 5.29327 109.638 3.25244 112.016 1.60223C112.723 1.10797 113.507 0.693427 114.262 0.262939C115.092 -0.207408 117.045 -0.0559404 117.696 0.581819C120.093 2.93356 122.556 5.23746 124.821 7.67689C126.916 9.94094 129.068 12.0774 132.135 13.4566C133.814 14.2139 135.032 15.5293 135.447 17.052C136.4 20.5676 139.042 22.9751 142.213 25.1116C143.883 26.2357 145.535 27.3837 147.243 28.4678C148.092 29.002 150.187 28.428 150.395 27.6228C150.847 25.861 151.197 24.0832 151.631 22.3214C151.961 20.9742 153.688 20.3045 155.226 20.8945C156.057 21.2133 156.906 21.5242 157.708 21.8989C159.322 22.6483 160.831 23.573 162.511 24.1869C165.597 25.303 168.9 26.0204 171.863 27.3199C174.826 28.6273 177.44 30.5007 180.28 32.0313C183.678 33.8569 187.301 35.1085 191.435 35.3477C194.586 35.531 202.098 38.5444 204.542 40.5135C207.024 42.5145 209.789 44.0053 212.837 45.3047C216.97 47.0585 220.66 49.3545 223.614 52.4476C226.114 55.0624 228.662 57.6453 231.314 60.1565C234.994 63.6243 238.542 67.2356 242.61 70.3527C245.809 72.8081 249.772 74.3387 254.424 73.0632C256.208 72.5769 257.973 72.7283 259.822 73.1907C263.616 74.1474 267.475 74.9127 271.325 75.7099C273.477 76.1563 275.638 76.1164 277.582 75.1598C281.319 73.3023 285.339 72.1065 289.519 71.2057C291.888 70.6955 294.191 69.9142 296.587 69.6033C298.663 69.3323 300.834 69.5475 303.014 69.5475C305.222 68.7902 305.156 66.5341 307.119 65.0513C308.195 64.9158 309.733 64.4534 311.177 64.6049C315.074 65.0115 318.452 64.0708 321.595 62.285C324.737 60.4993 328.257 59.9094 331.965 59.447C340.459 58.3867 348.819 56.7684 356.878 54.1775C358.926 53.5158 360.832 52.8302 362.267 51.3873C363.871 49.777 365.824 48.5174 368.146 47.7441C371.382 46.6679 374.006 44.9141 376.063 42.5942C378.866 39.4293 382.537 37.1812 386.387 35.0049C393.521 30.979 400.58 26.8974 408.61 24.2028C411.451 23.2462 414.253 22.162 416.971 20.9742C419.377 19.9219 421.642 18.6304 423.898 17.4824C426.04 18.0245 426.738 19.5791 427.455 20.9263C429.343 24.434 430.409 28.2685 433.4 31.3378C433.768 31.7124 433.9 32.2864 434.004 32.7887C434.92 37.0935 437.939 40.3142 441.516 43.232C448.074 48.5892 451.179 55.7161 455.246 62.3488C455.794 63.2496 456.011 64.3179 456.228 65.3303C457.237 70.1056 460.134 73.9799 464.154 77.3202C467.646 80.222 469.212 83.7456 469.014 87.8353C468.892 90.4182 468.977 93.0649 468.297 95.5601C467.372 98.9721 468.599 101.691 471.043 104.178C473.78 106.968 476.507 109.782 479.517 112.349C481.273 113.848 482.565 115.57 484.009 117.236C485.33 118.759 486.161 120.401 485.963 122.282C485.717 124.602 487.623 126.85 486.274 129.162C485.132 131.115 482.499 131.785 480.914 133.331C478.913 135.277 476.913 137.27 475.356 139.47C471.43 145.018 467.665 150.615 467.335 157.383C467.174 160.731 466.391 164.063 465.787 167.396C465.4 169.524 465.551 171.565 467.014 173.367C470.345 177.456 470.817 182.088 470.203 186.76C469.882 189.183 470.09 191.431 471.015 193.608C472.279 196.573 472.666 199.619 473.025 202.72C473.534 207.08 474.459 211.409 475.148 215.754C475.346 217.013 475.677 218.337 475.441 219.556C474.827 222.737 475.384 225.751 476.696 228.708C477.573 230.685 478.026 232.678 477.772 234.799C477.677 235.564 477.979 236.353 477.904 237.119C477.573 240.499 480.461 243.656 479.055 247.036C477.8 250.057 478.404 253.214 477.583 256.252C477.385 257.001 477.073 257.83 477.243 258.547C478.206 262.637 477.46 266.791 477.989 270.888C478.291 273.2 478.366 275.536 478.555 277.864C478.659 279.147 478.423 280.542 478.932 281.698C480.376 284.943 480.121 288.331 480.669 291.655C481.093 294.23 481.622 296.686 480.584 299.284C480.131 300.416 480.527 301.835 480.763 303.095C481.103 304.881 481.546 306.658 482.16 308.388C483.953 313.451 484.217 318.585 483.301 323.774C483.018 325.353 483.15 326.883 483.717 328.382C485.878 334.05 486.132 340.125 488.945 345.673C489.633 347.029 489.643 348.735 489.52 350.249C489.077 355.925 489.152 361.625 487.803 367.27C486.831 371.343 487.152 375.481 488.935 379.506C490.332 382.647 491.492 385.876 492.483 389.129C493.342 391.943 493.295 394.821 491.511 397.436C489.983 399.676 488.463 401.94 486.604 403.981C482.735 408.246 480.782 413.021 480.678 418.354C480.631 420.969 479.838 423.44 479.187 425.975C477.97 430.766 477.347 435.661 476.516 440.524C476.214 442.318 476.224 444.159 475.733 445.913C474.082 451.82 474.28 457.752 475.309 463.675C475.667 465.748 476.016 467.733 475.526 469.829C475.299 470.794 475.554 471.894 475.865 472.866C476.328 474.365 477.13 475.792 477.602 477.283C478.564 480.28 479.461 483.358 479.168 486.435C478.923 489.089 476.063 490.811 474.497 493.02C473.874 493.897 472.978 494.638 472.194 495.435C471.175 496.472 470.722 497.667 470.628 498.999C470.392 502.355 469.458 505.791 470.005 509.043C470.788 513.619 470.175 517.749 467.637 521.759C467.174 527.188 465.806 532.481 464.249 537.751C464.107 538.229 464.183 538.803 464.343 539.289C465.362 542.382 464.541 545.444 464.334 548.545C463.862 555.536 461.654 562.312 460.984 569.28C460.785 571.36 460.474 573.377 461.257 575.426C462.05 577.491 461.578 579.46 460.587 581.453C458.53 585.575 457.898 589.863 458.19 594.368C458.483 599.015 458.153 603.687 458.011 608.342C457.983 609.363 457.728 610.415 457.332 611.38C456.605 613.158 456.492 614.896 457.152 616.705C458.851 621.321 458.2 625.881 456.765 630.457C455.907 633.199 455.416 636.013 454.727 638.796C454.35 640.31 454.227 641.944 453.444 643.292C452.009 645.755 452 648.282 452.16 650.881C452.396 654.771 452.623 658.662 450.632 662.337C449.716 668.73 447.744 675.004 448.386 681.565C448.603 683.789 447.669 686.173 446.857 688.373C444.762 694.041 442.422 699.646 440.251 705.29C439.883 706.247 439.562 707.323 439.704 708.295C440.091 710.958 439.487 713.429 438.336 715.885C437.656 717.32 437.288 718.866 436.656 720.317C435.693 722.517 434.599 724.646 435.769 727.077C436.09 727.739 436.043 728.672 435.769 729.365C434.08 733.567 434.297 738.055 432.853 742.32C431.947 745.006 431.985 747.964 431.938 750.802C431.815 757.833 430.673 764.737 428.257 771.449C427.266 774.2 426.776 776.95 426.436 779.796C425.889 784.412 424.69 788.972 423.935 793.58C422.586 801.807 420.595 809.898 417.065 817.679C416.282 819.417 415.791 821.211 416.178 823.004C416.943 826.512 415.905 829.669 414.14 832.77C413.612 833.703 413.13 834.667 412.8 835.664C412.47 836.652 412.073 837.721 412.224 838.693C412.696 841.81 412.3 844.895 412.243 847.996C412.177 851.09 412.404 854.239 413.649 857.196C414.782 859.899 415.263 862.721 416.169 865.447C417.339 869.011 417.65 872.574 417.537 876.209C417.49 877.772 417.367 879.334 418.226 880.777C419.793 883.424 419.802 886.262 419.849 889.124C419.925 893.549 419.292 897.901 418.67 902.278C418.047 906.639 417.764 911.047 417.528 915.44C417.433 917.233 417.584 919.107 418.094 920.845C419.906 926.999 419.547 933.193 418.764 939.387C418.396 942.345 418.707 945.024 420.661 947.559C422.567 950.038 423.143 952.86 422.954 955.754C422.369 964.818 423.482 973.85 423.775 982.899C423.945 988.048 425.039 993.182 425.889 998.3C426.276 1000.63 426.445 1002.91 426.143 1005.25C425.445 1010.66 424.917 1016.05 426.361 1021.48C426.889 1023.46 426.54 1025.6 426.549 1027.68C426.549 1032.34 426.266 1037 427.153 1041.64C427.493 1043.41 427.389 1045.26 427.229 1047.06C426.71 1053 426.077 1058.92 426.521 1064.88C426.578 1065.66 426.691 1066.47 426.493 1067.21C425.077 1072.66 426.342 1078.04 427.153 1083.41C427.474 1085.53 427.55 1087.5 426.068 1089.37C423.039 1093.21 422.227 1097.45 422.671 1102C422.869 1104.04 422.605 1106.14 422.331 1108.19C422.161 1109.47 421.972 1110.94 421.123 1111.91C418.245 1115.16 417.282 1118.82 416.858 1122.74C416.763 1123.59 415.622 1124.57 414.659 1125.08C412.592 1126.17 410.422 1127.24 408.129 1127.87C404.93 1128.75 402.986 1130.52 401.655 1132.98C401.155 1133.92 400.589 1134.85 399.891 1135.7C398.815 1137 397.39 1138.06 395.474 1138.28C387.264 1139.25 379.281 1141.14 371.175 1142.49C368.778 1142.89 366.315 1143.25 363.899 1143.2C360.2 1143.13 356.548 1143.05 352.962 1143.97C352.396 1144.12 351.66 1144.24 351.15 1144.06C347.177 1142.7 344.063 1144.47 340.789 1145.9C338.043 1147.1 335.231 1147.87 331.965 1147.15C329.503 1146.6 326.945 1147.31 325.001 1148.56C321.831 1150.61 318.405 1151.06 314.602 1150.89C313.139 1150.83 311.62 1151.28 310.176 1151.63C308.412 1152.06 306.722 1152.69 304.958 1153.1C304.099 1153.3 303.099 1153.4 302.259 1153.24C300.494 1152.9 298.937 1151.84 296.984 1152.14C290.954 1153.05 284.763 1153.52 278.96 1155.05C272.392 1156.77 265.796 1157.42 259.029 1157.47C257.218 1157.48 255.406 1157.15 253.594 1157.05C252.395 1156.97 251.103 1156.81 249.98 1157.07C246.988 1157.79 244.016 1158 240.911 1157.88C238.816 1157.8 236.674 1158.32 234.57 1158.65C230.889 1159.22 227.256 1159.18 223.651 1158.26C217.801 1156.76 211.818 1155.72 206.203 1153.47C202.4 1151.94 198.295 1150.79 193.907 1150.49C190.585 1150.25 187.273 1149.45 184.065 1148.6C178.497 1147.14 172.835 1146.02 167.163 1144.92C164.785 1144.46 162.313 1144.01 159.916 1144.1C156.132 1144.24 152.612 1143.69 149.168 1142.46C145.45 1141.12 141.515 1140.68 137.523 1140.4C133.814 1140.14 130.191 1140.35 126.595 1141.21C119.773 1142.86 112.808 1143.74 105.702 1143.18C102.201 1142.9 99.1628 1144.53 95.7751 1144.59C92.727 1144.64 89.7356 1143.46 86.6498 1144.3C86.3573 1144.38 86.0459 1144.39 85.7533 1144.47C81.0067 1145.73 76.2789 1146.22 71.3058 1145.16C68.2955 1144.51 65.1436 1145.14 62.2749 1146.09C56.2543 1148.09 49.9034 1149.09 43.6941 1150.49C37.4942 1151.9 31.115 1152.74 24.8019 1153.78C23.6128 1153.97 22.3295 1154.05 21.1499 1153.9C17.781 1153.47 14.4498 1153.63 11.0715 1153.74C8.69346 1153.82 6.23993 1153.21 3.88076 1152.71C1.9085 1152.29 0.870462 1150.95 0.672292 1149.29C0.455249 1147.49 0.379755 1145.67 0.370319 1143.86C0.313699 1119.76 0.257079 1095.66 0.257079 1071.56C0.257079 1063.27 0.426939 1054.98 0.530742 1046.7C0.559052 1044.89 0.643982 1043.07 0.710039 1041.26C0.776095 1039.39 1.42723 1037.75 2.98428 1036.32C3.77696 1035.59 4.40921 1034.58 4.64513 1033.62C4.88105 1032.67 4.70175 1031.57 4.36203 1030.61C4.11668 1029.91 3.41836 1029.27 2.77667 1028.74C0.879899 1027.17 0.342009 1025.2 0.238205 1023.08C0.191022 1022.04 0.115529 1021 0.124965 1019.97C0.200459 1010.38 0.285389 1000.8 0.389192 991.205C0.417502 988.87 0.559052 986.542 0.549615 984.214C0.464685 957.787 0.351445 931.352 0.257079 904.925C0.219332 893.78 0.172149 882.635 0.209895 871.498C0.257079 858.025 0.389192 844.545 0.521305 831.072C0.540179 829.007 0.672292 826.927 1.01201 824.886C1.10638 824.304 2.03117 823.69 2.74836 823.347C3.12583 823.164 4.04118 823.387 4.43752 823.69C7.14585 825.787 9.84474 827.891 12.3832 830.123C13.1853 830.833 13.7232 831.877 14.0252 832.85C14.5065 834.38 15.3086 835.728 16.3183 837.051C19.64 841.396 20.4138 841.595 25.8399 839.044C27.1799 838.414 28.4822 837.737 29.775 837.043C30.9357 836.421 31.5585 835.313 31.3132 834.428C31.0206 833.352 30.1713 832.634 29.1144 832.068C28.8596 831.933 28.5671 831.766 28.284 831.75C24.5754 831.574 22.4333 829.844 20.3666 827.261C17.4696 823.65 14.0063 820.334 9.70319 817.695C7.24965 816.196 5.29626 814.108 3.11639 812.29C1.2668 810.751 0.464685 808.846 0.398629 806.686C0.342009 804.613 0.266515 802.54 0.266515 800.467C0.275952 776.886 0.285389 753.305 0.323135 729.724C0.360882 699.925 0.408065 670.125 0.474122 640.326C0.502432 626.59 0.672292 612.855 0.634545 599.127C0.606235 587.472 0.332572 575.809 0.266515 564.154C0.238205 558.47 -0.346868 552.738 1.78582 547.173C2.05005 546.48 1.99343 545.587 1.7292 544.893C0.568489 541.864 0.728912 538.739 0.710039 535.646C0.549615 512.065 0.389192 488.484 0.332572 464.902C0.294825 450.856 0.436375 436.865 0.559052 422.874C0.606235 416.656 0.785532 410.438 0.927082 404.22C0.945956 403.446 1.02145 402.665 1.17244 401.9C1.49328 400.218 2.6823 399.022 4.55076 398.528C6.28711 398.073 8.14614 398.002 9.92023 397.619C10.3166 397.531 10.7978 396.877 10.7884 396.495C10.779 396.056 10.3826 395.427 9.9391 395.243C9.1653 394.916 8.20276 394.677 7.36289 394.749C5.86246 394.869 4.40921 395.331 2.90878 395.474C2.4747 395.514 1.70089 395.02 1.54047 394.629C1.13469 393.673 0.813842 392.636 0.785532 391.632C0.606235 385.414 0.389192 379.196 0.445812 372.985C0.492995 367.285 0.851589 361.601 0.181585 355.901C-0.120388 353.334 0.0589085 350.72 0.0777818 348.129C0.134402 342.174 0.238205 336.211 0.294825 330.256C0.332572 324.93 0.304262 324.93 3.43724 319.182ZM127.558 348.623L127.256 348.735L127.794 348.44C128.039 349.325 128.294 350.217 128.539 351.102C129.238 351.485 129.936 351.876 130.653 352.234C130.879 352.346 131.172 352.434 131.427 352.418C131.634 352.402 131.823 352.218 132.021 352.115C131.682 351.82 131.389 351.333 130.993 351.27C130.191 351.134 129.341 351.23 128.539 351.182C128.218 350.305 127.907 349.428 127.558 348.623ZM83.7527 351.198C81.186 351.876 78.6003 352.505 76.043 353.231C71.7682 354.435 71.268 355.304 72.759 358.731C73.1742 359.68 73.6272 360.613 74.0613 361.554C71.6361 362.088 69.2391 362.279 66.8611 361.362C62.9638 359.864 58.7267 359.003 55.2917 356.675C53.763 355.638 51.8851 355.455 50.045 355.726C44.5906 356.523 39.0795 356.715 33.5874 357.161C29.6617 357.488 25.7927 358.413 21.9237 359.162C21.4613 359.25 20.9517 359.864 20.8479 360.302C20.7441 360.732 21.0083 361.314 21.3386 361.697C21.6783 362.096 22.2445 362.375 22.773 362.622C25.1605 363.738 27.5762 364.822 30.1147 365.978C31.2565 365.34 32.2191 364.742 33.2571 364.232C35.3615 363.188 37.4753 362.128 39.6457 361.187C41.7879 360.254 43.8545 360.613 45.6286 361.896C47.7235 363.411 49.7241 365.013 51.7436 366.6C53.1307 367.684 54.6406 368.473 56.6223 368.513C64.3321 368.657 71.8814 369.669 79.2892 371.463C80.7519 371.822 82.2901 372.029 83.8094 372.156C86.8857 372.419 89.8677 372.962 92.6704 374.086C94.9258 374.986 97.3132 375.337 99.7856 375.505C102.532 375.688 105.249 376.102 107.996 376.294C109.817 376.421 111.657 376.453 113.478 376.35C115.054 376.262 116.319 375.521 117.376 374.5C118.442 373.472 118.47 371.726 117.187 371.064C112.978 368.88 109.241 366.233 105.938 363.14C105.74 362.957 105.448 362.757 105.174 362.725C103.994 362.59 102.768 362.343 101.616 362.478C100.777 362.574 99.814 363.052 99.2761 363.618C96.747 366.273 92.8308 366.44 89.4902 367.612C88.7259 367.883 87.6501 367.796 86.8102 367.604C84.753 367.126 82.7902 366.273 80.7047 365.978C77.2981 365.5 75.2975 363.738 73.7782 361.346C79.5346 359.664 82.1391 355.798 83.715 351.198C84.7625 351.533 85.7816 352.107 87.216 351.437C85.8949 351.349 84.8285 351.278 83.7527 351.198ZM193.709 395.411C196.757 395.411 199.814 395.498 202.862 395.379C204.75 395.307 206.316 394.486 207.581 393.258C208.572 392.302 208.232 390.516 206.845 389.966C204.382 389.001 201.541 388.73 199.55 386.889C196.143 383.724 192.057 383.859 187.801 385.414C186.414 385.924 185.112 386.602 183.781 387.215C182.979 387.582 182.215 388.029 181.385 388.324C178.459 389.352 174.76 387.686 174.269 385.151C174.222 384.896 174.118 384.633 174.165 384.385C174.939 380.654 172.373 378.63 168.928 377.051C167.314 376.318 165.625 375.68 164.106 374.827C162.851 374.125 161.643 373.288 160.68 372.324C158.67 370.307 157.264 368.051 157.783 365.237C158.029 363.929 157.831 362.566 156.727 361.593C154.764 359.879 152.367 358.827 149.432 358.811C147.705 358.803 145.771 360.485 146.148 361.888C146.554 363.387 147.186 364.838 147.714 366.313C148.318 368.003 147.582 369.366 146.091 370.434C145.412 370.921 144.563 371.295 143.713 371.55C142.515 371.917 141.316 371.798 140.326 371.016C140.109 370.841 139.967 370.602 139.75 370.41C137.627 368.553 137.447 368.417 135.57 370.195C133.399 372.244 130.861 373.336 127.69 373.703C126.208 373.87 125.529 375.552 126.01 376.804C126.812 378.877 128.652 380.232 130.379 381.691C132.418 383.405 134.852 384.489 137.74 384.393C143.279 384.218 148.677 385.087 154.131 385.589C157.906 385.94 161.115 386.681 164.238 388.619C171.306 392.995 179.393 395.179 188.188 395.379C190.038 395.443 191.869 395.411 193.709 395.411ZM134.569 485.231C139.127 486.22 142.722 487.599 145.874 489.727C147.648 490.923 149.658 491.258 151.904 491.059C153.716 490.899 155.566 490.987 157.397 490.915C158.746 490.859 160.095 489.233 159.775 488.053C159.576 487.304 159.388 486.523 158.991 485.845C157.887 483.956 156.226 482.513 154.103 481.357C144.582 476.183 135.532 470.523 127.435 463.778C122.877 459.984 117.857 456.58 112.931 453.104C110.355 451.286 107.618 449.62 104.825 448.058C103.324 447.221 101.597 446.487 99.8517 446.16C96.5866 445.546 93.246 445.228 89.9243 444.885C89.4902 444.837 88.7731 445.283 88.5466 445.65C88.3201 446.041 88.2918 446.758 88.5843 447.093C90.9057 449.796 94.2275 451.765 96.1525 454.802C97.8323 457.457 100.673 459.011 104.287 459.234C108.279 459.482 111.251 460.885 113.091 463.962C113.488 464.623 114.224 465.189 114.922 465.676C118.461 468.171 121.556 471.001 124.236 474.174C125.114 475.21 126.161 476.263 127.416 476.932C130.983 478.822 132.889 481.699 134.569 485.231ZM58.0189 246.502C60.4347 246.31 62.8694 246.175 65.2757 245.896C66.8045 245.721 68.2294 245.123 69.1637 244.062C69.6638 243.496 69.9846 242.691 70.013 241.99C70.0413 241.097 68.6446 239.909 67.7198 239.861C66.21 239.781 64.6907 239.765 63.1808 239.758C60.6235 239.742 58.4247 239.008 56.6129 237.478C56.1882 237.119 55.8202 236.704 55.4333 236.298C54.3103 235.11 52.9798 234.751 51.4982 235.748C48.8842 237.501 46.2797 239.263 43.26 240.523C42.3069 240.921 42.4579 242.604 43.4015 243.201C43.8922 243.504 44.3452 243.847 44.8548 244.126C48.8748 246.398 53.3761 246.653 58.0189 246.502ZM115.564 1022.3C114.044 1022.41 112.553 1022.5 111.062 1022.62C109.42 1022.77 108.477 1024.27 109.232 1025.41C110.421 1027.21 111.902 1028.77 113.856 1030.01C115.243 1030.91 117.64 1030.81 118.734 1029.59C119.82 1028.39 120.754 1027.09 121.622 1025.76C122.377 1024.62 121.424 1022.94 119.999 1022.76C118.536 1022.58 117.045 1022.45 115.564 1022.3ZM213.743 313.602C210.676 313.562 208.138 314.726 207.939 316.336C207.685 318.441 209.496 319.557 211.157 320.617C212.082 321.207 213.271 321.582 214.403 321.829C215.602 322.084 216.829 321.829 217.763 321.096C219.414 319.804 220.292 318.194 219.669 316.305C219.112 314.63 217.348 314.096 215.536 313.754C214.951 313.634 214.337 313.65 213.743 313.602ZM87.0084 1023.99C85.8949 1024.12 85.5552 1024.09 85.3098 1024.21C84.8285 1024.44 84.1302 1024.7 84.0264 1025.05C83.9226 1025.41 84.3095 1026.19 84.6775 1026.29C88.1408 1027.25 91.3398 1028.68 94.586 1030.04C95.8977 1030.59 97.4359 1030.84 98.8986 1031.06C100.559 1031.3 102.381 1030 102.777 1028.44C103.334 1026.26 101.843 1024.72 99.3893 1025.28C96.9546 1025.83 94.7653 1025.96 92.359 1025.09C90.4622 1024.4 88.3012 1024.23 87.0084 1023.99ZM168.862 593.818C168.513 593.419 168.258 592.869 167.786 592.654C167.003 592.303 166.097 592.056 165.22 591.984C164.332 591.912 163.389 591.992 162.53 592.199C161.077 592.542 159.473 592.805 158.284 593.515C155.5 595.197 152.338 595.97 149.158 596.791C148.762 596.895 148.29 597.644 148.385 597.987C148.479 598.322 149.328 598.792 149.725 598.728C155.651 597.724 161.568 596.656 167.475 595.532C167.956 595.436 168.362 594.91 168.721 594.535C168.881 594.368 168.824 594.057 168.862 593.818ZM56.2543 421.902C56.141 420.052 56.1694 419.032 55.9901 418.027C55.8579 417.286 55.5088 416.568 55.1785 415.867C54.282 413.993 52.0172 413.459 49.9978 414.615C48.0821 415.715 47.4782 417.11 48.9409 418.386C50.9603 420.148 51.2434 422.468 52.4796 424.461C52.7155 424.843 53.3855 425.098 53.914 425.282C54.5274 425.497 55.8768 424.652 55.9617 424.062C56.1127 423.073 56.2354 422.077 56.2543 421.902ZM29.8505 402.474C29.5957 402.035 29.4824 401.422 29.0672 401.182C26.3117 399.612 22.2728 400.632 20.7158 403.223C20.2439 404.012 20.9706 405.328 22.103 405.702C25.0378 406.683 27.9443 405.726 29.6429 403.199C29.7844 403 29.7844 402.721 29.8505 402.474ZM51.904 514.911C51.9323 515.429 51.9417 515.939 52.0172 516.457C52.055 516.712 52.206 516.944 52.2909 517.191C52.5174 517.837 53.763 518.506 54.4047 518.339C56.5657 517.781 58.1133 516.625 59.1136 514.927C59.4344 514.377 59.0853 513.173 58.3964 512.846C57.6037 512.463 56.7922 512.081 55.924 511.873C53.8951 511.387 52.3475 512.32 52.0172 514.145C51.9606 514.401 51.9323 514.656 51.904 514.911ZM54.3669 581.596C54.6784 581.214 55.471 580.672 55.5088 580.098C55.5843 578.99 54.5274 578.408 53.3572 578.081C52.0267 577.714 50.6395 577.953 50.1959 578.742C49.9883 579.117 50.0166 579.771 50.2714 580.114C51.1113 581.238 52.3758 581.788 54.3669 581.596ZM131.04 887.442C130.578 887.689 129.823 887.856 129.7 888.199C129.077 889.842 129.955 891.348 131.71 891.898C132.474 892.137 133.616 891.524 133.72 890.814C133.946 889.124 132.861 887.761 131.04 887.442ZM118.036 874.551C117.838 874.759 117.527 874.934 117.489 875.149C117.243 876.528 118.064 877.605 118.989 878.625C119.565 879.263 120.339 879.645 121.348 879.438C122.113 879.287 122.443 878.155 121.801 877.437C120.914 876.433 119.905 875.492 118.895 874.567C118.753 874.448 118.319 874.551 118.036 874.551ZM79.1571 438.786C78.8362 438.38 78.6192 437.814 78.1662 437.606C76.1562 436.666 73.6366 437.917 73.6933 439.823C73.7027 440.245 74.1368 440.827 74.5709 441.05C76.3827 441.967 79.1476 440.564 79.1571 438.786ZM141.637 596.831C140.807 595.252 139.288 594.687 137.24 595.324C136.834 595.452 136.598 596.074 136.409 596.512C136.343 596.672 136.57 597.014 136.777 597.15C138.014 597.923 139.401 598.385 140.93 598.035C141.269 597.947 141.411 597.245 141.637 596.831ZM52.942 870.916C53.2251 870.916 53.5554 871.004 53.7724 870.9C55.405 870.175 56.0939 868.628 55.3106 867.177C55.1219 866.818 54.4424 866.476 53.9612 866.452C53.4893 866.428 52.8099 866.715 52.5362 867.05C51.6681 868.11 51.5454 869.298 52.3003 870.47C52.4324 870.661 52.725 870.765 52.942 870.916ZM202.721 231.825C202.447 231.411 202.287 230.773 201.872 230.614C200.532 230.103 199.088 230.725 198.21 232.041C197.767 232.702 198.078 233.771 198.795 234.05C199.777 234.424 200.9 234.145 201.928 233.157C202.306 232.79 202.457 232.272 202.721 231.825ZM8.77839 407.735C8.12726 407.528 7.40064 407.137 6.66458 407.106C5.76809 407.066 5.08865 407.576 4.89992 408.381C4.85274 408.588 4.93767 408.883 5.08865 409.043C5.93795 409.912 7.91022 409.696 8.69346 408.636C8.82558 408.461 8.75008 408.182 8.77839 407.735ZM6.83444 593.395C7.32515 593.22 7.9574 593.148 8.26881 592.837C8.82558 592.271 8.26881 591.306 7.41951 591.163C6.5419 591.011 5.57936 591.681 5.81528 592.391C5.92852 592.781 6.47584 593.068 6.83444 593.395ZM159.237 908.703C158.85 908.089 158.595 907.42 158.076 906.981C157.821 906.766 156.944 906.822 156.557 907.029C155.622 907.547 156.16 908.942 157.453 909.213C157.878 909.309 158.444 908.95 159.237 908.703ZM294.842 337.231C294.285 337.382 293.605 337.414 293.2 337.717C292.813 337.996 292.464 338.618 292.577 338.977C292.681 339.312 293.398 339.67 293.889 339.718C294.436 339.774 295.144 339.615 295.559 339.32C295.927 339.065 296.276 338.427 296.144 338.1C295.993 337.733 295.304 337.518 294.842 337.231ZM54.1216 908.48C53.4233 908.448 52.9609 908.727 52.9514 909.309C52.9326 910.178 53.6215 910.76 54.584 910.688C54.8199 910.672 55.1596 910.465 55.2446 910.282C55.5371 909.588 54.9898 908.767 54.1216 908.48ZM103.372 602.308C103.9 602.842 104.155 603.32 104.551 603.432C105.523 603.711 106.533 603.256 106.429 602.643C106.372 602.284 105.825 601.694 105.523 601.71C104.844 601.734 104.164 602.069 103.372 602.308ZM54.4047 433.286C54.065 432.72 53.5648 432.592 52.9892 432.991C52.7816 433.134 52.6117 433.421 52.6212 433.636C52.6495 434.242 53.1496 434.665 53.7536 434.457C54.1027 434.338 54.1971 433.7 54.4047 433.286ZM18.8945 1033.91C18.5548 1033.58 18.2622 1033.06 17.8565 1032.99C17.479 1032.92 16.7807 1033.26 16.592 1033.57C16.1862 1034.26 17.026 1035.11 17.8565 1034.85C18.2906 1034.73 18.5548 1034.24 18.8945 1033.91ZM50.9414 1025.64C50.413 1025.74 49.8373 1025.76 49.3749 1025.97C48.6766 1026.28 49.7241 1026.95 50.9697 1026.82C51.4605 1026.77 51.904 1026.43 52.3664 1026.22C51.8945 1026.02 51.4133 1025.83 50.9414 1025.64ZM97.5963 603.711C98.1342 603.344 98.172 602.938 97.6152 602.579C97.4548 602.475 97.0585 602.467 96.8886 602.563C96.3224 602.898 96.3035 603.336 96.8414 603.695C97.0018 603.798 97.3321 603.711 97.5963 603.711ZM195.823 546.647C195.804 546.448 195.889 546.153 195.766 546.049C195.219 545.627 194.794 545.754 194.709 546.376C194.69 546.52 194.945 546.799 195.124 546.831C195.332 546.878 195.587 546.719 195.823 546.647ZM222.661 371.08C222.887 371.008 223.114 370.945 223.331 370.873C223.246 370.682 223.227 370.395 223.066 370.339C222.915 370.275 222.519 370.403 222.443 370.53C222.387 370.65 222.585 370.889 222.661 371.08ZM54.0839 860.321C53.8479 860.226 53.6215 860.138 53.3855 860.042C53.2817 860.233 53.0364 860.473 53.1024 860.616C53.1685 860.76 53.5271 860.808 53.7536 860.903C53.8668 860.712 53.9706 860.521 54.0839 860.321ZM37.145 449.66C37.0223 449.469 36.9469 449.174 36.7581 449.11C36.5694 449.046 36.1447 449.134 36.0409 449.269C35.654 449.796 35.8994 450.138 36.6449 450.122C36.8147 450.114 36.9752 449.819 37.145 449.66ZM288.236 334.497C288.028 334.401 287.821 334.305 287.613 334.21C287.519 334.385 287.302 334.608 287.358 334.728C287.424 334.871 287.736 334.927 287.943 335.023C288.038 334.847 288.142 334.672 288.236 334.497ZM138.759 908.735L138.212 909.062L138.759 909.285V908.735ZM65.7193 427.785L66.1345 428.263L66.4459 427.729L65.7193 427.785Z" fill="#8068E9"/>
 <path d="M193.708 395.409C191.877 395.409 190.037 395.441 188.206 395.401C179.411 395.202 171.324 393.018 164.256 388.641C161.123 386.704 157.924 385.955 154.149 385.612C148.695 385.11 143.297 384.241 137.758 384.416C134.87 384.504 132.436 383.428 130.397 381.714C128.67 380.263 126.83 378.899 126.028 376.827C125.547 375.575 126.226 373.893 127.708 373.726C130.878 373.359 133.417 372.267 135.587 370.218C137.465 368.44 137.645 368.576 139.768 370.433C139.975 370.617 140.117 370.864 140.343 371.039C141.334 371.82 142.523 371.94 143.731 371.573C144.571 371.318 145.43 370.943 146.109 370.457C147.6 369.381 148.336 368.026 147.732 366.336C147.204 364.861 146.572 363.41 146.166 361.911C145.788 360.516 147.723 358.826 149.45 358.834C152.375 358.85 154.782 359.894 156.744 361.616C157.848 362.589 158.047 363.952 157.801 365.259C157.282 368.074 158.688 370.322 160.698 372.347C161.661 373.311 162.869 374.148 164.124 374.85C165.643 375.703 167.332 376.34 168.946 377.074C172.39 378.644 174.957 380.669 174.183 384.408C174.136 384.647 174.24 384.918 174.287 385.173C174.778 387.709 178.477 389.375 181.402 388.346C182.242 388.051 182.997 387.605 183.799 387.238C185.13 386.624 186.432 385.947 187.819 385.437C192.075 383.882 196.161 383.754 199.568 386.911C201.55 388.753 204.39 389.032 206.863 389.989C208.25 390.531 208.599 392.316 207.599 393.281C206.325 394.509 204.758 395.33 202.88 395.401C199.813 395.497 196.756 395.409 193.708 395.409Z" fill="#8068E9"/>
 <path d="M134.566 485.231C132.896 481.699 130.98 478.821 127.413 476.932C126.158 476.27 125.11 475.218 124.233 474.174C121.553 470.993 118.458 468.171 114.919 465.675C114.221 465.181 113.484 464.623 113.088 463.961C111.248 460.884 108.266 459.473 104.284 459.234C100.67 459.011 97.8385 457.456 96.1493 454.802C94.2243 451.764 90.8931 449.795 88.5811 447.093C88.298 446.758 88.3169 446.04 88.5434 445.65C88.7604 445.275 89.487 444.837 89.9211 444.884C93.2428 445.227 96.5834 445.546 99.8485 446.16C101.594 446.487 103.312 447.22 104.822 448.057C107.624 449.62 110.361 451.294 112.928 453.104C117.844 456.579 122.874 459.983 127.432 463.778C135.538 470.522 144.588 476.182 154.1 481.356C156.223 482.512 157.893 483.955 158.988 485.845C159.384 486.522 159.564 487.303 159.771 488.053C160.083 489.233 158.733 490.859 157.393 490.915C155.563 490.986 153.722 490.899 151.901 491.058C149.655 491.258 147.645 490.923 145.871 489.727C142.719 487.598 139.124 486.219 134.566 485.231Z" fill="#8068E9"/>
 <path d="M73.7751 361.362C75.2944 363.746 77.2856 365.5 80.6922 365.986C82.7777 366.281 84.7405 367.142 86.7977 367.612C87.6376 367.804 88.7039 367.891 89.4777 367.62C92.8183 366.449 96.7345 366.289 99.2636 363.626C99.8015 363.068 100.764 362.582 101.604 362.486C102.755 362.351 103.972 362.598 105.161 362.734C105.435 362.765 105.728 362.965 105.926 363.148C109.238 366.241 112.966 368.888 117.174 371.072C118.458 371.734 118.429 373.48 117.363 374.508C116.306 375.529 115.042 376.262 113.466 376.358C111.644 376.461 109.795 376.437 107.983 376.302C105.237 376.103 102.519 375.696 99.7731 375.513C97.3007 375.345 94.9133 374.994 92.6579 374.094C89.8552 372.97 86.8732 372.428 83.7969 372.164C82.2776 372.037 80.7394 371.822 79.2767 371.471C71.8689 369.669 64.3196 368.665 56.6098 368.521C54.6375 368.481 53.1182 367.692 51.7311 366.608C49.7116 365.022 47.7016 363.419 45.6161 361.904C43.842 360.621 41.7754 360.262 39.6332 361.195C37.4628 362.144 35.3584 363.196 33.2446 364.24C32.216 364.75 31.244 365.348 30.1022 365.986C27.5543 364.83 25.1479 363.746 22.7605 362.63C22.232 362.383 21.6658 362.104 21.3261 361.705C20.9958 361.323 20.7316 360.733 20.8354 360.31C20.9392 359.872 21.4582 359.258 21.9112 359.17C25.7802 358.421 29.6492 357.488 33.5749 357.169C39.067 356.715 44.5781 356.531 50.0325 355.734C51.882 355.463 53.7505 355.654 55.2792 356.683C58.7142 359.003 62.9607 359.872 66.8486 361.37C69.2266 362.287 71.6236 362.096 74.0393 361.554C74.0488 361.546 73.7751 361.362 73.7751 361.362Z" fill="#8068E9"/>
 <path d="M58.0179 246.501C53.3751 246.652 48.8644 246.397 44.8443 244.133C44.3442 243.846 43.8818 243.511 43.3911 243.209C42.438 242.611 42.2964 240.929 43.2495 240.53C46.2787 239.27 48.8738 237.509 51.4878 235.755C52.9788 234.758 54.2999 235.117 55.4228 236.305C55.8003 236.703 56.1683 237.118 56.6024 237.485C58.4143 239.007 60.613 239.749 63.1704 239.765C64.6802 239.773 66.1995 239.789 67.7094 239.868C68.6342 239.916 70.0308 241.104 70.0025 241.997C69.9836 242.698 69.6533 243.504 69.1532 244.07C68.219 245.13 66.8035 245.728 65.2653 245.903C62.8684 246.174 60.4432 246.31 58.0179 246.501Z" fill="#8068E9"/>
 <path d="M115.563 1022.3C117.045 1022.45 118.526 1022.58 120.008 1022.78C121.423 1022.96 122.376 1024.64 121.631 1025.78C120.763 1027.1 119.828 1028.4 118.743 1029.61C117.639 1030.83 115.252 1030.91 113.864 1030.03C111.911 1028.78 110.429 1027.22 109.24 1025.43C108.485 1024.29 109.429 1022.78 111.071 1022.64C112.553 1022.5 114.053 1022.4 115.563 1022.3Z" fill="#8068E9"/>
 <path d="M213.742 313.603C214.346 313.65 214.959 313.634 215.535 313.746C217.347 314.089 219.111 314.623 219.668 316.297C220.291 318.186 219.413 319.797 217.762 321.088C216.828 321.822 215.591 322.085 214.402 321.822C213.27 321.575 212.081 321.2 211.156 320.61C209.495 319.55 207.683 318.434 207.938 316.329C208.127 314.727 210.675 313.563 213.742 313.603Z" fill="#8068E9"/>
 <path d="M87.0069 1023.99C88.2998 1024.24 90.4608 1024.4 92.3575 1025.09C94.7639 1025.96 96.9532 1025.82 99.3878 1025.27C101.841 1024.71 103.332 1026.25 102.776 1028.43C102.379 1029.99 100.567 1031.29 98.8971 1031.05C97.425 1030.83 95.8963 1030.59 94.5846 1030.04C91.3384 1028.67 88.1393 1027.25 84.6761 1026.28C84.308 1026.18 83.9211 1025.41 84.0249 1025.05C84.1287 1024.7 84.8271 1024.43 85.3083 1024.2C85.5537 1024.09 85.8934 1024.12 87.0069 1023.99Z" fill="#8068E9"/>
 <path d="M168.859 593.817C168.821 594.056 168.878 594.367 168.727 594.526C168.369 594.909 167.963 595.435 167.481 595.523C161.584 596.639 155.667 597.707 149.731 598.719C149.325 598.791 148.485 598.313 148.391 597.978C148.297 597.635 148.769 596.886 149.165 596.782C152.345 595.961 155.506 595.188 158.29 593.506C159.479 592.788 161.083 592.533 162.537 592.19C163.395 591.983 164.339 591.903 165.226 591.975C166.104 592.047 167.01 592.294 167.793 592.645C168.255 592.86 168.51 593.418 168.859 593.817Z" fill="#8068E9"/>
 <path d="M56.252 421.901C56.2332 422.077 56.1011 423.073 55.9595 424.07C55.8746 424.66 54.5251 425.505 53.9117 425.29C53.3833 425.106 52.7133 424.851 52.4774 424.468C51.2506 422.475 50.9581 420.156 48.9386 418.394C47.4759 417.118 48.0799 415.723 49.9955 414.623C52.015 413.459 54.2798 413.993 55.1763 415.875C55.5065 416.576 55.8557 417.294 55.9878 418.035C56.1671 419.032 56.1388 420.052 56.252 421.901Z" fill="#8068E9"/>
 <path d="M83.657 351.189C82.1283 355.805 79.5143 359.672 73.7674 361.362C73.7768 361.37 74.0505 361.553 74.0505 361.553C73.6164 360.62 73.1634 359.68 72.7577 358.731C71.2667 355.295 71.7668 354.434 76.0416 353.23C78.599 352.513 81.1752 351.875 83.7514 351.197L83.657 351.189Z" fill="#8068E9"/>
 <path d="M29.8472 402.473C29.7811 402.721 29.7811 403 29.6395 403.207C27.9409 405.734 25.0345 406.691 22.0996 405.71C20.9672 405.335 20.2406 404.02 20.7125 403.231C22.2695 400.632 26.3084 399.612 29.0639 401.19C29.4791 401.421 29.5924 402.035 29.8472 402.473Z" fill="#8068E9"/>
 <path d="M51.9023 514.911C51.9401 514.656 51.959 514.401 52.0061 514.146C52.3364 512.32 53.884 511.388 55.9129 511.874C56.7811 512.081 57.5927 512.464 58.3853 512.846C59.0742 513.181 59.4234 514.385 59.1025 514.927C58.1022 516.625 56.5641 517.789 54.3936 518.339C53.7519 518.507 52.4969 517.829 52.2798 517.191C52.1949 516.944 52.0439 516.705 52.0061 516.458C51.9401 515.94 51.9307 515.429 51.9023 514.911Z" fill="#8068E9"/>
 <path d="M54.3635 581.596C52.3724 581.787 51.1079 581.237 50.268 580.121C50.0132 579.778 49.9849 579.124 50.1925 578.75C50.636 577.96 52.0232 577.721 53.3538 578.088C54.524 578.407 55.5809 578.997 55.5054 580.105C55.4676 580.679 54.6749 581.213 54.3635 581.596Z" fill="#8068E9"/>
 <path d="M131.037 887.441C132.858 887.76 133.943 889.124 133.707 890.806C133.613 891.515 132.471 892.137 131.697 891.89C129.951 891.34 129.064 889.841 129.687 888.191C129.829 887.856 130.574 887.689 131.037 887.441Z" fill="#8068E9"/>
 <path d="M118.036 874.551C118.319 874.551 118.763 874.439 118.895 874.567C119.905 875.492 120.905 876.432 121.801 877.437C122.434 878.154 122.113 879.278 121.348 879.438C120.339 879.645 119.565 879.262 118.989 878.625C118.074 877.604 117.244 876.528 117.489 875.149C117.527 874.942 117.838 874.758 118.036 874.551Z" fill="#8068E9"/>
 <path d="M79.1545 438.787C79.1451 440.565 76.3802 441.968 74.5778 441.051C74.1342 440.828 73.7096 440.246 73.7002 439.823C73.6435 437.918 76.1631 436.666 78.1731 437.607C78.6167 437.814 78.8337 438.38 79.1545 438.787Z" fill="#8068E9"/>
 <path d="M141.634 596.831C141.408 597.245 141.266 597.947 140.926 598.027C139.407 598.377 138.01 597.915 136.774 597.142C136.567 597.014 136.34 596.663 136.406 596.504C136.595 596.074 136.831 595.444 137.237 595.316C139.275 594.678 140.804 595.252 141.634 596.831Z" fill="#8068E9"/>
 <path d="M52.9406 870.917C52.7235 870.773 52.4216 870.662 52.2989 870.478C51.544 869.306 51.6666 868.127 52.5348 867.058C52.8085 866.723 53.4879 866.436 53.9597 866.46C54.441 866.484 55.1205 866.827 55.3092 867.186C56.083 868.637 55.4036 870.183 53.771 870.909C53.554 870.996 53.2237 870.917 52.9406 870.917Z" fill="#8068E9"/>
 <path d="M202.718 231.833C202.464 232.28 202.303 232.798 201.935 233.156C200.906 234.145 199.774 234.432 198.802 234.049C198.085 233.77 197.774 232.71 198.217 232.04C199.095 230.725 200.538 230.103 201.878 230.613C202.275 230.781 202.435 231.411 202.718 231.833Z" fill="#8068E9"/>
 <path d="M8.77746 407.736C8.74915 408.19 8.82464 408.461 8.70197 408.628C7.91872 409.689 5.94646 409.912 5.09716 409.035C4.93673 408.876 4.86124 408.581 4.90842 408.373C5.09716 407.576 5.7766 407.058 6.67308 407.098C7.40914 407.13 8.12633 407.52 8.77746 407.736Z" fill="#8068E9"/>
 <path d="M6.82257 593.394C6.46398 593.068 5.92609 592.781 5.79397 592.39C5.55806 591.68 6.5206 591.011 7.39821 591.162C8.24751 591.306 8.80427 592.27 8.24751 592.836C7.95497 593.147 7.31328 593.219 6.82257 593.394Z" fill="#8068E9"/>
 <path d="M159.233 908.703C158.44 908.942 157.884 909.301 157.45 909.213C156.157 908.942 155.609 907.547 156.553 907.028C156.94 906.821 157.818 906.765 158.072 906.981C158.591 907.427 158.846 908.097 159.233 908.703Z" fill="#8068E9"/>
 <path d="M294.841 337.23C295.303 337.509 295.992 337.725 296.143 338.099C296.275 338.426 295.935 339.064 295.558 339.319C295.133 339.606 294.426 339.774 293.888 339.718C293.397 339.67 292.68 339.311 292.576 338.976C292.463 338.61 292.821 337.996 293.199 337.717C293.605 337.422 294.284 337.382 294.841 337.23Z" fill="#8068E9"/>
 <path d="M54.1214 908.479C54.9895 908.766 55.5274 909.587 55.2349 910.281C55.1594 910.464 54.8197 910.663 54.5743 910.687C53.6212 910.759 52.9229 910.185 52.9418 909.308C52.9701 908.726 53.4231 908.447 54.1214 908.479Z" fill="#8068E9"/>
 <path d="M103.371 602.307C104.164 602.068 104.834 601.733 105.523 601.709C105.825 601.701 106.363 602.283 106.429 602.642C106.532 603.264 105.523 603.71 104.551 603.431C104.154 603.319 103.909 602.841 103.371 602.307Z" fill="#8068E9"/>
 <path d="M54.4105 433.284C54.2029 433.691 54.0991 434.337 53.7499 434.456C53.146 434.663 52.6459 434.241 52.6175 433.635C52.6081 433.42 52.7874 433.125 52.9856 432.989C53.5706 432.591 54.0708 432.718 54.4105 433.284Z" fill="#8068E9"/>
 <path d="M18.8907 1033.91C18.5509 1034.24 18.2867 1034.73 17.8621 1034.86C17.0316 1035.11 16.1918 1034.26 16.5976 1033.58C16.7863 1033.26 17.4846 1032.93 17.8621 1032.99C18.2584 1033.06 18.5509 1033.58 18.8907 1033.91Z" fill="#8068E9"/>
 <path d="M50.9387 1025.63C51.4105 1025.82 51.8918 1026.02 52.3637 1026.21C51.9013 1026.42 51.4483 1026.75 50.967 1026.81C49.7214 1026.94 48.6645 1026.27 49.3722 1025.96C49.8252 1025.76 50.4103 1025.74 50.9387 1025.63Z" fill="#8068E9"/>
 <path d="M128.5 351.23C129.33 351.23 130.18 351.134 130.982 351.27C131.378 351.334 131.671 351.82 132.01 352.115C131.812 352.226 131.624 352.41 131.416 352.418C131.161 352.434 130.869 352.346 130.642 352.234C129.925 351.876 129.236 351.485 128.557 351.071C128.575 351.047 128.5 351.23 128.5 351.23Z" fill="#8068E9"/>
 <path d="M97.5933 603.711C97.3291 603.711 96.9988 603.799 96.8478 603.695C96.31 603.336 96.3288 602.89 96.895 602.563C97.0649 602.467 97.4612 602.475 97.6217 602.579C98.169 602.938 98.1312 603.352 97.5933 603.711Z" fill="#8068E9"/>
 <path d="M195.819 546.647C195.583 546.719 195.328 546.878 195.12 546.838C194.941 546.799 194.677 546.528 194.705 546.384C194.79 545.762 195.215 545.635 195.762 546.057C195.885 546.153 195.809 546.448 195.819 546.647Z" fill="#8068E9"/>
 <path d="M222.658 371.081C222.573 370.889 222.375 370.658 222.45 370.531C222.526 370.403 222.922 370.275 223.073 370.339C223.224 370.403 223.253 370.69 223.337 370.873C223.111 370.937 222.885 371.009 222.658 371.081Z" fill="#8068E9"/>
 <path d="M54.0808 860.322C53.977 860.513 53.8637 860.713 53.7599 860.904C53.5334 860.816 53.1654 860.761 53.1088 860.617C53.0427 860.474 53.2881 860.234 53.3919 860.043C53.6184 860.139 53.8448 860.234 54.0808 860.322Z" fill="#8068E9"/>
 <path d="M83.751 351.197C84.8268 351.277 85.8932 351.348 87.2049 351.444C85.7705 352.114 84.7608 351.54 83.685 351.197C83.6567 351.189 83.751 351.197 83.751 351.197Z" fill="#8068E9"/>
 <path d="M37.145 449.66C36.9752 449.82 36.8147 450.115 36.6449 450.123C35.8994 450.139 35.654 449.796 36.0409 449.27C36.1447 449.134 36.5694 449.039 36.7581 449.11C36.9468 449.174 37.0129 449.461 37.145 449.66Z" fill="#8068E9"/>
 <path d="M288.235 334.496C288.14 334.671 288.046 334.847 287.942 335.022C287.734 334.926 287.423 334.871 287.357 334.727C287.3 334.608 287.517 334.384 287.612 334.209C287.819 334.305 288.027 334.4 288.235 334.496Z" fill="#8068E9"/>
 <path d="M138.756 908.734L138.747 909.284L138.199 909.061L138.756 908.734Z" fill="#8068E9"/>
 <path d="M65.7188 427.784L66.4454 427.729L66.134 428.263L65.7188 427.784Z" fill="#8068E9"/>
 <path d="M127.586 348.551C127.897 349.428 128.209 350.297 128.511 351.198C128.492 351.222 128.567 351.038 128.548 351.07C128.275 350.209 128.029 349.324 127.775 348.439L127.586 348.551Z" fill="#8068E9"/>
 <path d="M127.784 348.439L127.246 348.734C127.246 348.734 127.548 348.623 127.567 348.591C127.586 348.551 127.784 348.439 127.784 348.439Z" fill="#8068E9"/>
</svg>
