<svg width="225" height="335" viewBox="0 0 225 335" fill="none" xmlns="http://www.w3.org/2000/svg">
 <path d="M132.035 249.692C131.698 249.991 131.347 250.303 131.01 250.602C129.525 250.766 128.042 250.861 126.57 251.095C125.084 251.343 123.6 251.451 122.109 251.185C121.032 250.387 119.899 250.267 118.692 250.908C117.994 251.283 117.275 251.268 116.547 250.99L116.563 250.921C116.09 250.842 115.616 250.791 115.158 250.671C113.785 250.324 112.657 250.607 111.785 251.741C111.505 252.11 111.167 252.45 110.858 252.791C109.851 252.812 109.675 252.975 109.411 253.955C108.637 254.508 107.864 255.062 107.105 255.615C106.947 255.584 106.79 255.54 106.632 255.509C105.557 255.334 104.633 255.51 104.279 256.655C103.602 258.834 102.399 260.724 100.657 262.216C98.9595 263.68 98.1607 265.496 97.7881 267.57C97.1832 268.321 96.5928 269.072 95.9882 269.809C94.898 269.663 94.0859 269.993 93.7334 271.068C93.615 271.233 93.4684 271.368 93.2799 271.448C92.0206 271.839 90.7752 272.258 89.5166 272.621C87.5492 273.178 86.5146 274.559 86.061 276.368C85.7483 277.61 85.5932 278.884 85.4813 280.158C85.3693 281.433 85.4011 282.71 85.3754 283.986C83.6909 285.492 82.0347 287.027 80.308 288.491C77.5719 290.795 74.9912 293.241 72.6501 295.928C72.4438 296.173 72.2513 296.447 72.0171 296.65C69.2655 299.009 67.4781 302.054 65.5775 305.013C64.9412 305.181 64.179 305.179 63.7113 305.545C61.915 306.896 60.7304 308.579 61.1576 310.933C59.5713 312.566 57.9991 314.214 56.3985 315.847C54.5624 317.739 53.2658 319.988 51.8986 322.167L51.7518 322.317C51.4967 322.839 51.2417 323.361 50.987 323.87C50.3792 324.052 49.7567 324.247 49.149 324.429C47.8613 324.806 46.8837 325.494 46.2268 326.688C45.1221 328.692 43.3127 329.973 41.1943 330.888C39.5148 330.008 38.3881 328.82 37.8366 326.921C37.2584 324.925 36.1738 323.072 35.3063 321.153C34.5079 319.375 33.6367 317.636 32.9398 315.818C32.598 314.937 32.5027 313.95 32.4214 312.991C32.3146 311.865 32.3804 310.742 32.3024 309.616C32.206 307.977 31.7315 306.538 30.6518 305.156C29.0251 303.084 28.2703 300.571 27.6736 298.061C27.2625 296.332 26.9958 294.578 26.6278 292.85C26.3911 291.749 26.2277 290.58 25.7155 289.584C24.5116 287.229 23.7111 284.839 23.707 282.189C23.7077 281.44 23.2343 280.667 22.9184 279.925C22.0401 277.826 21.1323 275.768 20.9196 273.474C20.8487 272.709 20.5057 271.883 20.0582 271.25C19.0651 269.856 19.2297 268.111 18.4093 266.707C17.6722 265.457 16.5435 264.365 16.009 263.05C15.091 260.784 13.9108 258.678 12.6004 256.612C11.8199 255.375 11.083 254.111 10.04 253.05C9.92722 252.936 9.80009 252.823 9.71661 252.682C7.95269 249.566 5.50435 246.866 3.62345 243.845C1.45013 240.346 1.31215 236.485 3.05678 232.704C3.38761 231.989 3.96147 231.349 4.53392 230.777C5.79665 229.498 7.04582 228.177 8.44953 227.04C13.3042 223.1 17.3978 218.381 22.1115 214.299C24.6294 212.115 26.5797 209.546 27.764 206.447C28.1129 205.552 28.6049 204.688 29.139 203.88C29.7624 202.921 30.2855 201.946 30.6814 200.858C31.1691 199.494 31.9281 198.233 32.5015 196.898C33.0296 195.674 33.8692 194.691 34.851 193.795C35.9497 192.804 37.0625 191.828 38.1471 190.823C39.0116 190.035 39.5772 189.089 39.8879 187.944C40.2294 186.702 40.6427 185.461 41.2126 184.307C42.0822 182.548 42.8938 180.816 43.1347 178.85C43.2364 178.089 43.669 177.321 44.0996 176.649C46.0741 173.595 47.2767 170.302 47.6225 166.701C47.7131 165.773 48.0783 164.781 48.6257 164.029C49.602 162.689 50.2067 161.23 50.7696 159.701C51.2109 158.503 51.8385 157.336 52.593 156.296C54.0281 154.313 55.0226 152.071 56.756 150.274C57.1822 149.825 57.4256 149.164 57.6105 148.557C58.041 147.178 58.386 145.756 58.7881 144.362C59.1439 143.12 59.4287 141.836 59.9697 140.681C61.142 138.179 62.214 135.661 63.101 133.042C63.5135 131.843 64.3407 130.764 64.9389 129.624C65.3129 128.91 65.8453 128.185 65.9038 127.423C66.0394 125.691 66.928 124.419 68.0036 123.15C68.6225 122.413 69.0291 121.505 69.4065 120.625C70.4468 118.245 71.5439 115.908 73.4377 114.003C74.0102 113.432 74.4704 112.72 74.8156 112.005C75.5215 110.52 76.5393 109.264 77.5435 107.966C78.0454 107.324 78.6478 106.698 78.9358 105.968C79.7994 103.793 81.2577 102.088 83.071 100.612C84.2704 99.6228 84.7869 98.2594 85.0894 96.8084C85.1928 96.6717 85.3244 96.5634 85.385 96.412C87.2287 91.9946 87.1867 91.9383 90.6122 88.9682C93.1741 86.744 94.8823 84.0585 95.7802 80.8988C96.0586 79.933 96.5067 79.1094 97.2398 78.4165C98.4416 77.3028 99.5459 76.0344 100.902 75.132C103.598 73.3545 105.29 70.7659 107.223 68.3764C108.078 67.3251 108.606 66.1284 108.417 64.7924C108.114 62.7048 108.927 60.8617 110.208 59.4304C111.532 57.9583 112.415 56.2138 113.682 54.7406C115.067 53.131 116.635 51.6777 118.133 50.1537C118.705 49.5685 119.292 48.9975 119.908 48.4409C121.401 47.1111 122.795 45.7654 122.753 43.5581C122.75 42.9891 123.166 42.3175 123.564 41.8398C125.686 39.3569 127.637 36.7597 130.112 34.5614C134.535 30.6262 138.803 26.5352 143.141 22.515C143.991 21.7273 144.771 20.8687 145.719 20.2217C149.219 17.8083 151.46 14.398 153.515 10.9008C154.186 9.74865 154.84 8.67943 155.878 7.85385C157.047 6.9199 158.159 5.9848 158.834 4.62457C159.104 4.08882 159.97 3.95358 160.626 4.21657C161.24 4.45097 161.838 4.75448 162.466 4.97528C163.123 5.21054 163.619 5.5952 164.01 6.14428C164.471 6.81965 164.976 7.45428 165.437 8.14354C166.261 9.3813 166.882 10.6843 166.779 12.2226C166.755 12.694 166.788 13.208 166.908 13.6684C167.404 15.4685 168.32 17.0967 170.222 17.6624C173.282 18.5566 175.385 20.5694 177.398 22.7332C177.834 23.1999 178.139 23.775 178.502 24.3096C179.131 25.252 179.627 26.3167 180.402 27.1233C181.487 28.2275 182.124 29.4754 182.396 30.938C182.526 31.6205 182.99 32.185 183.663 32.2957C185.857 32.659 186.943 34.4433 188.428 35.6944C189.842 36.8747 190.833 38.3794 191.533 40.0449C191.849 40.7729 192.092 41.5826 192.163 42.3611C192.332 44.6542 193.037 46.7777 194.032 48.8237C195.053 50.9398 195.441 53.0985 194.848 55.404C194.49 56.7983 194.417 58.254 194.144 59.6778C193.712 61.8616 193.521 64.1752 193.721 66.3857C193.861 68.0121 193.715 69.5495 193.64 71.1438C193.495 74.0273 193.696 76.9317 193.767 79.8334C193.793 80.6665 194.239 81.3554 194.642 82.0574C195.198 83.04 195.839 84.0382 196.106 85.1121C196.465 86.5348 196.869 87.8889 197.533 89.2206C197.893 89.9217 198.12 90.7867 198.09 91.5632C197.945 94.4744 199.48 96.8366 200.667 99.3029C201.371 100.76 202.308 102.111 203.23 103.448C203.579 103.955 204.146 104.369 204.716 104.644C207.009 105.8 208.833 107.322 209.617 109.821C209.806 110.422 210.052 111.107 210.504 111.518C212.1 112.938 212.508 114.82 212.973 116.717C213.744 119.161 214.849 121.417 216.506 123.435C217.432 124.564 218.331 125.678 219.639 126.398C221.062 127.19 221.641 128.423 221.798 129.911C221.857 130.536 221.945 131.177 222.005 131.788C221.983 132.163 221.961 132.551 221.938 132.939C221.715 134.031 221.492 135.122 221.254 136.2C220.508 136.851 220.031 137.66 219.911 138.643C219.703 140.36 219.381 142.074 219.692 143.801C219.532 144.589 219.372 145.362 219.213 146.136C218.388 147.091 218.423 148.216 218.515 149.356C217.374 153.912 216.863 158.537 217.33 163.223C217.449 164.432 217.126 165.467 216.048 166.166C214.882 166.906 214.172 167.891 213.729 169.186C213.423 170.068 212.704 170.817 212.17 171.611C211.621 172.419 211.073 173.213 210.525 174.007C210.365 174.114 210.232 174.264 210.157 174.443C210.022 174.69 209.874 174.909 209.697 175.128C208.759 176.011 208.836 177.15 208.857 178.289C208.752 178.481 208.648 178.673 208.557 178.866C207.697 180.86 206.937 182.913 205.749 184.762C205.66 184.885 205.642 185.051 205.596 185.203L205.42 185.366C205.156 185.611 204.892 185.869 204.643 186.114L204.436 186.401C203.585 187.203 203.291 188.251 202.982 189.3C202.797 189.934 202.972 190.521 203.393 191.043C203.186 193.467 203.181 195.867 203.866 198.254C204.135 199.176 204.086 200.174 204.283 201.121C204.897 204.228 204.609 207.081 203.083 210.02C201.451 213.179 200.432 216.628 200.388 220.262C200.366 222.052 199.858 223.749 199.162 225.414C197.619 229.185 196.792 233.137 196.423 237.154C196.241 239.079 195.47 240.923 195.732 242.899C195.795 243.33 195.54 243.853 195.302 244.264C194.632 245.389 193.906 246.456 193.193 247.552C192.614 248.442 191.741 248.952 190.678 248.889C186.124 248.603 181.706 249.43 177.261 250.187C172.556 250.994 167.948 250.555 163.588 248.468C162.053 246.856 160.053 246.177 157.887 245.897C156.093 245.667 154.269 245.575 152.46 245.413C150.952 245.272 149.482 245.437 148.103 246.047C146.739 246.658 145.321 247.06 143.836 247.21C142.247 246.873 140.641 246.632 139.096 246.199C136.951 245.587 135.26 245.997 134.071 247.902C132.906 247.892 132.217 248.517 132.035 249.692Z" fill="#FF4B41"/>
</svg>
