<svg width="384" height="342" viewBox="0 0 384 342" fill="none" xmlns="http://www.w3.org/2000/svg">
<path d="M56.0523 252.228C56.2717 250.873 56.0102 249.612 55.1984 248.394C48.1003 237.582 40.7196 226.904 34.3116 215.759C33.9726 215.172 33.6271 214.503 33.0488 214.186C27.119 210.806 28.096 205.407 28.3311 200.513C28.4678 197.688 28.4365 195.211 26.4745 193.024C23.9729 190.183 24.3812 186.668 23.9979 183.438C23.4218 178.579 21.6791 174.62 17.0718 171.498C9.09371 166.077 9.28643 158.149 12.1136 151.017C15.8609 141.501 17.6166 131.082 25.8431 123.054C27.1736 121.752 27.0542 120.228 27.1592 118.66C27.4444 114.82 28.9379 111.443 32.0172 108.36C36.8754 103.466 42.5297 98.7596 41.931 91.5343C46.8409 86.4686 49.6083 80.6513 50.8955 74.2256C51.1775 72.8382 53.8674 72.2652 55.5889 72.2139C60.5269 72.0777 60.8257 69.6581 60.3086 66.383C59.891 63.5458 59.5747 60.7564 62.1041 58.1342C64.1526 56.0233 65.9035 54.27 69.288 53.4197C74.2385 52.1959 78.8866 50.0206 83.6621 48.2254C87.5764 40.8416 97.0004 42.6944 103.277 39.277C104.588 38.5613 106.292 38.2884 107.362 37.3966C111.06 34.3205 115.403 33.6459 120.252 33.6282C124.321 33.6159 128.731 33.7997 130.661 29.3576C130.963 28.6373 132.044 27.884 132.932 27.5914C144.914 23.4484 156.467 17.9737 169.935 18.2558C174.306 18.3591 177.965 15.6204 182.295 14.7797C192.271 12.8834 202.244 11.7677 212.386 12.394C213.171 12.4439 213.974 12.7154 214.679 12.5765C226.319 10.2992 235.037 15.1887 243.839 20.3224C250.151 24.0073 257.038 26.7276 264.434 28.8786C275.03 31.977 285.967 34.8537 295.429 40.1028C301.215 43.2996 306.776 46.9597 311.66 51.1187C319.295 57.5697 329.067 60.9556 338.139 65.3716C343.587 68.0096 348.507 70.9676 352.474 75.0591C356.053 78.7631 359.541 82.5578 362.903 86.418C365.051 88.8967 366.26 91.4489 365.69 94.9764C364.572 101.891 365.964 108.859 364.138 115.884C361.536 125.895 357.532 135.042 348.078 141.94C341.981 146.402 338.439 151.89 338.979 158.786C339.205 161.666 337.532 163.998 335.168 164.991C329.776 167.225 328.735 171.402 328.364 175.388C328.006 179.54 326.124 182.947 324.16 186.556C321.826 190.835 320.658 195.468 316.279 198.987C314.103 200.718 312.691 203.476 311.779 205.971C310.709 208.925 308.667 211.119 306.189 213.152C303.131 215.676 300.103 218.171 299.991 222.136C299.933 224.314 298.214 225.229 296.005 225.708C290.5 226.92 287.179 229.409 288.705 234.75C289.016 235.813 288.736 236.81 287.94 237.875C282.649 244.726 277.527 251.648 272.305 258.549C271.893 259.11 271.367 259.876 270.761 260.035C263.923 261.685 261.833 267.422 257.44 271.193C256.677 271.838 255.655 272.503 255.853 273.379C257.142 278.6 252.431 279.972 248.65 282.414C239.195 288.477 230.407 295.156 226.779 305.359C224.516 311.806 217.038 313.59 211.901 317.419C208.948 319.629 205.586 321.174 204.2 324.682C203.465 326.523 201.333 328.807 198.873 327.328C194.294 324.566 188.743 324.778 183.916 323.011C177.581 320.693 171.671 317.562 165.349 315.411C158.058 312.945 151.003 309.736 143.044 308.716C142.023 308.573 140.727 308.647 140.069 308.141C130.508 300.81 116.936 299.198 107.572 291.462C97.858 283.418 86.0871 277.375 77.2768 268.397C74.5164 265.576 70.7876 263.695 66.1426 263C61.2969 262.237 56.2073 256.283 56.0523 252.228Z" fill="#FF4B41"/>
</svg>
