<svg width="898" height="647" viewBox="0 0 898 647" fill="none" xmlns="http://www.w3.org/2000/svg">
 <path d="M340.14 207.086C336.189 206.916 332.921 207.467 331.112 209.352C325.746 215.062 318.313 214.244 311.438 214.066C305.59 213.917 300.827 214.837 296.867 218.554C294.153 221.129 290.881 223.41 286.897 223.826C281.949 224.345 282.714 229.299 278.48 230.433C275.024 231.356 272.032 233.504 268.021 232.881C266.932 232.719 265.562 233.168 264.503 233.617C259.458 235.787 259.489 235.681 253.177 234.519C250.036 233.952 246.801 233.997 243.661 233.163C241.298 232.544 239.305 233.391 238.117 235.385C235.148 240.409 228.609 242.894 225.702 247.972C225.514 248.318 225.016 248.742 224.642 248.768C214.623 249.354 216.689 256.361 215.369 261.55C215.117 262.561 215.207 263.679 215.267 264.744C215.416 267.301 214.166 269.294 211.891 270.832C208.494 273.113 205.905 275.769 204.34 279.332C202.743 282.976 197.576 284.267 195.824 287.989C195.636 288.388 194.39 288.864 193.955 288.677C189.511 286.855 183.972 287.585 180.123 284.407C175.497 280.561 170.809 276.874 167.463 271.966C164.239 267.272 159.303 263.585 155.363 259.235C150.431 253.737 145.094 248.451 138.978 243.776C135.873 241.398 132.176 239.391 129.632 236.775C120.263 227.033 107.337 220.955 96.7508 212.46C94.3293 210.51 92.25 208.588 90.7011 206.108C88.5945 202.747 86.4878 199.414 82.3244 197.379C80.9262 196.71 79.8412 195.243 79.1603 193.91C77.7057 191.057 75.2534 189.001 72.7077 186.97C65.5986 181.281 60.2656 174.451 54.6838 167.647C47.0243 158.308 39.1156 149.075 30.0849 140.611C28.9056 139.516 27.6638 138.528 26.9831 137.115C23.7031 130.424 18.5227 124.739 14.0589 118.657C10.6491 114.015 7.23936 109.32 4.39004 104.467C2.43884 101.161 0.580334 98.0938 -2.55523 95.6095C-3.45552 94.8882 -4.88461 94.139 -5.0068 93.2867C-5.92441 87.347 -10.2976 82.3035 -10.9974 76.3377C-11.7273 69.9992 -13.2045 63.9249 -16.7359 58.1647C-20.4531 52.1111 -21.8984 45.7174 -21.4128 38.5834C-21.0892 33.8451 -24.1562 28.9647 -25.7301 24.1415C-25.8536 23.7685 -26.4129 23.5274 -26.692 23.1805C-32.4272 15.5508 -28.5512 8.61203 -17.9397 7.49522C-16.9439 7.39135 -15.9484 7.42062 -14.9531 7.4765C-6.71025 8.00415 0.790286 6.87912 8.731 3.99804C17.3567 0.905783 27.0067 -1.30518 36.9589 -0.13403C40.6909 0.30183 43.8974 -0.48842 47.2629 -2.6361C51.283 -5.23468 56.4823 -6.71191 61.7708 -6.61806C66.3438 -6.55272 70.4214 -7.36731 74.6875 -8.87362C80.1369 -10.8028 86.0813 -11.6923 91.8401 -13.0083C95.4511 -13.8241 98.9067 -14.7202 101.527 -17.3491C103.554 -19.3672 106.264 -20.3718 109.559 -19.5111C112.077 -18.8655 114.785 -19.2311 116.748 -20.3974C120.58 -22.6769 124.937 -23.1713 129.294 -23.7987C132.749 -24.3221 136.141 -24.7924 138.605 -27.2619C138.917 -27.554 139.447 -27.8454 139.882 -27.8709C148.004 -28.5417 154.114 -33.2381 161.338 -35.695C164.483 -36.7783 166.945 -38.4492 169.004 -40.5737C171.687 -43.3621 174.834 -45.0844 179.22 -44.8598C183.294 -44.6627 185.944 -46.5993 188.936 -48.7746C193.892 -52.3824 199.098 -56.2292 206.253 -56.0772C211.479 -55.9568 215.809 -58.1818 220.293 -59.8207C223.874 -61.1158 226.775 -63.7174 231.13 -63.5727C232.467 -63.516 233.155 -64.6324 233.997 -65.4289C239.111 -70.2077 244.319 -74.9598 249.434 -79.7386C252.303 -82.3935 256.347 -82.3296 259.831 -82.1872C263.191 -82.0452 264.397 -79.14 265.914 -76.5002C270.961 -67.4878 271.774 -57.3417 276.946 -48.329C279.702 -43.4761 280.869 -37.9617 284.715 -33.452C284.994 -33.1318 285.242 -32.6519 285.21 -32.2526C284.598 -24.4 288.997 -17.4927 291.436 -10.3243C293.226 -5.04789 294.862 -0.0914247 293.852 5.36392C298.534 11.3402 297.05 19.7762 304.441 24.6414C306.168 30.5299 309.513 36.1299 309.963 42.2547C310.234 45.6634 311.191 48.4082 313.954 50.8383C317.368 53.8825 319.069 57.5346 318.622 61.8732C318.334 64.8544 319.043 67.5187 321.058 70.2929C323.63 73.8674 324.21 78.2886 325.132 82.4711C325.655 84.7621 325.96 87.1325 327.51 89.1334C332.874 96.0966 334.657 104.089 337.343 111.923C339.874 119.385 344.429 126.319 347.396 133.782C348.694 137.007 348.811 139.856 348.087 143.076C346.607 149.861 346.869 156.385 350.492 162.917C352.226 166.01 353.656 166.254 357.111 165.704C360.721 165.154 364.179 163.566 368.066 164.321C379.415 166.481 384.536 171.048 385.314 182.658C385.374 183.484 384.687 184.494 385.028 185.16C388.773 192.438 388.005 200.61 391.221 207.967C392.427 210.766 393.042 213.11 392.194 216.383C391.314 219.842 393.823 223.842 397.675 226.142C403.669 229.725 407.172 234.66 409.459 240.39C410.757 243.642 412.491 246.522 415.316 249.112C419.847 253.277 422.041 258.848 426.073 263.411C430.85 268.829 434.504 274.989 442.056 278.15C442.708 278.418 443.392 278.846 443.764 279.353C447.544 284.98 453.539 288.458 459.346 292.44C467.42 297.972 475.494 303.638 482.601 310.233C490.328 317.416 498.804 324.014 506.313 331.356C509.665 334.613 513.921 336.727 517.304 339.798C520.097 342.335 522.766 344.791 522.383 348.624C522.127 351.313 524.269 352.836 526.1 354.598C531.096 359.297 535.999 364.076 540.902 368.828C543.198 371.044 545.868 373.128 545.268 376.587C545.205 376.96 545.421 377.519 545.732 377.76C552.718 382.784 556.494 390.382 564.758 394.557C572.37 398.384 579.732 402.424 586.282 407.926C592.18 412.894 598.7 417.624 605.346 422.061C609.477 424.814 614.701 425.76 619.237 427.875C625.731 430.874 632.163 433.766 637.939 437.855C645.547 443.254 654.965 446.34 662.885 451.473C666.208 453.638 671.652 453.6 674.943 456.004C681.743 460.948 691.23 461.878 697.311 468.071C699.793 470.58 704.518 472.137 708.529 472.76C715.806 473.898 722.361 477.27 729.921 477.423C731.787 477.454 733.838 478.258 735.454 479.115C744.494 483.931 754.441 487.046 764.388 490.054C766.036 490.537 767.684 490.941 769.113 491.797C779.021 497.814 790.179 501.917 800.68 507.003C803.446 508.342 805.961 509.999 808.851 511.285C813.45 513.32 817.521 514.928 822.908 513.239C826.084 512.235 831.21 514.965 832.415 518.083C834.269 522.853 837.088 527.44 836.078 532.816C835.195 537.419 836.023 541.682 840.962 544.756C842.546 545.746 843.599 547.373 843.532 549.209C843.365 553.496 846.189 556.352 849.697 558.917C851.405 560.173 852.863 561.614 854.571 562.87C858.204 565.569 860.186 568.956 859.522 573.027C857.846 583.22 865.828 588.486 873.778 593.699C882.132 599.152 889.676 605.296 894.227 613.402C898.222 620.548 894.509 624.452 885.366 623.336C881.167 622.819 878.239 624.409 876.707 627.067C872.957 633.474 864.435 632.919 858.949 636.605C858.763 636.738 858.451 636.843 858.265 636.79C850.12 634.452 845.128 639.923 839.178 642.676C836.531 643.921 833.698 644.579 831.051 645.663C829.992 646.087 828.311 646.295 827.441 645.867C820.637 642.468 812.793 644.151 805.673 642.428C804.958 642.266 803.962 642.45 803.528 642.103C796.636 636.653 787.296 639.025 779.619 636.475C771.755 633.872 762.328 633.953 756.715 627.229C756.157 626.562 755.256 626.001 754.386 625.652C737.541 619.111 723.132 609.435 708.629 599.865C706.952 598.743 705.18 598.179 703.158 598.2C700.42 598.193 697.713 598.266 694.975 598.392C688.815 598.668 683.217 597.934 679.123 593.291C677.355 591.263 675.026 589.579 672.915 587.763C672.046 587.016 671.147 585.815 670.152 585.706C661.319 584.831 658.693 577.795 653.478 573.441C652.05 572.266 650.931 571.81 649.221 571.566C642.286 570.563 635.316 571.024 628.379 570.925C626.419 570.894 624.302 571.474 622.688 570.112C616.976 565.384 609.455 562.542 604.367 557.15C603.281 556.003 602.164 554.748 600.736 553.973C585.825 545.626 573.348 534.571 558.219 526.357C545.482 519.428 536.924 508.755 530.047 497.448C527.476 493.208 523.501 490.615 519.9 487.544C517.417 485.407 515.182 483.458 513.821 480.579C512.026 476.82 509.36 473.325 504.074 472.513C493.749 470.915 488.665 464.059 484.671 457.046C481.512 451.553 477.324 447.069 472.451 442.876C471.209 441.808 469.999 440.739 468.694 439.778C461.429 434.487 459.892 427.347 459.788 419.732C459.735 416.085 459.029 412.542 457.7 409.104C457.391 408.304 457.27 407.053 456.618 406.785C450.527 404.159 449.858 398.194 446.042 394.43C441.325 389.811 436.952 384.874 431.83 380.547C429.471 378.544 427.765 376.516 427.182 373.533C426.23 368.844 421.884 365.398 418.095 362.939C409.647 357.512 405.903 349.781 401.256 342.367C397.539 336.473 393.977 330.5 390.197 324.606C389.453 323.432 388.958 322.339 388.993 321.035C389.029 319.331 388.66 317.573 388.975 315.923C390.992 306.051 384.131 300.788 375.307 296.558C372.386 295.139 370.058 293.349 368.696 290.709C365.26 284.044 358.896 278.915 355.461 272.224C354.904 271.131 353.662 270.062 352.419 269.5C349.063 267.973 348.231 265.229 346.557 262.615C341.29 254.508 337.113 245.817 330.382 238.451C328.583 236.476 325.942 235.058 323.613 233.507C321.16 231.85 319.672 229.77 318.932 227.185C317.76 223.215 319.042 220.902 323.582 221.526C327.75 222.096 328.843 220.369 330 218.082C331.564 215.024 332.878 211.993 336.989 210.593C338.016 210.276 338.642 208.76 340.14 207.086Z" fill="#FF4B41"/>
</svg>
