<svg width="1280" height="800" viewBox="0 0 1280 800" fill="none" xmlns="http://www.w3.org/2000/svg">
 <path d="M184.899 -213.236C573.831 -205.402 962.762 -197.568 1351.71 -189.734C1347.08 40.3584 1342.44 270.451 1337.81 500.544C1334.91 502.347 1332.03 504.188 1329.11 505.934C1327.74 506.753 1326.32 507.495 1324.89 508.124C1322 509.401 1319.1 510.64 1316.48 512.58C1315.51 513.294 1314.39 514.174 1313.32 514.171C1310.74 514.195 1309.05 515.966 1307.08 517.355C1304.94 518.854 1302.72 520.182 1300.21 520.902C1297.59 521.658 1294.99 522.677 1292.44 523.754C1290.06 524.74 1287.7 525.708 1285.15 525.939C1284.34 526.017 1283.65 526.285 1283.07 526.931C1282.66 527.393 1282.3 528.006 1281.79 528.24C1279.22 529.486 1277.13 531.343 1275.47 533.885C1275.02 534.572 1274.32 535.066 1273.74 535.656C1272.85 536.559 1271.9 537.217 1270.65 537.304C1269.89 537.365 1269.08 537.536 1268.41 537.918C1267.07 538.68 1265.8 538.392 1264.44 538.157C1262.27 537.813 1260.49 536.385 1258.43 535.836C1254.66 534.839 1251.24 532.627 1247.36 532.041C1246.99 531.977 1246.61 531.781 1246.28 531.549C1243.67 529.672 1240.58 528.802 1238.06 526.664C1236.53 525.373 1234.69 524.49 1232.65 524.486C1231.44 524.481 1230.35 524.139 1229.32 523.442C1227.26 522.028 1224.99 521.662 1222.61 521.708C1221.26 521.737 1219.81 521.934 1218.55 521.532C1216.45 520.87 1214.22 521.483 1212.26 520.597C1210.14 519.633 1208.01 520.493 1205.93 520.018C1204.98 519.811 1204.03 519.548 1203.08 519.397C1202.51 519.31 1201.86 519.147 1201.37 519.381C1199.09 520.407 1196.73 519.683 1194.45 520.032C1189.95 520.731 1185.48 520.133 1181.07 519.706C1176.59 519.258 1172.15 519.489 1167.7 519.399C1166.88 519.382 1166.22 519.82 1165.93 520.774C1165.04 523.764 1162.41 524.651 1160.53 526.475C1157.87 526.628 1156.03 528.923 1153.65 529.834C1152.74 530.191 1151.78 530.567 1150.84 530.586C1148.51 530.633 1146.08 530.903 1143.87 530.313C1139.72 529.177 1135.43 528.752 1131.4 527.054C1128.48 525.81 1125.28 526.103 1122.23 525.534C1118.19 526.28 1114.21 527.234 1110.12 527.528C1109.75 527.558 1109.36 527.738 1109.01 527.919C1107.01 529.026 1104.9 529.209 1102.74 529.034C1099.18 528.755 1095.77 529.533 1092.4 530.762C1091.1 531.225 1089.78 531.894 1088.48 531.924C1086.45 531.959 1084.61 532.636 1082.87 533.56C1080.52 534.81 1078.07 535.306 1075.52 535.405C1073.78 535.464 1072.02 535.654 1070.28 535.488C1068.29 535.297 1066.44 535.636 1064.56 536.35C1062.9 536.975 1061.15 537.729 1059.46 537.676C1056.06 537.57 1052.94 538.749 1049.72 539.454C1048.51 539.731 1047.51 540.256 1046.82 541.408C1046.11 542.597 1045.11 543.122 1043.87 543.191C1039.8 543.429 1035.71 543.572 1031.65 543.979C1028.75 544.278 1025.86 544.878 1023.76 547.619C1023.4 548.082 1022.79 548.445 1022.25 548.585C1019.8 549.194 1017.34 549.915 1014.84 550.147C1013.1 550.3 1011.39 550.265 1009.66 550.794C1008.36 551.182 1006.97 551.229 1005.62 551.258C1003.47 551.328 1001.36 551.492 999.215 551.675C995.359 552.029 991.484 552.497 987.607 551.366C985.129 550.639 982.563 550.907 980.088 551.647C976.788 552.633 973.529 552.417 970.265 551.618C969.315 551.392 968.387 550.978 967.434 550.903C966.499 550.828 965.508 550.977 964.584 551.184C963.827 551.357 963.132 551.813 962.406 552.099C959.065 553.479 955.637 554.163 952.089 553.339C949.757 552.803 947.424 553.151 945.125 553.443C943.75 553.622 942.444 553.652 941.097 553.212C939.95 552.831 938.777 552.883 937.694 553.519C935.51 554.773 933.198 554.895 930.86 554.641C928.94 554.433 927.024 553.962 925.105 553.717C921.382 553.285 917.722 553.023 914.935 556.803C913.886 558.21 912.336 558.687 910.729 558.748C909.556 558.8 908.385 558.777 907.23 558.81C906.007 558.841 904.943 558.5 904.129 557.393C903.478 556.497 902.529 556.252 901.543 556.138C898.255 555.733 894.998 557.078 891.713 556.504C888.209 557.618 884.793 556.891 881.345 556.088C880.229 555.821 878.931 555.494 877.902 555.869C874.497 557.097 870.941 556.687 867.497 557.332C864.608 557.876 861.711 557.93 858.772 557.627C857.553 557.508 856.573 557.131 855.567 556.396C851.478 553.362 847.07 551.205 842.147 550.504C840.412 550.262 838.696 549.852 837.143 548.843C834.913 547.406 832.499 546.775 829.945 546.46C827.441 546.146 825.014 545.345 822.512 544.938C819.476 544.444 816.365 543.535 813.617 542.051C809.908 540.058 806.174 538.535 802.142 537.646C799.309 537.024 796.609 535.654 793.649 535.557C793.08 535.545 792.499 535.327 791.933 535.146C788.008 533.958 784.065 532.788 780.141 531.543C778.578 531.041 777.091 530.898 775.617 531.809C774.685 532.373 773.75 532.26 772.787 531.921C771.291 531.402 769.935 530.585 768.633 529.6C767.858 529.02 766.863 528.549 765.944 528.493C763.42 528.348 760.974 527.641 758.502 527.44C753.89 527.065 749.812 525.159 745.999 522.544C742.367 520.045 738.98 517.082 734.754 515.831C734.205 515.669 733.694 515.283 733.216 514.916C730.412 512.866 727.254 511.806 724.115 510.634C722.769 510.136 721.503 509.848 720.138 510.328C718.014 511.075 715.927 510.826 713.815 510.2C712.118 509.696 710.418 509.361 708.865 508.333C708.238 507.926 707.403 507.834 706.652 507.706C704.368 507.303 702.086 506.768 699.738 507.021C698.547 507.148 697.447 506.938 696.336 506.407C694.197 505.405 692.048 504.102 689.796 503.737C687.194 503.328 685.048 501.874 682.69 500.962C681.544 500.525 680.459 500.372 679.269 500.442C676.839 500.618 674.698 499.767 672.687 498.241C670.758 496.792 668.76 495.435 666.745 494.135C665.918 493.61 664.989 493.253 664.058 492.934C662.728 492.474 662.237 492.747 661.202 494.305C660.131 495.938 659.742 496.175 658.407 495.17C654.847 492.447 650.604 492.888 646.676 491.832C642.333 492.252 638.183 491.378 634.188 489.493C633.475 489.159 632.73 488.768 631.995 488.697C628.488 488.363 625.146 487.261 621.787 486.197C619.924 485.614 618.043 485.144 616.088 485.01C614.55 484.885 613.056 484.291 611.558 483.885C609.295 483.275 607.069 482.441 604.767 482.075C602.265 481.667 599.815 481.148 597.371 480.346C595.01 479.584 592.592 478.332 590.004 479.69C589.531 479.944 588.831 479.798 588.282 479.618C585.872 478.799 583.347 478.691 580.96 477.553C578.126 476.198 575.101 475.178 572.067 474.572C567.25 473.629 562.684 471.807 558.048 470.172C556.27 469.534 554.527 467.995 552.538 469.553C551.788 469.387 550.987 469.296 550.272 469.037C547.516 467.985 544.776 466.896 542.037 465.788C541.489 465.57 540.977 465.278 540.481 464.948C537.625 463.029 534.639 461.709 531.227 461.621C529.905 461.595 528.578 461.042 527.298 460.583C523.177 459.128 519.011 458.273 514.667 458.731C513.695 458.824 512.723 458.88 511.753 458.841C510.398 458.795 509.027 458.767 507.693 458.515C503.858 457.817 500.229 456.052 496.3 455.86C493.505 454.205 490.294 454.065 487.407 452.842C485.366 451.992 483.28 451.705 481.178 451.343C481.971 450.212 482.747 449.1 483.522 447.969C483.934 447.469 484.363 446.951 484.775 446.452L484.654 446.6C485.754 446.002 486.593 445.097 487.136 443.886L487.033 443.997C488.182 443.474 489.02 442.57 489.514 441.283L489.395 441.412C491.357 440.342 492.684 438.451 494.141 436.731C494.827 435.918 494.95 434.792 494.972 433.702C496.576 429.654 498.707 426.049 501.941 423.369C503.014 422.469 503.908 421.265 504.818 420.118C506.122 418.508 507.378 416.822 508.633 415.174C509.389 414.174 510.195 413.231 510.902 412.174C511.748 410.912 512.111 409.491 512.093 407.873C512.055 403.943 512.118 400.014 512.113 396.084C512.112 393.64 512.577 391.318 513.227 388.999C513.461 388.158 513.877 387.451 514.541 386.901C515.307 386.239 516.107 385.597 516.692 384.763C517.932 383.02 519.3 381.581 521.127 380.603C522.582 379.824 523.616 378.34 523.919 376.579C524.318 374.236 525.604 372.721 527.04 371.189C529.161 368.919 531.265 366.648 533.272 364.244C533.906 363.486 534.38 362.405 534.584 361.394C535.146 358.434 535.857 355.534 535.268 352.382C534.966 350.759 535.421 348.907 535.74 347.221C535.928 346.191 536.385 345.128 536.954 344.293C538.746 341.697 540.539 339.101 542.545 336.716C544.311 334.608 545.828 332.419 546.736 329.693C547.074 328.703 547.728 327.832 548.298 326.96C549.317 325.363 550.552 323.903 551.389 322.19C552.158 320.607 553.122 319.273 554.218 318.035C555.896 316.132 557.292 314.111 557.466 311.275C557.565 309.697 558.428 308.417 559.404 307.328C559.951 306.718 560.581 306.186 561.178 305.615C562.698 304.122 563.672 302.299 564.168 300.09C564.554 298.406 564.841 296.607 565.574 295.117C566.638 292.939 566.969 290.633 567.452 288.292C567.972 285.726 568.808 283.261 568.728 280.59C568.642 277.373 569.568 274.608 571.508 272.203C572.005 271.593 572.458 270.699 572.508 269.892C572.741 266.625 573.875 263.526 573.725 260.176C573.635 257.993 573.996 255.838 575.106 253.905C575.903 252.53 575.866 251.062 575.379 249.511C573.725 244.363 571.529 239.543 568.724 235.086C567.994 233.925 567.699 232.809 568.179 231.428C568.943 229.224 568.667 227.113 567.433 225.226C566.492 223.778 566.023 222.114 565.622 220.433C565.097 218.241 564.247 216.419 562.413 215.235C561.587 214.711 560.969 213.796 560.213 213.122C558.898 211.949 558.276 210.451 558.414 208.554C558.482 207.691 558.516 206.808 558.634 205.945C558.945 203.808 558.058 202.136 557.054 200.498C556.47 199.546 555.611 198.984 554.626 198.907C553.673 198.832 552.604 198.716 551.76 199.094C549.26 200.228 546.746 201.268 544.773 203.654C542.389 206.539 539.596 208.965 537.031 211.659C536.04 212.692 535.063 213.838 534.368 215.103C532.162 219.101 528.893 221.874 525.771 224.838C524.543 225.998 523.059 226.514 521.437 226.481C519.68 226.446 517.938 226.561 516.183 226.45C513.241 226.278 510.89 227.51 508.95 229.953C507.645 231.581 506.258 233.114 504.921 234.723C503.12 236.886 501.082 238.368 498.291 238.18C496.636 238.072 495.281 238.909 494.085 240.126C493.504 240.716 492.907 241.287 492.358 241.916C490.919 243.598 489.18 244.352 487.108 244.179C486.139 244.103 485.168 244.121 484.198 244.12C482.44 244.123 480.67 243.936 478.958 244.203C477.447 244.436 476.022 245.385 474.51 245.674C472.629 246.031 471.349 247.227 470.165 248.726C468.671 250.614 467.778 252.552 468.46 255.254C469.218 258.316 468.657 261.238 466.979 263.968C465.785 265.937 465.168 268.313 463.609 270.086C463.095 270.678 462.892 271.614 462.542 272.377C462 273.532 461.59 274.803 460.883 275.823C458.212 279.642 456.334 283.985 454.473 288.31C453.454 290.697 452.42 293.007 450.709 294.891C449.854 295.814 449.328 296.988 449.084 298.318C448.412 301.764 447.093 304.934 445.526 307.948C444.934 309.083 444.558 310.317 444.099 311.492C442.864 314.664 442.025 318.088 440.045 320.85C438.633 322.814 438.053 325.04 437.902 327.519C437.826 328.796 437.796 330.319 437.174 331.284C435.981 333.178 435.688 335.278 435.26 337.394C434.924 339.098 434.604 340.859 433.954 342.426C432.143 346.733 430.844 351.407 427.184 354.474C425.601 355.796 424.807 357.867 424.46 360.135C424.305 361.166 423.815 362.247 423.196 363.043C420.256 366.951 418.11 371.289 416.873 376.209C416.672 377.032 416.222 377.794 415.789 378.519C415.131 379.596 414.375 380.596 413.667 381.672C411.716 384.66 409.451 387.435 408.622 391.198C408.455 391.984 407.839 392.686 407.34 393.353C405.69 395.501 403.991 397.611 402.341 399.758C401.963 400.259 401.551 400.758 401.305 401.336C399.97 404.468 397.759 407.075 396.919 410.555C396.573 411.977 395.61 413.217 394.964 414.558C394.422 415.713 393.763 416.847 393.454 418.063C392.946 420.027 392.043 421.682 390.776 423.067C388.415 425.67 385.938 428.159 383.511 430.686C382.744 430.539 381.98 430.242 381.226 430.264C377.326 430.317 373.493 429.525 369.634 429.203C367.729 429.052 365.756 428.956 363.971 427.867C362.565 427.011 360.941 427.091 359.4 427.154C357.474 427.228 355.542 427.566 353.614 427.771C351.626 426.735 349.468 426.691 347.328 426.592C347.128 426.588 346.944 426.565 346.743 426.561C342.615 426.271 338.705 425.177 335.174 422.661C334.514 422.178 333.784 421.881 332.976 422.128C330.99 422.69 329.178 422.071 327.283 421.431C324.325 420.431 321.348 419.506 318.225 419.18C315.135 418.854 311.981 418.415 309.075 417.303C305.604 415.992 301.938 415.223 298.736 412.996C297.943 412.454 296.908 412.358 295.959 412.113C294.26 411.684 292.543 411.367 290.846 410.9C288.016 410.129 285.205 409.301 282.393 408.455C281.279 408.113 280.062 407.9 279.104 407.242C277.404 406.098 275.558 405.516 273.732 404.746C271.376 403.739 269.003 402.77 266.717 401.577C265.111 400.755 263.553 400.009 261.748 399.879C261.029 399.827 260.269 399.36 259.676 398.878C258.573 397.991 257.453 397.066 256.572 395.939C254.957 393.875 252.884 392.95 250.606 392.227C249.425 391.865 248.359 391.618 247.21 392.14C245.859 392.771 244.542 392.519 243.211 392.135C240.948 391.469 238.704 390.746 236.421 390.268C235.104 389.997 233.601 389.816 232.387 390.281C230.279 391.084 228.233 391.288 226.098 390.963C222.732 391.891 219.573 390.869 216.397 389.846C215.832 389.665 215.248 389.578 214.717 389.342C212.446 388.281 210.098 389.343 207.814 388.94C206.796 388.769 205.935 389.165 204.993 389.372C201.934 390.043 198.831 390.413 195.831 388.943C194.174 388.12 192.42 387.972 190.701 388.576C189.69 388.932 188.838 388.858 187.928 388.332C186.374 387.398 184.711 386.838 182.941 386.652C180.336 386.374 178.659 384.893 178.287 381.783C178.029 379.615 177.402 377.515 177.211 375.349C176.98 372.693 176.461 370.238 175.252 367.92C174.576 366.609 174.037 365.113 174.219 363.556C174.501 361.192 174.316 358.744 175.115 356.448C175.382 355.644 175.718 354.749 175.668 353.939C175.359 349.326 176.036 344.771 176.062 340.202C176.078 337.702 176.625 335.475 177.44 333.235C177.901 331.966 178.624 330.965 179.805 330.5C182.201 329.533 184.42 328.167 186.544 326.593C187.19 326.117 187.885 325.642 188.626 325.413C191.287 324.583 193.565 322.842 196.002 321.481C197.948 320.392 199.697 319.168 200.879 316.991C201.348 316.117 202.314 315.535 203.08 314.892C205.872 312.542 209.215 311.048 211.586 308.012C211.826 307.698 212.216 307.48 212.586 307.356C214.726 306.628 216.299 305.005 217.839 303.306C218.952 302.069 220.128 300.983 221.759 300.602C222.482 300.429 223.262 299.955 223.775 299.383C225.282 297.683 226.707 295.888 228.083 294.054C228.616 293.351 228.636 292.354 228.233 291.575C226.961 289.124 225.518 286.82 223.221 285.345C222.048 284.588 221.066 283.515 219.928 282.684C218.872 281.91 218.275 280.808 217.949 279.56C217.56 278.104 217.356 276.596 217.068 275.124L216.982 275.216C217.661 274.741 218.225 274.169 218.328 273.194L218.276 273.286C219.704 273.014 220.547 271.866 221.342 270.659C223.551 269.82 225.742 269.037 228.143 269.48C228.893 269.627 229.682 269.511 230.452 269.508C232.611 269.495 234.675 269.198 236.529 267.75C237.685 266.852 239.046 266.578 240.408 267.057C242.668 267.874 245.004 267.357 247.292 267.591C248.628 267.73 249.962 267.174 251.054 266.125C252.078 265.13 253.054 264.04 254.513 263.9C254.624 265.839 254.736 267.759 254.881 269.699C254.934 270.415 255.92 271.318 256.507 271.236C258.437 270.974 260.24 270.333 261.921 269.164C263.907 267.775 265.68 266.137 267.372 264.366C269.116 262.54 271.017 261.224 273.465 261.01C274.403 260.935 275.364 260.579 276.211 260.107C278.97 258.564 281.681 256.908 284.407 255.289C285.322 254.743 285.776 253.831 285.982 252.726C286.112 252.089 286.325 251.492 286.505 250.875L286.402 251.004C286.948 250.47 287.494 249.936 288.04 249.402C288.909 248.629 289.795 247.858 290.648 247.066C291.672 246.09 292.365 244.882 292.563 243.363C295.342 240.824 297.891 238.074 299.554 234.441C301.586 232.451 303.716 230.557 305.649 228.453C309.55 224.244 313.352 219.921 317.203 215.655C317.477 215.359 317.816 215.122 318.123 214.865C319.25 214.587 320.133 213.927 320.79 212.869C321.725 211.346 322.659 209.842 323.593 208.319L323.473 208.467C324.596 207.568 325.62 206.573 325.654 204.844C326.062 201.242 327.263 198.107 329.903 195.81C330.516 195.277 331.016 194.573 331.58 193.983C332.606 192.894 333.285 191.591 333.401 189.977C333.538 188.174 333.988 186.585 335.153 185.236C336.695 183.462 337.526 181.241 338.076 178.883C338.534 176.937 339.42 175.3 340.424 173.647C343.021 169.318 345.734 165.067 347.887 160.39C348.744 158.546 348.667 156.551 349.355 154.798C350.044 153.025 351.821 152.027 352.214 149.948C352.384 149.011 352.333 148.22 351.845 147.496C351.487 146.981 351.08 146.428 350.584 146.154C347.786 144.65 346.164 142.06 344.938 138.99C343.918 136.431 341.966 134.473 341.253 131.676C341.067 130.939 340.361 130.267 339.769 129.747C339.012 129.074 338.19 128.362 337.292 128.062C334.218 127.003 332.044 124.402 329.472 122.489C328.845 122.025 328.239 121.411 327.784 120.725C325.023 116.533 321.889 112.634 320.079 107.746C319.937 107.348 319.744 106.95 319.534 106.588C318.757 105.275 317.808 104.203 316.249 104.322C314.439 104.455 313.357 103.342 312.604 101.673C311.947 100.23 310.962 99.2891 309.459 99.1085C308.591 98.997 308.07 98.3095 307.785 97.4952C307.357 96.2832 307.048 95.0172 306.671 93.7874C306.153 92.0847 305.379 90.6401 303.874 89.7824C301.59 88.4955 299.496 86.9491 297.953 84.6052C297.726 84.2622 297.432 83.899 297.101 83.7231C294.383 82.371 292.529 79.7388 290.139 77.9044C289.315 77.2673 288.573 76.7071 287.57 76.6681C286.6 76.6297 285.63 76.629 284.662 76.4779C283.16 76.2596 282.21 75.2439 281.791 73.6372C281.418 72.1819 281.181 70.654 280.742 69.2162C280.569 68.6486 280.095 68.075 279.615 67.8021C278.755 67.3147 277.808 66.9947 276.875 66.7503C275.477 66.3837 274.442 65.4415 273.545 64.2577C273.04 63.5894 272.619 62.8664 272.148 62.1612C270.831 60.2356 269.272 58.7375 267.251 57.6815C265.33 56.6838 263.637 55.1455 261.839 53.8683C260.998 53.2684 260.326 52.5216 259.929 51.4794C259.532 50.4185 258.859 49.7656 257.845 49.4068C255.071 48.3919 252.472 46.9858 250.136 45.002C249.543 44.5012 248.733 44.0148 248.046 44.0574C244.929 44.2766 242.707 41.5806 239.805 41.1273C239.487 41.0833 239.145 40.6628 238.934 40.3201C238.497 39.5968 238.178 38.8006 237.741 38.0773C236.268 35.5844 234.428 33.874 231.53 34.0224C230.592 34.0787 229.542 33.8695 228.714 33.4016C224.876 31.2183 221.279 28.6451 219.398 24.0005C220.171 23.0383 221.342 22.2157 221.666 21.0941C222.655 17.673 224.601 14.9295 226.464 12.1653C227.706 10.3288 228.412 8.51912 228.525 6.24627C228.606 4.68723 228.434 3.25477 228.046 1.76148C227.596 0.041362 227.732 -1.7422 228.667 -3.284C229.688 -4.97452 230.226 -6.74994 230.284 -8.79826C230.3 -9.62524 230.686 -10.4637 231.003 -11.2658C231.55 -12.665 231.982 -14.1793 232.776 -15.3668C234.226 -17.5563 234.417 -19.602 233.278 -22.0317C232.508 -23.6643 233.196 -25.4367 233.615 -27.1205C234.778 -31.7039 234.796 -31.7598 232.531 -35.6224C231.253 -37.7917 229.873 -39.9067 228.066 -41.6165C227.196 -42.4426 226.262 -43.4391 225.901 -44.5934C225.35 -46.3532 224.419 -47.4813 223.136 -48.5789C220.998 -50.4271 219.015 -52.5353 217.049 -54.6244C214.248 -57.6141 211.583 -60.7703 207.886 -62.4806C207.189 -62.7955 206.688 -63.6518 206.008 -63.9851C203.888 -65.0432 202.672 -66.9855 201.914 -69.2571C200.369 -73.989 198.147 -78.3021 195.585 -82.3963C195.001 -83.3294 194.889 -84.3846 194.642 -85.4425C193.996 -88.2384 192.839 -90.6497 190.563 -92.2751C189.754 -92.8554 188.881 -93.5498 188.448 -94.4423C187.563 -96.2276 185.96 -97.2188 184.97 -98.7806C183.964 -100.343 183.451 -102.271 182.649 -103.998C182.296 -104.757 181.655 -105.334 181.268 -106.076C180.881 -106.798 180.512 -107.595 180.378 -108.425C180.138 -109.784 179.591 -110.867 178.688 -111.75C178.245 -112.172 177.751 -112.558 177.392 -113.054C175.961 -115.114 174.597 -117.191 172.412 -118.382C171.949 -118.636 171.561 -119.32 171.388 -119.888C170.254 -123.408 168.627 -126.525 166.237 -129.205C165.157 -130.411 164.89 -132.09 165.381 -134.055C166.034 -136.561 166.19 -139.303 165.471 -141.819C164.985 -143.483 164.887 -145.234 164.351 -146.862C163.782 -148.546 163.749 -150.221 163.902 -152.004C164.211 -155.702 164.352 -159.403 164.861 -163.059C165.016 -164.128 165.022 -165.237 164.96 -166.329C164.912 -167.251 164.423 -167.919 163.609 -168.218C162.712 -168.537 161.49 -168.505 161.162 -169.677C160.507 -172.06 159.156 -173.93 157.717 -175.632C156.115 -177.526 155.946 -179.917 155.355 -182.167C155.262 -182.526 155.473 -183.01 155.648 -183.402C155.823 -183.793 156.081 -184.126 156.355 -184.44C158.74 -187.363 162.199 -188.741 164.552 -191.778C165.257 -192.704 166.553 -193.054 167.602 -193.634C168.313 -194.034 168.843 -194.587 169.244 -195.387C169.61 -196.132 170.127 -196.836 170.723 -197.37C173.041 -199.466 174.931 -201.91 176.016 -205.066C176.389 -206.13 177.107 -206.906 177.987 -207.396C179.206 -208.086 180.408 -208.776 181.205 -210.114C182.156 -211.636 184.129 -211.54 184.899 -213.236ZM650.602 100.79L650.671 100.697C653.884 98.2049 656.477 94.9666 659.166 91.8619C659.869 91.0487 660.141 90.0012 660.214 88.8933C660.542 88.3546 660.855 87.7968 661.184 87.2582L661.165 87.333C661.551 85.6297 662.002 84.0217 662.952 82.5554C664.317 80.4394 665.417 78.1487 665.756 75.448C665.997 73.4597 666.968 71.787 668.219 70.3267C669.024 69.384 669.731 68.3453 669.993 66.9968C670.219 65.7228 670.38 64.3721 670.889 63.2354C671.572 61.6885 673.321 62.0998 674.459 61.2954C675.443 60.6195 676.54 60.1527 677.572 59.5906C678.351 59.1738 678.596 58.6147 678.485 57.4655C678.07 53.1513 677.387 48.8692 677.122 44.5392C676.867 40.5854 677.03 36.6589 677.794 32.8009C678.763 27.894 679.615 22.966 681.034 18.181C681.339 17.1717 681.597 15.9736 681.382 15.0103C680.877 12.6874 681.584 10.8025 682.362 8.73105C683.158 6.62232 684.298 4.85903 685.748 3.45919C689.009 0.290736 690.679 -3.73698 691.642 -8.3055C691.771 -8.92344 692.118 -9.49941 692.347 -10.0965C694.255 -11.7691 696.147 -13.442 698.055 -15.1147C699.145 -16.0705 699.673 -17.3573 699.854 -18.8766C700.351 -20.2957 700.915 -21.6945 701.346 -23.1525C702.19 -26.0123 701.371 -27.7023 698.794 -28.5627C698.428 -28.6829 698.028 -28.7287 697.645 -28.8304C696.48 -29.1547 695.487 -29.7387 694.86 -30.9736C694.36 -31.9426 693.587 -32.5786 692.693 -33.0666C691.832 -33.5352 690.956 -34.0607 690.199 -34.734C688.671 -36.0999 687.157 -37.3901 685.158 -37.8628C684.459 -38.0273 683.734 -38.606 683.211 -39.2182C681.413 -41.3604 679.092 -42.4413 676.753 -43.4662C674.762 -44.3336 672.666 -44.9587 670.745 -45.9563C668.443 -47.1496 666.14 -48.2866 663.64 -48.8258C661.124 -49.3654 659.262 -51.6593 656.623 -51.9005C656.105 -51.9485 655.563 -52.4483 655.102 -52.8337C652.371 -55.1451 649.173 -55.924 645.908 -56.629C641.709 -57.5409 637.51 -58.4341 633.655 -60.6552C632.795 -61.1426 631.848 -61.4813 630.916 -61.7633C628.455 -62.5275 626.221 -63.7946 624.024 -65.2302C622.025 -66.5303 620.133 -68.1479 617.584 -67.8796C617.047 -67.8152 616.469 -68.1841 615.922 -68.4208C613.2 -69.5474 610.479 -70.7116 607.757 -71.8569C604.491 -71.7347 601.837 -73.706 598.985 -75.0232C598.802 -75.1021 598.602 -75.1438 598.419 -75.1663C594.446 -75.6599 591.112 -77.9835 587.637 -79.915C586.793 -80.3833 586.055 -81.1502 585.367 -81.8974C584.68 -82.6633 584.112 -83.5585 583.527 -84.4164C582.195 -86.4175 580.499 -87.8056 578.265 -88.2079C576.281 -88.5675 574.577 -89.5607 572.962 -90.7967C572.006 -91.5304 571.12 -92.3944 570.182 -93.1842C567.779 -95.2069 565.126 -96.4261 562.056 -96.0555C560.446 -95.8623 558.965 -96.2869 557.505 -96.918C554.253 -98.3374 550.985 -99.7382 547.733 -101.139C546.621 -101.612 545.468 -101.711 544.294 -101.546C542.531 -101.3 540.794 -101.429 539.079 -101.896C537.931 -102.201 536.8 -102.562 535.949 -103.52C534.019 -105.721 531.536 -107.106 529.501 -109.083C527.351 -111.176 524.931 -112.316 522.178 -112.766C520.844 -112.981 519.513 -113.365 518.176 -113.467C516.99 -113.566 515.91 -113.964 514.815 -114.419C512.076 -115.546 509.336 -116.616 506.545 -117.594C506.096 -117.753 505.237 -117.488 504.962 -117.099C503.393 -114.818 502.089 -112.418 502.562 -109.306C502.68 -108.496 502.625 -107.463 502.277 -106.774C501.249 -104.764 501.24 -102.639 501.162 -100.441C501.089 -98.4869 501.03 -96.4009 500.343 -94.666C499.16 -91.625 498.561 -88.4405 497.761 -85.2977C497.615 -84.699 497.349 -83.9334 496.925 -83.6599C494.331 -82.0011 493.419 -79.1238 492.375 -76.2868C491.774 -74.6819 491.122 -73.0591 490.256 -71.6288C488.888 -69.3623 488.238 -66.9874 488.216 -64.2427C488.19 -59.5989 487.513 -55.081 485.007 -51.164C484.904 -50.9969 484.799 -50.7734 484.778 -50.567C484.677 -49.7228 484.408 -48.807 484.576 -48.0138C484.898 -46.5407 485.488 -45.1374 485.945 -43.718C486.464 -42.0716 487.151 -40.4596 487.419 -38.7619C487.984 -35.2719 488.081 -31.7726 485.862 -28.7713C485.225 -27.9191 484.721 -26.9703 484.665 -25.8433C484.569 -23.5888 483.743 -21.6313 482.933 -19.6357C482.352 -18.1807 482.504 -16.617 483.313 -15.2469C483.734 -14.5239 484.239 -13.8556 484.727 -13.1689C485.623 -11.9474 486.148 -10.5831 486.216 -8.98349C486.236 -8.32493 486.324 -7.68382 486.428 -7.04243C486.652 -5.68413 487.232 -4.56304 488.392 -3.99439C489.668 -3.36701 490.874 -2.6282 491.43 -1.1316C492.542 1.80527 494.508 3.93201 496.766 5.65093C498.694 7.11877 499.762 8.94539 499.927 11.5435C499.977 12.3907 500.277 13.2804 500.664 14.0027C501.76 16.1119 502.401 18.3436 502.569 20.7914C502.686 22.4484 503.653 23.502 505.029 24.1127C507.368 25.1563 509.706 26.2 512.027 27.3185C513.518 28.0443 514.547 29.3436 515.166 31.0107C515.991 33.2273 516.867 35.4261 517.524 37.6956C518.557 41.289 520.065 44.4783 522.471 47.1968C523.96 48.8626 525.482 50.5855 526.119 53.0051C526.321 53.7613 527.029 54.3773 527.551 55.0083C528.466 56.1361 529.415 57.227 530.346 58.3363C531.311 59.4651 532.005 60.7389 532.089 62.3576C532.224 64.8047 533.41 66.5773 535.336 67.3306C537.561 68.2028 538.866 69.9025 539.842 72.1033C541.138 75.0627 542.894 77.5989 544.87 80.0455C546.83 82.4541 548.702 85.0302 550.169 87.805C551.572 90.4468 553.044 92.9585 554.856 95.2513C556.014 96.7225 557.017 98.435 557.093 100.486C557.19 103.177 558.577 104.916 560.236 106.491C561.418 107.624 562.651 108.683 563.954 109.631C566.61 111.565 568.704 113.957 570.195 117.184C571.254 119.461 572.599 121.632 575.04 122.565C576.087 122.962 576.953 123.995 577.874 124.784C579.421 126.094 580.828 127.664 582.515 128.676C584.681 129.979 586.321 131.648 587.156 134.241C587.707 135.926 588.753 137.169 589.815 138.469C592.87 142.178 596.235 145.405 600.133 147.965C604.857 151.05 609.099 154.821 612.79 159.371C613.443 160.173 614.111 161.071 614.937 161.576C617.252 162.995 618.678 165.318 620.223 167.53C621.54 169.418 622.79 171.361 624.005 173.323C624.702 174.446 625.588 175.329 626.719 175.69C629.979 176.715 632.787 178.52 635.16 181.2C635.291 181.334 635.525 181.339 635.69 181.455C636.037 181.669 637.03 181.388 637.272 180.998C637.48 180.645 637.855 180.295 637.897 179.92C638.392 176.076 639.874 172.326 638.833 168.319C638.632 167.506 638.602 166.509 638.835 165.724C639.553 163.313 639.282 160.976 638.76 158.634C638.116 155.744 638.242 152.795 639.496 150.357C641.029 147.379 640.783 144.629 640.293 141.554C640.009 139.837 639.574 138.174 639.274 136.476C638.734 133.362 638.981 130.208 640.937 127.822C643.666 124.474 645.232 120.632 646.007 116.266C646.233 114.992 646.61 113.721 647.003 112.488C647.664 110.414 648.258 108.358 648.169 106.119C648.118 104.501 648.781 103.16 649.758 102.014C650.068 101.588 650.343 101.198 650.602 100.79ZM946.783 432.95L947.165 433.089L947.406 432.755C949.133 432.564 950.954 432.714 952.556 432.126C955.371 431.111 958.236 430.961 961.101 430.794C963.263 430.649 965.231 430.125 967.147 428.885C968.283 428.155 969.662 427.845 970.942 427.419C972.239 426.994 973.568 426.682 974.863 426.332C977.746 425.319 980.687 424.682 983.725 425.063C984.293 425.131 984.879 425.086 985.465 425.06C986.471 425.006 987.332 424.609 988.068 423.815C988.632 423.206 989.229 422.654 989.777 422.045C990.941 420.771 992.277 420.064 993.933 420.098C997.296 420.147 999.92 418.639 1001.71 415.366C1002.94 414.319 1004.27 413.537 1005.85 413.381C1007.39 413.224 1008.84 412.689 1010.09 411.642C1012.42 409.677 1015.12 408.679 1017.85 407.737L1017.74 408.036L1017.47 407.899C1018.6 407.715 1019.72 407.512 1020.85 407.327C1021.62 407.362 1022.4 407.359 1023.17 407.431C1024.64 407.592 1025.83 407.033 1026.8 405.812C1027.2 405.331 1027.64 404.888 1028.05 404.426C1028.98 403.9 1029.92 403.392 1030.83 402.865L1030.72 403.183L1030.42 403.102C1031.15 402.778 1031.84 402.359 1032.58 402.13C1034.83 401.404 1037.11 400.848 1039.07 399.289C1042.79 398.161 1046.17 395.616 1050.22 395.791C1051.64 395.857 1052.79 395.034 1053.92 394.098C1055.16 393.051 1056.4 391.892 1057.82 391.3C1060.54 390.151 1063.34 388.91 1066.18 388.554C1071.6 387.873 1076.87 386.343 1082.22 385.323C1084.91 384.813 1087.57 384.265 1090.33 384.452C1091.68 384.536 1093.04 384.375 1094.4 384.252C1095.57 384.144 1096.73 383.81 1097.62 382.869C1100.82 379.493 1104.58 378.177 1108.88 378.753C1109.27 378.798 1109.67 378.787 1110.05 378.757C1111.23 378.668 1112.37 378.447 1113.39 377.715C1114.05 377.24 1114.71 376.783 1115.37 376.326C1118.58 374.116 1121.96 372.585 1125.82 372.814C1127.86 372.93 1129.55 372.061 1131.17 370.646C1134.88 367.449 1134.91 367.506 1139.67 367.47C1140.05 367.459 1140.47 367.336 1140.82 367.437C1143.97 368.347 1147 367.167 1150.07 366.796C1151.94 366.57 1153.53 364.666 1153.33 362.18C1153.16 359.976 1153.03 357.924 1151.49 356.239C1151 355.702 1150.77 354.682 1150.69 353.853C1150.4 351.478 1150.35 349.033 1148.78 347.14C1147.24 343.179 1147.13 339.059 1148.04 334.941C1148.55 332.563 1148.47 330.173 1148.67 327.789C1148.8 326.175 1148.39 324.757 1147.36 323.608C1145.92 322.018 1145.14 320.084 1144.8 317.859C1144.5 315.935 1144.06 314.027 1143.78 312.103C1143.62 310.972 1143.34 309.951 1142.43 309.368C1140.16 307.913 1139.32 305.62 1139.23 302.817C1139.2 301.951 1139.13 301.066 1139.06 300.2C1139.12 299.261 1139.17 298.341 1139.22 297.401C1139.22 295.728 1139.22 294.055 1139.21 292.381C1139.38 291.106 1139.56 289.831 1139.73 288.574C1139.99 286.662 1140.26 284.768 1140.52 282.855C1140.89 281.847 1141.3 280.84 1141.62 279.813C1141.97 278.729 1141.84 277.674 1141.23 276.721C1140.66 275.826 1140.23 274.821 1139.54 274.073C1138.12 272.503 1137.13 270.716 1136.57 268.561C1136.31 267.559 1135.74 266.476 1135.02 265.878C1133.14 264.28 1132.42 262.197 1132.33 259.657C1132.29 258.283 1131.7 257.181 1130.95 256.132C1129.83 254.548 1128.48 253.355 1126.68 252.924C1124.6 252.412 1122.5 251.956 1120.4 251.463C1119 251.134 1117.93 250.21 1117.1 248.952C1116.65 248.266 1116.31 247.451 1115.94 246.691C1114.63 243.938 1112.88 241.647 1110.42 240.13C1109.34 239.469 1108.63 238.534 1108.15 237.283C1107.24 234.877 1105.49 233.676 1103.33 232.993C1101.45 232.391 1099.55 232.014 1097.6 231.975C1094.05 231.904 1090.67 231.14 1087.7 228.767C1087.24 228.382 1086.68 228.164 1086.17 227.834C1085.14 227.155 1084.05 226.757 1082.84 226.77C1078.57 226.816 1074.41 225.641 1070.11 225.611C1066.61 225.597 1063.13 225.132 1059.67 225.814C1057.45 226.24 1055.47 225.749 1053.5 224.562C1052.33 223.843 1051 223.402 1049.68 223.037C1048.98 222.854 1048.01 222.835 1047.43 223.237C1045.52 224.589 1043.5 225 1041.29 224.861C1033.67 224.37 1026.16 225.741 1018.64 226.831C1016.31 227.179 1014.03 227.396 1011.69 227.142C1010.34 227.002 1008.99 226.9 1007.64 226.666C1006.4 226.453 1005.34 226.826 1004.32 227.558C1003.18 228.381 1002.27 229.622 1000.88 229.952C998.976 230.383 997.121 231.098 995.122 230.625C992.59 230.029 990.009 230.24 987.6 231C985.31 231.725 983.059 232.131 980.715 232.197C978.923 232.255 977.24 232.728 975.857 234.111C974.781 235.18 973.548 235.738 972.127 235.672C969.803 235.55 967.97 236.848 966.364 238.451C963.888 240.921 961.493 243.505 959.721 246.703C959.183 247.67 958.485 248.277 957.62 248.842C954.127 251.103 951.304 254.187 950.41 258.681C949.814 261.659 948.582 263.872 946.602 265.787C945.578 266.782 944.634 267.91 943.675 269C941.072 271.937 938.469 274.912 935.849 277.849C934.103 279.807 933.186 282.101 933.164 284.884C933.149 287.29 933.067 289.695 933.018 292.101C932.953 295.372 932.886 298.661 932.837 301.932C932.822 303.529 932.408 304.931 931.381 306.076C930.97 306.538 930.592 307.057 930.214 307.538C929.39 308.556 929.047 309.79 929.003 311.143C928.96 312.458 928.934 313.774 928.924 315.071C928.914 316.406 928.821 317.702 928.178 318.873C927.102 320.807 926.74 322.962 926.83 325.164C926.968 328.288 925.75 330.614 923.785 332.624C923.067 333.361 922.463 334.271 921.68 334.894C919.08 336.891 916.952 339.5 914.924 342.129C912.862 344.814 910.311 346.831 907.988 349.153C907.442 349.706 906.63 350.122 905.909 350.22C902.201 350.691 899.425 353.08 896.778 355.696C893.995 358.442 891.343 361.341 888.624 364.181C887.479 365.381 886.383 366.618 885.205 367.76C883.687 369.215 881.963 370.064 879.902 370.173C877.774 370.281 875.658 370.671 873.542 371.06C871.996 371.349 870.496 371.864 869.316 373.138C868.392 374.134 867.251 374.281 866.066 374.163C863.477 373.885 861.027 374.23 858.785 375.84C858.463 376.078 858.091 376.24 857.704 376.345C854.035 377.361 851.557 379.944 849.942 383.691C849.767 384.082 849.542 384.435 849.35 384.826C848.74 386.036 848.497 387.272 849.208 388.527C849.839 389.63 850.183 390.841 850.492 392.125C851.23 395.318 852.46 398.276 854.793 400.429C856.14 401.678 857.727 402.613 858.904 404.028C860.064 405.443 860.778 407.337 861.801 408.919C862.483 409.967 863.301 410.904 864.153 411.787C865.317 412.995 866.261 414.311 866.88 415.959C867.547 417.74 868.784 418.668 870.507 418.702C874.64 418.748 878.513 420.029 882.435 421.387C885.543 422.465 888.624 424.05 892.043 423.78C893.065 423.707 894.011 424.121 894.733 424.85C897.258 427.402 900.642 428.053 903.448 429.99C903.927 430.319 904.562 430.35 905.128 430.531C906.291 430.931 907.447 430.86 908.546 430.337C910.692 429.289 912.822 428.223 914.338 426.053C915.131 424.922 916.338 424.815 917.527 424.801C921.225 424.782 924.196 426.854 927.201 428.87C929.248 431.919 932.486 432.342 935.395 433.322C937.224 433.942 939.232 433.926 941.168 434.209C943.102 433.74 944.934 433.345 946.783 432.95ZM1209.19 0.802531C1211.69 -0.500904 1212.66 -2.98211 1213.21 -5.79165C1214.45 -7.74087 1215.73 -9.67074 1216.92 -11.6586C1217.06 -11.9003 1216.91 -12.693 1216.69 -12.8101C1214.97 -13.8038 1213.25 -14.7973 1211.44 -15.5859C1207.94 -17.123 1205.01 -19.5511 1202.33 -22.4445C1202.05 -22.7509 1201.84 -23.1312 1201.54 -23.4004C1199.31 -25.495 1197.04 -27.609 1194.09 -28.27C1192.13 -28.7045 1190.44 -29.735 1188.88 -31.0639C1186.86 -32.7593 1184.83 -34.4548 1182.88 -36.2428C1181.61 -37.3965 1180.22 -38.0827 1178.61 -38.0399C1175.8 -37.9461 1173.28 -39.0311 1170.74 -40.1727C1169.84 -40.5668 1168.88 -41.1126 1167.98 -41.0181C1165.48 -40.7863 1163.46 -42.1056 1161.36 -43.2197C1159.79 -44.0599 1158.25 -44.9746 1156.71 -45.8893C1155.87 -46.3952 1154.96 -46.8648 1154.25 -47.5747C1152.27 -49.589 1149.61 -49.6049 1147.3 -50.6855C1144.15 -50.5609 1141.18 -51.4858 1138.13 -52.1676C1134.51 -52.9738 1130.8 -53.2366 1127.15 -53.7427C1126.38 -53.8522 1125.6 -53.962 1124.85 -54.1651C1122.4 -54.8537 1119.94 -55.5237 1117.53 -56.3432C1115.12 -57.1626 1112.64 -57.9272 1110.41 -59.1756C1108.06 -60.4827 1105.67 -60.9444 1103.11 -61.0899C1101.19 -61.2038 1099.12 -61.2455 1097.39 -62.07C1093.73 -63.7985 1089.91 -64.2891 1086.03 -64.5364C1084.44 -64.6436 1082.96 -65.0683 1081.63 -66.0353C1080.6 -66.7705 1079.52 -66.9804 1078.29 -66.817C1075.51 -66.4406 1072.9 -67.2829 1070.42 -68.6303C1069.03 -69.3917 1067.64 -70.1905 1066.23 -70.9147C1063.78 -72.1674 1061.36 -73.6451 1058.8 -74.5051C1056.91 -75.145 1055.15 -75.9138 1053.57 -77.2242C1052.45 -78.1493 1051.24 -78.7566 1049.84 -78.9352C1047.05 -79.2922 1044.62 -80.601 1042.5 -82.5992C1040.94 -84.0784 1039.15 -84.7727 1037.14 -84.8319C1033.49 -84.9429 1030.28 -86.4179 1027.46 -88.8626C1024.77 -91.192 1021.74 -92.381 1018.48 -93.2365C1014.27 -94.3366 1010.46 -96.4065 1007.46 -100.058C1006.93 -100.689 1006.27 -101.21 1005.82 -101.897C1004.58 -103.764 1002.92 -104.794 1000.93 -105.173C999.031 -105.549 997.067 -106.059 995.172 -105.89C990.629 -105.493 987.058 -108.479 983.001 -109.802C981.022 -112.08 978.325 -112.773 975.821 -113.933C973.301 -115.074 970.816 -116.347 968.453 -117.861C965.232 -119.919 961.988 -121.714 958.432 -122.97C954.759 -124.266 951.164 -126.087 949.105 -130.209C948.735 -130.95 948.043 -131.471 947.503 -132.084C944.591 -135.414 940.901 -137.463 937.224 -139.361C933.447 -141.299 930.082 -143.735 927.256 -147.139C926.455 -148.114 925.552 -148.979 924.387 -149.303C921.326 -150.192 918.614 -151.807 916.044 -153.815C915.731 -154.065 915.366 -154.242 915.019 -154.437C912.487 -155.842 910.59 -155.579 908.703 -153.248C906.866 -150.972 904.948 -148.811 902.833 -146.842C902.083 -146.142 901.43 -145.309 900.762 -144.533C899.923 -143.572 899.381 -142.417 899.137 -141.106C899.023 -140.469 898.793 -139.834 898.713 -139.197C898.355 -136.383 897.532 -133.711 897.24 -130.859C896.966 -128.082 895.944 -125.488 894.737 -122.918C892.971 -119.174 890.814 -115.908 887.997 -113.145C887.109 -112.279 886.336 -111.298 885.514 -110.374C884.504 -109.247 883.874 -107.888 883.959 -106.269C884.229 -100.547 882.028 -95.1201 882.431 -89.377C882.481 -88.5487 882.095 -87.6914 881.911 -86.849C881.727 -86.0066 881.442 -85.1474 881.425 -84.3016C881.272 -78.4006 881.17 -72.4985 881.051 -66.5968C881.019 -64.9804 881.578 -63.6717 882.525 -62.4681C886.081 -57.8837 889.585 -53.2439 893.141 -48.6596C893.94 -47.6282 894.452 -46.4709 894.442 -45.1172C894.426 -42.692 894.647 -40.3372 895.522 -38.082C896.683 -35.069 897.608 -31.9855 898.145 -28.7405C898.309 -27.7219 898.892 -26.7511 899.443 -25.8751C900.221 -24.6373 901.237 -23.5639 901.999 -22.3263C902.534 -21.4506 903.065 -20.4246 903.161 -19.3885C903.354 -17.2974 904.294 -15.8119 905.451 -14.2655C907 -12.2036 908.793 -10.6632 910.981 -9.64137C912.755 -8.79714 913.626 -7.16251 914.122 -5.21584C914.168 -5.00808 914.214 -4.78159 914.226 -4.57445C914.65 -0.692508 916.195 2.38469 919.077 4.68032C920.856 6.08875 922.088 8.08789 922.523 10.5599C922.897 12.7673 923.795 14.6845 925.016 16.4014C927.669 20.1402 928.944 24.9418 932.226 28.1856C932.636 28.5887 932.89 29.2708 933.079 29.8763C933.893 32.6567 935.625 34.7411 937.255 36.8986C938.51 38.5598 939.646 40.3125 940.85 42.0291C943.225 45.4238 945.462 49.0226 949.034 51.1253C950.589 52.0404 951.73 53.5676 952.496 55.4257C952.991 56.6015 953.891 57.5786 954.285 58.7899C955.167 61.5529 956.831 63.6547 958.53 65.7573C959.183 66.5602 959.971 67.3093 960.387 68.2579C961.059 69.7944 962.148 70.5873 963.495 70.9717C966.041 71.7187 968.137 73.1523 969.73 75.4972C969.957 75.8402 970.201 76.2023 970.497 76.4715C973.782 79.5274 976.964 82.7692 981.469 83.4052C982.02 83.4727 982.616 83.8044 983.026 84.2075C984.601 85.7999 986.209 87.3741 987.646 89.1329C991.845 94.2003 996.705 98.0024 1002.93 99.0866C1004.88 99.4268 1006.6 100.477 1008.5 100.91C1012.39 101.797 1015.71 104.007 1018.75 106.757C1020 107.892 1021.27 108.745 1022.89 108.928C1024.9 109.156 1026.58 110.168 1028.18 111.498C1029.27 112.403 1030.49 113.124 1031.56 114.066C1032.81 115.163 1034.18 115.812 1035.73 116.238C1039.78 117.334 1043.31 119.549 1046.26 122.899C1046.8 123.512 1047.41 124.069 1047.95 124.7C1048.94 125.83 1050.12 126.437 1051.56 126.578C1054.06 126.836 1056.58 127.037 1058.88 128.456C1059.53 128.845 1060.38 128.862 1061.15 128.971C1064.3 129.411 1067.14 130.653 1069.72 132.717C1070.83 133.585 1072.03 134.512 1073.3 134.838C1075.81 135.509 1078.1 136.514 1080.17 138.211C1080.77 138.693 1081.62 138.823 1082.37 139.026C1083.5 139.331 1084.72 139.355 1085.76 139.846C1087.4 140.613 1089.05 141.041 1090.84 141.133C1094.02 141.31 1096.96 142.347 1099.49 144.579C1100.89 145.83 1102.55 146.521 1104.21 147.062C1106.26 147.724 1108.35 148.18 1109.89 150.11C1110.23 150.531 1110.95 150.733 1111.48 150.763C1113.17 150.815 1114.23 152.36 1115.67 152.878C1117.34 153.456 1119.12 153.586 1120.73 154.258C1122.21 154.89 1123.66 155.332 1125.25 155.383C1126 155.417 1126.8 155.715 1127.44 156.142C1130.38 158.044 1133.54 158.897 1136.9 159.078C1139.49 159.205 1141.87 160.137 1143.98 161.796C1146.07 163.455 1148.34 164.554 1150.8 165.375C1153.21 166.175 1155.6 167.088 1158.01 167.908C1161.15 168.987 1164.31 170.009 1167.27 171.723C1170.18 173.418 1173.36 174.572 1176.44 175.894C1177.16 176.21 1177.96 176.282 1178.71 176.41C1179.68 176.561 1180.7 176.469 1181.6 176.825C1185.12 178.25 1188.77 178.662 1192.46 179.113C1193.6 179.248 1194.78 179.629 1195.79 180.251C1198.2 181.729 1200.67 182.85 1203.4 183.357C1204.72 183.609 1206.03 184.199 1207.24 184.863C1211.29 187.107 1215.64 188.21 1220.08 188.92C1222.96 189.373 1225.78 190.088 1228.59 191.009C1232.68 192.351 1236.87 193.414 1241.13 193.932C1244.05 194.292 1246.92 194.744 1249.36 196.824C1249.8 197.209 1250.4 197.428 1250.96 197.571C1253.79 198.267 1256.55 199.432 1259.55 199.229C1262.1 199.055 1264.54 199.668 1266.97 200.638C1272.83 202.975 1278.92 204.395 1285.1 205.272C1287.42 205.601 1289.72 206.061 1291.86 207.119C1294.92 208.61 1298.15 209.314 1301.42 209.869C1303.16 210.167 1304.86 210.596 1306.59 210.913C1307.72 211.124 1308.89 211.373 1310.03 211.302C1312.34 211.161 1314.66 210.831 1316.97 210.558C1317.39 210.51 1317.93 209.637 1317.89 209.072C1317.85 208.639 1317.87 208.132 1317.68 207.808C1315.35 203.926 1312.04 201.302 1308.55 198.938C1308.24 198.725 1307.81 198.735 1307.42 198.67C1306.59 198.541 1305.94 198.058 1305.66 197.187C1304.98 195.068 1303.81 193.408 1302.42 191.838C1301.77 191.111 1301.32 190.067 1300.94 189.101C1300.32 187.509 1299.78 185.881 1299.28 184.235C1298.81 182.684 1297.82 181.705 1296.58 180.965C1296.07 180.654 1295.56 180.287 1295.01 180.106C1291.4 178.924 1289.05 176.188 1287.35 172.562C1287.07 171.974 1286.82 171.386 1286.46 170.871C1285.97 170.203 1285.48 169.479 1284.84 169.052C1282.46 167.5 1280.56 165.318 1278.56 163.266C1277.71 162.384 1276.88 161.446 1275.92 160.712C1274.14 159.341 1272.58 157.749 1271.16 155.915C1270.68 155.285 1270.02 154.67 1269.34 154.393C1264.36 152.375 1260.18 148.7 1255.43 146.235C1254.91 145.961 1254.34 145.592 1254.05 145.079C1252.56 142.454 1249.73 141.419 1248.32 138.683C1247.85 137.79 1246.89 137.225 1246.13 136.552C1245.21 135.744 1244.19 135.065 1243.37 134.165C1241.99 132.689 1240.74 131.066 1239.43 129.497C1239.27 126.899 1237.42 125.32 1236.41 123.25C1234.77 119.871 1232.26 117.601 1229.06 116.164C1225.96 114.785 1223.25 112.738 1221 109.91C1220.38 109.126 1219.52 108.413 1218.66 108.057C1216.35 107.09 1214.75 105.384 1213.54 103.009C1212.77 101.508 1211.72 100.19 1210.81 98.7799C1210 97.5038 1209.46 96.1015 1209.53 94.5233C1209.62 92.2501 1208.91 90.2426 1208.06 88.2701C1207.89 87.8716 1207.71 87.492 1207.5 87.1305C1206.05 84.638 1205.53 81.9952 1206.07 79.0166C1206.3 77.7613 1206.43 76.2785 1206.04 75.1611C1205.21 72.8881 1204.67 70.6586 1205.05 68.2031C1204.15 64.8192 1204.12 61.3024 1204.01 57.8216C1203.96 56.2411 1203.72 54.6381 1202.87 53.4928C1201.24 51.2977 1201.18 48.7955 1200.95 46.1585C1200.71 43.5402 1200.46 40.978 1200.87 38.3725C1201.02 37.3227 1201.01 36.1754 1200.82 35.1561C1200.56 33.8535 1200.47 32.5919 1200.61 31.2598C1200.72 30.1901 1200.84 29.0644 1200.66 28.0266C1200.24 25.6114 1200.91 23.1804 1200.57 20.8421C1200.17 18.1265 1201.14 15.7204 1201.33 13.1669C1201.42 11.7586 1201.71 10.6738 1202.7 9.75362C1203.28 9.22002 1203.86 8.51727 1204.11 7.77018C1204.54 6.50021 1205.2 5.49796 1206.07 4.57539C1207.08 3.3736 1208.13 2.0597 1209.19 0.802531Z" fill="#FF4B41"/>
<path d="M281.4 607.352C282.757 607.248 284.137 606.88 285.455 607.095C287.089 607.372 288.53 607.27 289.939 606.302C290.108 606.192 290.295 606.083 290.479 606.087C294.125 606.179 297.798 604.937 301.422 606.138C302.403 606.459 303.321 606.609 304.265 606.233C306.848 605.157 309.58 604.93 312.267 604.457C314.585 604.053 316.881 603.855 319.193 604.559C320.906 605.083 322.57 604.759 324.323 604.117C326.515 603.297 328.848 602.949 331.149 602.563C332.895 602.278 334.608 601.974 336.12 600.858C337.156 600.089 338.312 600.037 339.497 600.211C344.503 600.895 349.511 601.541 354.5 602.281C357.253 602.693 359.851 602.483 362.501 601.37C365.403 600.169 368.447 599.44 371.505 598.844C372.916 598.571 374.233 598.805 375.458 599.506C376.665 600.208 377.821 600.983 378.959 601.814C380.262 602.762 381.531 603.747 382.782 604.768C385.203 606.716 387.929 607.636 390.906 607.734C392.26 607.78 393.736 607.621 394.913 608.19C398.741 610.054 402.802 610.324 406.84 610.913C408.192 611.109 409.544 611.287 410.877 611.558C413.361 612.04 415.821 612.861 418.312 613.005C420.602 613.145 422.939 612.591 425.254 612.318C425.841 612.254 426.449 611.966 426.982 612.089C430.165 612.793 433.141 612.1 436.049 610.636C436.404 610.455 436.806 610.407 437.176 610.32C442.471 609.167 442.771 609.23 447.246 613.043C448.167 613.832 449.054 614.677 449.872 615.596C450.478 616.267 451.194 616.45 451.98 616.466C455.476 616.537 458.973 616.588 462.47 616.64C464.042 616.653 465.527 616.908 466.948 617.783C468.651 618.833 470.498 619.321 472.522 619.381C474.229 619.415 475.975 619.939 477.637 620.499C479.533 621.12 481.384 621.421 483.363 621.216C484.688 621.073 486.053 621.421 487.406 621.542C487.049 623.509 486.443 625.358 485.043 626.703C482.927 628.728 481.224 631.026 480.211 633.976C479.873 634.966 479.17 635.817 478.583 636.689C477.41 638.432 476.204 640.157 475.393 642.171C474.989 643.141 474.451 644.108 473.782 644.884C471.572 647.472 470.286 650.643 469.066 653.871C468.624 655.065 468.13 656.296 467.424 657.298C466.167 659.04 465.129 660.749 464.964 663.096C464.894 664.11 464.271 665.113 463.833 666.081C463.132 667.647 462.166 669.094 461.681 670.72C460.64 674.253 459.382 677.687 458.009 681.082C457.374 682.667 457.055 684.409 456.619 686.074C456.146 687.964 455.74 689.873 455.233 691.762C455.016 692.585 454.73 693.482 454.232 694.093C452.208 696.534 451.042 699.575 449.365 702.268C448.483 703.679 447.748 705.281 447.23 706.888C446.553 708.943 445.86 710.941 444.719 712.76C444.079 713.782 443.65 715.146 443.541 716.384C443.125 721.284 441.696 725.73 439.404 729.877C438.9 730.788 438.377 731.83 438.273 732.862C437.968 735.526 437.034 737.877 436.015 740.263C435.347 741.829 434.862 743.511 434.46 745.196C434.094 746.73 433.432 748.014 432.423 749.103C431.141 750.45 429.858 751.797 428.576 753.144C427.431 754.343 426.45 755.696 425.83 757.357C425.158 759.167 424.27 760.898 423.697 762.729C423.249 764.205 422.621 765.509 421.891 766.829C421.283 767.945 420.691 769.099 420.281 770.313C418.891 774.515 416.612 778.005 413.674 780.973C408.173 786.522 403.392 792.931 397.728 798.289C396.09 799.835 394.632 801.611 393.157 803.367C392.489 804.144 391.819 805.014 391.431 805.984C389.37 811.113 389.532 816.344 392.048 821.076C394.225 825.163 397.063 828.811 399.103 833.027C399.2 833.217 399.348 833.37 399.478 833.523C400.705 834.958 401.54 836.667 402.444 838.34C403.961 841.135 405.326 843.964 406.385 847.05C407.002 848.83 408.311 850.304 409.164 851.995C410.13 853.894 409.915 856.259 411.065 858.144C411.6 859.001 411.979 860.118 412.059 861.154C412.297 864.261 413.345 867.065 414.36 869.887C414.724 870.891 415.272 871.936 415.269 872.951C415.246 876.542 416.185 879.776 417.577 882.963C418.169 884.31 418.338 885.893 418.626 887.384C419.064 889.725 419.351 892.118 419.823 894.441C420.507 897.839 421.376 901.241 423.261 904.043C424.512 905.911 425.058 907.859 425.164 910.08C425.234 911.604 425.169 913.145 425.29 914.651C425.381 915.932 425.488 917.288 425.882 918.48C426.686 920.922 427.693 923.293 428.615 925.699C429.617 928.295 430.872 930.803 431.537 933.505C432.171 936.075 433.461 937.68 435.429 938.867C436.242 940.03 437.253 940.502 438.425 939.661C441.686 937.282 444.342 934.195 446.491 930.553C446.699 930.2 446.741 929.75 446.85 929.338C447.149 928.63 447.447 927.921 447.746 927.213L447.918 927.009C449.534 924.033 451.051 920.98 453.195 918.429C455.047 916.21 456.899 913.972 458.751 911.753C460.016 910.443 461.33 909.172 462.562 907.824C463.555 906.716 464.018 905.315 463.917 903.715C466.157 899.699 468.248 895.567 471.442 892.359C471.732 892.083 471.941 891.692 472.181 891.378C474.932 887.748 477.944 884.424 481.121 881.272C483.135 879.282 485.069 877.196 487.034 875.149C487.235 874.326 487.587 873.487 487.587 872.659C487.615 869.595 488.931 867.384 490.895 865.43C492.483 863.864 493.989 862.183 495.413 860.444C495.894 859.871 495.997 858.914 496.28 858.13C496.5 858.003 496.671 857.837 496.809 857.615C497.965 857.581 498.685 856.712 499.438 855.9C500.144 854.88 500.834 853.86 501.541 852.84C502.371 852.33 503.348 852.011 504.015 851.31C506.221 848.986 508.312 846.508 510.453 844.088C510.583 843.47 510.695 842.871 510.825 842.253L510.772 842.365C511.309 842.281 511.976 842.408 512.334 842.095C514.446 840.276 516.247 838.113 517.703 835.603C518.726 834.665 519.782 833.765 520.772 832.788C521.677 831.904 522.673 831.454 523.861 831.459C524.614 831.456 525.368 831.414 526.122 831.373C529.681 832.498 533.321 832.063 536.937 832.023C538.359 832.014 539.369 830.907 540.263 829.74C540.656 829.334 541.066 828.91 541.459 828.504C542.296 827.675 543.132 826.846 543.952 826.035C545.342 823.468 547.295 822.887 549.806 823.708C551.602 824.29 553.486 824.629 555.318 825.06C555.814 825.371 556.273 825.832 556.806 825.974C558.902 826.581 560.994 826.585 562.912 825.232C565.306 823.532 567.562 823.69 569.852 825.504C570.972 826.391 572.323 826.606 573.678 826.615C575.218 826.627 576.74 826.677 578.279 826.708C583.343 829.517 588.703 830.095 594.181 828.983C599.357 827.941 604.501 826.784 609.798 827.173C611.035 827.254 612.036 826.56 612.73 825.352C613.563 823.864 614.413 822.396 615.196 820.889C615.475 820.33 615.774 819.622 615.702 819.038C615.405 816.362 616.308 813.86 616.528 811.251C616.973 805.807 617.951 800.449 619.761 795.334C620.56 793.056 621.175 790.774 621.207 788.349C621.272 783.443 622.471 778.748 624.382 774.461C626.169 770.474 626.498 766.588 625.813 762.4C625.604 761.117 625.648 759.764 625.339 758.517C624.55 755.286 624.566 752.033 624.816 748.748C626.076 746.855 625.77 744.593 626.03 742.454L626.273 742.064C626.581 741.732 626.889 741.381 627.18 741.048L627.385 740.827C629.238 740.244 630.352 738.931 630.53 736.735C630.644 735.233 630.741 733.731 630.855 732.229C630.961 731.968 631.083 731.707 631.206 731.446C632.085 730.166 632.015 728.642 632.196 727.16C632.403 726.863 632.576 726.566 632.733 726.231C632.937 726.103 633.091 725.899 633.164 725.638C633.805 724.541 634.446 723.464 635.087 722.367C635.712 721.27 636.568 720.272 636.911 719.076C637.431 717.319 638.261 715.982 639.621 714.975C640.878 714.022 641.257 712.639 641.123 710.981C640.615 704.634 641.21 698.366 642.556 692.188C643.436 690.871 643.416 689.366 643.38 687.843C643.569 686.775 643.758 685.726 643.946 684.658C645.234 681.374 646.155 678.008 645.794 674.353C646.058 672.873 646.322 671.393 646.603 669.932C646.629 669.425 646.657 668.899 646.684 668.392C646.601 667.544 646.517 666.696 646.451 665.83C646.274 663.796 645.605 662.127 643.953 661.079C642.433 660.108 641.392 658.602 640.318 657.076C638.399 654.329 637.121 651.276 636.234 647.987C639.535 647.771 642.815 647.762 646.121 648.167C649.025 648.545 651.858 649.148 654.648 650.2C656.475 650.895 658.372 651.422 660.272 651.799C661.389 652.029 662.601 651.658 663.719 651.831C664.853 652.023 665.929 652.59 667.061 652.914C667.993 653.177 668.958 653.46 669.91 653.535C674.004 653.824 677.946 655.051 681.908 656.09C684.721 656.842 687.459 658.006 690.181 659.133C691.492 659.686 692.82 660.183 694.148 659.909C696.786 659.36 699.148 660.085 701.466 661.316C702.344 661.785 703.238 662.235 704.169 662.536C704.901 662.776 705.701 662.924 706.44 662.807C708.588 662.493 710.675 662.742 712.812 663.011C715.299 663.306 717.803 662.792 720.26 662.127C722.902 661.409 725.544 660.673 728.216 660.144C729.93 659.802 731.726 659.5 733.429 659.722C735.432 659.988 737.194 659.704 739.004 658.744C740.019 658.2 741.261 658.037 742.399 658.06C744.908 658.111 747.437 658.03 749.953 658.569C752.819 659.173 755.762 659.288 758.611 659.928C761.709 660.649 764.822 660.655 767.848 659.964C771.345 659.151 774.805 659.352 778.297 659.648C780.034 659.796 781.785 660.094 783.525 660.148C784.462 660.167 785.65 660.135 786.332 659.547C789.414 656.92 792.842 657.045 796.364 657.474C797.132 657.564 797.918 657.599 798.687 657.633C800.042 657.679 801.396 657.725 802.713 657.15C803.254 656.917 803.912 656.61 804.394 656.789C807.668 657.927 810.947 656.319 814.216 656.855C815.534 657.07 816.928 656.816 818.27 656.636C826.996 655.496 826.997 655.421 835.103 655.941C838.028 656.132 840.922 656.19 843.826 655.76C844.967 655.594 846.154 655.675 847.307 655.754C850.984 655.979 854.659 656.316 858.328 655.299C859.438 655.002 860.695 654.933 861.811 655.182C867.559 656.463 873.369 656.298 879.187 656.603C882.513 656.783 885.759 656.811 889.038 656.068C890.164 655.809 891.353 655.777 892.507 655.819C893.042 655.829 893.568 656.291 894.082 656.565C893.649 657.289 893.313 658.148 892.766 658.72C890.715 660.878 889.307 663.463 888.577 666.476C887.703 669.993 885.527 672.526 883.564 675.25C882.634 676.547 881.448 677.257 879.984 676.851C877.904 676.264 876.167 676.906 874.613 678.473C873.212 679.874 871.498 680.234 869.708 680.217C867.365 680.189 865.04 680.161 862.699 680.057C860.157 679.949 857.661 680.106 855.184 680.921C851.427 682.162 847.552 682.61 843.678 683.021C841.951 683.193 840.143 683.25 838.46 682.859C833.113 681.642 832.063 682.242 828.965 685.677C828.092 686.637 826.963 687.028 825.744 686.909C824.575 686.791 823.426 686.505 822.272 686.463C821.319 686.425 820.266 686.347 819.405 686.706C816.249 688.015 812.918 688.08 809.674 688.767C807.539 689.231 805.415 689.188 803.319 688.582C799.492 687.471 795.587 687.768 791.705 687.746C790.516 687.741 789.405 688.076 788.386 688.827C786.093 690.492 783.802 692.062 782.16 694.681C781.053 696.445 779.535 697.899 778.099 699.393C776.8 700.74 775.29 701.744 773.446 701.913C770.612 702.195 768.208 703.575 766.172 705.753C764.838 707.174 763.332 708.009 761.489 708.103C760.3 708.154 759.221 708.565 758.298 709.506C755.411 712.437 752.118 714.74 748.939 717.214C747.715 718.167 746.888 719.335 746.839 720.933C746.727 723.995 746.699 727.06 746.805 730.108C746.834 731.143 747.161 732.352 747.714 733.135C751.717 738.8 754.125 745.561 757.652 751.555C759.044 753.914 760.351 756.329 761.964 758.505C764.326 761.674 767.336 763.464 771.03 763.708C772.384 763.791 773.756 763.763 775.111 763.809C778.808 763.902 782.506 763.92 786.2 764.126C787.738 764.213 789.304 764.565 790.749 765.101C794.054 766.353 797.375 767.66 800.573 769.21C803.324 770.544 805.795 770.857 808.106 768.309C808.242 768.161 808.396 768.033 808.566 767.905C811.508 765.538 814.647 764.248 818.391 764.492C823.037 764.812 827.726 764.643 832.393 764.737C838.265 764.855 838.574 765.275 842.966 760.757C843.103 760.609 843.273 760.481 843.426 760.352C844.501 759.321 845.719 758.669 847.157 758.754C848.979 758.847 850.533 758.145 852.109 757.143C854.144 755.849 856.229 754.499 858.436 753.792C860.844 753.032 862.434 751.353 864.178 749.545C867.169 746.446 869.982 743.043 873.82 741.109C874.563 740.747 875.047 740.005 875.132 739.086C875.361 736.853 876.053 734.892 877.261 733.074C877.951 732.054 878.329 730.764 878.788 729.57C880.555 724.923 884.224 722.252 887.417 719.101C887.69 718.824 888.126 718.758 888.497 718.634C889.238 718.385 889.997 718.119 890.754 717.927C893.26 717.32 895.539 716.294 897.472 714.245C898.891 712.732 900.638 711.583 902.618 711.322C904.833 711.028 906.663 709.899 908.529 708.658C910.022 707.654 911.537 706.387 913.168 705.987C915.707 705.399 917.942 704.091 920.257 703.009C928.569 699.096 925.959 699.908 934.916 699.713C936.081 704.193 935.554 708.77 935.262 713.296C935.163 714.873 935.067 716.3 935.91 717.652C936.234 718.185 936.49 718.773 936.746 719.361C937.53 721.163 937.978 723.015 937.536 725.037C937.038 727.321 937.481 729.417 938.869 731.118C940.355 732.934 940.48 735.043 940.135 737.236C939.886 738.81 939.976 740.147 940.717 741.572C941.377 742.864 941.681 744.393 942.053 745.849C942.27 746.699 942.119 747.58 941.569 748.302C940.744 749.376 940.487 750.499 940.927 751.899C941.242 752.902 941.42 754.034 941.398 755.105C941.293 758.676 942.129 762.002 943.083 765.33C943.974 768.47 944.512 771.658 944.345 774.964C944.205 777.763 944.733 780.613 943.958 783.399C944.789 786.988 943.777 790.728 944.791 794.378C945.602 797.29 945.489 800.409 944.409 803.377C944.108 804.179 943.79 805.019 943.706 805.863C943.388 809.166 942.623 812.291 940.778 814.98C939.854 818.497 937.982 821.693 938.305 825.611C938.413 826.854 938.2 828.316 937.709 829.416C936.57 831.95 936.859 835.077 935.04 837.297C934.694 841.163 932.7 844.639 933.253 848.768C933.557 851.125 933.021 853.633 931.875 855.697C930.485 858.245 929.93 860.867 930.172 863.805C930.239 864.633 929.819 865.528 929.836 866.374C929.855 867.897 930.042 869.405 930.146 870.912C932.341 874.077 931.055 878.132 932.223 881.596C932.539 882.524 932.28 883.76 932.158 884.829C931.855 887.418 931.385 890.003 932.59 892.472C932.481 893.748 932.603 895.161 932.195 896.299C931.486 898.278 931.583 900.104 932.096 902.032C932.439 903.28 932.698 904.564 932.99 905.83C933.328 907.341 933.266 908.769 932.85 910.321C931.981 913.556 932.502 916.801 933.545 919.849C934.399 922.292 935.071 924.675 935.352 927.332C935.83 931.854 936.845 936.312 937.759 940.768C938.019 941.995 938.75 943.1 939.262 944.258C938.025 946.696 937.386 949.316 937.647 952.141C937.73 953.008 938.117 953.711 938.949 953.973C938.723 955.209 938.614 956.485 938.222 957.643C937.475 959.866 937.145 962.134 937.181 964.467L937.02 964.99C653.209 959.273 369.381 953.557 85.5697 947.84C85.5756 945.885 85.5477 943.948 85.0844 942.02C84.3287 938.827 84.2102 935.572 85.3288 932.379C85.6127 931.577 85.6644 930.675 85.7822 929.812C85.9763 928.481 86.4191 927.268 87.2585 926.307C88.6799 924.7 89.2888 922.719 89.917 920.607C90.8498 917.505 92.014 914.538 91.7312 911.129C91.6228 909.867 92.1177 908.561 92.2442 907.266C92.3285 906.403 92.4812 905.466 92.2458 904.69C91.5708 902.477 92.1489 900.364 92.443 898.226C95.0065 897.244 97.5982 896.525 100.354 896.806C101.506 896.923 102.679 896.853 103.833 896.895C105.622 896.95 107.27 896.55 108.751 895.339C110.979 893.541 113.447 892.312 116.2 891.935C117.609 891.738 118.746 890.953 119.723 889.844C120.27 889.235 120.851 888.645 121.366 887.997C123.013 885.999 124.899 884.608 127.425 884.622C129.082 884.617 130.324 883.627 131.519 882.466C132.679 881.343 133.842 880.106 135.197 879.325C137.11 878.217 138.908 877.031 140.53 875.446C141.247 874.746 142.129 874.162 143.006 873.804C145.216 872.908 147.2 871.632 149.024 869.958C150.848 868.302 153.01 867.312 155.22 866.454C156.442 866.441 157.44 865.897 158.28 864.917C158.948 864.141 159.649 863.403 160.351 862.646C162.323 861.952 163.481 860.114 164.752 858.504C166.95 855.709 169.278 853.123 172.292 851.398C173.308 850.817 174.245 849.971 175.099 849.104C177.423 846.725 180.054 844.879 182.926 843.527C184.396 842.842 185.605 841.832 186.783 840.671C190.162 837.392 193.623 834.228 196.774 830.662C197.459 829.887 198.195 829.112 199.041 828.621C201.344 827.295 203.107 825.356 204.79 823.19C206.32 821.209 208.144 819.534 210.643 819.246C212.522 819.021 213.985 817.866 214.907 816.136C217.533 811.206 220.996 807.12 224.689 803.208C225.989 801.824 227.057 800.304 227.482 798.319C227.87 796.503 229.013 795.436 230.306 794.352C233.525 791.597 237.071 789.186 239.032 784.901C239.277 784.342 239.82 783.958 240.232 783.477C241.585 781.906 242.922 780.335 244.292 778.783C245.388 777.545 246.387 776.137 247.662 775.184C251.383 772.383 254.502 768.741 258.06 765.748C260.864 765.278 263.412 764.258 265.223 761.605C265.446 761.29 265.786 761.071 266.059 760.795C269.782 757.918 272.688 754.046 275.937 750.596C276.809 749.673 277.22 748.403 277.38 747.071C277.482 746.208 277.483 745.324 277.6 744.462C277.819 742.736 278.424 740.981 278.256 739.323C278.064 737.213 275.901 736.605 274.827 735.098C273.118 732.676 271.014 730.829 268.497 729.462C267.488 728.915 266.689 727.827 265.871 726.927C265.183 726.161 264.616 725.266 263.945 724.481C262.704 722.99 261.113 722.187 259.327 721.963C258.175 721.808 256.985 721.897 255.834 721.723C254.099 721.462 252.364 721.183 250.683 720.717C248.669 720.168 247.189 718.898 246.855 716.371C246.71 715.278 246.26 714.347 245.506 713.561C242.227 710.186 238.966 706.755 235.704 703.342C234.77 702.364 234.46 701.155 234.671 699.786C234.885 698.286 235.317 696.791 235.414 695.288C235.577 693.035 236.236 691.056 237.344 689.198C237.951 688.176 237.874 687.008 237.087 686.203C235.234 684.304 234.342 682.067 234.499 679.231C234.607 677.203 233.756 675.418 233.258 673.546C232.9 672.242 232.286 671.139 231.211 670.497C229.193 669.328 228.11 667.426 227.304 665.078C226.181 661.821 224.771 658.728 222.205 656.495C221.416 655.821 221.188 654.651 221.144 653.54C221.069 652.242 221.062 650.925 221.022 649.608C222.241 647.245 223.427 644.843 225.714 643.479C227.056 643.318 228.413 643.27 229.724 642.958C232.246 642.388 234.365 641.021 236.101 638.781C237.75 636.651 239.597 634.714 241.377 632.719C242.507 631.445 243.863 630.588 245.518 630.716C248.058 630.898 249.99 629.659 251.654 627.68C252.442 626.737 253.346 625.891 254.136 624.929C255.902 622.802 258.006 621.378 260.498 620.601C263.344 619.718 265.788 618.056 267.975 615.787C269.668 614.016 271.573 612.494 273.396 610.895C274.639 609.81 276.009 609.086 277.557 608.703C278.884 608.467 280.118 607.853 281.4 607.352Z" fill="#8068E9"/>
<path d="M60.0285 66.3517C58.9624 66.1046 58.193 66.9164 57.3311 67.3315C56.5373 67.6916 55.8043 67.5264 55.1454 67.0055C54.5196 66.504 53.7086 66.0552 53.3717 65.3339C51.5887 61.6314 47.7399 59.9556 46.247 55.9769C45.8819 54.9918 45.2636 54.1144 44.6959 53.2193C43.5605 51.4289 42.2875 49.8238 40.5184 48.754C38.4018 47.4892 36.9022 45.5035 35.8124 43.1124C35.4599 42.3343 34.9382 41.6469 34.6192 40.8696C33.5974 38.4234 32.1297 36.5135 30.0146 35.1735C29.0067 34.5327 28.1725 33.5758 27.2854 32.7494C26.5132 32.0381 25.9957 31.144 25.8682 29.9944C25.7404 28.8637 25.3586 27.8782 24.4845 27.2401C21.4497 25.0354 19.5591 21.6881 17.667 18.4158C15.3388 14.3639 12.822 10.5338 9.72622 7.19973C8.89087 6.29917 7.95553 5.37781 7.4764 4.23998C6.19947 1.16818 3.91514 -0.90859 1.95545 -3.31723C-1.03276 -7.0064 -4.19128 -10.5485 -7.19622 -14.238C-8.15971 -15.4232 -9.16385 -16.252 -10.5808 -16.525C-11.0975 -16.6294 -11.6576 -17.0731 -11.9659 -17.5494C-12.9884 -19.1306 -14.0949 -20.6948 -14.8459 -22.4586C-16.0285 -25.2277 -17.264 -27.8661 -19.1423 -30.1603C-20.0081 -31.2119 -20.3937 -32.8367 -20.8333 -34.2746C-21.2258 -35.5611 -21.8072 -36.607 -22.8292 -37.3797C-23.2908 -37.7274 -23.8174 -38.1705 -24.0573 -38.7207C-25.3046 -41.6038 -27.4604 -43.4148 -29.8051 -44.985C-32.8434 -47.0205 -35.4722 -49.4427 -37.2411 -53.0133C-38.4633 -55.4823 -40.0587 -57.6955 -41.5181 -60.0189C-41.842 -60.5519 -42.1808 -61.1792 -42.6607 -61.4521C-44.7119 -62.6404 -45.8978 -64.4129 -46.3482 -66.9792C-46.4672 -67.7149 -47.1722 -68.4436 -47.7649 -68.9256C-50.45 -71.0481 -52.0162 -73.8813 -52.5454 -77.5209C-52.6918 -78.558 -53.2246 -79.5277 -53.6569 -80.4954C-54.2653 -81.8615 -55.0935 -83.1191 -55.5167 -84.5379C-56.5044 -87.8483 -57.949 -90.9046 -59.2411 -94.0519C-60.326 -96.6874 -61.5861 -98.9315 -63.6918 -100.741C-65.0073 -101.896 -65.8735 -103.756 -66.8279 -105.393C-67.5881 -106.705 -68.385 -107.849 -69.78 -108.385C-71.1586 -108.902 -72.0384 -110.085 -72.4594 -111.617C-73.144 -114.188 -74.1521 -116.483 -76.3154 -117.918C-77.0089 -118.384 -77.1752 -119.271 -77.4767 -120.085C-79.1282 -124.5 -81.0843 -128.751 -83.6676 -132.601C-85.1787 -134.85 -86.7741 -137.064 -88.4905 -139.091C-89.406 -140.163 -90.6288 -140.939 -91.8017 -141.696C-93.4868 -142.783 -95.1909 -143.758 -96.7015 -145.198C-98.5246 -146.909 -100.179 -148.672 -100.947 -151.263C-101.527 -153.212 -103.162 -154.279 -104.066 -155.933C-104.808 -157.302 -104.839 -159.088 -103.88 -160.197C-102.252 -162.082 -100.591 -163.948 -98.8981 -165.757C-97.1878 -167.584 -95.6767 -169.49 -94.9869 -172.165C-94.6783 -173.362 -93.8366 -174.436 -93.1136 -175.437C-92.3902 -176.456 -91.387 -177.244 -90.713 -178.303C-89.6246 -179.992 -88.2492 -180.98 -86.4643 -181.526C-84.7805 -182.038 -83.0937 -182.7 -81.5521 -183.627C-79.4178 -184.901 -77.2949 -185.61 -74.8594 -185.222C-73.942 -185.072 -72.8015 -185.2 -72.0381 -185.711C-70.0202 -187.024 -67.9641 -186.908 -65.8278 -186.62C-64.6762 -186.465 -63.5022 -186.592 -62.3476 -186.587C-61.5807 -186.44 -60.7432 -186.48 -60.0638 -186.147C-57.0644 -184.676 -54.0311 -183.224 -51.1374 -181.492C-49.0207 -180.227 -46.9118 -179.414 -44.5025 -179.384C-39.2658 -179.316 -34.0132 -179.21 -28.7841 -178.766C-28.0157 -178.694 -27.2257 -178.867 -26.4695 -179.021C-24.7055 -179.361 -22.9999 -179.289 -21.3252 -178.522C-20.4465 -178.11 -19.45 -177.732 -18.5121 -177.77C-14.6775 -177.881 -11.3538 -175.896 -7.84645 -174.716C-6.93208 -174.415 -6.09332 -173.684 -5.15919 -173.533C-1.45688 -172.895 1.90716 -171.248 5.23471 -169.451C6.79089 -168.611 8.48619 -168.031 10.1659 -167.509C11.297 -167.166 12.36 -166.769 13.3311 -165.959C13.9235 -165.459 14.734 -164.991 15.437 -164.996C17.931 -165.021 19.9298 -163.721 21.9103 -162.346C23.1152 -161.513 24.3972 -161.186 25.7674 -161.083C27.9063 -160.927 30.0274 -160.716 32.1652 -160.503C35.1387 -160.237 37.8993 -159.372 39.9883 -156.736C41.3757 -154.997 43.1182 -154.266 45.1963 -154.412C47.358 -154.556 49.4578 -154.119 51.5196 -153.457C53.7643 -152.735 55.9763 -152.051 58.3297 -151.741C60.0151 -151.5 61.5629 -150.246 63.2627 -149.893C67.6449 -148.939 67.0994 -147.615 68.3417 -144.488C69.2179 -142.289 70.0803 -140.241 71.6343 -138.461C73.1065 -136.777 73.9325 -134.579 74.1825 -132.035C74.4606 -129.228 75.3437 -126.54 77.26 -124.471C77.8003 -123.877 78.4546 -123.131 78.5729 -122.357C79.0606 -119.151 80.872 -116.858 82.7017 -114.64C84.2374 -112.785 85.182 -110.661 85.351 -108.25C85.7461 -102.113 87.9513 -96.935 91.4232 -92.3335C91.9121 -91.6844 92.3996 -90.96 92.7019 -90.183C93.5146 -88.1547 94.6845 -86.4201 96.0081 -84.8328C97.6256 -82.8823 98.8686 -80.6197 99.5216 -78.1433C100.206 -75.5724 101.417 -73.3857 102.526 -71.107C103.265 -69.5879 104.072 -68.0862 104.913 -66.6215C105.559 -65.4991 105.853 -64.2897 106.061 -62.9693C106.374 -61.0639 107.056 -59.2262 107.353 -57.3212C107.708 -55.02 108.507 -53.1425 110.358 -52.0146C111.615 -51.2372 112.446 -50.13 113.053 -48.7075C113.724 -47.1333 114.514 -45.632 115.185 -44.0578C116.064 -41.9718 116.256 -39.8996 114.977 -37.857C113.404 -35.3691 112.954 -32.1817 110.951 -29.928C110.232 -29.134 110.191 -27.9314 110.47 -26.8352C110.936 -25.0019 110.736 -23.3889 109.272 -22.1774C108.096 -19.4559 106.01 -17.2415 105.744 -13.9939C105.679 -13.2619 104.961 -12.5243 104.413 -11.9336C103.866 -11.343 103.138 -10.9439 102.509 -10.4301C100.961 -9.18272 98.766 -9.05772 97.8165 -6.78287C97.0438 -4.97455 94.6813 -4.83411 94.2519 -2.62401C93.2608 -1.6098 92.2697 -0.595594 91.295 0.437736C90.3595 1.18982 89.2923 1.82642 88.5043 2.7319C84.991 6.83539 81.5757 11.0537 79.5441 16.3716C78.59 18.872 77.1778 20.8555 75.2219 22.4143C74.7456 22.7996 74.2692 23.1848 73.8419 23.6275C72.1145 25.473 70.6791 27.7757 70.4436 30.3281C70.1868 33.1058 69.2541 35.381 67.8734 37.4591C66.7858 39.1107 66.1321 40.8273 65.8581 42.7961C65.4444 45.8903 64.3531 48.5572 62.3155 50.8477C60.4322 52.9533 59.707 55.7215 60.4837 58.7081C61.0435 60.8253 61.1505 62.9897 61.14 65.1707L61.191 65.1341C60.3553 65.0797 59.863 65.427 59.9426 66.4628L60.0285 66.3517Z" fill="#8068E9"/>
</svg>
