<svg width="543" height="428" viewBox="0 0 543 428" fill="none" xmlns="http://www.w3.org/2000/svg">
<path d="M110.613 349.15C109.571 350.053 108.296 350.339 106.979 350.395C102.697 350.576 98.4139 350.695 94.1305 350.886C89.297 351.102 84.7319 352.44 80.112 353.843C74.6392 355.506 70.0914 358.54 65.4029 361.614C62.5988 363.451 59.6558 365.118 56.875 367.039C53.5074 369.366 50.827 372.32 48.4783 375.629C45.9965 379.127 43.4908 382.599 40.7016 385.876C39.3177 387.499 37.7822 388.835 36.0724 390.013C32.8786 392.212 30.1826 391.961 27.4276 389.255C26.8733 388.709 26.4076 387.899 25.5129 388.248C23.3976 389.076 22.5404 387.612 21.3424 386.338C16.089 380.752 11.0577 374.999 6.53472 368.786C5.02917 366.714 2.83351 365.17 1.38834 362.962C0.486943 361.583 0.544172 360.6 1.9242 359.688C2.68607 359.184 3.39707 358.611 4.13666 358.07C165.716 239.929 327.298 121.785 488.88 3.647C493.472 0.289186 492.768 0.275013 496.256 4.85255C498.533 7.8407 500.226 11.3183 503.407 13.5781C504.055 14.0404 504.28 14.832 504.541 15.5872C505.144 17.3539 506.191 18.8253 507.721 19.9236C509.58 21.2522 510.923 23.1284 511.795 25.0966C512.818 27.405 514.204 29.4 515.641 31.4057C516.763 32.9728 517.952 34.3206 517.381 36.6839C517.083 37.9155 518.323 39.5319 518.891 40.9653C520.67 45.434 519.519 47.7744 515.071 49.8768C511.657 51.4899 507.983 52.3086 504.567 53.9326C498.773 56.6889 493.254 59.715 488.936 64.6091C488.09 65.5677 486.986 66.4721 485.818 66.9378C482.022 68.4467 479.82 71.5708 478.266 74.9246C476.893 77.8834 474.942 80.3965 472.619 82.2408C468.642 85.3916 466.806 89.786 464.413 93.8837C461.025 99.6847 456.975 104.727 450.667 107.642C445.264 110.136 439.858 112.575 434.223 114.546C425.118 117.729 418.703 124.04 413.962 132.344C411.73 136.256 408.395 139.078 403.887 140.409C399.909 141.581 396.9 144.392 394.013 147.177C388.669 152.326 384.404 158.347 380.33 164.537C377.98 168.109 375.306 171.491 372.526 174.746C369.201 178.637 366.804 183.107 364.162 187.421C362.45 190.221 360.262 192.19 357.52 194.146C351.13 198.706 343.888 198.858 336.713 199.665C333.867 199.985 331.014 200.256 328.197 200.768C325.734 201.215 323.417 202.012 321.475 203.689C318.304 206.429 314.161 207.615 310.941 210.343C308.838 212.123 306.589 213.665 305.712 216.446C305.41 217.4 304.746 218.089 303.836 218.279C301.339 218.804 299.74 221.041 297.227 221.578C296.422 221.75 295.557 222.479 295.071 223.193C291.656 228.228 286.945 231.915 282.077 235.319C278.475 237.836 276.541 240.949 276.035 245.259C275.346 251.109 273.402 256.378 268.373 260.055C267.055 261.019 266.729 262.669 266.265 264.163C265.629 266.205 264.643 267.969 262.655 269.025C260.976 269.918 260.093 271.577 258.985 273.013C256.147 276.675 252.521 278.88 247.836 277.647C239.267 275.393 231.74 278.412 224.15 281.638C219.153 283.758 214.244 286.319 208.589 286.174C206.964 286.134 205.93 287.187 204.778 287.961C199.537 291.473 193.565 293.792 188.663 297.861C187.463 298.86 186.347 299.894 185.272 301.044C181.557 305.012 177.492 308.654 173.847 312.677C169.723 317.226 164.578 320.008 159.162 322.643C153.464 325.412 147.666 328.109 142.781 332.34C141.389 333.547 139.778 334.628 139.074 336.278C137.022 341.107 133.034 343.64 128.532 345.524C126.816 346.24 125.399 347.368 123.792 348.175C119.577 350.291 115.242 352.005 110.617 349.162C112.539 348.169 114.692 348.38 116.714 348.26C119.962 348.064 122.821 347.192 125.348 345.169C126.269 344.432 127.33 343.992 128.435 343.553C132.089 342.108 135.466 340.352 137.229 336.429C137.952 334.818 139.088 333.313 140.525 332.127C147.469 326.394 155.28 322.017 163.236 317.927C166.754 316.117 170.231 314.04 172.719 311.188C176.897 306.401 181.816 302.348 185.789 297.4C186.626 296.362 187.724 295.714 188.876 295.075C192.38 293.14 195.918 291.246 199.289 289.097C202.237 287.218 204.863 284.832 208.213 283.61C209.71 284.908 211.358 284.368 212.993 284.011C217.205 283.091 220.993 281.088 224.94 279.468C232.659 276.299 240.468 273.486 249.085 276.157C252.165 277.112 254.632 275.439 256.553 273.064C257.688 271.657 258.545 270.05 260.072 268.934C262.66 267.041 264.466 264.503 265.121 261.346C265.467 259.676 266.251 258.545 267.616 257.6C270.925 255.312 272.069 251.676 273.286 248.113C273.45 247.628 273.478 247.016 272.922 246.734C272.403 246.468 271.895 246.728 271.599 247.192C271.11 247.957 270.851 248.962 270.201 249.519C268.219 251.22 267.593 255.385 263.452 253.411C263.204 253.291 262.52 253.529 262.407 253.772C261.298 256.116 258.394 257.492 258.66 260.548C258.767 261.776 258.455 262.523 257.205 262.884C253.956 263.813 252.196 266.468 250.449 269.027C248.223 272.285 247.49 272.543 243.74 271.632C240.21 270.773 236.552 269.63 232.982 270.963C228.398 272.675 223.973 274.828 219.766 277.347C216.004 279.598 212.199 281.744 208.218 283.583C205.874 280.59 204.085 280.113 201.019 282.136C198.663 283.689 196.033 285.054 194.893 287.959C194.545 288.844 193.711 289.269 192.886 289.713C189.04 291.783 186.354 295.479 182.299 297.284C181.886 297.469 181.545 298.044 181.369 298.512C179.752 302.916 175.557 304.979 172.652 308.209C172.109 308.815 171.608 308.526 170.946 308.311C168.405 307.476 167.511 308.018 167.966 310.631C168.4 313.148 167.08 314.156 165.255 314.564C162.007 315.284 159.347 317.132 156.427 318.485C154.697 319.29 153.062 320.417 150.993 320.426C148.747 320.433 146.205 320.04 145.649 323.334C145.59 323.678 144.863 324.083 144.4 324.16C142.797 324.415 141.493 325.378 140.172 326.111C136.024 328.406 131.717 330.668 130.691 336.032C130.484 337.115 129.546 337.597 128.56 338.105C125.719 339.566 122.501 340.074 119.815 342.053C118.534 342.994 116.832 343.579 115.51 344.623C114.332 345.552 112.943 346.326 111.568 346.011C109.391 345.507 107.343 344.292 105.48 346.693C105.248 346.993 104.241 346.657 103.595 346.669C100.793 346.704 97.9962 346.74 95.196 346.817C94.689 346.834 94.1701 347 93.6887 347.177C93.1569 347.372 92.8515 347.823 92.9402 348.389C93.029 348.955 93.4659 349.354 94.0152 349.335C94.9194 349.305 95.8213 349.072 96.7266 349.017C101.342 348.709 105.989 347.98 110.613 349.15ZM405.004 137.04C408.661 136.351 410.153 134.231 411.49 132.113C413.219 129.37 414.979 126.675 417.195 124.293C420.749 120.477 424.668 117.286 429.343 114.771C432.7 112.961 436.382 112.351 439.722 110.67C443.412 108.812 447.285 107.315 451.095 105.693C452.803 104.964 454.434 103.965 455.549 102.597C459.22 98.0982 463.071 93.7004 465.352 88.2289C466.097 86.442 467.14 84.8639 468.516 83.3824C470.033 81.7491 471.75 80.4018 473.358 78.906C474.393 77.9404 474.248 76.7464 473.263 75.8115C472.189 74.7871 471.107 75.5155 470.706 76.4396C469.749 78.6531 468.055 79.7602 465.954 80.661C464.528 81.2716 463.457 82.453 462.729 83.9315C461.564 86.3117 459.823 88.2101 457.559 89.6376C456.798 90.1162 456.054 90.7039 455.477 91.3877C452.953 94.3833 450.047 96.9833 446.491 98.5547C443.218 100.002 440.507 102.178 437.643 104.185C436.687 104.855 435.763 105.54 434.664 106.014C431.092 107.558 427.641 109.319 424.561 111.766C423.049 112.968 421.62 114.411 419.668 114.912C418.115 115.309 417.277 116.339 416.595 117.668C416.001 118.82 415.394 119.987 414.636 121.032C411.158 125.821 408.27 130.96 405.004 137.04ZM330.009 197.449C336.24 197.095 342.491 197.153 348.449 195.417C354.835 193.557 360.251 190.238 363.601 184.047C366.32 179.022 369.536 174.279 373.242 169.895C374.917 167.913 376.547 165.897 378.134 163.848C378.551 163.311 378.56 162.527 377.888 162.146C377.414 161.876 376.849 162.217 376.566 162.685C372.501 169.359 366.017 173.493 360.156 178.274C358.761 179.41 357.681 180.812 357.421 182.428C357.029 184.889 355.34 186.089 353.508 186.919C348.601 189.144 343.661 191.383 338.543 193.034C335.423 194.034 332.639 195.434 330.009 197.449ZM52.6312 367.391C49.1584 367.451 46.2511 368.49 43.8388 370.962C40.5877 374.29 37.2406 377.514 34.2333 381.076C32.9287 382.622 30.5381 382.895 29.5655 384.974C29.1747 385.813 27.5462 386.16 28.2694 387.441C28.8575 388.49 30.0628 388.958 31.2607 389.057C32.3037 389.144 33.3988 389.003 34.2608 388.378C36.0463 387.091 37.8707 385.898 39.4024 384.225C44.2048 378.972 47.4492 372.49 52.6312 367.391ZM493.14 55.8832C494.381 56.8244 494.835 56.5166 495.233 56.2254C498.508 53.8258 502.228 52.4116 506.054 51.1569C508.871 50.2328 511.659 49.1643 514.357 47.9388C517.924 46.3158 518.584 42.9996 516.102 39.9964C514.672 38.2665 513.697 38.126 511.987 39.735C511.298 40.3845 510.526 40.7016 509.781 41.1687C507.319 42.7112 504.657 44.1385 502.659 46.1818C499.538 49.376 497.342 53.4315 493.14 55.8832Z" fill="#FFF062"/>
</svg>
