<svg width="661" height="360" viewBox="0 0 661 360" fill="none" xmlns="http://www.w3.org/2000/svg">
<path d="M601.447 316.191C598.958 316.09 595.822 315.207 592.48 315.629C589.976 315.945 587.938 316.79 586.23 318.452C584.801 319.841 583.247 320.945 581.401 321.649C576.078 323.674 570.857 325.944 565.439 327.759C561.876 328.951 558.255 330.044 554.757 331.409C549.764 333.358 544.744 333.008 539.777 331.845C535.132 330.758 530.603 329.164 526.027 327.782C525.658 327.672 525.279 327.521 524.968 327.299C519.35 323.261 512.777 320.759 507.253 316.638C502.305 312.945 497.136 309.9 491.355 307.728C487.611 306.322 484.379 304.089 481.312 301.28C477.52 297.807 472.798 295.348 468.493 292.429C466.045 290.769 463.357 289.344 461.251 287.322C456.975 283.222 451.384 282.346 446.147 280.638C444.241 280.016 442.06 280.775 439.961 280.61C436.205 280.32 432.596 279.677 429.017 278.469C425.047 277.129 420.904 277.085 416.767 277.71C415.736 277.866 414.642 278.37 413.689 277.921C408.393 275.44 402.625 276.957 397.171 275.87C395.139 275.464 393.015 275.524 391.119 274.453C390.582 274.147 389.862 274.099 389.216 274.06C378.582 273.412 367.952 272.642 357.611 276.339C355.179 277.209 352.596 277.78 349.966 277.696C348.876 277.664 347.908 277.951 346.92 278.271C342.007 279.866 337.091 281.457 332.183 283.073C329.699 283.888 327.291 284.572 324.669 283.281C323.562 282.737 322.015 282.484 320.837 282.776C316.275 283.915 312.817 281.353 309.15 279.561C303.105 276.609 297.167 273.434 291.111 270.512C288.623 269.314 286.267 268.01 284.454 265.919C283.237 264.512 281.86 263.396 280.143 262.683C279.431 262.387 278.818 262.02 278.315 261.324C275.075 256.839 270.13 255.197 265.169 253.619C264.926 253.541 264.594 253.423 264.412 253.518C260.996 255.356 257.856 253.048 254.586 252.816C252.11 252.638 250.054 252.979 247.975 254.419C244.15 257.078 240.199 259.455 235.412 260.222C229.291 261.201 223.28 261.1 217.484 258.891C214.081 257.591 210.512 256.922 207.104 255.669C204.875 254.852 202.713 256.202 200.699 256.857C197.825 257.789 194.646 257.805 192.05 259.922C190.923 260.84 188.779 260.905 187.158 260.738C182.799 260.284 178.395 260.554 174.071 260.503C169.066 260.444 163.964 259.938 158.952 260.672C157.355 260.906 155.841 260.827 154.298 260.607C152.221 260.306 150.243 260.373 148.136 260.889C145.121 261.629 141.974 260.742 138.844 260.922C133.169 261.252 127.446 261.377 121.782 261.005C118.083 260.761 114.076 260.206 110.873 258.521C106.109 256.017 101.819 257.033 97.3097 258.403C95.0796 259.082 92.9401 260.072 90.6928 260.67C85.8138 261.969 81.7642 264.871 77.5626 267.418C74.3923 269.339 70.998 269.892 67.5103 270.003C62.4688 270.165 57.4207 270.1 52.3617 269.904C48.458 269.749 44.4006 270.549 40.5623 272.045C36.1172 273.779 31.7704 275.794 26.9092 276.46C23.0322 276.992 19.6184 279.181 16.134 280.904C9.13645 284.357 6.07534 278.565 6.12276 272.818C6.15502 269.043 6.96306 265.375 7.59483 261.697C8.32486 257.435 8.38769 253.143 8.35333 248.871C8.28508 241.217 8.94715 233.595 9.22315 225.966C9.39297 221.269 9.37844 216.501 10.595 211.737C12.1027 205.837 12.1331 199.574 13.1769 193.536C13.9714 188.955 15.0451 184.413 16.2149 179.891C17.1844 176.134 17.5909 172.241 18.6294 168.469C19.6954 164.605 20.3523 160.638 21.5804 156.803C22.0134 155.452 22.0442 153.976 22.2953 152.566C23.4695 145.909 23.2748 139.03 25.5281 132.546C24.8168 127.701 26.4597 122.999 26.3918 118.185C26.3411 114.565 25.8951 110.919 26.5053 107.317C26.9447 104.712 26.389 102.142 26.5365 99.5347C26.7658 95.4535 26.153 91.3833 27.2629 87.2686C27.7643 85.4137 27.7127 83.0063 27.2312 81.1206C25.9585 76.129 27.2963 71.2497 27.4516 66.3576C27.5398 63.6286 28.1904 60.699 28.9585 57.9621C29.4725 56.1324 30.3214 54.0297 32.0225 53.1652C35.6151 51.3379 35.9178 47.9177 36.8105 44.7308C37.0562 43.858 37.0768 42.9248 37.2196 42.0231C37.3031 41.4928 37.5888 40.7396 38.018 40.8102C40.7874 41.2548 43.5662 38.8143 46.2948 40.845C47.3223 41.608 48.3586 41.9615 49.5201 41.1504C51.2631 39.928 52.8838 40.9287 53.5783 42.1664C55.9396 46.3614 59.9943 45.6435 63.6051 45.8363C65.3143 45.9283 66.6948 45.8441 68.2799 46.9074C69.7633 47.9024 71.5359 48.9502 73.7036 48.5124C77.918 47.657 80.965 49.9455 83.5612 52.7964C86.3588 55.8625 86.8859 56.1549 90.3847 54.3197C91.6959 53.6343 92.952 53.3802 93.9792 54.4235C96.4462 56.9262 99.8548 57.342 102.892 58.0103C106.362 58.7774 109.632 59.906 112.856 61.2418C114.456 61.9083 116.058 62.4129 117.744 62.4665C122.406 62.616 126.916 63.8989 131.508 64.5092C135.307 65.0144 139.406 65.5617 142.968 67.8924C145.798 69.7465 149.124 70.7164 152.416 68.1519C153.757 67.111 155.625 67.1403 157.284 66.8469C165.745 65.3495 172.205 60.5757 177.567 54.1969C178.489 53.0985 179.402 52.0662 180.49 51.1549C184.057 48.1675 187.62 45.1796 191.176 42.1829C191.672 41.7645 192.437 41.3371 192.522 40.8229C192.995 37.9613 195.029 37.546 197.358 37.4566C197.742 37.4425 198.146 37.3756 198.506 37.2439C201.281 36.2205 203.928 35.5557 207.018 36.6376C209.202 37.4023 211.614 36.3205 213.746 35.2385C215.7 34.2444 217.588 32.9378 219.983 33.6584C220.101 33.6932 220.273 33.7072 220.367 33.6482C226.094 30.0958 232.577 32.6772 238.584 31.3913C239.212 31.2584 240.099 31.4901 240.468 31.1345C243.146 28.5864 246.677 28.7493 249.911 27.9739C250.538 27.825 251.408 27.3794 251.77 27.6349C254.539 29.5603 258.372 29.0391 260.82 31.7802C262.136 33.2513 264.088 33.8206 266.085 34.0679C268.697 34.3897 270.981 35.416 273.229 36.8561C276.822 39.1631 280.762 40.6417 285.045 41.4771C287.509 41.9578 289.793 42.4984 292.227 41.7392C295.183 43.72 299.599 43.1037 301.417 47.2014C302.287 49.1645 303.482 50.9953 304.44 52.9498C305.705 55.5318 308.188 57.0416 311.04 56.9005C314.012 56.7511 316.313 57.8663 318.479 59.5409C319.405 60.2594 320.245 61.105 321.336 61.5563C322.468 62.0248 323.417 62.2251 324.899 61.8457C329.232 60.737 330.719 60.2202 332.754 64.2511C333.403 65.5344 334.775 66.0097 335.958 66.3345C338.818 67.1185 340.397 68.9668 341.008 71.6943C341.303 73.0034 341.873 73.5738 343.189 73.9946C345.377 74.6966 347.384 75.7348 348.955 77.6769C350.029 79.0026 351.718 79.9685 353.307 80.7204C360.384 84.0608 366.927 88.4938 374.416 90.9866C376.309 91.6154 378.129 91.8006 380.144 91.5645C385.166 90.9741 390.056 89.9286 394.947 88.6543C398.177 87.8113 401.491 88.5387 404.755 89.3111C407.586 89.9809 410.233 91.8787 413.386 90.8402C413.744 90.7202 414.308 90.9462 414.531 90.7418C417.078 88.4177 419.496 89.7611 422.059 90.7716C424.215 91.6237 426.518 92.1074 428.766 92.7104C429.834 92.997 430.793 92.7207 431.71 92.0678C433.612 90.7078 435.777 90.4751 438.037 90.7678C438.426 90.8174 438.826 90.9554 439.2 90.9044C445.002 90.1019 449.244 93.4512 453.589 96.3951C455.707 97.8305 457.684 98.7307 459.954 96.845C460.978 95.9966 462.15 96.2728 463.323 96.3595C465.991 96.5503 468.56 97.4787 471.354 96.1298C472.779 95.4433 474.607 96.8376 475.727 98.11C477.054 99.6181 478.831 100.445 480.403 101.546C482.11 102.744 484.067 103.333 486.327 102.698C487.76 102.297 489.149 102.605 490.549 103.759C493.499 106.189 497.175 106.643 500.896 106.313C502.106 106.203 503.152 106.301 504.301 106.732C506.477 107.555 508.711 108.357 510.997 106.809C511.455 106.501 512.257 106.615 512.889 106.672C515.848 106.932 518.707 107.329 521.788 106.755C524 106.342 526.566 107.539 528.904 108.244C529.934 108.554 530.822 108.797 531.909 108.569C535.677 107.779 539.448 107.278 543.179 106.033C547.624 104.551 552.239 103.214 557.048 103.047C558.146 103.009 559.113 103.109 560.026 103.688C562.786 105.438 565.95 105.542 569.05 105.907C569.688 105.98 570.428 106.087 570.976 105.845C575.09 104.045 579.644 104.267 583.841 102.991C586.658 102.135 589.365 101.091 592.312 100.524C596.568 99.7052 600.883 98.7758 604.836 96.813C605.974 96.2477 606.801 97.1627 607.828 97.1834C611.147 97.2521 614.482 97.1925 617.793 97.3272C621.087 97.4599 625.041 96.6976 627.822 94.0282C630.76 91.2053 633.977 90.4594 638.115 90.8538C641.375 91.1637 644.815 91.5203 648.186 90.9677C649.173 90.8057 650.289 90.9996 651.265 91.3019C652.757 91.765 653.527 92.7241 653.396 94.5237C653.156 97.7269 652.038 100.581 650.635 103.403C649.402 105.883 649.428 105.989 651.974 107.222C655.075 108.72 655.618 111.388 655.525 114.408C655.418 117.841 654.17 121.023 653.142 124.224C652.657 125.733 652.312 127.225 652.122 128.772C650.223 144.292 649.428 159.933 646.952 175.388C646.58 177.717 647.479 180.039 646.86 182.384C645.302 188.278 644.843 194.399 643.114 200.27C642.494 202.375 642.37 204.641 642.159 206.849C641.739 211.277 640.521 215.504 639.128 219.701C638.146 222.66 637.939 225.796 637.2 228.829C636.151 233.113 633.992 237.038 633.623 241.56C633.291 245.612 632.01 249.582 631.493 253.631C631.011 257.403 630.183 261.041 628.797 264.571C628.562 265.173 628.32 265.798 628.247 266.432C627.119 276.005 624.458 285.335 623.779 294.977C623.688 296.277 623.695 297.553 623.757 298.86C624.004 304.06 622.395 308.869 619.984 313.374C618.75 315.681 616.529 316.692 613.855 316.982C609.891 317.423 606.057 316.693 601.447 316.191ZM250.327 247.719C251.311 248.761 252.219 248.636 253.117 248.407C254.831 247.967 256.63 248.126 258.12 248.762C261.085 250.025 264.196 250.206 267.281 250.553C269.422 250.794 271.394 251.422 273.13 252.571C276.696 254.934 280.54 256.949 283.254 260.451C283.861 261.235 284.789 261.816 285.62 262.447C288.834 264.879 292.38 266.722 295.806 268.795C302.776 273.006 309.801 276.967 317.603 279.425C323.203 281.191 328.807 281.603 334.234 278.979C338.003 277.159 342.03 275.825 346.004 275.18C355.336 273.66 364.541 271.069 374.033 270.856C377.881 270.771 381.916 270.087 385.642 271.412C388.278 272.348 390.976 272.519 393.635 273.08C398.896 274.199 404.282 273.477 409.562 274.286C411.997 274.66 414.421 274.998 416.939 274.541C420.568 273.88 424.287 274.209 427.772 275.175C430.509 275.935 433.391 276.209 436.006 277.396C436.625 277.676 437.393 277.972 437.86 277.526C440.104 275.385 442.747 276.417 445.288 276.331C446.842 276.281 448.373 275.789 449.859 276.607C451.691 277.619 453.734 278.101 455.637 278.897C459.433 280.488 463.124 282.302 466.291 285.075C470.888 289.102 476.151 292.211 481.183 295.645C486.466 299.25 491.573 302.935 497.835 304.706C499.812 305.267 501.719 306.351 503.241 307.782C508.774 312.982 515.565 316.393 521.596 320.879C522.212 321.336 522.927 321.708 523.65 321.982C526.8 323.186 529.879 324.788 533.147 325.411C539.254 326.578 545.261 329.391 551.755 326.453C554.905 325.028 558.467 324.586 561.597 322.858C565.466 320.719 569.574 319.001 573.899 318.049C577.932 317.162 581.514 315.136 584.762 312.977C588.252 310.659 591.654 310.292 595.418 310.702C600.476 311.253 605.514 311.98 610.564 312.613C615.23 313.197 618.195 311.341 619.978 307.06C620.742 305.219 621.156 303.365 621.402 301.414C622.536 292.347 623.702 283.288 624.871 274.225C625.105 272.423 625.647 270.688 626.068 268.933C627.54 262.76 629.882 256.789 630.328 250.359C630.584 246.723 631.066 243.069 631.859 239.518C633.125 233.84 634.574 228.189 636.267 222.625C637.225 219.486 637.356 216.178 638.36 213.135C640.418 206.911 640.996 200.379 641.996 194.039C645.14 174.062 647.305 153.933 649.947 133.876C650.224 131.772 649.315 129.523 650.094 127.716C651.514 124.422 651.266 120.829 652.621 117.516C653.688 114.912 653.959 111.863 651.282 109.586C650.687 109.079 650.215 108.356 649.335 108.512C648.366 108.684 648.251 109.55 648.187 110.328C647.656 116.802 645.854 123.15 646.37 129.743C646.509 131.526 646.304 133.439 645.487 135.103C644.831 136.441 644.626 137.832 644.483 139.255C643.446 149.63 641.541 159.874 639.722 170.124C639.566 171.009 639.182 171.852 638.94 172.725C637.759 176.965 635.96 181.158 635.611 185.464C635.31 189.216 634.745 192.836 634.154 196.535C633.156 202.801 631.6 209.077 632.275 215.537C632.341 216.157 632.242 216.906 631.941 217.44C630.802 219.459 630.981 221.74 630.478 223.879C629.659 227.36 630.41 230.875 630.002 234.377C629.113 242.014 626.892 249.387 625.654 256.916C623.889 267.636 622.433 278.415 620.618 289.136C619.967 292.994 619.61 296.901 619.102 300.784C618.56 304.932 618.551 304.911 614.226 304.41C612.553 304.216 610.91 303.888 609.175 304.116C606.288 304.501 603.55 304.057 600.939 302.495C598.6 301.095 596.04 300.681 593.73 302.814C592.755 303.712 591.823 303.656 590.544 303.189C586.868 301.839 583.327 302.366 580.259 304.876C578.835 306.044 577.141 306.452 575.526 306.399C572.549 306.307 569.461 306.26 566.681 305.06C563.075 303.506 559.333 304.461 555.67 304.178C554.166 304.061 552.714 304.456 551.155 303.744C549.402 302.943 547.545 303.018 545.498 303.534C542.46 304.299 539.319 305.959 536.052 304.369C533.819 303.282 531.565 303.31 529.2 303.718C526.778 304.136 524.239 305.596 521.998 303.15C521.832 302.967 521.195 303.035 520.887 303.193C518.496 304.424 516.769 302.742 515.306 301.525C513.979 300.419 512.613 299.68 511.119 298.893C507.842 297.168 505.078 294.516 501.317 293.613C500.379 293.387 500.305 292.173 499.864 291.39C499.097 290.041 498.219 288.945 496.768 288.069C493.708 286.221 490.357 285.295 487.054 284.143C484.669 283.313 481.864 282.931 481.292 279.687C481.197 279.162 480.749 278.805 480.216 278.657C477.994 278.038 476.426 276.59 474.869 274.934C473.027 272.977 470.902 273.14 469.026 275.096C468.043 276.119 466.841 276.597 466.084 275.359C464.758 273.188 463.395 273.014 461.247 274.133C459.839 274.866 454.298 273.218 454.164 272.107C453.585 267.311 449.153 268.944 446.672 267.379C443.292 269.123 440.98 267.015 438.365 265.327C435.78 263.658 432.848 262.107 429.753 262.169C427.826 262.207 426.132 262.026 424.551 261.181C422.094 259.864 419.187 260.128 416.752 258.791C416.513 258.657 415.912 258.817 415.729 259.043C415.556 259.258 415.599 259.784 415.738 260.09C415.884 260.425 416.267 260.644 416.517 260.944C418.2 262.967 418.056 263.447 415.359 263.951C414.417 264.127 413.415 264.18 413.077 265.128C412.289 267.341 411.002 267.497 409.147 266.443C408.75 266.218 408.115 266.303 407.615 266.389C402.122 267.334 396.642 268.272 391.269 265.777C390.657 265.494 389.958 265.807 389.452 266.248C387.647 267.83 385.877 268.958 383.923 266.422C383.757 266.207 383.155 266.194 382.801 266.279C377.641 267.523 372.245 266.352 367.1 267.811C365.688 268.211 364.919 267.212 364.331 266.158C363.595 264.844 364.308 263.963 365.339 263.187C366.269 262.485 367.292 262.54 368.331 262.72C369.691 262.953 370.925 262.594 372.081 261.948C372.383 261.777 372.71 261.381 372.747 261.058C372.809 260.477 372.357 260.19 371.8 260.04C369.208 259.346 366.552 259.496 364.071 260.162C358.467 261.669 353.724 259.681 349.055 257.048C347.696 256.282 346.366 255.081 345.117 257.196C344.617 258.044 343.732 258.207 343.15 257.572C341.008 255.246 339.463 257.022 337.902 258.268C337.089 258.918 336.431 259.865 335.336 259.938C331.064 260.229 327.114 262.102 322.852 262.434C321.521 262.536 320.405 263.053 319.524 264.2C317.078 267.402 315.575 268.078 312.457 266.065C309.452 264.126 306.427 263.305 302.971 262.828C300.492 262.487 298.248 260.716 295.79 259.904C292.949 258.965 290.609 257.758 289.438 254.714C288.899 253.311 287.587 252.215 286.65 250.958C285.851 249.889 284.857 249.45 283.585 249.982C280.181 251.415 277.377 249.327 274.89 247.845C273.342 246.924 271.003 246.017 270.456 243.811C270.07 242.261 269.193 242.138 267.885 242.148C265.586 242.166 264.581 240.921 264.802 238.536C264.868 237.838 265.862 237.258 264.842 236.22C261.737 239.108 258.061 240.913 253.75 241.258C253.228 241.298 252.801 241.729 252.749 242.295C252.688 242.955 253.217 243.169 253.732 243.278C254.885 243.524 256.026 243.583 257.217 243.312C258.193 243.09 259.517 242.801 259.755 244.241C259.991 245.673 258.527 245.726 257.629 246.054C256.536 246.451 255.317 246.505 254.241 246.932C253.054 247.412 251.66 246.523 250.327 247.719ZM182.896 245.189C180.852 242.401 180.862 242.418 177.999 243.817C176.715 244.447 175.418 245.078 174.063 245.525C172.839 245.93 168.78 244.301 168.959 243.578C169.478 241.492 171.56 242.438 172.85 241.797C173.056 241.693 173.365 241.784 173.623 241.797C174.685 241.858 175.912 242.022 175.823 240.431C175.758 239.239 175.334 238.079 173.855 237.91C173.218 237.836 172.561 237.879 171.915 237.899C169.071 237.977 166.239 238.484 163.385 238.112C162.446 237.988 161.599 238.101 160.829 238.753C158.593 240.647 155.772 240.266 153.521 239.564C149.551 238.323 145.849 238.782 142.068 239.799C140.678 240.174 139.297 240.294 137.882 240.461C134.547 240.86 131.26 242.24 128.054 239.963C127.699 239.712 127.018 239.854 126.712 240.396C126.385 240.974 126.737 241.469 127.126 241.759C127.955 242.379 128.897 242.847 129.75 243.437C130.565 244.003 130.681 244.95 129.789 245.259C128.092 245.843 126.281 246.303 124.501 246.36C123.292 246.399 121.867 245.818 121.295 244.548C120.84 243.539 121.79 242.866 122.523 242.348C124.367 241.048 123.619 239.582 122.698 238.295C120.506 235.216 117.856 234.7 114.534 236.664C113.518 237.265 112.574 238.037 111.404 238.207C108.243 238.668 105.481 240.108 102.692 241.52C100.438 242.658 98.0558 243.017 95.5089 242.901C92.8051 242.776 90.1901 243.409 87.5139 244.027C83.17 245.032 79.3314 249.062 74.3205 246.606C74.2201 246.558 74.0365 246.574 73.9416 246.636C71.6767 248.144 68.8649 247.599 66.4887 248.618C65.4365 249.068 64.6131 248.963 63.5354 248.655C59.2665 247.435 54.9472 246.701 50.4625 247.664C48.4575 248.095 46.3897 248.4 44.2753 248.173C39.5567 247.661 35.1972 245.327 30.3476 245.469C29.995 245.48 29.6507 245.116 29.2799 245.021C25.6517 244.1 22.2961 241.57 18.2404 243.161C18.0201 243.247 17.7247 243.15 17.4663 243.133C15.8635 243.042 14.8938 242.63 14.8819 240.591C14.8587 235.799 14.5393 231.008 15.2013 226.228C15.7934 221.964 16.3199 217.688 16.831 213.41C16.9285 212.585 17.4686 211.324 16.2463 211.097C14.8814 210.843 14.7145 212.18 14.5252 213.198C14.3837 213.966 14.284 214.747 14.2158 215.528C13.4558 223.948 12.1143 232.285 11.5567 240.759C10.9199 250.47 10.6462 260.275 8.84752 269.904C8.65723 270.93 8.51643 271.971 8.45868 273.01C8.27667 276.319 11.0293 278.811 14.2284 278.054C16.231 277.58 18.1874 276.819 20.0837 276.003C28.1011 272.538 36.6595 270.678 44.8307 267.647C46.6663 266.965 48.8296 266.531 50.8983 266.436C56.1955 266.189 61.4992 266.014 66.8028 265.901C71.5722 265.8 76.3007 264.844 80.3615 261.731C83.1186 259.615 86.1535 257.827 89.6211 256.916C91.2264 256.493 92.8307 255.861 94.2667 255.034C97.911 252.925 101.703 252.13 105.882 252.849C112.471 253.987 118.801 256.529 125.667 256.238C129.108 256.093 132.577 256.679 136.014 256.506C137.849 256.412 139.637 256.384 141.441 256.63C143.641 256.931 145.809 257.291 147.984 256.333C148.645 256.042 149.53 256.096 150.287 256.197C155.713 256.922 161.161 256.232 166.604 256.418C171.116 256.572 175.648 256.874 180.176 256.963C185.059 257.058 189.66 256.355 194.193 254.77C197.978 253.445 201.689 251.957 205.847 252.192C210.823 252.476 215.713 253.531 220.333 255.093C225.041 256.682 229.531 256.079 234.15 255.697C235.435 255.593 236.875 255.595 237.941 255.005C241.2 253.198 244.327 251.154 247.466 249.138C248.562 248.433 248.249 247.671 247.295 247.012C246.628 246.552 245.879 246.077 245.126 246.443C242.408 247.754 239.48 247.103 236.668 247.392C232.364 247.837 228.018 248.087 223.675 247.41C221.764 247.11 219.831 246.575 217.856 247.014C217.32 247.135 216.839 247.066 216.372 246.773C211.827 243.941 206.576 244.199 201.636 244.092C197.408 244.002 193.63 243.816 190.507 240.708C189.67 239.875 188.507 239.367 187.792 240.361C186.412 242.294 183.605 242.543 182.896 245.189ZM28.4768 98.9612C29.8952 98.6726 30.0196 98.1317 30.0384 97.6445C30.1724 93.7842 31.8602 90.2132 31.6978 86.2005C31.5611 82.7912 31.9775 79.192 33.5042 75.8927C33.9737 74.8747 34.1828 73.5471 33.9999 72.4457C33.5364 69.6778 34.2572 67.002 34.2681 64.2908C34.2779 61.4333 34.1478 58.5895 34.5893 55.7517C34.6759 55.1981 34.4923 54.6574 33.9064 54.547C33.5905 54.4869 33.097 54.6726 32.8802 54.9173C32.3682 55.4955 31.7677 56.1177 31.5627 56.8259C30.0341 62.0559 28.8443 67.2897 28.93 72.8602C29.0094 77.8928 29.4044 82.9264 29.0723 87.9973C28.8406 91.5411 28.7291 95.1634 28.4768 98.9612ZM269.257 233.51C268.271 233.384 267.421 233.671 266.996 234.588C266.48 235.694 267.259 236.114 268.12 236.607C269.79 237.563 271.378 238.662 272.982 239.735C273.709 240.223 274.439 240.376 275.056 239.692C275.783 238.881 275.139 238.357 274.543 237.807C273.321 236.675 272.137 235.501 270.948 234.335C270.471 233.867 269.925 233.568 269.257 233.51ZM248.358 242.646C247.46 242.603 246.335 242.262 246.123 243.49C245.911 244.742 247.04 244.804 247.924 244.929C248.87 245.065 249.965 244.964 250.167 243.963C250.44 242.636 249.11 242.877 248.358 242.646ZM30.0566 101.611C29.851 101.49 29.6147 101.239 29.4514 101.281C29.2881 101.323 29.1983 101.656 29.0739 101.857C29.2795 101.978 29.5158 102.229 29.6752 102.186C29.8424 102.145 29.9317 101.816 30.0566 101.611Z" fill="#FFF062"/>
</svg>
