<svg width="652" height="434" viewBox="0 0 652 434" fill="none" xmlns="http://www.w3.org/2000/svg">
<path d="M592.054 66.6939C593.225 69.5792 594.486 72.3945 595.002 75.5519C595.631 79.3861 597.732 82.7791 599.236 86.3451C601.11 90.7881 602.345 95.4463 603.971 99.9554C606.571 107.163 610.048 114.077 613.44 120.915C616.001 126.078 618.806 131.239 621.678 136.306C623.519 139.555 625.227 142.967 626.678 146.411C629.056 152.053 632.131 157.329 634.646 162.882C635.813 165.452 635.976 168.52 637.699 170.815C639.156 172.757 639.897 174.942 640.819 177.083C641.557 178.8 641.74 180.639 641.256 182.434C640.414 185.552 638.116 187.119 635.096 187.753C629.316 188.967 624.232 191.864 618.852 194.09C612.426 196.75 608.332 202.064 602.886 205.749C601.598 206.618 600.431 207.629 599.074 208.441C596.295 210.105 594.017 212.403 591.634 214.618C587.569 218.392 584.209 222.908 579.313 225.864C576.62 227.489 574.602 230.075 571.589 231.555C569.718 232.474 568.007 232.859 566.098 232.897C560.266 233.017 554.484 231.795 548.631 232.185C544.766 232.441 540.867 232.205 537.207 234.004C535.734 234.728 533.861 234.605 532.338 235.256C524.039 238.81 516.599 243.686 510.049 249.935C507.696 252.183 505.392 254.48 503.48 257.091C500.515 261.131 496.087 263.109 492.094 265.731C490.903 266.515 489.701 267.345 488.716 268.358C483.21 274.022 476.704 274.637 469.779 271.836C464.473 269.687 459.145 268.929 453.458 269.408C450.698 269.641 447.824 269.076 445.054 268.571C435.837 266.9 426.543 266.104 417.223 265.256C410.984 264.691 404.828 264.802 398.641 265.099C394.744 265.284 391.078 266.798 387.257 267.489C383.442 268.181 379.672 269.07 375.759 269.228C372.028 269.375 369.243 271.612 366.693 274.083C364.233 276.463 362.514 279.385 361.034 282.439C359.385 285.848 357.347 289.118 354.872 291.85C352.208 294.794 350.401 298.199 348.183 301.368C346.707 303.479 345.692 305.936 343.686 307.652C340.551 310.329 337.068 312.454 333.21 313.932C324.387 317.313 314.95 317.664 305.776 319.211C301.25 319.974 297.356 321.897 293.714 324.141C290.176 326.318 286.445 326.917 282.651 327.255C275.907 327.856 269.197 328.351 262.872 331.072C261.325 331.737 259.792 332.448 258.02 332.46C256.837 332.468 255.762 333.049 254.75 333.668C251.103 335.901 247.259 337.77 243.518 339.822C240.265 341.606 236.816 343.041 233.951 345.665C231.111 348.265 227.533 349.977 224.095 351.826C217.011 355.638 209.2 356.733 201.549 358.519C198.523 359.222 195.721 360.419 193.493 362.967C191.384 365.383 188.708 367.238 186.826 369.985C183.882 374.287 181.34 378.811 179.086 383.465C176.478 388.852 172.288 391.705 166.683 393.165C161.125 394.614 155.591 393.596 150.042 393.56C144.617 393.524 139.183 393.458 133.776 393.753C131.231 393.891 128.656 394.625 126.237 395.493C124.247 396.211 122.228 396.711 120.18 396.878C115.108 397.291 110.23 398.698 105.31 399.781C100.625 400.811 96.9676 404.033 93.6895 407.359C90.1526 410.954 85.7699 412.795 81.2053 414.3C77.7544 415.437 74.5749 414.041 73.1747 410.691C71.577 406.871 69.7163 403.153 68.9589 398.957C68.3667 395.674 66.8094 392.594 66.0353 389.279C65.4789 386.902 64.8691 384.445 63.9981 382.199C61.1547 374.857 60.3752 367.127 58.8231 359.523C57.9124 355.072 57.0974 350.544 54.9473 346.233C52.4069 341.142 50.3166 335.744 47.5134 330.797C44.8329 326.07 42.3847 321.208 39.6083 316.538C39.011 315.537 38.5386 314.448 38.1133 313.361C36.7074 309.755 34.7836 306.384 33.2448 302.857C30.4057 296.354 27.1719 289.95 25.8982 282.88C25.5029 280.683 25.8869 278.429 27.4239 276.649C28.0111 275.969 29.0294 275.521 28.949 274.515C28.7082 271.601 30.6714 270.743 32.8757 270.053C37.6773 268.55 41.2468 264.899 45.6701 262.729C46.2482 262.445 46.7251 261.869 47.3202 261.722C53.411 260.223 58.056 256.025 62.8628 252.543C67.1398 249.444 71.8209 246.3 74.615 241.395C75.4685 239.899 76.9079 238.935 78.4445 238.181C80.5614 237.138 82.4404 235.777 84.0976 234.096C84.5494 233.636 85.0082 233.088 85.574 232.847C91.0534 230.522 95.1862 226.467 99.6052 222.631C103.919 218.879 109.359 216.717 114.987 215.4C119.537 214.331 123.042 211.986 125.006 207.661C125.822 205.863 126.605 204.086 128.277 202.893C128.825 202.504 129.174 201.996 129.356 201.327C130.685 196.443 133.06 192.184 136.803 188.704C139.878 185.848 141.796 182.069 144.377 178.813C146.247 176.455 148.154 174.222 150.434 172.285C151.815 171.113 153.392 170.144 154.385 168.553C154.584 168.232 154.873 167.765 155.17 167.726C158.473 167.312 161.058 164.949 164.576 164.773C170.167 164.497 175.72 164.963 181.291 164.961C184.933 164.959 188.403 166.386 191.822 167.58C196.099 169.071 200.311 170.431 204.918 170.822C208.606 171.135 212.418 171.816 215.766 173.757C216.46 174.157 217.157 174.463 217.964 174.476C222.048 174.545 225.844 176.014 229.758 176.908C231.723 177.353 233.456 177.369 235.249 176.047C236.788 174.912 238.619 174.322 240.778 174.787C242.52 175.162 244.512 175.035 246.081 173.985C248.947 172.066 252.41 171.756 255.425 170.28C256.109 169.945 256.917 169.7 257.671 169.696C263.431 169.669 268.297 167.413 272.769 163.961C275.222 162.065 277.647 159.682 280.481 158.836C284.418 157.659 287.659 153.968 292.313 155.285C296.477 153.655 301.002 153.948 305.271 152.789C309.994 151.508 314.599 149.915 319.239 148.43C323.322 147.123 327.143 145.292 331.075 143.725C333.904 142.594 336.18 140.081 339.002 138.915C343.97 136.859 348.97 134.76 354.484 134.333C358.545 134.019 362.5 133.284 366.36 131.644C371.558 129.436 375.925 126.005 379.876 122.306C383.53 118.888 387.563 116.199 391.694 113.585C393.962 112.152 396.313 110.897 398.18 108.929C399.028 108.038 400.19 107.747 401.268 107.3C404.377 106.006 407.205 104.571 409.591 101.87C411.653 99.5366 414.712 97.7637 417.671 96.631C421.2 95.281 424.078 92.982 427.301 91.2189C430.485 89.4806 433.76 87.857 437.003 86.3186C443.138 83.4083 449.733 83.1836 456.259 85.5714C457.11 85.8829 458.101 86.5395 458.83 86.3386C462.202 85.394 465.518 87.0773 468.808 86.3773C469.927 86.1376 470.93 86.4807 471.8 86.7005C474.754 87.4443 477.644 87.5765 480.567 86.8046C483.423 86.0467 486.3 86.6822 489.04 87.0817C492.798 87.6286 496.544 86.5843 500.244 87.471C500.675 87.5762 501.313 87.3064 501.704 87.0095C504.083 85.2236 507.015 84.0975 508.788 81.6054C510.587 79.0819 512.679 77.1163 515.757 76.3325C516.483 76.1453 517.471 75.8318 517.477 74.9554C517.505 72.2884 519.529 71.667 521.354 70.6322C522.564 69.9465 523.41 68.6514 524.551 67.8073C529.742 63.9596 534.567 59.6728 540.588 56.901C545.018 54.8631 548.81 51.5961 552.045 47.734C554.18 45.185 557.295 43.5713 559.524 41.0141C560.8 39.55 562.378 38.3442 563.584 36.8323C564.377 35.8457 565.319 35.3228 566.4 34.8533C570.128 33.2294 570.114 33.2266 573.199 36.202C573.657 36.6468 574.195 37.0593 574.771 37.3169C578.484 38.9672 580.464 42.1554 581.937 45.6538C584.108 50.8132 586.775 55.6929 589.524 60.5477C590.611 62.4616 591.226 64.6376 592.054 66.6939Z" fill="#FFF062"/>
</svg>
