<svg width="600" height="230" viewBox="0 0 600 230" fill="none" xmlns="http://www.w3.org/2000/svg">
<mask id="path-1-inside-1" fill="white">
<path d="M34.731 103.281L37.2938 116.973C36.038 117.493 34.3006 118.103 32.3741 118.463C26.388 119.584 23.6535 118.671 22.6361 113.236L21.2452 105.805L1.15411 109.565L2.66088 117.615C5.17216 131.032 11.1866 135.39 28.0438 132.235C32.7226 131.359 36.7177 130.256 39.5862 129.22L41.9429 141.812L62.034 138.051L54.8221 99.5202L34.731 103.281Z"/>
<path d="M82.181 134.28L102.272 130.52L97.314 104.03L111.419 101.39L109.165 89.3487L60.8641 98.3893L63.1178 110.43L77.2228 107.79L82.181 134.28Z"/>
<path d="M150.039 122.647C176.253 117.741 175.402 104.44 174.166 97.835L173.96 96.7341C172.723 90.1288 168.655 77.1456 142.509 82.0394L140.032 82.503C114.781 87.2294 114.858 100.96 116.107 107.634L116.288 108.597C117.537 115.271 122.379 127.824 147.699 123.085L150.039 122.647ZM146.344 110.52C140.083 111.692 137.818 107.202 137.2 103.899C136.531 100.321 137.302 95.6904 143.357 94.5571L143.77 94.4799C149.824 93.3466 152.287 97.3722 152.957 100.95C153.536 104.046 152.812 109.309 146.757 110.443L146.344 110.52Z"/>
<path d="M204.862 119.721L222.889 116.347L221.37 108.228L249.786 102.909L251.306 111.028L269.333 107.654L265.559 87.4942L258.679 88.782L253.721 62.292L203.837 71.6288C205.872 82.5 207.317 93.2679 206.249 98.5953L201.089 99.5612L204.862 119.721ZM224.207 95.2341C224.522 91.9704 224.671 85.5333 223.64 80.0288L235.819 77.7494L238.588 92.5425L224.207 95.2341Z"/>
<path d="M294.84 64.1385C300.62 63.0568 302.696 65.0182 303.469 68.007L288.125 70.8789C288.213 67.1594 289.955 65.0529 294.84 64.1385ZM305.486 79.1664C305.245 79.7812 304.449 81.9955 299.22 82.9742C293.784 83.9916 291.041 82.6534 289.482 78.8861L326.224 72.009L325.927 70.4265C323.828 59.2113 317.553 49.2761 294.16 53.6548L290.994 54.2472C268.77 58.4069 266.221 70.2786 267.869 79.0856L268.05 80.0489C269.582 88.2367 275.956 99.0792 299.074 94.7521L302.446 94.121C325.289 89.8454 327.326 80.5622 326.678 75.1998L305.486 79.1664Z"/>
<path d="M368.049 80.7737L388.14 77.0132L380.928 38.4823L332.902 47.4714C335.8 62.9526 336.534 66.8745 336.284 70.4822C336.08 73.5824 334.558 74.5796 332.15 75.0303L331.324 75.1849L333.578 87.2258L341.49 85.7447C352.568 83.6713 354.582 78.4517 355.306 74.3282C355.956 70.5744 355.09 64.0423 353.596 56.0609L363.091 54.2837L368.049 80.7737Z"/>
<path d="M427.162 65.0093C428.266 66.7253 430.902 69.0095 434.686 68.3012L450.924 65.2619L448.451 52.0513L445.905 52.5278C445.149 52.6695 444.727 52.321 444.56 51.4266L442.422 40.0049C441.237 33.6749 437.67 26.7936 415.446 30.9533L413.038 31.4041C391.365 35.4607 390.424 43.7553 391.519 49.6037L391.532 49.6725L411.004 46.0279C410.862 45.2711 410.799 42.648 416.097 41.6564L416.578 41.5662C421.051 40.7292 422.302 41.7057 422.611 43.357L422.623 43.4258C422.868 44.7331 422.365 45.4682 420.382 45.9105L409.408 48.5344C395.651 51.8927 391.848 56.3076 393.213 63.601L393.278 63.945C394.72 71.6512 401.126 75.4373 411.928 73.4154L413.167 73.1835C422.868 71.3677 426.267 66.3162 427.162 65.0093ZM417.991 61.6695C415.032 62.2233 413.188 61.5003 412.84 59.6425L412.827 59.5737C412.467 57.6472 413.305 56.4219 418.393 54.6863L424.336 52.5769L424.581 53.8842C425.161 56.9804 423.426 60.6521 417.991 61.6695Z"/>
<path d="M467.329 62.1914L487.42 58.4309L482.461 31.941L496.567 29.3009L494.313 17.26L446.012 26.3006L448.265 38.3415L462.37 35.7014L467.329 62.1914Z"/>
<path d="M507.592 54.6552L545.366 47.5849C558.439 45.1381 562.449 38.4054 560.839 29.8048L560.685 28.9791C559.217 21.1353 552.953 15.8271 539.88 18.2739L522.197 21.5837L520.472 12.3638L500.381 16.1243L507.592 54.6552ZM525.52 39.3354L524.335 33.0053L535.206 30.9706C537.339 30.5713 539.3 30.7741 539.751 33.1822L539.789 33.3887C540.292 36.0721 538.524 36.9014 536.391 37.3006L525.52 39.3354Z"/>
<path d="M74.6426 189.815L53.7258 193.73C53.7898 195.213 53.5091 199.04 47.7983 200.109L47.3167 200.2C42.0187 201.191 39.5946 197.372 38.8348 193.312L38.8219 193.244C38.0621 189.184 39.1254 185.353 44.4234 184.361L44.9739 184.258C50.4095 183.241 52.0899 186.131 52.541 187.4L73.4578 183.485L73.4449 183.416C72.479 178.256 69.021 167.01 43.0815 171.865L40.6045 172.329C17.83 176.591 16.1578 188.584 17.6517 196.565L17.832 197.528C19.3774 205.785 24.9466 217.277 48.2715 212.911L51.643 212.28C75.8624 207.747 75.7372 195.663 74.6555 189.884L74.6426 189.815Z"/>
<path d="M113.262 200.746C139.477 195.84 138.625 182.539 137.389 175.934L137.183 174.833C135.946 168.228 131.878 155.245 105.732 160.139L103.255 160.602C78.0039 165.329 78.0812 179.059 79.3304 185.733L79.5107 186.696C80.7599 193.37 85.6021 205.924 110.922 201.184L113.262 200.746ZM109.568 188.619C103.306 189.791 101.042 185.301 100.423 181.998C99.7537 178.421 100.525 173.79 106.58 172.656L106.993 172.579C113.047 171.446 115.51 175.471 116.18 179.049C116.759 182.146 116.035 187.409 109.98 188.542L109.568 188.619Z"/>
<path d="M220.652 162.486L199.735 166.401C199.799 167.885 199.518 171.712 193.808 172.781L193.326 172.871C188.028 173.862 185.604 170.043 184.844 165.984L184.831 165.915C184.071 161.855 185.135 158.024 190.433 157.033L190.983 156.93C196.419 155.912 198.099 158.802 198.55 160.071L219.467 156.156L219.454 156.087C218.488 150.927 215.03 139.681 189.091 144.536L186.614 145C163.839 149.263 162.167 161.255 163.661 169.236L163.841 170.2C165.387 178.456 170.956 189.948 194.281 185.582L197.652 184.951C221.872 180.418 221.747 168.335 220.665 162.555L220.652 162.486Z"/>
<path d="M241.808 175.618L261.899 171.858L256.941 145.368L271.046 142.728L268.792 130.687L220.491 139.727L222.745 151.768L236.85 149.128L241.808 175.618Z"/>
<path d="M314.09 142.434C314.708 145.736 313.472 150.169 307.761 151.238L307.624 151.264C301.638 152.384 299.184 148.784 298.552 145.413L298.449 144.862C297.896 141.904 298.903 137.015 304.752 135.92L304.89 135.894C310.6 134.826 313.42 138.856 314.012 142.021L314.09 142.434ZM284.493 181.017L304.584 177.257L301.429 160.399C303.118 161.436 307.878 164.035 316.822 162.361L317.166 162.296C333.955 159.154 336.895 147.85 335.183 138.699L334.964 137.529C333.096 127.553 326.735 119.058 310.772 122.046L310.428 122.11C301.346 123.81 297.255 128.208 295.801 130.332L294.951 125.79L274.86 129.551L284.493 181.017Z"/>
<path d="M375.737 145.85C376.841 147.566 379.477 149.85 383.261 149.142L399.499 146.103L397.026 132.892L394.481 133.369C393.724 133.51 393.302 133.162 393.135 132.267L390.997 120.846C389.812 114.516 386.246 107.634 364.021 111.794L361.613 112.245C339.94 116.302 339 124.596 340.094 130.445L340.107 130.513L359.579 126.869C359.437 126.112 359.374 123.489 364.672 122.497L365.153 122.407C369.626 121.57 370.877 122.547 371.186 124.198L371.199 124.267C371.443 125.574 370.94 126.309 368.957 126.751L357.983 129.375C344.226 132.734 340.423 137.149 341.788 144.442L341.853 144.786C343.295 152.492 349.701 156.278 360.503 154.256L361.742 154.024C371.443 152.209 374.842 147.157 375.737 145.85ZM366.566 142.51C363.607 143.064 361.763 142.341 361.415 140.483L361.402 140.415C361.042 138.488 361.881 137.263 366.968 135.527L372.911 133.418L373.156 134.725C373.736 137.821 372.002 141.493 366.566 142.51Z"/>
<path d="M436.598 139.159L458.96 134.973L441.657 117.488L451.404 96.507L429.936 100.525L425.013 112.271L416.175 103.101L393.539 107.338L410.42 123.335L400.544 145.907L422.286 141.838L427.279 128.939L436.598 139.159Z"/>
<path d="M491.018 130.041C517.233 125.135 516.381 111.834 515.145 105.229L514.939 104.128C513.703 97.5227 509.635 84.5396 483.489 89.4333L481.012 89.897C455.76 94.6233 455.838 108.353 457.087 115.028L457.267 115.991C458.516 122.665 463.358 135.218 488.679 130.479L491.018 130.041ZM487.324 117.914C481.063 119.086 478.798 114.596 478.18 111.293C477.51 107.715 478.281 103.084 484.336 101.951L484.749 101.874C490.804 100.741 493.266 104.766 493.936 108.344C494.516 111.44 493.792 116.703 487.737 117.837L487.324 117.914Z"/>
<path d="M540.321 96.315L555.773 116.853L566.025 114.934L573.003 90.1978L577.24 112.835L596.644 109.203L589.432 70.6721L563.836 75.4628L559.152 92.2918L548.699 78.2961L518.769 83.8981L525.981 122.429L544.558 118.952L540.321 96.315Z"/>
</mask>
<path d="M34.731 103.281L37.2938 116.973C36.038 117.493 34.3006 118.103 32.3741 118.463C26.388 119.584 23.6535 118.671 22.6361 113.236L21.2452 105.805L1.15411 109.565L2.66088 117.615C5.17216 131.032 11.1866 135.39 28.0438 132.235C32.7226 131.359 36.7177 130.256 39.5862 129.22L41.9429 141.812L62.034 138.051L54.8221 99.5202L34.731 103.281Z" stroke="black" stroke-width="40" mask="url(#path-1-inside-1)"/>
<path d="M82.181 134.28L102.272 130.52L97.314 104.03L111.419 101.39L109.165 89.3487L60.8641 98.3893L63.1178 110.43L77.2228 107.79L82.181 134.28Z" stroke="black" stroke-width="40" mask="url(#path-1-inside-1)"/>
<path d="M150.039 122.647C176.253 117.741 175.402 104.44 174.166 97.835L173.96 96.7341C172.723 90.1288 168.655 77.1456 142.509 82.0394L140.032 82.503C114.781 87.2294 114.858 100.96 116.107 107.634L116.288 108.597C117.537 115.271 122.379 127.824 147.699 123.085L150.039 122.647ZM146.344 110.52C140.083 111.692 137.818 107.202 137.2 103.899C136.531 100.321 137.302 95.6904 143.357 94.5571L143.77 94.4799C149.824 93.3466 152.287 97.3722 152.957 100.95C153.536 104.046 152.812 109.309 146.757 110.443L146.344 110.52Z" stroke="black" stroke-width="40" mask="url(#path-1-inside-1)"/>
<path d="M204.862 119.721L222.889 116.347L221.37 108.228L249.786 102.909L251.306 111.028L269.333 107.654L265.559 87.4942L258.679 88.782L253.721 62.292L203.837 71.6288C205.872 82.5 207.317 93.2679 206.249 98.5953L201.089 99.5612L204.862 119.721ZM224.207 95.2341C224.522 91.9704 224.671 85.5333 223.64 80.0288L235.819 77.7494L238.588 92.5425L224.207 95.2341Z" stroke="black" stroke-width="40" mask="url(#path-1-inside-1)"/>
<path d="M294.84 64.1385C300.62 63.0568 302.696 65.0182 303.469 68.007L288.125 70.8789C288.213 67.1594 289.955 65.0529 294.84 64.1385ZM305.486 79.1664C305.245 79.7812 304.449 81.9955 299.22 82.9742C293.784 83.9916 291.041 82.6534 289.482 78.8861L326.224 72.009L325.927 70.4265C323.828 59.2113 317.553 49.2761 294.16 53.6548L290.994 54.2472C268.77 58.4069 266.221 70.2786 267.869 79.0856L268.05 80.0489C269.582 88.2367 275.956 99.0792 299.074 94.7521L302.446 94.121C325.289 89.8454 327.326 80.5622 326.678 75.1998L305.486 79.1664Z" stroke="black" stroke-width="40" mask="url(#path-1-inside-1)"/>
<path d="M368.049 80.7737L388.14 77.0132L380.928 38.4823L332.902 47.4714C335.8 62.9526 336.534 66.8745 336.284 70.4822C336.08 73.5824 334.558 74.5796 332.15 75.0303L331.324 75.1849L333.578 87.2258L341.49 85.7447C352.568 83.6713 354.582 78.4517 355.306 74.3282C355.956 70.5744 355.09 64.0423 353.596 56.0609L363.091 54.2837L368.049 80.7737Z" stroke="black" stroke-width="40" mask="url(#path-1-inside-1)"/>
<path d="M427.162 65.0093C428.266 66.7253 430.902 69.0095 434.686 68.3012L450.924 65.2619L448.451 52.0513L445.905 52.5278C445.149 52.6695 444.727 52.321 444.56 51.4266L442.422 40.0049C441.237 33.6749 437.67 26.7936 415.446 30.9533L413.038 31.4041C391.365 35.4607 390.424 43.7553 391.519 49.6037L391.532 49.6725L411.004 46.0279C410.862 45.2711 410.799 42.648 416.097 41.6564L416.578 41.5662C421.051 40.7292 422.302 41.7057 422.611 43.357L422.623 43.4258C422.868 44.7331 422.365 45.4682 420.382 45.9105L409.408 48.5344C395.651 51.8927 391.848 56.3076 393.213 63.601L393.278 63.945C394.72 71.6512 401.126 75.4373 411.928 73.4154L413.167 73.1835C422.868 71.3677 426.267 66.3162 427.162 65.0093ZM417.991 61.6695C415.032 62.2233 413.188 61.5003 412.84 59.6425L412.827 59.5737C412.467 57.6472 413.305 56.4219 418.393 54.6863L424.336 52.5769L424.581 53.8842C425.161 56.9804 423.426 60.6521 417.991 61.6695Z" stroke="black" stroke-width="40" mask="url(#path-1-inside-1)"/>
<path d="M467.329 62.1914L487.42 58.4309L482.461 31.941L496.567 29.3009L494.313 17.26L446.012 26.3006L448.265 38.3415L462.37 35.7014L467.329 62.1914Z" stroke="black" stroke-width="40" mask="url(#path-1-inside-1)"/>
<path d="M507.592 54.6552L545.366 47.5849C558.439 45.1381 562.449 38.4054 560.839 29.8048L560.685 28.9791C559.217 21.1353 552.953 15.8271 539.88 18.2739L522.197 21.5837L520.472 12.3638L500.381 16.1243L507.592 54.6552ZM525.52 39.3354L524.335 33.0053L535.206 30.9706C537.339 30.5713 539.3 30.7741 539.751 33.1822L539.789 33.3887C540.292 36.0721 538.524 36.9014 536.391 37.3006L525.52 39.3354Z" stroke="black" stroke-width="40" mask="url(#path-1-inside-1)"/>
<path d="M74.6426 189.815L53.7258 193.73C53.7898 195.213 53.5091 199.04 47.7983 200.109L47.3167 200.2C42.0187 201.191 39.5946 197.372 38.8348 193.312L38.8219 193.244C38.0621 189.184 39.1254 185.353 44.4234 184.361L44.9739 184.258C50.4095 183.241 52.0899 186.131 52.541 187.4L73.4578 183.485L73.4449 183.416C72.479 178.256 69.021 167.01 43.0815 171.865L40.6045 172.329C17.83 176.591 16.1578 188.584 17.6517 196.565L17.832 197.528C19.3774 205.785 24.9466 217.277 48.2715 212.911L51.643 212.28C75.8624 207.747 75.7372 195.663 74.6555 189.884L74.6426 189.815Z" stroke="black" stroke-width="40" mask="url(#path-1-inside-1)"/>
<path d="M113.262 200.746C139.477 195.84 138.625 182.539 137.389 175.934L137.183 174.833C135.946 168.228 131.878 155.245 105.732 160.139L103.255 160.602C78.0039 165.329 78.0812 179.059 79.3304 185.733L79.5107 186.696C80.7599 193.37 85.6021 205.924 110.922 201.184L113.262 200.746ZM109.568 188.619C103.306 189.791 101.042 185.301 100.423 181.998C99.7537 178.421 100.525 173.79 106.58 172.656L106.993 172.579C113.047 171.446 115.51 175.471 116.18 179.049C116.759 182.146 116.035 187.409 109.98 188.542L109.568 188.619Z" stroke="black" stroke-width="40" mask="url(#path-1-inside-1)"/>
<path d="M220.652 162.486L199.735 166.401C199.799 167.885 199.518 171.712 193.808 172.781L193.326 172.871C188.028 173.862 185.604 170.043 184.844 165.984L184.831 165.915C184.071 161.855 185.135 158.024 190.433 157.033L190.983 156.93C196.419 155.912 198.099 158.802 198.55 160.071L219.467 156.156L219.454 156.087C218.488 150.927 215.03 139.681 189.091 144.536L186.614 145C163.839 149.263 162.167 161.255 163.661 169.236L163.841 170.2C165.387 178.456 170.956 189.948 194.281 185.582L197.652 184.951C221.872 180.418 221.747 168.335 220.665 162.555L220.652 162.486Z" stroke="black" stroke-width="40" mask="url(#path-1-inside-1)"/>
<path d="M241.808 175.618L261.899 171.858L256.941 145.368L271.046 142.728L268.792 130.687L220.491 139.727L222.745 151.768L236.85 149.128L241.808 175.618Z" stroke="black" stroke-width="40" mask="url(#path-1-inside-1)"/>
<path d="M314.09 142.434C314.708 145.736 313.472 150.169 307.761 151.238L307.624 151.264C301.638 152.384 299.184 148.784 298.552 145.413L298.449 144.862C297.896 141.904 298.903 137.015 304.752 135.92L304.89 135.894C310.6 134.826 313.42 138.856 314.012 142.021L314.09 142.434ZM284.493 181.017L304.584 177.257L301.429 160.399C303.118 161.436 307.878 164.035 316.822 162.361L317.166 162.296C333.955 159.154 336.895 147.85 335.183 138.699L334.964 137.529C333.096 127.553 326.735 119.058 310.772 122.046L310.428 122.11C301.346 123.81 297.255 128.208 295.801 130.332L294.951 125.79L274.86 129.551L284.493 181.017Z" stroke="black" stroke-width="40" mask="url(#path-1-inside-1)"/>
<path d="M375.737 145.85C376.841 147.566 379.477 149.85 383.261 149.142L399.499 146.103L397.026 132.892L394.481 133.369C393.724 133.51 393.302 133.162 393.135 132.267L390.997 120.846C389.812 114.516 386.246 107.634 364.021 111.794L361.613 112.245C339.94 116.302 339 124.596 340.094 130.445L340.107 130.513L359.579 126.869C359.437 126.112 359.374 123.489 364.672 122.497L365.153 122.407C369.626 121.57 370.877 122.547 371.186 124.198L371.199 124.267C371.443 125.574 370.94 126.309 368.957 126.751L357.983 129.375C344.226 132.734 340.423 137.149 341.788 144.442L341.853 144.786C343.295 152.492 349.701 156.278 360.503 154.256L361.742 154.024C371.443 152.209 374.842 147.157 375.737 145.85ZM366.566 142.51C363.607 143.064 361.763 142.341 361.415 140.483L361.402 140.415C361.042 138.488 361.881 137.263 366.968 135.527L372.911 133.418L373.156 134.725C373.736 137.821 372.002 141.493 366.566 142.51Z" stroke="black" stroke-width="40" mask="url(#path-1-inside-1)"/>
<path d="M436.598 139.159L458.96 134.973L441.657 117.488L451.404 96.507L429.936 100.525L425.013 112.271L416.175 103.101L393.539 107.338L410.42 123.335L400.544 145.907L422.286 141.838L427.279 128.939L436.598 139.159Z" stroke="black" stroke-width="40" mask="url(#path-1-inside-1)"/>
<path d="M491.018 130.041C517.233 125.135 516.381 111.834 515.145 105.229L514.939 104.128C513.703 97.5227 509.635 84.5396 483.489 89.4333L481.012 89.897C455.76 94.6233 455.838 108.353 457.087 115.028L457.267 115.991C458.516 122.665 463.358 135.218 488.679 130.479L491.018 130.041ZM487.324 117.914C481.063 119.086 478.798 114.596 478.18 111.293C477.51 107.715 478.281 103.084 484.336 101.951L484.749 101.874C490.804 100.741 493.266 104.766 493.936 108.344C494.516 111.44 493.792 116.703 487.737 117.837L487.324 117.914Z" stroke="black" stroke-width="40" mask="url(#path-1-inside-1)"/>
<path d="M540.321 96.315L555.773 116.853L566.025 114.934L573.003 90.1978L577.24 112.835L596.644 109.203L589.432 70.6721L563.836 75.4628L559.152 92.2918L548.699 78.2961L518.769 83.8981L525.981 122.429L544.558 118.952L540.321 96.315Z" stroke="black" stroke-width="40" mask="url(#path-1-inside-1)"/>
</svg>
