<svg width="291" height="300" viewBox="0 0 291 300" fill="none" xmlns="http://www.w3.org/2000/svg">
 <path d="M108.775 1.6875C143.897 10.4511 177.863 39.3556 197.07 81.2945C226.554 145.672 210.054 216.373 160.211 239.2M160.211 239.2C110.368 262.028 46.0581 228.336 16.5743 163.959C-2.77599 121.708 -2.32651 76.7428 14.3605 44.3616M160.211 239.2L90.759 87.5527M211.483 153.801C211.483 153.801 105.926 121.323 62.0576 222.236M194.031 79.5731C194.031 79.5731 80.3805 43.1584 17.2532 160.535M186.533 219.615L209.135 268.964C209.135 268.964 182.227 298.602 146.135 297.816L122.504 246.218M203.147 255.897C203.147 255.897 263.518 231.299 287.123 170.822C287.123 170.822 213.266 228.301 193.531 234.902" stroke="black" stroke-width="3" stroke-miterlimit="10"/>
</svg>
