<svg width="378" height="341" viewBox="0 0 378 341" fill="none" xmlns="http://www.w3.org/2000/svg">
 <path d="M285.778 1.46875L195.777 42.6878C230.898 51.4514 264.865 80.3559 284.072 122.295C313.556 186.672 297.056 257.373 247.213 280.2M247.213 280.2C197.37 303.028 133.06 269.336 103.576 204.959C84.2257 162.708 84.6752 117.743 101.362 85.3619L1 131.326M247.213 280.2L177.761 128.553M298.484 194.802C298.484 194.802 192.928 162.324 149.059 263.236M281.033 120.573C281.033 120.573 167.382 84.1587 104.255 201.535M273.535 260.615L296.136 309.964C296.136 309.964 269.229 339.603 233.137 338.817L209.506 287.219M290.149 296.897C290.149 296.897 350.52 272.299 374.124 211.823C374.124 211.823 300.267 269.302 280.533 275.902" stroke="black" stroke-width="3" stroke-miterlimit="10"/>
</svg>
