<svg width="893" height="800" viewBox="0 0 893 800" fill="none" xmlns="http://www.w3.org/2000/svg">
<path d="M822.193 0.802536C821.113 2.0782 820.066 3.37331 818.954 4.59189C818.099 5.51481 817.443 6.51696 816.999 7.78661C816.749 8.55251 816.166 9.23651 815.586 9.77011C814.581 10.69 814.308 11.7751 814.212 13.1834C814.027 15.7369 813.075 18.1433 813.455 20.8586C813.793 23.1969 813.125 25.6278 813.545 28.0431C813.725 29.0809 813.602 30.2066 813.496 31.2762C813.352 32.6083 813.445 33.8512 813.703 35.1726C813.899 36.2107 813.927 37.3394 813.755 38.3889C813.351 41.0132 813.601 43.5567 813.832 46.1749C814.064 48.812 814.131 51.3142 815.76 53.5093C816.607 54.6546 816.842 56.2576 816.894 57.8381C817.008 61.3377 817.038 64.8356 817.94 68.2195C817.556 70.675 818.114 72.905 818.921 75.1776C819.317 76.2949 819.203 77.7969 818.961 79.033C818.416 82.0117 818.931 84.6733 820.387 87.147C820.598 87.5085 820.791 87.8885 820.95 88.2866C821.797 90.2591 822.527 92.2481 822.414 94.5398C822.349 96.1179 822.872 97.5387 823.7 98.7964C824.609 100.206 825.67 101.525 826.427 103.026C827.634 105.4 829.24 107.106 831.546 108.074C832.409 108.43 833.265 109.143 833.885 109.926C836.138 112.735 838.858 114.783 841.943 116.18C845.144 117.599 847.659 119.887 849.297 123.267C850.31 125.337 852.153 126.916 852.318 129.514C853.625 131.082 854.881 132.687 856.257 134.181C857.092 135.082 858.116 135.76 859.02 136.568C859.777 137.242 860.736 137.806 861.203 138.7C862.621 141.417 865.445 142.47 866.932 145.095C867.223 145.609 867.801 145.978 868.314 146.251C873.067 148.716 877.261 152.392 882.224 154.41C882.921 154.687 883.561 155.302 884.051 155.932C885.453 157.765 887.028 159.339 888.807 160.729C889.763 161.462 890.581 162.4 891.45 163.283C893.451 165.335 895.348 167.516 897.727 169.069C898.371 169.476 898.875 170.22 899.347 170.888C899.705 171.384 899.96 171.99 900.233 172.579C901.917 176.204 904.289 178.941 907.896 180.123C908.445 180.303 908.956 180.671 909.469 180.982C910.692 181.721 911.694 182.7 912.164 184.251C912.667 185.897 913.186 187.525 913.823 189.117C914.206 190.084 914.653 191.127 915.308 191.855C916.716 193.425 917.887 195.084 918.547 197.204C918.831 198.074 919.457 198.557 920.308 198.687C920.692 198.751 921.127 198.741 921.441 198.954C924.941 201.319 928.252 203.942 930.567 207.825C930.761 208.148 930.734 208.656 930.775 209.089C930.831 209.654 930.278 210.527 929.858 210.575C927.544 210.829 925.244 211.177 922.915 211.319C921.776 211.39 920.61 211.122 919.476 210.93C917.758 210.632 916.043 210.184 914.309 209.885C911.04 209.331 907.807 208.645 904.742 207.136C902.587 206.077 900.304 205.617 897.984 205.288C891.81 204.412 885.714 202.992 879.853 200.655C877.429 199.685 874.982 199.071 872.435 199.246C869.435 199.448 866.697 198.265 863.849 197.587C863.283 197.444 862.685 197.225 862.241 196.84C859.806 194.761 856.937 194.308 854.016 193.948C849.742 193.43 845.563 192.368 841.473 191.026C838.663 190.104 835.85 189.389 832.963 188.936C828.51 188.226 824.181 187.124 820.126 184.88C818.917 184.216 817.608 183.607 816.29 183.373C813.556 182.848 811.085 181.727 808.671 180.268C807.68 179.665 806.483 179.265 805.347 179.129C801.674 178.698 798.001 178.285 794.482 176.842C793.602 176.486 792.563 176.578 791.595 176.427C790.828 176.298 790.026 176.226 789.33 175.911C786.244 174.589 783.087 173.435 780.159 171.74C777.182 170.025 774.023 168.984 770.898 167.924C768.488 167.105 766.097 166.192 763.686 165.391C761.242 164.59 758.955 163.472 756.863 161.813C754.755 160.134 752.38 159.222 749.789 159.094C746.429 158.914 743.266 158.06 740.326 156.158C739.682 155.732 738.868 155.433 738.132 155.4C736.544 155.33 735.113 154.888 733.62 154.275C732.01 153.603 730.205 153.473 728.56 152.894C727.114 152.376 726.058 150.832 724.369 150.779C723.817 150.768 723.101 150.547 722.775 150.126C721.241 148.215 719.158 147.76 717.096 147.079C715.417 146.537 713.774 145.846 712.377 144.596C709.845 142.345 706.904 141.308 703.727 141.15C701.955 141.058 700.307 140.63 698.649 139.863C697.605 139.372 696.384 139.347 695.252 139.042C694.503 138.839 693.652 138.709 693.059 138.227C690.968 136.531 688.679 135.507 686.182 134.855C684.9 134.509 683.697 133.601 682.61 132.733C680.024 130.669 677.171 129.408 674.033 128.988C673.266 128.878 672.412 128.88 671.768 128.472C669.47 127.053 666.947 126.852 664.442 126.595C663.023 126.453 661.83 125.846 660.832 124.717C660.292 124.104 659.684 123.547 659.144 122.915C656.2 119.566 652.68 117.351 648.618 116.254C647.071 115.828 645.695 115.18 644.445 114.083C643.376 113.14 642.169 112.42 641.066 111.514C639.469 110.203 637.783 109.173 635.779 108.944C634.16 108.761 632.889 107.89 631.639 106.774C628.599 104.024 625.279 101.813 621.381 100.926C619.482 100.493 617.78 99.4435 615.812 99.103C609.591 98.0188 604.731 94.2355 600.532 89.1493C599.095 87.4093 597.487 85.8163 595.912 84.224C595.502 83.8209 594.906 83.4892 594.355 83.4217C589.833 82.7853 586.652 79.5435 583.383 76.488C583.087 76.2188 582.843 75.8566 582.616 75.5136C581.023 73.1688 578.927 71.7163 576.381 70.9881C575.034 70.6037 573.945 69.8109 573.273 68.2743C572.857 67.3258 572.068 66.5954 571.416 65.7737C569.718 63.6712 568.07 61.5697 567.171 58.8063C566.777 57.595 565.877 56.6179 565.382 55.4422C564.616 53.5841 563.475 52.0568 561.92 51.1418C558.331 49.0388 556.111 45.4403 553.736 42.0455C552.549 40.3482 551.396 38.5763 550.141 36.9151C548.511 34.7576 546.779 32.6731 545.965 29.8927C545.793 29.2876 545.522 28.6052 545.112 28.2021C541.83 24.9583 540.555 20.1567 537.902 16.4178C536.682 14.701 535.783 12.7838 535.409 10.5763C534.99 8.10464 533.759 6.10553 531.963 4.69675C529.081 2.40113 527.536 -0.676035 527.112 -4.55799C527.083 -4.76541 527.054 -4.99167 527.008 -5.19943C526.495 -7.16527 525.624 -8.79978 523.867 -9.6249C521.679 -10.6655 519.886 -12.1871 518.337 -14.249C517.18 -15.7954 516.24 -17.281 516.047 -19.372C515.951 -20.3893 515.42 -21.4341 514.885 -22.3098C514.124 -23.5662 513.107 -24.6208 512.329 -25.8586C511.778 -26.7347 511.195 -27.7054 511.031 -28.724C510.511 -31.9686 509.586 -35.0522 508.408 -38.0656C507.533 -40.3207 507.313 -42.6755 507.328 -45.1008C507.338 -46.4544 506.826 -47.6117 506.027 -48.6431C502.471 -53.2275 498.983 -57.8669 495.411 -62.4516C494.464 -63.6552 493.905 -64.9639 493.937 -66.5803C494.056 -72.482 494.158 -78.3841 494.311 -84.2851C494.328 -85.1309 494.63 -85.9898 494.797 -86.8325C494.981 -87.6749 495.367 -88.551 495.317 -89.3605C494.914 -95.1035 497.115 -100.531 496.845 -106.252C496.761 -107.871 497.39 -109.212 498.4 -110.358C499.222 -111.281 500.012 -112.281 500.883 -113.128C503.7 -115.892 505.858 -119.158 507.623 -122.902C508.83 -125.472 509.853 -128.084 510.126 -130.842C510.418 -133.695 511.242 -136.386 511.599 -139.18C511.679 -139.818 511.909 -140.452 512.023 -141.089C512.267 -142.42 512.809 -143.556 513.648 -144.516C514.333 -145.311 514.969 -146.144 515.719 -146.825C517.834 -148.776 519.735 -150.956 521.589 -153.232C523.476 -155.563 525.373 -155.825 527.905 -154.421C528.252 -154.226 528.617 -154.049 528.93 -153.798C531.501 -151.81 534.229 -150.175 537.273 -149.287C538.438 -148.944 539.325 -148.098 540.142 -147.123C542.968 -143.719 546.333 -141.282 550.11 -139.345C553.787 -137.447 557.477 -135.398 560.389 -132.068C560.929 -131.455 561.621 -130.933 561.991 -130.193C564.05 -126.052 567.628 -124.231 571.318 -122.954C574.89 -121.697 578.134 -119.902 581.339 -117.844C583.702 -116.349 586.187 -115.058 588.707 -113.916C591.211 -112.775 593.908 -112.063 595.887 -109.786C599.928 -108.482 603.499 -105.477 608.058 -105.874C609.953 -106.043 611.917 -105.514 613.818 -105.156C615.785 -104.778 617.471 -103.748 618.705 -101.88C619.16 -101.194 619.819 -100.673 620.342 -100.042C623.347 -96.39 627.155 -94.3391 631.367 -93.2201C634.613 -92.365 637.651 -91.1755 640.349 -88.846C643.161 -86.4014 646.378 -84.9264 650.024 -84.8154C652.031 -84.7562 653.825 -84.062 655.385 -82.5827C657.503 -80.5657 659.937 -79.2757 662.724 -78.9187C664.11 -78.7404 665.336 -78.1328 666.455 -77.2077C668.035 -75.8973 669.794 -75.1473 671.689 -74.4887C674.248 -73.6098 676.662 -72.1509 679.114 -70.8981C680.522 -70.174 681.911 -69.3752 683.302 -68.6139C685.785 -67.2664 688.395 -66.4053 691.181 -66.8005C692.406 -66.9639 693.489 -66.754 694.512 -66.0189C695.848 -65.0518 697.329 -64.6271 698.917 -64.5199C702.794 -64.2726 706.617 -63.782 710.28 -62.0535C712.004 -61.229 714.078 -61.1874 716.001 -61.0734C718.558 -60.9279 720.942 -60.485 723.292 -59.1591C725.526 -57.9107 728.005 -57.1651 730.414 -56.3268C732.825 -55.5073 735.288 -54.8372 737.734 -54.1486C738.483 -53.9455 739.267 -53.8357 740.035 -53.7262C743.706 -53.2198 747.4 -52.9762 751.015 -52.1513C754.064 -51.4694 757.041 -50.5445 760.189 -50.6691C762.494 -49.5885 765.137 -49.554 767.139 -47.5582C767.844 -46.8483 768.755 -46.3787 769.598 -45.8728C771.136 -44.9581 772.674 -44.0246 774.247 -43.2032C776.333 -42.0894 778.348 -40.7702 780.863 -41.0016C781.751 -41.0777 782.728 -40.5503 783.624 -40.1562C786.162 -39.0146 788.684 -37.9484 791.497 -38.0234C793.104 -38.0662 794.496 -37.38 795.761 -36.2264C797.717 -34.4383 799.741 -32.7428 801.765 -31.0474C803.329 -29.7373 804.998 -28.7071 806.981 -28.2536C809.929 -27.5925 812.196 -25.4786 814.43 -23.3841C814.726 -23.1149 814.935 -22.7158 815.214 -22.4281C817.901 -19.5536 820.83 -17.1065 824.33 -15.5694C826.122 -14.7811 827.859 -13.7872 829.58 -12.7936C829.795 -12.6765 829.946 -11.8837 829.807 -11.6421C828.613 -9.65425 827.335 -7.72441 826.091 -5.77517C825.277 -5.22747 824.463 -4.69865 823.649 -4.15097C822.052 -2.99853 821.649 -1.27674 822.193 0.802536Z" fill="#FFF062"/>
<path d="M262.814 101.092C261.837 102.239 261.158 103.579 261.226 105.197C261.298 107.436 260.704 109.492 260.06 111.567C259.667 112.8 259.29 114.052 259.063 115.345C258.289 119.71 256.722 123.552 253.994 126.9C252.038 129.287 251.791 132.441 252.33 135.554C252.631 137.252 253.066 138.916 253.349 140.632C253.856 143.708 254.102 146.477 252.553 149.435C251.282 151.873 251.172 154.841 251.817 157.712C252.339 160.054 252.61 162.391 251.892 164.802C251.659 165.588 251.689 166.585 251.89 167.397C252.93 171.404 251.449 175.154 250.953 178.999C250.895 179.392 250.537 179.724 250.329 180.077C250.104 180.467 249.094 180.747 248.747 180.534C248.581 180.436 248.33 180.431 248.216 180.279C245.844 177.598 243.019 175.793 239.776 174.768C238.645 174.407 237.759 173.524 237.062 172.401C235.847 170.44 234.58 168.496 233.28 166.609C231.734 164.396 230.309 162.055 227.994 160.655C227.168 160.149 226.499 159.252 225.846 158.449C222.156 153.9 217.914 150.129 213.19 147.044C209.292 144.483 205.926 141.257 202.872 137.547C201.81 136.247 200.747 135.023 200.212 133.32C199.378 130.727 197.738 129.058 195.572 127.754C193.885 126.743 192.478 125.154 190.931 123.863C190.01 123.073 189.143 122.04 188.097 121.643C185.656 120.692 184.294 118.539 183.252 116.262C181.761 113.036 179.667 110.624 177.011 108.709C175.708 107.762 174.474 106.703 173.292 105.569C171.651 103.995 170.263 102.256 170.15 99.5644C170.074 97.5134 169.071 95.8009 167.913 94.3298C166.101 92.0369 164.629 89.5253 163.226 86.8834C161.759 84.0898 159.887 81.5137 157.927 79.1239C155.951 76.6961 154.195 74.1411 152.899 71.1817C151.922 68.9809 150.618 67.2812 148.393 66.409C146.45 65.6554 145.281 63.8644 145.146 61.4361C145.062 59.8173 144.351 58.5432 143.403 57.4147C142.471 56.3054 141.523 55.2145 140.608 54.0867C140.085 53.4557 139.378 52.8398 139.176 52.0836C138.522 49.6636 137.017 47.941 135.528 46.2752C133.122 43.5755 131.613 40.3862 130.581 36.774C129.924 34.5045 129.048 32.3057 128.222 30.0891C127.603 28.422 126.576 27.1039 125.084 26.3969C122.763 25.2784 120.425 24.2347 118.086 23.1911C116.709 22.5804 115.726 21.5265 115.626 19.8698C115.458 17.4033 114.816 15.1904 113.721 13.0812C113.334 12.3401 113.051 11.4506 112.984 10.6219C112.802 8.02345 111.751 6.19726 109.823 4.72939C107.565 3.01044 105.616 0.884028 104.487 -2.05317C103.915 -3.55013 102.725 -4.2886 101.449 -4.91599C100.289 -5.48464 99.7087 -6.60572 99.485 -7.96404C99.3808 -8.60544 99.2937 -9.26524 99.2731 -9.90495C99.2049 -11.5046 98.6802 -12.869 97.7843 -14.0904C97.2957 -14.7584 96.7904 -15.4267 96.3703 -16.1685C95.5778 -17.5383 95.4085 -19.1022 95.99 -20.5572C96.8 -22.5528 97.6264 -24.5292 97.7217 -26.7649C97.7778 -27.8919 98.2822 -28.8407 98.9186 -29.6929C101.138 -32.6942 101.041 -36.1936 100.475 -39.6835C100.208 -41.3812 99.5212 -42.9932 99.0021 -44.6396C98.5457 -46.0778 97.9544 -47.4623 97.6327 -48.9354C97.4646 -49.7286 97.7336 -50.6257 97.8347 -51.4886C97.8556 -51.695 97.9605 -51.9185 98.0643 -52.0856C100.57 -56.0026 101.246 -60.5017 101.273 -65.1643C101.295 -67.8903 101.945 -70.284 103.313 -72.5504C104.178 -73.9808 104.83 -75.6035 105.432 -77.2084C106.476 -80.0455 107.404 -82.9224 109.981 -84.5815C110.405 -84.855 110.655 -85.6209 110.818 -86.2194C111.617 -89.3622 112.217 -92.5466 113.4 -95.5877C114.07 -97.3228 114.146 -99.4273 114.219 -101.363C114.296 -103.561 114.306 -105.685 115.334 -107.695C115.682 -108.384 115.753 -109.417 115.619 -110.228C115.146 -113.34 116.45 -115.739 118.018 -118.021C118.294 -118.429 119.153 -118.675 119.601 -118.515C122.377 -117.538 125.133 -116.486 127.872 -115.34C128.967 -114.886 130.047 -114.507 131.233 -114.389C132.586 -114.267 133.901 -113.902 135.235 -113.688C137.987 -113.237 140.408 -112.117 142.558 -110.005C144.593 -108.009 147.075 -106.624 149.006 -104.441C149.857 -103.484 150.988 -103.123 152.136 -102.818C153.85 -102.351 155.588 -102.221 157.35 -102.468C158.525 -102.632 159.678 -102.553 160.79 -102.06C164.041 -100.66 167.31 -99.259 170.561 -97.8397C172.021 -97.2086 173.502 -96.7839 175.113 -96.9771C178.183 -97.3478 180.836 -96.1473 183.238 -94.1058C184.176 -93.316 185.046 -92.4523 186.018 -91.7182C187.634 -90.4823 189.337 -89.4891 191.322 -89.1294C193.539 -88.7275 195.235 -87.3395 196.584 -85.338C197.168 -84.4613 197.736 -83.5661 198.424 -82.819C199.112 -82.0718 199.849 -81.3049 200.694 -80.8366C204.152 -78.9055 207.503 -76.5815 211.476 -76.0879C211.676 -76.065 211.859 -76.0237 212.042 -75.9448C214.894 -74.6276 217.548 -72.6563 220.814 -72.7785C223.536 -71.6331 226.257 -70.4877 228.978 -69.3423C229.526 -69.1244 230.105 -68.7556 230.641 -68.8012C233.19 -69.0695 235.082 -67.4519 237.081 -66.1518C239.278 -64.7349 241.511 -63.4491 243.973 -62.685C244.904 -62.3842 245.851 -62.0642 246.712 -61.5768C250.566 -59.3557 254.765 -58.4625 258.964 -57.5506C262.23 -56.8455 265.427 -56.0478 268.159 -53.7552C268.62 -53.3698 269.145 -52.8704 269.68 -52.822C272.303 -52.6 274.181 -50.287 276.697 -49.7474C279.196 -49.2082 281.5 -48.0712 283.802 -46.8779C285.74 -45.8799 287.819 -45.2551 289.81 -44.3877C292.165 -43.3625 294.486 -42.2816 296.267 -40.1398C296.774 -39.5279 297.499 -38.9681 298.215 -38.7844C300.196 -38.2932 301.727 -37.0213 303.256 -35.6555C303.996 -34.9825 304.872 -34.4572 305.749 -33.9883C306.66 -33.4999 307.434 -32.8638 307.916 -31.8952C308.544 -30.6603 309.536 -30.0762 310.701 -29.7518C311.084 -29.6501 311.468 -29.6048 311.851 -29.4843C314.427 -28.6238 315.247 -26.9339 314.403 -24.0741C313.972 -22.6161 313.408 -21.2173 312.911 -19.7983C312.356 -19.659 311.704 -19.691 311.262 -19.3614C308.559 -17.2535 306.052 -14.9536 305.404 -11.0369C305.158 -10.4401 304.829 -9.88263 304.699 -9.24595C303.737 -4.6962 302.082 -0.649274 298.805 2.51883C297.372 3.91898 296.215 5.68196 295.419 7.79067C294.641 9.86213 293.934 11.747 294.439 14.0699C294.654 15.052 294.379 16.2499 294.091 17.2406C292.672 22.0256 291.82 26.9536 290.851 31.8605C290.087 35.7185 289.941 39.6454 290.179 43.5988C290.444 47.9288 291.144 52.2112 291.542 56.5251C291.653 57.6743 291.408 58.2335 290.629 58.6503C289.581 59.212 288.483 59.6788 287.516 60.355C286.362 61.1591 284.629 60.7482 283.946 62.295C283.437 63.4318 283.276 64.7823 283.05 66.0564C282.805 67.424 282.098 68.444 281.276 69.3864C280.025 70.8466 279.071 72.5197 278.813 74.5076C278.474 77.2084 277.39 79.4993 276.009 81.615C275.042 83.0998 274.608 84.7081 274.223 86.3926L274.241 86.3178C273.912 86.8564 273.6 87.4142 273.271 87.9529C270.79 88.9747 269.238 91.275 267.507 93.2896C265.896 95.1375 264.383 97.1566 263.728 99.7758L263.659 99.8684C263.349 100.295 263.074 100.684 262.814 101.092Z" fill="#FFF062"/>
<path d="M154.412 828.503C154.019 828.909 153.609 829.333 153.216 829.739C151.487 829.967 149.761 830.101 148.047 830.424C146.317 830.765 144.59 830.919 142.857 830.564C141.607 829.486 140.288 829.328 138.881 830.202C138.067 830.712 137.231 830.695 136.385 830.321L136.404 830.227C135.854 830.122 135.303 830.055 134.77 829.894C133.173 829.429 131.86 829.816 130.842 831.356C130.514 831.857 130.119 832.319 129.759 832.782C128.587 832.815 128.381 833.037 128.07 834.365C127.168 835.118 126.266 835.871 125.38 836.624C125.197 836.583 125.014 836.523 124.831 836.481C123.581 836.249 122.505 836.491 122.088 838.043C121.293 840.998 119.885 843.564 117.853 845.592C115.872 847.583 114.935 850.046 114.494 852.857C113.787 853.877 113.097 854.897 112.391 855.899C111.123 855.704 110.176 856.155 109.762 857.613C109.624 857.836 109.453 858.021 109.233 858.129C107.766 858.663 106.316 859.236 104.85 859.733C102.558 860.495 101.349 862.37 100.814 864.822C100.446 866.507 100.26 868.233 100.125 869.961C99.99 871.688 100.022 873.418 99.9872 875.147C98.0215 877.195 96.0884 879.281 94.0736 881.271C90.881 884.403 87.8687 887.727 85.1344 891.376C84.8933 891.71 84.6683 892.081 84.395 892.358C81.1842 895.565 79.0928 899.697 76.8698 903.714C76.1288 903.943 75.2419 903.944 74.6963 904.441C72.6009 906.279 71.2161 908.564 71.7041 911.751C69.852 913.97 68.0163 916.208 66.1475 918.427C64.0039 920.998 62.4864 924.051 60.8872 927.008L60.7158 927.212C60.417 927.92 60.1183 928.629 59.8199 929.318C59.112 929.567 58.387 929.835 57.6791 930.084C56.1793 930.599 55.0392 931.535 54.2702 933.155C52.9771 935.874 50.8668 937.618 48.3983 938.866C46.4475 937.679 45.1411 936.074 44.5067 933.504C43.8415 930.802 42.5867 928.294 41.5847 925.698C40.6625 923.292 39.6556 920.94 38.8517 918.479C38.4573 917.287 38.3503 915.949 38.2593 914.65C38.1394 913.125 38.2203 911.603 38.1339 910.079C38.028 907.858 37.4815 905.91 36.2305 904.042C34.3457 901.24 33.4771 897.838 32.7924 894.44C32.3208 892.099 32.0172 889.723 31.5957 887.383C31.3245 885.892 31.1389 884.309 30.5468 882.962C29.1551 879.775 28.2328 876.541 28.2382 872.95C28.2419 871.935 27.694 870.89 27.3293 869.886C26.3155 867.045 25.2671 864.26 25.0284 861.152C24.9489 860.117 24.553 858.999 24.0347 858.143C22.8845 856.258 23.0828 853.893 22.1337 851.994C21.2808 850.303 19.9717 848.829 19.3548 847.049C18.2954 843.981 16.9303 841.133 15.4135 838.339C14.51 836.666 13.6575 834.957 12.448 833.522C12.3172 833.369 12.1697 833.215 12.0731 833.026C10.0326 828.81 7.19421 825.162 5.01729 821.075C2.50195 816.343 2.35628 811.112 4.40087 805.983C4.78857 805.013 5.45877 804.143 6.12707 803.366C7.60128 801.628 9.05988 799.834 10.6976 798.288C16.3615 792.93 21.143 786.52 26.6434 780.972C29.5816 778.003 31.8609 774.514 33.2509 770.312C33.6603 769.098 34.2361 767.925 34.8607 766.828C35.5898 765.526 36.2021 764.204 36.667 762.728C37.2398 760.878 38.1278 759.166 38.8002 757.355C39.4193 755.694 40.4001 754.36 41.5459 753.142C42.8281 751.796 44.1267 750.468 45.3926 749.102C46.4016 748.032 47.0633 746.748 47.4293 745.194C47.8314 743.51 48.3172 741.828 48.9847 740.262C50.0033 737.876 50.9543 735.525 51.2423 732.861C51.3635 731.83 51.8698 730.787 52.3735 729.876C54.6828 725.729 56.0948 721.264 56.511 716.383C56.62 715.126 57.0488 713.78 57.6886 712.759C58.8297 710.939 59.539 708.961 60.1999 706.887C60.718 705.261 61.4527 703.678 62.3347 702.267C64.0122 699.574 65.178 696.533 67.2019 694.091C67.6995 693.481 67.9853 692.584 68.2027 691.761C68.709 689.891 69.1159 687.963 69.5891 686.073C70.0079 684.389 70.3443 682.647 70.9783 681.081C72.352 677.686 73.609 674.27 74.6511 670.719C75.1358 669.093 76.1024 667.627 76.803 666.08C77.2408 665.111 77.8632 664.127 77.9342 663.095C78.0986 660.748 79.1375 659.02 80.3938 657.296C81.1169 656.296 81.5935 655.064 82.036 653.87C83.2557 650.641 84.5412 647.471 86.7521 644.883C87.4204 644.107 87.9587 643.14 88.3631 642.17C89.1902 640.156 90.3793 638.45 91.5528 636.687C92.1393 635.816 92.8426 634.965 93.1805 633.975C94.1938 631.025 95.8973 628.709 98.0129 626.702C99.4122 625.357 100.018 623.508 100.376 621.541C100.497 621.355 100.65 621.208 100.722 621.002C102.884 615.01 102.835 614.934 106.833 610.897C109.822 607.873 111.82 604.228 112.877 599.944C113.205 598.634 113.729 597.516 114.585 596.575C115.988 595.061 117.277 593.338 118.859 592.11C122.003 589.692 123.982 586.178 126.239 582.933C127.239 581.505 127.857 579.882 127.643 578.072C127.298 575.245 128.252 572.744 129.747 570.8C131.294 568.801 132.329 566.434 133.808 564.433C135.425 562.246 137.256 560.271 139.004 558.201C139.673 557.406 140.358 556.63 141.076 555.873C142.82 554.066 144.446 552.237 144.406 549.246C144.405 548.476 144.892 547.564 145.357 546.915C147.834 543.543 150.115 540.016 153.003 537.028C158.165 531.68 163.146 526.12 168.21 520.656C169.202 519.586 170.113 518.42 171.218 517.539C175.301 514.256 177.921 509.627 180.326 504.88C181.111 503.317 181.876 501.866 183.087 500.743C184.451 499.473 185.749 498.202 186.539 496.356C186.855 495.629 187.863 495.443 188.626 495.797C189.339 496.112 190.033 496.521 190.764 496.817C191.527 497.134 192.102 497.653 192.556 498.395C193.09 499.309 193.675 500.167 194.209 501.099C195.162 502.772 195.88 504.536 195.754 506.62C195.725 507.259 195.761 507.955 195.899 508.579C196.469 511.016 197.529 513.218 199.74 513.977C203.297 515.177 205.735 517.896 208.07 520.82C208.576 521.451 208.928 522.229 209.349 522.952C210.076 524.226 210.65 525.667 211.548 526.757C212.807 528.249 213.542 529.937 213.854 531.917C214.003 532.842 214.54 533.605 215.323 533.752C217.874 534.236 219.131 536.649 220.854 538.339C222.495 539.932 223.642 541.967 224.45 544.221C224.816 545.206 225.095 546.303 225.174 547.357C225.362 550.463 226.175 553.338 227.324 556.106C228.505 558.969 228.948 561.893 228.249 565.019C227.826 566.909 227.736 568.882 227.413 570.812C226.901 573.772 226.671 576.908 226.895 579.902C227.051 582.105 226.875 584.189 226.782 586.349C226.603 590.257 226.824 594.191 226.896 598.122C226.923 599.251 227.44 600.183 227.906 601.132C228.549 602.461 229.292 603.811 229.597 605.265C230.01 607.192 230.475 609.025 231.242 610.826C231.658 611.775 231.919 612.946 231.881 613.998C231.701 617.943 233.478 621.138 234.85 624.475C235.664 626.447 236.748 628.274 237.816 630.082C238.221 630.767 238.879 631.325 239.541 631.696C242.204 633.254 244.321 635.308 245.224 638.692C245.442 639.505 245.724 640.432 246.248 640.988C248.101 642.905 248.568 645.453 249.102 648.021C249.99 651.33 251.267 654.383 253.187 657.11C254.261 658.636 255.301 660.142 256.821 661.113C258.473 662.181 259.143 663.849 259.32 665.864C259.386 666.712 259.486 667.579 259.553 668.407C259.526 668.914 259.498 669.44 259.471 669.966C259.207 671.446 258.943 672.927 258.662 674.388C257.791 675.273 257.234 676.371 257.09 677.703C256.842 680.029 256.46 682.353 256.815 684.692C256.626 685.76 256.438 686.809 256.249 687.858C255.286 689.155 255.322 690.679 255.425 692.223C254.079 698.401 253.467 704.669 253.992 711.016C254.126 712.654 253.747 714.057 252.489 715.009C251.13 716.016 250.3 717.353 249.779 719.11C249.42 720.306 248.58 721.324 247.956 722.402C247.314 723.498 246.673 724.576 246.033 725.653C245.846 725.8 245.691 726.004 245.602 726.246C245.445 726.582 245.272 726.879 245.065 727.176C243.97 728.376 244.056 729.919 244.075 731.462C243.952 731.722 243.83 731.983 243.724 732.244C242.716 734.95 241.823 737.734 240.434 740.244C240.33 740.412 240.309 740.637 240.254 740.843L240.049 741.064C239.741 741.396 239.433 741.747 239.142 742.08L238.899 742.47C237.907 743.559 237.56 744.981 237.197 746.403C236.979 747.264 237.18 748.057 237.668 748.763C237.418 752.048 237.403 755.301 238.191 758.532C238.501 759.779 238.44 761.132 238.665 762.415C239.367 766.622 239.021 770.489 237.234 774.477C235.323 778.763 234.125 783.439 234.059 788.365C234.027 790.789 233.428 793.09 232.613 795.349C230.803 800.464 229.825 805.822 229.381 811.266C229.161 813.876 228.257 816.377 228.554 819.053C228.626 819.637 228.327 820.346 228.048 820.904C227.265 822.43 226.415 823.88 225.582 825.367C224.905 826.576 223.887 827.27 222.65 827.188C217.353 826.819 212.209 827.956 207.034 828.999C201.556 830.111 196.195 829.533 191.131 826.723C189.351 824.543 187.026 823.632 184.507 823.261C182.421 822.956 180.298 822.838 178.194 822.626C176.44 822.441 174.729 822.67 173.122 823.502C171.532 824.335 169.881 824.885 168.153 825.094C166.305 824.643 164.437 824.324 162.641 823.742C160.147 822.921 158.178 823.483 156.787 826.069C155.432 826.06 154.628 826.909 154.412 828.503Z" fill="#FFF062"/>
</svg>
