<svg width="386" height="273" viewBox="0 0 386 273" fill="none" xmlns="http://www.w3.org/2000/svg">
<path d="M286.281 116.434C285.356 117.373 284.46 118.326 283.507 119.223C282.774 119.902 282.213 120.64 281.834 121.576C281.621 122.141 281.122 122.644 280.625 123.037C279.763 123.713 279.531 124.513 279.453 125.553C279.3 127.437 278.487 129.211 278.821 131.216C279.117 132.942 278.549 134.735 278.915 136.518C279.073 137.285 278.969 138.115 278.882 138.905C278.761 139.887 278.843 140.805 279.068 141.781C279.24 142.548 279.266 143.381 279.121 144.155C278.78 146.091 279.001 147.969 279.207 149.902C279.412 151.849 279.476 153.696 280.881 155.32C281.612 156.167 281.818 157.351 281.867 158.517C281.973 161.101 282.007 163.682 282.791 166.182C282.467 167.993 282.952 169.641 283.651 171.32C283.994 172.146 283.9 173.254 283.695 174.166C283.233 176.363 283.683 178.329 284.94 180.158C285.122 180.425 285.289 180.706 285.427 181C286.16 182.458 286.792 183.928 286.7 185.619C286.648 186.784 287.102 187.834 287.816 188.764C288.601 189.807 289.516 190.783 290.17 191.892C291.213 193.648 292.597 194.911 294.582 195.631C295.325 195.895 296.062 196.424 296.597 197.003C298.54 199.082 300.883 200.6 303.537 201.639C306.292 202.694 308.458 204.389 309.875 206.887C310.75 208.418 312.338 209.588 312.486 211.506C313.613 212.666 314.697 213.854 315.883 214.96C316.603 215.627 317.485 216.13 318.264 216.729C318.915 217.227 319.741 217.647 320.145 218.307C321.37 220.316 323.799 221.1 325.084 223.041C325.335 223.421 325.833 223.695 326.275 223.898C330.366 225.729 333.979 228.452 338.249 229.953C338.849 230.16 339.401 230.615 339.823 231.081C341.032 232.438 342.39 233.603 343.922 234.633C344.746 235.177 345.451 235.871 346.2 236.525C347.924 238.044 349.56 239.659 351.608 240.811C352.163 241.113 352.598 241.663 353.005 242.157C353.314 242.524 353.535 242.973 353.771 243.407C355.227 246.087 357.272 248.113 360.375 248.994C360.847 249.129 361.288 249.401 361.729 249.632C362.782 250.181 363.645 250.906 364.054 252.052C364.489 253.268 364.94 254.47 365.491 255.647C365.822 256.362 366.209 257.133 366.774 257.671C367.987 258.834 368.998 260.061 369.571 261.627C369.817 262.27 370.356 262.628 371.088 262.726C371.418 262.774 371.792 262.768 372.062 262.926C375.076 264.68 377.928 266.624 379.927 269.496C380.094 269.735 380.072 270.109 380.109 270.429C380.158 270.846 379.685 271.489 379.325 271.523C377.336 271.705 375.361 271.957 373.359 272.055C372.38 272.105 371.378 271.905 370.402 271.76C368.925 271.536 367.451 271.201 365.959 270.977C363.149 270.559 360.369 270.045 357.73 268.924C355.876 268.137 353.913 267.792 351.918 267.544C346.61 266.882 341.367 265.819 336.325 264.08C334.239 263.358 332.134 262.899 329.945 263.021C327.368 263.164 325.012 262.284 322.563 261.776C322.076 261.669 321.562 261.506 321.179 261.221C319.081 259.68 316.614 259.339 314.103 259.067C310.428 258.673 306.834 257.879 303.316 256.879C300.899 256.192 298.479 255.657 295.998 255.316C292.168 254.781 288.445 253.957 284.955 252.29C283.915 251.798 282.787 251.345 281.655 251.169C279.304 250.775 277.177 249.941 275.099 248.859C274.245 248.411 273.216 248.113 272.24 248.01C269.082 247.683 265.924 247.369 262.896 246.295C262.139 246.03 261.246 246.096 260.414 245.982C259.755 245.885 259.065 245.83 258.466 245.595C255.81 244.612 253.095 243.753 250.574 242.495C248.011 241.222 245.294 240.445 242.606 239.656C240.532 239.045 238.475 238.365 236.401 237.769C234.299 237.171 232.331 236.34 230.529 235.111C228.713 233.867 226.67 233.187 224.442 233.087C221.554 232.946 218.834 232.308 216.302 230.897C215.748 230.581 215.047 230.358 214.415 230.332C213.05 230.276 211.819 229.946 210.534 229.49C209.149 228.991 207.598 228.89 206.182 228.459C204.939 228.073 204.027 226.931 202.575 226.888C202.101 226.878 201.485 226.713 201.204 226.402C199.88 224.988 198.089 224.646 196.316 224.139C194.872 223.735 193.458 223.221 192.254 222.295C190.073 220.627 187.542 219.855 184.812 219.73C183.289 219.658 181.871 219.338 180.444 218.768C179.546 218.403 178.496 218.382 177.523 218.154C176.878 218.002 176.147 217.904 175.636 217.547C173.835 216.29 171.865 215.528 169.718 215.041C168.615 214.783 167.579 214.11 166.642 213.467C164.415 211.937 161.96 210.999 159.262 210.681C158.602 210.599 157.869 210.598 157.314 210.295C155.336 209.242 153.167 209.088 151.014 208.892C149.793 208.784 148.767 208.333 147.906 207.497C147.441 207.043 146.917 206.63 146.452 206.163C143.912 203.683 140.882 202.04 137.389 201.221C136.058 200.903 134.873 200.421 133.797 199.608C132.876 198.91 131.837 198.375 130.887 197.704C129.511 196.732 128.059 195.968 126.337 195.794C124.944 195.655 123.85 195.009 122.773 194.182C120.153 192.145 117.295 190.505 113.943 189.841C112.31 189.517 110.844 188.738 109.152 188.482C103.803 187.666 99.6168 184.862 95.9961 181.098C94.7563 179.81 93.3705 178.631 92.0135 177.452C91.6599 177.153 91.1471 176.907 90.6735 176.856C86.7853 176.375 84.0432 173.974 81.2265 171.711C80.9716 171.512 80.7612 171.244 80.565 170.99C79.1903 169.256 77.3854 168.179 75.1957 167.635C74.0364 167.348 73.0989 166.76 72.5177 165.624C72.1579 164.923 71.4783 164.382 70.9153 163.774C69.4507 162.218 68.0293 160.663 67.2506 158.621C66.909 157.726 66.1326 157.003 65.7042 156.134C65.0414 154.761 64.0574 153.631 62.719 152.952C59.6293 151.391 57.7123 148.729 55.663 146.218C54.6383 144.962 53.6434 143.652 52.5607 142.423C51.1545 140.826 49.661 139.283 48.9544 137.229C48.8052 136.782 48.5708 136.278 48.2172 135.979C45.3889 133.577 44.2809 130.03 41.9922 127.264C40.939 125.994 40.1621 124.577 39.8353 122.947C39.4693 121.121 38.406 119.643 36.8592 118.599C34.3764 116.897 33.0414 114.622 32.6676 111.756C32.642 111.603 32.6166 111.436 32.5766 111.283C32.1312 109.83 31.3787 108.622 29.8665 108.009C27.9834 107.235 26.4384 106.108 25.1027 104.582C24.1045 103.438 23.2924 102.339 23.1221 100.796C23.0366 100.044 22.5775 99.272 22.1159 98.6244C21.4586 97.6952 20.5826 96.9144 19.9106 95.9989C19.4346 95.3509 18.9313 94.6331 18.7882 93.8808C18.3331 91.4848 17.5303 89.2067 16.5108 86.9797C15.7533 85.3131 15.5581 83.5746 15.5654 81.7846C15.5712 80.7856 15.1282 79.9302 14.4388 79.167C11.3715 75.7747 8.36263 72.342 5.28101 68.9494C4.46472 68.0588 3.98079 67.0915 4.00482 65.8986C4.09255 61.543 4.16582 57.1871 4.28231 52.8321C4.29488 52.2079 4.55216 51.5748 4.69413 50.9532C4.85048 50.3319 5.17996 49.6863 5.13447 49.0886C4.77398 44.8489 6.65241 40.8486 6.40667 36.625C6.33005 35.4301 6.86776 34.4417 7.73336 33.5988C8.43745 32.9191 9.11392 32.1834 9.86003 31.5601C12.2742 29.5272 14.1206 27.1221 15.6289 24.3632C16.6595 22.469 17.5325 20.5438 17.7605 18.5085C18.0042 16.4041 18.7059 14.4199 19.0063 12.3583C19.0733 11.8879 19.2697 11.42 19.3654 10.9501C19.5722 9.96898 20.0349 9.13186 20.7539 8.42474C21.3411 7.83986 21.8856 7.22638 22.5286 6.72588C24.341 5.29143 25.9699 3.68672 27.557 2.01182C29.1737 0.295896 30.8029 0.106644 32.9825 1.14968C33.2817 1.29448 33.5954 1.42572 33.865 1.61155C36.0791 3.08547 38.4279 4.29841 41.0467 4.96174C42.0484 5.21783 42.8124 5.8438 43.5171 6.56571C45.9546 9.0849 48.8525 10.8918 52.1029 12.3311C55.2676 13.7409 58.4445 15.262 60.9551 17.7271C61.4206 18.1806 62.0169 18.5672 62.3366 19.1149C64.1161 22.1759 67.1957 23.5284 70.3696 24.4805C73.4432 25.4166 76.2354 26.7495 78.9951 28.2761C81.0295 29.3856 83.1677 30.3445 85.3369 31.1931C87.4917 32.0414 89.811 32.5738 91.5175 34.2595C94.9931 35.2315 98.0694 37.4583 101.987 37.1764C103.615 37.0565 105.304 37.4514 106.939 37.7202C108.63 38.004 110.082 38.7688 111.147 40.1502C111.54 40.6576 112.107 41.0438 112.558 41.5108C115.15 44.2135 118.428 45.7365 122.05 46.5727C124.842 47.2118 127.456 48.0971 129.78 49.823C132.203 51.6342 134.972 52.7307 138.105 52.8215C139.83 52.8702 141.373 53.3869 142.718 54.4825C144.543 55.9764 146.638 56.9345 149.035 57.2048C150.226 57.3398 151.281 57.7912 152.245 58.4767C153.606 59.4477 155.12 60.0056 156.75 60.4963C158.952 61.1513 161.03 62.2339 163.14 63.1646C164.351 63.7024 165.548 64.2954 166.745 64.8607C168.882 65.8613 171.127 66.5032 173.521 66.2184C174.573 66.1008 175.505 66.2584 176.385 66.8034C177.536 67.5204 178.81 67.8375 180.174 67.9205C183.508 68.1125 186.794 68.484 189.947 69.7687C191.43 70.3814 193.213 70.4173 194.865 70.506C197.064 70.6197 199.114 70.9524 201.136 71.9368C203.06 72.8636 205.191 73.42 207.265 74.0446C209.338 74.6553 211.456 75.156 213.56 75.6702C214.205 75.8219 214.879 75.9049 215.539 75.9876C218.696 76.3703 221.87 76.5591 224.979 77.1768C227.601 77.6875 230.162 78.3775 232.868 78.2932C234.851 79.0964 237.123 79.1283 238.848 80.6062C239.456 81.1319 240.24 81.4807 240.966 81.8562C242.29 82.535 243.613 83.2278 244.967 83.8379C246.763 84.665 248.498 85.6437 250.659 85.479C251.422 85.425 252.263 85.8166 253.034 86.1097C255.217 86.9585 257.388 87.7516 259.805 87.7031C261.186 87.6754 262.384 88.1853 263.475 89.0399C265.16 90.3644 266.903 91.6207 268.647 92.877C269.994 93.8477 271.431 94.6121 273.136 94.9518C275.672 95.4469 277.625 97.0126 279.55 98.564C279.805 98.7634 279.986 99.0585 280.226 99.2715C282.542 101.4 285.066 103.213 288.078 104.356C289.62 104.942 291.115 105.68 292.596 106.417C292.781 106.504 292.913 107.09 292.795 107.268C291.773 108.732 290.68 110.153 289.615 111.589C288.917 111.991 288.219 112.38 287.52 112.782C286.151 113.629 285.809 114.898 286.281 116.434Z" fill="#FFF062"/>
</svg>
