<svg width="196" height="190" viewBox="0 0 196 190" fill="none" xmlns="http://www.w3.org/2000/svg">
 <path d="M145.35 187.783C144.433 187.598 143.774 188.195 143.034 188.499C142.353 188.763 141.723 188.64 141.155 188.253C140.616 187.882 139.918 187.549 139.627 187.015C138.085 184.278 134.773 183.032 133.481 180.092C133.164 179.364 132.631 178.715 132.141 178.053C131.161 176.729 130.063 175.541 128.54 174.747C126.717 173.808 125.424 172.339 124.481 170.571C124.176 169.996 123.726 169.488 123.45 168.913C122.566 167.105 121.3 165.692 119.479 164.698C118.611 164.223 117.892 163.514 117.128 162.902C116.462 162.375 116.015 161.714 115.903 160.865C115.79 160.03 115.46 159.302 114.707 158.829C112.093 157.194 110.46 154.719 108.826 152.299C106.815 149.303 104.643 146.47 101.974 144.002C101.254 143.335 100.448 142.653 100.034 141.812C98.9286 139.541 96.9603 138.003 95.2702 136.221C92.6931 133.49 89.9699 130.868 87.3783 128.138C86.5474 127.261 85.6824 126.647 84.4639 126.442C84.0196 126.363 83.5372 126.035 83.271 125.682C82.3884 124.513 81.4336 123.355 80.7839 122.052C79.7607 120.005 78.6925 118.055 77.0726 116.357C76.326 115.579 75.9906 114.379 75.6092 113.316C75.2688 112.366 74.7666 111.592 73.8863 111.02C73.4888 110.762 73.0351 110.433 72.8276 110.027C71.7486 107.896 69.8914 106.554 67.8724 105.389C65.2563 103.88 62.9911 102.085 61.4621 99.4457C60.4057 97.6205 59.0291 95.983 57.7693 94.2647C57.4895 93.8705 57.1968 93.4066 56.7838 93.204C55.018 92.322 53.9944 91.0109 53.6011 89.1157C53.497 88.5724 52.8894 88.0328 52.3788 87.6756C50.066 86.1025 48.713 84.0076 48.2493 81.32C48.1209 80.5542 47.6607 79.8372 47.2867 79.122C46.7605 78.1122 46.0457 77.1819 45.6785 76.1338C44.8216 73.688 43.5726 71.4288 42.4544 69.1027C41.5155 67.1549 40.4271 65.4955 38.613 64.1545C37.4796 63.299 36.7306 61.924 35.9063 60.714C35.2498 59.7433 34.5621 58.8968 33.3619 58.498C32.1759 58.1133 31.4168 57.2376 31.0512 56.1062C30.4566 54.207 29.5847 52.5103 27.7219 51.4459C27.1247 51.1008 26.9797 50.4457 26.7185 49.8437C25.2884 46.5816 23.5969 43.4391 21.3673 40.5911C20.0632 38.9273 18.6866 37.2899 17.2066 35.7891C16.4171 34.9961 15.3643 34.4198 14.3544 33.8583C12.9035 33.052 11.4366 32.3286 10.1348 31.2616C8.56381 29.9949 7.13738 28.6894 6.47116 26.7749C5.96797 25.3354 4.55996 24.5439 3.77913 23.3209C3.13788 22.3088 3.10692 20.9898 3.92882 20.1738C5.32318 18.7864 6.74602 17.4135 8.19677 16.0828C9.66219 14.7385 10.9562 13.3352 11.5425 11.3626C11.8048 10.4798 12.5255 9.68943 13.1444 8.95253C13.7636 8.20177 14.6239 7.62239 15.2006 6.84303C16.1318 5.59899 17.3115 4.87337 18.8441 4.47407C20.29 4.10075 21.7381 3.6165 23.0607 2.93543C24.8918 2.00092 26.7145 1.48257 28.8086 1.77454C29.5974 1.88757 30.5774 1.79633 31.2322 1.42095C32.9632 0.456679 34.7305 0.547722 36.5672 0.765111C37.5573 0.882195 38.566 0.791558 39.5583 0.797656C40.2177 0.90808 40.9374 0.880896 41.5222 1.12858C44.1035 2.22134 46.7139 3.30081 49.2051 4.58604C51.0273 5.52474 52.8418 6.13023 54.9124 6.15805C59.4131 6.22095 63.9277 6.31193 68.4228 6.65225C69.0834 6.70718 69.7619 6.58204 70.4114 6.47022C71.9266 6.22321 73.3926 6.28052 74.8338 6.85075C75.5899 7.15739 76.4473 7.43831 77.2533 7.41293C80.5485 7.34052 83.4099 8.81362 86.4271 9.69313C87.2136 9.91711 87.9363 10.459 88.7395 10.5723C91.9229 11.0527 94.8181 12.2767 97.6822 13.6111C99.0217 14.2347 100.48 14.6666 101.925 15.0565C102.898 15.312 103.812 15.6079 104.649 16.2076C105.159 16.5787 105.857 16.9258 106.461 16.9241C108.605 16.9117 110.326 17.8762 112.031 18.8958C113.069 19.5134 114.171 19.7577 115.349 19.8369C117.188 19.9572 119.011 20.1188 120.849 20.2807C123.405 20.4848 125.78 21.1293 127.581 23.0806C128.778 24.3675 130.277 24.9112 132.063 24.8084C133.921 24.707 135.726 25.0348 137.5 25.5285C139.431 26.0669 141.333 26.5771 143.357 26.8121C144.806 26.994 146.139 27.9228 147.601 28.1882C151.369 28.9024 150.904 29.8783 151.979 32.1897C152.738 33.8146 153.484 35.3284 154.824 36.6459C156.093 37.8926 156.808 39.5168 157.029 41.3946C157.275 43.4672 158.041 45.4532 159.693 46.9851C160.158 47.4247 160.723 47.9773 160.826 48.5483C161.253 50.916 162.816 52.6127 164.393 54.2542C165.718 55.6269 166.535 57.1976 166.686 58.9769C167.041 63.5079 168.948 67.3347 171.943 70.7394C172.365 71.2197 172.786 71.7555 173.048 72.3297C173.751 73.8287 174.761 75.1119 175.902 76.2866C177.297 77.7302 178.371 79.4032 178.938 81.2325C179.533 83.1317 180.579 84.7486 181.538 86.4331C182.177 87.5562 182.873 88.6664 183.599 89.7496C184.158 90.5796 184.413 91.4729 184.595 92.448C184.869 93.855 185.46 95.213 185.719 96.6198C186.03 98.319 186.721 99.7067 188.316 100.544C189.397 101.121 190.114 101.94 190.64 102.991C191.22 104.155 191.903 105.265 192.483 106.428C193.243 107.97 193.414 109.5 192.319 111.004C190.973 112.837 190.595 115.188 188.879 116.847C188.263 117.431 188.231 118.318 188.473 119.128C188.878 120.482 188.71 121.672 187.455 122.563C186.451 124.569 184.663 126.198 184.442 128.594C184.388 129.134 183.773 129.677 183.304 130.112C182.835 130.546 182.211 130.839 181.671 131.217C180.344 132.134 178.458 132.22 177.647 133.897C176.988 135.23 174.958 135.328 174.594 136.958C173.745 137.704 172.895 138.45 172.06 139.21C171.258 139.763 170.342 140.23 169.667 140.897C166.658 143.917 163.733 147.022 162 150.942C161.186 152.785 159.977 154.246 158.3 155.391C157.892 155.675 157.483 155.958 157.117 156.283C155.637 157.641 154.409 159.337 154.213 161.221C153.999 163.27 153.203 164.947 152.022 166.477C151.091 167.694 150.533 168.959 150.303 170.412C149.955 172.694 149.023 174.66 147.278 176.345C145.664 177.895 145.048 179.936 145.723 182.142C146.209 183.706 146.306 185.304 146.303 186.914L146.346 186.887C145.628 186.845 145.206 187.1 145.277 187.865L145.35 187.783Z" fill="#FFF062"/>
</svg>
